<?xml version="1.0" standalone="no"?>
<!DOCTYPE svg PUBLIC "-//W3C//DTD SVG 1.1//EN" "http://www.w3.org/Graphics/SVG/1.1/DTD/svg11.dtd" >
<svg xmlns="http://www.w3.org/2000/svg" xmlns:xlink="http://www.w3.org/1999/xlink" version="1.1">
<metadata>
Created by FontForge 20161013 at Tue Jan 31 20:37:29 2017
 By ,,,
Copyright 1990 as an unpublished work by Bitstream Inc.  All rights reserved.  Confidential.
</metadata>
<defs>
<font id="AmerigoBT-RomanA" horiz-adv-x="500" >
  <font-face 
    font-family="Bitstream Amerigo"
    font-weight="400"
    font-stretch="normal"
    units-per-em="1000"
    panose-1="0 0 0 0 0 0 0 0 0 0"
    ascent="750"
    descent="-250"
    x-height="463"
    cap-height="655"
    bbox="-172 -236 1000 939"
    underline-thickness="61"
    underline-position="-162"
    unicode-range="U+000D-FB02"
  />
<missing-glyph horiz-adv-x="256" 
 />
    <glyph glyph-name=".notdef" horiz-adv-x="256" 
 />
    <glyph glyph-name=".null" horiz-adv-x="0" 
 />
    <glyph glyph-name=".null" horiz-adv-x="0" 
 />
    <glyph glyph-name="nonmarkingreturn" unicode="&#xd;" horiz-adv-x="250" 
 />
    <glyph glyph-name="space" unicode=" " horiz-adv-x="256" 
 />
    <glyph glyph-name="exclam" unicode="!" horiz-adv-x="257" 
d="M196 655l-37 -500h-38l-38 500h113zM137 103q59 0 59 -58q0 -25 -15 -39t-44 -14q-25 0 -39.5 13.5t-14.5 39.5t15 42t39 16z" />
    <glyph glyph-name="quotedbl" unicode="&#x22;" horiz-adv-x="288" 
d="M103 430h-57v270h57v-270zM242 430h-58v270h58v-270z" />
    <glyph glyph-name="numbersign" unicode="#" horiz-adv-x="769" 
d="M369 481h127l82 230h70l-80 -230h150l-21 -60h-152l-46 -133h161l-21 -60h-162l-81 -229h-71l82 229h-129l-82 -229h-70l81 229h-156l21 60h156l47 133h-167l21 60h168l82 230h71zM346 421l-46 -133h128l47 133h-129z" />
    <glyph glyph-name="dollar" unicode="$" horiz-adv-x="512" 
d="M264 727v-64q8 0 15.5 0.5t15.5 0.5q76 0 139 -20v-116l-100 76q-14 10 -26.5 15t-29.5 5q-3 0 -6.5 -0.5t-7.5 -0.5v-244q47 -27 81.5 -49.5t57.5 -45.5t34.5 -50t11.5 -62q0 -78 -47.5 -126.5t-137.5 -57.5v-57h-28v57q-44 0 -87 7t-88 21v115l107 -84q26 -20 68 -20
v255q-41 26 -72 48.5t-52 46t-31.5 50t-10.5 59.5q0 70 43.5 117t122.5 58v66h28zM236 618q-84 -22 -84 -109q0 -37 21 -61.5t63 -51.5v222zM264 31q49 11 75 41t26 73q0 35 -25 63t-76 58v-235z" />
    <glyph glyph-name="percent" unicode="%" horiz-adv-x="512" 
d="M152 662q56 0 91 -41.5t35 -111.5q0 -69 -35 -111.5t-92 -42.5q-27 0 -49.5 11.5t-39 31.5t-25.5 48t-9 61q0 34 9.5 62.5t26 49t39.5 32t49 11.5zM152 632q-27 0 -44.5 -32t-17.5 -93q0 -59 17 -90t45 -31q29 0 46.5 32t17.5 95q0 57 -18 88t-46 31zM520 549l-495 -465
l-15 16l493 466zM368 290q56 0 91 -41.5t35 -110.5q0 -34 -9.5 -62t-26 -48t-39.5 -31t-50 -11q-57 0 -91 41.5t-34 107.5q0 34 9.5 62.5t26.5 49t39.5 32t48.5 11.5zM368 259q-27 0 -44.5 -31.5t-17.5 -91.5q0 -58 16.5 -89t45.5 -31t46.5 32t17.5 94q0 56 -18 86.5
t-46 30.5z" />
    <glyph glyph-name="ampersand" unicode="&#x26;" horiz-adv-x="641" 
d="M258 383q79 64 79 148q0 45 -21.5 70t-58.5 25q-41 0 -63 -25t-22 -72q0 -35 22.5 -68.5t63.5 -77.5zM491 129q36 53 36 144q0 32 -17 56.5t-47 60.5h125q2 -21 3.5 -40.5t1.5 -37.5q0 -66 -18.5 -121t-53.5 -96q32 -35 61 -59t58 -36h-145l-41 39q-70 -51 -178 -51
q-54 0 -98 14t-75.5 38.5t-48.5 57.5t-17 71q0 55 36 97t110 76q-42 45 -64 85.5t-22 86.5q0 69 43.5 109.5t118.5 40.5q72 0 113.5 -37t41.5 -99q0 -50 -34.5 -92.5t-102.5 -73.5zM201 322q-79 -69 -79 -148q0 -63 43.5 -104t116.5 -41q86 0 147 39z" />
    <glyph glyph-name="quotesingle" unicode="'" horiz-adv-x="149" 
d="M103 430h-57v270h57v-270z" />
    <glyph glyph-name="parenleft" unicode="(" horiz-adv-x="262" 
d="M237 708q-51 -84 -78 -198.5t-27 -259.5t27 -259.5t78 -198.5q-189 133 -189 461q0 163 48 277.5t141 177.5z" />
    <glyph glyph-name="parenright" unicode=")" horiz-adv-x="262" 
d="M27 708q93 -63 141 -177.5t48 -277.5q0 -328 -189 -461q51 85 78 199t27 259t-27 259t-78 199z" />
    <glyph glyph-name="asterisk" unicode="*" horiz-adv-x="322" 
d="M184 708l-23 -154l-23 154h46zM294 647l-129 -92l94 126zM320 526l-155 24l155 23v-47zM292 453l-34 -33l-92 125zM184 390h-46l23 154zM67 418l-34 33l124 93zM156 550l-155 -24v47zM158 555l-125 93l32 32z" />
    <glyph glyph-name="plus" unicode="+" horiz-adv-x="833" 
d="M446 327h263v-57h-263v-270h-58v270h-264v57h264v269h58v-269z" />
    <glyph glyph-name="comma" unicode="," horiz-adv-x="256" 
d="M97 -136q41 55 42 130q-25 0 -39 14t-14 39q0 59 57 59q60 0 60 -82q0 -28 -8 -54t-22 -47.5t-33.5 -36.5t-42.5 -22z" />
    <glyph glyph-name="hyphen" unicode="-" horiz-adv-x="275" 
d="M243 284v-75h-211v75h211z" />
    <glyph glyph-name="period" unicode="." horiz-adv-x="256" 
d="M88 51q0 31 16 48.5t43 17.5q26 0 40.5 -17t14.5 -49q0 -59 -60 -59q-54 0 -54 59z" />
    <glyph glyph-name="slash" unicode="/" horiz-adv-x="231" 
d="M267 649l-259 -711l-43 15l258 712z" />
    <glyph glyph-name="zero" unicode="0" horiz-adv-x="512" 
d="M34 329q0 161 62 247.5t170 86.5q100 0 156 -87t56 -252q0 -164 -61 -251.5t-169 -87.5q-103 0 -158.5 87t-55.5 257zM256 619q-63 0 -92 -75t-29 -227q0 -146 27.5 -217.5t88.5 -71.5t93.5 71t32.5 212q0 159 -27.5 233.5t-93.5 74.5z" />
    <glyph glyph-name="one" unicode="1" horiz-adv-x="512" 
d="M322 132q0 -26 4.5 -57t32.5 -75h-164q28 45 33.5 79.5t5.5 65.5v12v392h-148q36 12 95 41.5t141 76.5v-535z" />
    <glyph glyph-name="two" unicode="2" horiz-adv-x="512" 
d="M353 74q51 0 114 66l-20 -140h-419q76 78 134.5 145t98.5 125.5t60.5 109.5t20.5 97q0 68 -30.5 106t-83.5 38q-19 0 -34.5 -6.5t-34.5 -21.5l-93 -75v120q98 24 177 24q98 0 151 -46t53 -125q0 -41 -19 -85.5t-56.5 -95t-93 -109t-127.5 -127.5h202z" />
    <glyph glyph-name="three" unicode="3" horiz-adv-x="512" 
d="M288 344q81 -11 124 -53.5t43 -108.5q0 -94 -63 -145t-185 -51q-78 0 -161 21v127l97 -85q25 -22 60 -22q33 0 60.5 10.5t48 29.5t32 46.5t11.5 60.5q0 138 -168 141q78 45 114.5 88t36.5 103q0 50 -33 81t-93 31q-22 0 -36 -6.5t-29 -19.5l-92 -78v121q90 26 179 26
q99 0 150 -39t51 -107q0 -55 -37.5 -99t-109.5 -72z" />
    <glyph glyph-name="four" unicode="4" horiz-adv-x="512" 
d="M397 252h93v-69h-93v-59q0 -37 8.5 -67.5t28.5 -56.5h-156q38 61 38 129v54h-313q146 238 322 457l72 25v-413zM96 252h220v311z" />
    <glyph glyph-name="five" unicode="5" horiz-adv-x="512" 
d="M435 648v-79h-300v-181q65 20 120 20q97 0 152 -54.5t55 -146.5q0 -101 -64.5 -160.5t-183.5 -59.5q-75 0 -148 19v127l99 -85q25 -22 57 -22q29 0 55 12t45 33.5t30 53t11 70.5q0 79 -43 121.5t-124 42.5q-19 0 -46.5 -3.5t-64.5 -9.5v302h350z" />
    <glyph glyph-name="six" unicode="6" horiz-adv-x="512" 
d="M468 607q-22 5 -42 7.5t-39 2.5q-116 0 -173.5 -63t-70.5 -200q68 34 143 34q41 0 75.5 -14t59.5 -39t39.5 -60t14.5 -78q0 -47 -16 -86t-44.5 -66.5t-68.5 -43t-88 -15.5q-107 0 -163.5 72t-56.5 215q0 91 20.5 163t57.5 122.5t87 77t108 26.5q49 0 87 -13t70 -42z
M141 326q-3 -39 -3 -65q0 -122 28.5 -180t96.5 -58q54 0 82.5 40.5t28.5 118.5q0 157 -147 157q-35 0 -86 -13z" />
    <glyph glyph-name="seven" unicode="7" horiz-adv-x="512" 
d="M488 655l-122 -269q-28 -63 -65 -160.5t-79 -233.5h-100l284 589h-198q-16 0 -28 -2t-23 -10l-97 -71v157h428z" />
    <glyph glyph-name="eight" unicode="8" horiz-adv-x="512" 
d="M286 380q35 31 53 66.5t18 71.5q0 51 -26 79t-72 28q-47 0 -75 -27.5t-28 -75.5q0 -46 32 -78.5t98 -63.5zM312 364q80 -40 117 -83t37 -110q0 -86 -58.5 -136.5t-162.5 -50.5q-44 0 -80.5 13t-63 35.5t-41 54t-14.5 68.5q0 60 39.5 105t117.5 68q-125 64 -125 173
q0 75 48 118.5t133 43.5t130 -38.5t45 -104.5q0 -103 -122 -156zM227 313q-50 -36 -74.5 -74t-24.5 -82q0 -63 34 -98.5t91 -35.5q59 0 94.5 35t35.5 89q0 27 -10 48.5t-29.5 40t-48.5 37t-68 40.5z" />
    <glyph glyph-name="nine" unicode="9" horiz-adv-x="512" 
d="M366 323q3 36 3 64q0 121 -28 180t-93 59q-116 0 -116 -160q0 -156 142 -156q44 0 92 13zM37 43q43 -8 82 -8q221 0 244 260q-68 -34 -137 -34q-43 0 -79 14t-61.5 39t-39.5 60t-14 78q0 47 16 86t44.5 66.5t68.5 42.5t88 15q106 0 162 -70.5t56 -208.5q0 -193 -75 -293
t-205 -100q-85 0 -150 53z" />
    <glyph glyph-name="colon" unicode=":" horiz-adv-x="241" 
d="M68 335q0 30 15.5 47t42.5 17q55 0 55 -65q0 -28 -14.5 -44t-42.5 -16q-56 0 -56 61zM68 52q0 30 15.5 46.5t42.5 16.5q55 0 55 -65q0 -59 -59 -59q-54 0 -54 61z" />
    <glyph glyph-name="semicolon" unicode=";" horiz-adv-x="241" 
d="M68 335q0 30 15.5 47t42.5 17q55 0 55 -65q0 -28 -14.5 -44t-42.5 -16q-56 0 -56 61zM77 -136q41 55 42 130q-25 0 -39 14t-14 39q0 59 56 59q61 0 61 -82q0 -28 -8 -54t-22 -47.5t-33.5 -36.5t-42.5 -22z" />
    <glyph glyph-name="less" unicode="&#x3c;" horiz-adv-x="833" 
d="M216 298l488 -198v-63l-575 236v50l575 236v-62z" />
    <glyph glyph-name="equal" unicode="=" horiz-adv-x="833" 
d="M709 363h-585v57h585v-57zM709 176h-585v57h585v-57z" />
    <glyph glyph-name="greater" unicode="&#x3e;" horiz-adv-x="833" 
d="M704 273l-575 -236v63l488 198l-488 199v62l575 -236v-50z" />
    <glyph glyph-name="question" unicode="?" horiz-adv-x="449" 
d="M185 154q-1 7 -1 13v11q0 38 10 59t21 40q19 32 37.5 60.5t33.5 56.5t24.5 57.5t9.5 62.5q0 50 -26.5 78t-71.5 28q-38 0 -62 -20l-102 -83v121q50 14 94 20t81 6q44 0 80 -12t61.5 -33t39 -50.5t13.5 -64.5q0 -36 -13 -62.5t-35 -55.5q-42 -55 -78.5 -88t-53.5 -57
q-11 -15 -13.5 -31t-2.5 -36v-20h-46zM210 103q59 0 59 -58q0 -25 -15 -39t-44 -14q-25 0 -39.5 13.5t-14.5 39.5t15 42t39 16z" />
    <glyph glyph-name="at" unicode="@" horiz-adv-x="1000" 
d="M616 349q-8 45 -35 69t-66 24q-36 0 -66.5 -17.5t-53 -47.5t-35 -71t-12.5 -88q0 -54 25 -83t71 -29q49 0 89 34t54 91zM659 471h54l-69 -277q-6 -24 -6 -39q0 -44 54 -44q20 0 46.5 10.5t52.5 32.5q42 36 67.5 94t25.5 126q0 64 -24.5 117t-70 91t-110 59t-144.5 21
q-165 0 -279 -100q-69 -60 -103.5 -138.5t-34.5 -172.5q0 -85 29 -148.5t92 -112.5q48 -38 115.5 -60t145.5 -22q84 0 163 23.5t145 68.5l22 -32q-144 -108 -322 -108q-188 0 -305 90q-148 114 -148 305q0 81 25 151.5t73 130.5q71 86 169.5 130.5t222.5 44.5
q83 0 153.5 -22t119.5 -60q63 -49 95.5 -112.5t32.5 -137.5q0 -85 -31 -152t-89 -114q-69 -55 -152 -55q-97 0 -97 76q0 2 0.5 5t0.5 6q-25 -43 -62 -65t-83 -22q-75 0 -114 41.5t-39 120.5q0 57 18 106t49.5 85t73 56.5t88.5 20.5q89 0 122 -77z" />
    <glyph glyph-name="A" unicode="A" horiz-adv-x="562" 
d="M498 143q15 -45 34 -80.5t48 -62.5h-179q30 38 30 58q0 13 -11 44l-54 162h-201l-59 -172q-8 -21 -8 -37q0 -14 8 -27t22 -28h-152q27 26 46.5 62.5t37.5 83.5l192 497l68 24zM181 306h171l-83 259z" />
    <glyph glyph-name="B" unicode="B" horiz-adv-x="532" 
d="M259 655q200 0 200 -152q0 -68 -42 -111t-120 -54q93 -4 144.5 -49.5t51.5 -117.5q0 -81 -57.5 -126t-169.5 -45h-209q27 47 32 81t5 63v367q0 29 -5 63t-32 81h202zM183 352h54q56 0 90.5 38t34.5 100q0 61 -31 94.5t-90 33.5h-58v-266zM183 37h63q72 0 109.5 35
t37.5 102q0 141 -153 141h-57v-278z" />
    <glyph glyph-name="C" unicode="C" horiz-adv-x="566" 
d="M532 529l-106 78q-14 10 -27.5 12.5t-30.5 2.5q-50 0 -90.5 -20t-69.5 -58.5t-44.5 -95t-15.5 -129.5q0 -140 57.5 -216.5t157.5 -76.5q42 0 58 13l119 91l-17 -124q-88 -21 -163 -21q-155 0 -235 83t-80 242q0 81 23 146.5t65 112t101.5 71.5t133.5 25q38 0 78.5 -5
t85.5 -15v-116z" />
    <glyph glyph-name="D" unicode="D" horiz-adv-x="646" 
d="M285 655q155 0 233.5 -78t78.5 -228q0 -170 -89 -262q-28 -30 -58 -47t-62.5 -26t-68.5 -11.5t-77 -2.5h-189q27 47 31.5 81t4.5 63v367q0 29 -4.5 63t-31.5 81h232zM176 44h88q116 0 175 71.5t59 213.5q0 136 -55.5 209t-161.5 73h-105v-567z" />
    <glyph glyph-name="E" unicode="E" horiz-adv-x="509" 
d="M458 655v-126l-94 72q-18 14 -49 14h-132v-267h122q7 0 22 5.5t27 13.5l58 42v-153l-56 40q-16 11 -31 13t-32 2h-110v-273h144q17 0 26.5 6.5t22.5 15.5l98 73l-19 -133h-398q28 50 32.5 84t4.5 61v367q0 31 -5.5 65t-31.5 78h401z" />
    <glyph glyph-name="F" unicode="F" horiz-adv-x="472" 
d="M458 655v-126l-94 72q-18 14 -49 14h-132v-267h122q7 0 22 5.5t27 13.5l58 42v-153l-56 40q-16 11 -31 13t-32 2h-110v-167v-6q0 -28 5 -60.5t31 -77.5h-162q28 50 32.5 84t4.5 61v367q0 31 -5.5 65t-31.5 78h401z" />
    <glyph glyph-name="G" unicode="G" horiz-adv-x="616" 
d="M545 529l-98 73q-15 11 -31.5 15.5t-37.5 4.5q-105 0 -165.5 -78t-60.5 -220q0 -147 58 -222t171 -75q14 0 32 1.5l42 3.5v121q0 16 -1.5 29.5t-7.5 25.5l-28 57h162l-24 -52q-3 -7 -8 -18.5t-5 -34.5v-152q-92 -22 -193 -22q-143 0 -221.5 84.5t-78.5 239.5
q0 83 23 148.5t66.5 111.5t106.5 70t144 24q85 0 155 -19v-116z" />
    <glyph glyph-name="H" unicode="H" horiz-adv-x="644" 
d="M218 655q-26 -45 -31 -77.5t-5 -60.5v-6v-152h280v152q0 29 -5 63t-32 81h161q-26 -45 -31 -77.5t-5 -60.5v-6v-367v-6q0 -28 5 -60.5t31 -77.5h-161q27 47 32 81t5 63v172h-280v-172v-6q0 -28 5 -60.5t31 -77.5h-161q27 47 32 81t5 63v367q0 29 -5 63t-32 81h161z" />
    <glyph glyph-name="I" unicode="I" horiz-adv-x="275" 
d="M218 655q-26 -45 -31 -77.5t-5 -60.5v-6v-367v-6q0 -28 5 -60.5t31 -77.5h-161q27 47 32 81t5 63v367q0 29 -5 63t-32 81h161z" />
    <glyph glyph-name="J" unicode="J" horiz-adv-x="275" 
d="M226 655q-26 -45 -31 -77.5t-5 -60.5v-6v-472q0 -28 -1 -53t-6 -47.5t-15.5 -43t-28.5 -40.5q-28 -31 -68 -47.5t-88 -16.5q-41 0 -76 7v116l86 -67q8 -6 14.5 -9t17.5 -3q37 0 57 39t20 118v519q0 29 -5 63t-32 81h161z" />
    <glyph glyph-name="K" unicode="K" horiz-adv-x="553" 
d="M216 655q-26 -45 -31 -77.5t-5 -60.5v-6v-367v-6q0 -28 5 -60.5t31 -77.5h-161q27 47 32 81t5 63v367q0 29 -5 63t-32 81h161zM575 655q-34 -20 -58 -42t-44 -42l-192 -200l200 -276q21 -29 45.5 -52.5t58.5 -42.5h-160l-234 337l221 249q7 8 10.5 16.5t3.5 10.5
q0 16 -23 42h172z" />
    <glyph glyph-name="L" unicode="L" horiz-adv-x="444" 
d="M218 655q-28 -47 -32.5 -81t-4.5 -63v-473h110q20 0 32 6t25 16l98 73l-18 -133h-373q28 50 32.5 84t4.5 61v367q0 31 -5.5 65t-31.5 78h163z" />
    <glyph glyph-name="M" unicode="M" horiz-adv-x="794" 
d="M186 655l209 -516l209 516h133q-26 -45 -31 -77.5t-5 -60.5v-6v-367v-6q0 -28 5 -60.5t31 -77.5h-158q27 47 32 81t5 63v409l-226 -553h-32l-221 553v-409v-6q0 -28 5 -60.5t31 -77.5h-124q27 47 31.5 81t4.5 63v367q0 29 -4.5 63t-31.5 81h137z" />
    <glyph glyph-name="N" unicode="N" horiz-adv-x="625" 
d="M170 655l321 -491v347q0 29 -5 63t-32 81h125q-28 -47 -32.5 -81t-4.5 -63v-516h-44l-359 547v-398v-6q0 -28 5 -60.5t31 -77.5h-124q27 47 31.5 81t4.5 63v367q0 29 -4.5 63t-31.5 81h119z" />
    <glyph glyph-name="O" unicode="O" horiz-adv-x="676" 
d="M49 317q0 80 21 144t60 109t94 69.5t123 24.5q63 0 114.5 -23.5t88 -66.5t57 -104.5t20.5 -137.5q0 -80 -21.5 -144t-60.5 -109t-94 -69.5t-123 -24.5q-63 0 -114 23.5t-88 67t-57 104.5t-20 137zM337 619q-85 0 -136 -74t-51 -211q0 -73 14 -130t38.5 -96t59.5 -59
t77 -20q85 0 136 74.5t51 211.5q0 74 -14 130.5t-38.5 95t-59.5 58.5t-77 20z" />
    <glyph glyph-name="P" unicode="P" horiz-adv-x="484" 
d="M264 655q101 0 153 -48.5t52 -138.5q0 -42 -15 -77.5t-44 -61t-71 -40t-96 -14.5h-29.5t-36.5 2v-133q0 -29 4.5 -63t32.5 -81h-161q27 47 31.5 81t4.5 63v367q0 29 -4.5 63t-31.5 81h211zM177 316q15 -1 25.5 -1h16.5q75 0 112 39t37 114q0 71 -33 109.5t-91 38.5h-67
v-300z" />
    <glyph glyph-name="Q" unicode="Q" horiz-adv-x="676" 
d="M337 619q-85 0 -136 -74t-51 -211q0 -73 14 -130t38.5 -96t59.5 -59t77 -20q85 0 136 74.5t51 211.5q0 74 -14 130.5t-38.5 95t-59.5 58.5t-77 20zM596 -116q14 -8 29.5 -12.5t26.5 -4.5q6 0 22 2t42 4q-38 -40 -67.5 -61t-58.5 -21q-33 0 -65 25l-227 176q-58 8 -104 34
t-78 68.5t-49.5 99.5t-17.5 127q0 79 21.5 142.5t60.5 108.5t94 69t123 24q63 0 114 -23t88 -66t57 -103.5t20 -134.5q0 -69 -16 -127t-45.5 -101.5t-70.5 -72t-92 -37.5z" />
    <glyph glyph-name="R" unicode="R" horiz-adv-x="549" 
d="M256 655q43 0 77.5 -3.5t62.5 -20.5q29 -17 46.5 -51.5t17.5 -76.5q0 -72 -43.5 -117.5t-125.5 -57.5l146 -199q29 -40 60 -72t67 -57h-146l-236 335v-191q0 -29 4.5 -63t32.5 -81h-161q27 47 31.5 81t4.5 63v367q0 29 -4.5 63t-31.5 81h198zM182 353h50q63 0 97 35
t34 100q0 130 -131 130h-50v-265z" />
    <glyph glyph-name="S" unicode="S" horiz-adv-x="484" 
d="M414 529l-99 76q-27 21 -54 21q-22 0 -42 -8t-35 -22.5t-24 -34.5t-9 -44q0 -44 23.5 -70t67.5 -55l106 -70q47 -31 69.5 -62.5t22.5 -83.5q0 -41 -15 -76t-43.5 -60.5t-69.5 -40t-93 -14.5q-77 0 -160 30v117l106 -81q14 -11 26.5 -16t26.5 -5q60 0 97 32.5t37 83.5
q0 35 -18 57.5t-52 45.5l-117 81q-51 35 -74.5 70.5t-23.5 88.5q0 37 14.5 69t41 55.5t63.5 37t82 13.5q66 0 146 -20v-115z" />
    <glyph glyph-name="T" unicode="T" horiz-adv-x="537" 
d="M532 655v-127l-91 69q-8 6 -20 10t-25 4h-80v-467q0 -29 4.5 -63t32.5 -81h-161q27 47 31.5 81t4.5 63v467h-80q-11 0 -22.5 -4t-19.5 -9l-94 -70v127h520z" />
    <glyph glyph-name="U" unicode="U" horiz-adv-x="616" 
d="M200 655q-28 -47 -32.5 -81t-4.5 -63v-302q0 -94 32.5 -139t117.5 -45q112 0 146 71q11 23 13.5 49t2.5 57v41v268q0 29 -4.5 63t-31.5 81h138q-28 -47 -32.5 -81t-4.5 -63v-280v-14q0 -39 -3 -73t-18 -64q-23 -46 -77.5 -71t-137.5 -25q-121 0 -175 49.5t-54 155.5v322
q0 29 -4.5 63t-31.5 81h161z" />
    <glyph glyph-name="V" unicode="V" horiz-adv-x="551" 
d="M158 655q-14 -20 -22 -34t-8 -25t12 -47l153 -457l160 478q6 18 6 31q0 12 -8 24.5t-20 29.5h149q-47 -48 -73 -116l-204 -539h-67l-187 544q-10 28 -25.5 55t-45.5 56h180z" />
    <glyph glyph-name="W" unicode="W" horiz-adv-x="877" 
d="M182 655q-29 -33 -29 -59q0 -8 2 -17t5 -21l117 -428l153 525h63l157 -525l125 445q4 16 4 25q0 23 -26 55h144q-26 -28 -42 -55.5t-27 -60.5l-172 -539h-58l-156 521l-151 -521h-64l-156 546q-9 31 -24 57t-44 52h179z" />
    <glyph glyph-name="X" unicode="X" horiz-adv-x="583" 
d="M209 655q-24 -28 -24 -46q0 -10 5.5 -21.5t13.5 -25.5l99 -165l101 174q8 14 11 24.5t3 13.5q0 12 -23 46h151q-21 -18 -42 -44t-44 -60l-132 -192l159 -263q11 -19 32 -43.5t51 -52.5h-184q11 17 17.5 27.5t6.5 16.5q0 13 -17 41l-119 195l-110 -196q-6 -11 -9 -21.5
t-3 -15.5q0 -16 26 -47h-157q35 35 57 63.5t36 50.5l135 205l-138 229q-17 27 -39 53.5t-50 53.5h187z" />
    <glyph glyph-name="Y" unicode="Y" horiz-adv-x="532" 
d="M166 655q-24 -34 -24 -47t17 -41l123 -205l116 214q5 8 8 15.5t3 17.5q0 15 -22 46h155q-31 -28 -54.5 -58.5t-45.5 -64.5l-135 -207v-181q0 -29 4.5 -63t32.5 -81h-161q27 47 31.5 81t4.5 63v157l-154 251q-11 17 -30 43.5t-57 59.5h188z" />
    <glyph glyph-name="Z" unicode="Z" horiz-adv-x="539" 
d="M507 655l-355 -614h202q16 0 31.5 7t33.5 19.5t39 29.5t49 37l-19 -134h-463l356 615h-165q-32 0 -65.5 -23t-84.5 -60v123h441z" />
    <glyph glyph-name="bracketleft" unicode="[" horiz-adv-x="269" 
d="M220 708q-20 -26 -33 -43t-19 -26q-8 -11 -9.5 -22.5t-1.5 -24.5v-23v-638v-14q0 -12 1.5 -24t8 -26t19 -32.5t34.5 -42.5h-132v916h132z" />
    <glyph glyph-name="backslash" unicode="\" horiz-adv-x="231" 
d="M8 665l259 -712l-44 -15l-258 711z" />
    <glyph glyph-name="bracketright" unicode="]" horiz-adv-x="269" 
d="M181 708v-916h-131q22 24 34.5 42t18.5 32.5t7.5 26.5t1.5 24v14v638v22q0 13 -1.5 25t-9.5 23q-7 11 -20 28t-31 41h131z" />
    <glyph glyph-name="asciicircum" unicode="^" horiz-adv-x="1000" 
d="M793 440h-77l-216 214l-216 -214h-78l254 272h79z" />
    <glyph glyph-name="underscore" unicode="_" 
d="M500 -236h-500v58h500v-58z" />
    <glyph glyph-name="grave" unicode="`" 
d="M306 523l-230 165h136z" />
    <glyph glyph-name="a" unicode="a" horiz-adv-x="456" 
d="M384 158v-7q0 -34 5.5 -66t35.5 -69l-102 -27q-16 28 -20 55q-47 -25 -80 -40.5t-59 -15.5q-25 0 -47.5 10t-39 27.5t-26.5 41.5t-10 52q0 70 51 101.5t157 31.5q12 0 25 -0.5t27 -1.5v91q0 44 -19.5 67t-53.5 23q-22 0 -56 -25.5t-88 -70.5v105q53 15 96 22t78 7
q42 0 67 -8t38 -25t17 -44.5t4 -66.5v-167zM301 224q-88 -7 -128.5 -25t-40.5 -65q0 -40 28.5 -62.5t81.5 -22.5q19 0 59 3v172z" />
    <glyph glyph-name="b" unicode="b" horiz-adv-x="525" 
d="M166 412q41 26 73 41.5t68 15.5q38 0 70 -16t56 -44.5t37.5 -69t13.5 -90.5q0 -56 -17 -103t-46 -81t-68 -53t-83 -19q-62 0 -106 32l-82 -40v556q0 39 -11 71.5t-33 68.5l128 27v-296zM166 53q21 -8 39 -12t34 -4q72 0 115.5 50t43.5 138q0 90 -45 136.5t-130 46.5
q-13 0 -27 -1t-30 -3v-351z" />
    <glyph glyph-name="c" unicode="c" horiz-adv-x="428" 
d="M407 344l-100 69q-25 17 -43 17q-24 0 -47 -13.5t-40.5 -39t-28 -61t-10.5 -80.5q0 -190 188 -190q30 0 57.5 2t52.5 6q-42 -35 -86 -51t-95 -16q-45 0 -83.5 16t-66.5 45t-43.5 69t-15.5 88q0 60 18 108.5t50 83t76.5 53.5t98.5 19q29 0 57.5 -4.5t60.5 -12.5v-108z" />
    <glyph glyph-name="d" unicode="d" horiz-adv-x="532" 
d="M450 158q0 -38 5 -73t34 -73l-122 -26v59q-43 -30 -79.5 -44t-64.5 -14q-37 0 -69.5 16.5t-57 46t-38.5 71t-14 91.5q0 54 17.5 101t46.5 81.5t68 54t81 19.5q59 0 110 -32v107q0 39 -12 69t-35 67l130 30v-551zM367 406q-35 16 -77 16q-71 0 -113 -50t-42 -141
t44.5 -137.5t130.5 -46.5q14 0 28 2t29 5v352z" />
    <glyph glyph-name="e" unicode="e" horiz-adv-x="484" 
d="M344 304q-1 128 -91 128q-51 0 -81 -39t-33 -114zM138 252v-3q0 -105 50 -153.5t156 -48.5q47 0 105 12q-79 -70 -190 -70q-47 0 -86 16t-66.5 46t-42.5 73t-15 97q0 104 59 174q30 35 71 54.5t83 19.5q87 0 133.5 -55t49.5 -162h-307z" />
    <glyph glyph-name="f" unicode="f" horiz-adv-x="289" 
d="M389 591l-79 60q-11 8 -20 12.5t-20 4.5q-96 0 -96 -138v-67h115v-44h-115v-294q0 -26 5.5 -55t33.5 -70h-161q27 45 32.5 74t5.5 49v11v285h-63v44h63v55q0 93 53.5 140.5t152.5 47.5q42 0 93 -14v-101z" />
    <glyph glyph-name="g" unicode="g" horiz-adv-x="505" 
d="M481 397l-134 31q53 -45 53 -109q0 -33 -12 -60t-33.5 -47t-51.5 -31t-67 -11q-19 0 -46 3q-12 -24 -12 -42q0 -28 17.5 -38t55.5 -10h87q60 0 89 -21t29 -76q0 -38 -16 -72.5t-48 -59.5q-75 -60 -177 -60q-43 0 -78.5 9.5t-60 24.5t-38 34t-13.5 39q0 29 27 53.5
t79 58.5q-20 8 -31 23t-11 34q0 26 23 50.5t69 53.5q-60 11 -91.5 47.5t-31.5 92.5q0 34 12.5 62.5t35.5 49t55 32t70 11.5q56 0 103 -32l147 32v-72zM226 435q-38 0 -60 -27t-22 -76q0 -57 27 -93t65 -36q35 0 57.5 27t22.5 73q0 61 -26 96.5t-64 35.5zM142 6
q-35 -43 -35 -79q0 -39 34.5 -63.5t94.5 -24.5q34 0 62.5 8.5t49.5 23t32.5 33.5t11.5 39q0 35 -22.5 46t-68.5 11h-94q-14 0 -30 0.5t-35 5.5z" />
    <glyph glyph-name="h" unicode="h" horiz-adv-x="521" 
d="M166 418q54 23 94.5 37t74.5 14q114 0 114 -169v-156q0 -29 4.5 -63t32.5 -81h-157q27 47 32 81t5 63v128q0 39 -7 65.5t-23 42.5t-43 23t-67 7q-30 0 -60 -3v-263v-6q0 -28 5 -60.5t31 -77.5h-156q27 47 31.5 81t4.5 63v397q0 39 -11 71.5t-33 68.5l128 27v-290z" />
    <glyph glyph-name="i" unicode="i" horiz-adv-x="257" 
d="M128 696q23 0 38 -15t15 -39q0 -54 -53 -54q-25 0 -38.5 14t-13.5 40q0 24 14.5 39t37.5 15zM172 144q0 -29 4.5 -63t32.5 -81h-157q27 47 32 81t5 63v191q0 28 -10 55t-30 56l123 27v-329z" />
    <glyph glyph-name="j" unicode="j" horiz-adv-x="257" 
d="M130 696q23 0 37.5 -15t14.5 -39q0 -54 -52 -54q-25 0 -39 14t-14 40q0 24 15 39t38 15zM173 57q0 -68 -7.5 -117.5t-27 -82.5t-52.5 -49t-85 -16q-27 0 -63 6v106l64 -53q9 -8 16 -12t16 -4q36 0 46 39t10 114v347q0 28 -10 55t-30 56l123 27v-416z" />
    <glyph glyph-name="k" unicode="k" horiz-adv-x="491" 
d="M163 144q0 -29 5 -63t32 -81h-155q27 47 31.5 81t4.5 63v426q0 28 -10 55t-30 56l122 27v-564zM490 463q-69 -41 -131 -94l-101 -88l164 -212q37 -48 79 -69h-141l-182 250l140 143q15 15 15 29q0 16 -19 41h176z" />
    <glyph glyph-name="l" unicode="l" horiz-adv-x="245" 
d="M164 144q0 -29 4.5 -63t32.5 -81h-157q27 47 32 81t5 63v426q0 28 -10 55t-30 56l123 27v-564z" />
    <glyph glyph-name="m" unicode="m" horiz-adv-x="780" 
d="M170 418q45 22 82 36.5t74 14.5q28 0 52.5 -13t40.5 -37q48 22 87 36t77 14q69 0 98 -40.5t29 -128.5v-156v-6q0 -28 5 -60.5t31 -77.5h-156q27 47 31.5 81t4.5 63v128q0 40 -7 66.5t-23.5 42.5t-43.5 22.5t-67 6.5q-26 0 -61 -3q10 -14 13 -40.5t3 -66.5v-156
q0 -29 4.5 -63t32.5 -81h-157q27 47 32 81t5 63v128q0 75 -28.5 106.5t-102.5 31.5q-23 0 -56 -3v-263q0 -29 4.5 -63t32.5 -81h-157q27 47 32 81t5 63v191q0 28 -10 55t-30 56l123 27v-55z" />
    <glyph glyph-name="n" unicode="n" horiz-adv-x="521" 
d="M166 418q54 23 94.5 37t74.5 14q114 0 114 -169v-156q0 -29 4.5 -63t32.5 -81h-157q27 47 32 81t5 63v128q0 39 -7 65.5t-23 42.5t-43 23t-67 7q-30 0 -60 -3v-263v-6q0 -28 5 -60.5t31 -77.5h-156q27 47 31.5 81t4.5 63v191q0 30 -9.5 56t-29.5 55l123 27v-55z" />
    <glyph glyph-name="o" unicode="o" horiz-adv-x="537" 
d="M46 227q0 53 17 97.5t47.5 76.5t72 50t89.5 18q47 0 87 -18t69.5 -50t46 -76.5t16.5 -98.5q0 -53 -17 -97t-47 -76t-71.5 -50t-90.5 -18q-47 0 -87 17.5t-69.5 49.5t-46 76.5t-16.5 98.5zM265 432q-57 0 -89.5 -49t-32.5 -142q0 -105 35 -162t94 -57q57 0 89.5 49
t32.5 142q0 105 -35.5 162t-93.5 57z" />
    <glyph glyph-name="p" unicode="p" horiz-adv-x="532" 
d="M166 415q42 30 78.5 44t64.5 14q37 0 70 -16.5t57.5 -46t38.5 -71t14 -91.5q0 -54 -17.5 -100.5t-47 -81t-68.5 -54.5t-81 -20q-58 0 -109 33v-87v-6q0 -28 5 -60.5t31 -77.5h-156q27 47 31.5 81t4.5 63v397q0 29 -9.5 55.5t-29.5 55.5l123 27v-58zM166 54q35 -16 76 -16
q71 0 113 51t42 141q0 91 -43.5 137t-130.5 46q-14 0 -28 -2t-29 -5v-352z" />
    <glyph glyph-name="q" unicode="q" horiz-adv-x="525" 
d="M451 -62v-6q0 -28 5 -60.5t31 -77.5h-156q27 47 31.5 81t4.5 63v112q-40 -26 -72.5 -41.5t-68.5 -15.5q-37 0 -69.5 15.5t-56.5 44.5t-37.5 69.5t-13.5 89.5q0 56 17 103.5t46 81.5t68 53t83 19q61 0 106 -33l82 40v-538zM367 409q-22 8 -40 11.5t-33 3.5
q-72 0 -115.5 -50t-43.5 -138t44.5 -135t123.5 -47q34 0 64 3v352z" />
    <glyph glyph-name="r" unicode="r" horiz-adv-x="352" 
d="M170 406q38 31 69 47t60 16q14 0 40 -8v-100q-50 39 -116 39q-13 0 -26 -1t-27 -3v-252q0 -29 4.5 -63t32.5 -81h-157q27 47 32 81t5 63v191q0 28 -10 55t-30 56l123 27v-67z" />
    <glyph glyph-name="s" unicode="s" horiz-adv-x="398" 
d="M340 346q-54 41 -87.5 63.5t-53.5 22.5q-26 0 -45.5 -19t-19.5 -48q0 -23 16.5 -41.5t49.5 -35.5l67 -35q46 -24 68.5 -50t22.5 -69q0 -69 -44.5 -107.5t-129.5 -38.5q-24 0 -57 5t-75 17v112q56 -46 91.5 -71.5t58.5 -25.5q30 0 52 21.5t22 53.5q0 29 -15.5 45.5
t-47.5 32.5l-52 26q-53 26 -78 57.5t-25 73.5q0 59 43 96.5t117 37.5q25 0 56 -4t66 -12v-107z" />
    <glyph glyph-name="t" unicode="t" horiz-adv-x="336" 
d="M168 463h153v-44h-153v-272q0 -28 3.5 -47.5t15 -31t32.5 -16.5t56 -5q30 0 69 6q-39 -32 -79 -48t-75 -16q-33 0 -53.5 9t-32.5 27t-16 45.5t-4 64.5v284h-80q107 90 164 176v-132z" />
    <glyph glyph-name="u" unicode="u" horiz-adv-x="521" 
d="M156 197q0 -39 4 -66.5t17 -45t38 -25t66 -7.5q16 0 34 1.5t40 3.5v277q0 28 -10 55t-30 56l124 27v-346q0 -29 10 -55t30 -55l-124 -28v61q-50 -28 -90 -42.5t-75 -14.5q-67 0 -92 37.5t-25 117.5v187q0 28 -10 55t-30 56l123 27v-276z" />
    <glyph glyph-name="v" unicode="v" horiz-adv-x="435" 
d="M160 463q-12 -18 -19.5 -30.5t-7.5 -25.5q0 -5 1.5 -15t6.5 -24l98 -293l87 293q5 17 7 28.5t2 16.5q0 17 -25 50h140q-17 -16 -38 -46.5t-39 -78.5l-130 -343h-58l-119 326q-13 35 -30 70.5t-55 71.5h179z" />
    <glyph glyph-name="w" unicode="w" horiz-adv-x="706" 
d="M163 463q-29 -41 -29 -60q0 -5 2 -12.5t5 -17.5l87 -276l122 366h41l125 -372l81 283q5 15 6.5 24.5t1.5 14.5q0 17 -25 50h136q-30 -32 -45.5 -66t-27.5 -66l-127 -338h-51l-114 336l-114 -336h-56l-130 369q-6 17 -18.5 41.5t-48.5 59.5h179z" />
    <glyph glyph-name="x" unicode="x" horiz-adv-x="462" 
d="M171 463q-16 -23 -16 -37q0 -8 4 -15.5t10 -17.5l67 -103l66 106q5 8 8.5 14t3.5 14q0 7 -5 16t-14 23h130q-49 -44 -96 -109l-71 -98l94 -140q17 -26 39.5 -56t57.5 -60h-172q19 24 19 37q0 8 -4.5 16.5t-11.5 19.5l-74 114l-78 -124q-4 -6 -6.5 -11t-2.5 -13
q0 -19 19 -39h-130q17 16 34.5 36t34.5 43l106 142l-99 153q-14 21 -33 43.5t-45 45.5h165z" />
    <glyph glyph-name="y" unicode="y" horiz-adv-x="442" 
d="M168 463q-30 -36 -30 -57q0 -7 2.5 -14.5l5.5 -16.5l104 -284l87 285q7 22 7 35q0 11 -6.5 23t-18.5 29h137q-25 -24 -40.5 -51t-27.5 -59l-157 -425q-26 -69 -62.5 -102t-89.5 -33q-12 0 -28.5 1.5t-36.5 5.5v106l61 -52q8 -7 17 -10.5t14 -3.5q51 0 101 152l-148 365
q-10 23 -23.5 50t-45.5 56h178z" />
    <glyph glyph-name="z" unicode="z" horiz-adv-x="463" 
d="M427 463l-269 -422h124q15 0 26.5 2.5t22.5 10.5l90 71v-125h-387l269 422h-102q-22 0 -39 -12l-93 -64v117h358z" />
    <glyph glyph-name="braceleft" unicode="{" 
d="M419 659q-6 0 -11.5 0.5t-10.5 0.5q-32 0 -52 -6t-31 -20t-14.5 -37t-3.5 -56v-118q0 -36 -4 -63t-14.5 -46.5t-29.5 -33t-49 -21.5q30 -8 49 -21.5t29.5 -33t14.5 -46.5t4 -63v-118q0 -34 4 -56.5t15 -36t31.5 -19.5t53.5 -6h19v-61h-17q-42 0 -73.5 5t-54.5 20
q-33 22 -41 59t-8 94v119q0 73 -26 103.5t-93 30.5q-5 0 -10.5 -0.5t-11.5 -0.5v62q6 0 11.5 -0.5t10.5 -0.5q67 0 93 30.5t26 104.5v119q0 57 7.5 94t41.5 59q23 15 54 20t74 5h17v-62z" />
    <glyph glyph-name="bar" unicode="|" 
d="M281 -236h-62v1000h62v-1000z" />
    <glyph glyph-name="braceright" unicode="}" 
d="M275 424q0 -74 26.5 -104.5t93.5 -30.5q5 0 10.5 0.5t11.5 0.5v-62q-6 0 -11.5 0.5t-10.5 0.5q-67 0 -93.5 -30.5t-26.5 -104.5v-118q0 -57 -7.5 -94.5t-40.5 -59.5q-23 -15 -53.5 -19.5t-72.5 -4.5h-20v61q6 0 11.5 -0.5t10.5 -0.5q32 0 52 6t31 20.5t14.5 37.5t3.5 56
v117q0 36 4 63t14.5 46.5t29.5 33t49 21.5q-30 8 -49 21.5t-29.5 33t-14.5 46.5t-4 63v118q0 34 -4 56.5t-15 36.5t-31.5 20t-53.5 6h-19v61h17q42 0 74 -5t55 -20q33 -22 40.5 -59t7.5 -94v-119z" />
    <glyph glyph-name="asciitilde" unicode="~" horiz-adv-x="833" 
d="M747 306q-98 -70 -189 -70q-42 0 -93 17q-52 17 -97.5 33.5t-92.5 16.5q-45 0 -89.5 -20t-98.5 -58v65q103 71 189 71q39 0 73.5 -10t68.5 -22q36 -13 69.5 -24.5t71.5 -11.5q45 0 90 20t98 57v-64z" />
    <glyph glyph-name="exclamdown" unicode="&#xa1;" horiz-adv-x="257" 
d="M142 663q24 0 39 -13.5t15 -39.5q0 -27 -15.5 -42.5t-42.5 -15.5q-26 0 -40.5 14t-14.5 40q0 57 59 57zM158 500l38 -500h-113l37 500h38z" />
    <glyph glyph-name="cent" unicode="&#xa2;" horiz-adv-x="512" 
d="M266 528v-60q6 1 12 1h12q52 0 117 -17v-108l-100 69q-25 16 -41 16v-378q16 -2 31 -3.5t29 -1.5q31 0 58.5 2t51.5 6q-82 -66 -170 -66v-58h-25v57q-45 4 -81 21.5t-61.5 46t-39 67t-13.5 83.5q0 104 50.5 171.5t144.5 88.5v63h25zM241 427q-48 -17 -75.5 -66.5
t-27.5 -124.5q0 -139 103 -179v370z" />
    <glyph glyph-name="sterling" unicode="&#xa3;" horiz-adv-x="512" 
d="M471 528l-99 73q-13 10 -25 16t-29 6q-34 0 -61.5 -15t-38.5 -38q-11 -22 -13 -53t-2 -73v-21v-22t1 -36h159v-42h-159v-98q0 -41 -16 -74.5t-48 -73.5q6 1 11.5 1.5t11.5 0.5q4 0 16.5 -1t33.5 -3l134 -10h7h16q31 0 61 17t69 49l-29 -87q-22 -67 -80 -67q-34 0 -71 5
t-76.5 10.5t-81 10.5t-84.5 5q-7 0 -15 -1t-17 -3l31 69q22 11 30 37t8 70v143h-72v42h72v97q0 202 213 202q45 0 81 -5.5t62 -14.5v-116z" />
    <glyph glyph-name="currency" unicode="&#xa4;" horiz-adv-x="606" 
d="M178 592q29 22 59.5 33t65.5 11q69 0 127 -44l100 101l35 -36l-100 -100q42 -55 42 -125q0 -69 -42 -125l100 -100l-35 -36l-100 101q-55 -43 -127 -43q-70 0 -125 43l-101 -101l-35 36l101 100q-43 57 -43 125t43 125l-101 100l35 36zM457 433q0 32 -12 59.5t-32.5 48.5
t-48.5 33t-60 12t-60 -12t-48.5 -33t-32.5 -48.5t-12 -59.5t12 -60t32.5 -49t48.5 -33t60 -12t60 12.5t48.5 33.5t32.5 49t12 59z" />
    <glyph glyph-name="yen" unicode="&#xa5;" horiz-adv-x="535" 
d="M163 649q-23 -32 -23 -47q0 -8 4.5 -18t12.5 -23l53 -89h138l52 98q5 8 8 16t3 17q0 14 -23 46h154q-32 -29 -55 -59.5t-44 -62.5l-36 -55h112v-37h-135l-68 -107h203v-37h-209v-148v-6q0 -26 5 -59t31 -78h-159q27 48 31.5 81.5t4.5 61.5v148h-210v37h191l-63 107h-128
v37h103l-46 75q-13 21 -32 47t-54 55h179zM281 350l47 85h-96z" />
    <glyph glyph-name="brokenbar" unicode="&#xa6;" 
d="M281 329h-62v370h62v-370zM281 -171h-62v370h62v-370z" />
    <glyph glyph-name="section" unicode="&#xa7;" horiz-adv-x="486" 
d="M390 542l-111 74q-15 10 -32 10q-32 0 -54.5 -20t-22.5 -52q0 -20 9.5 -36t27.5 -31t44 -31t59 -37q31 -19 55.5 -36.5t41.5 -36.5t26 -42t9 -54q0 -53 -36 -94.5t-106 -67.5q46 -32 67.5 -65.5t21.5 -78.5q0 -62 -44.5 -100t-123.5 -38q-25 0 -57.5 5t-73.5 13v106
l116 -74q20 -12 37 -12q30 0 52 20t22 50q0 38 -28 64t-77 58q-39 26 -70 46.5t-53 41.5t-33.5 46t-11.5 60q0 109 142 162q-44 23 -66 57.5t-22 76.5q0 63 43.5 100t127.5 37q35 0 64.5 -4t56.5 -13v-104zM208 376q-80 -54 -80 -120q0 -52 57 -91l92 -61q41 29 61 57.5
t20 61.5q0 57 -64 98z" />
    <glyph glyph-name="dieresis" unicode="&#xa8;" 
d="M134 653q54 0 54 -53q0 -23 -14 -36.5t-40 -13.5q-50 0 -50 49q0 25 13.5 39.5t36.5 14.5zM360 653q54 0 54 -53q0 -23 -14 -36.5t-40 -13.5q-51 0 -51 49q0 25 14 39.5t37 14.5z" />
    <glyph glyph-name="copyright" unicode="&#xa9;" horiz-adv-x="833" 
d="M416 713q73 0 138.5 -26.5t117.5 -78.5q51 -51 77 -116t26 -138q0 -74 -26 -138t-77 -114q-54 -52 -119.5 -79.5t-136.5 -27.5q-72 0 -136 27t-116 79t-79 116.5t-27 136.5t27.5 137t79.5 118q50 51 114 77.5t137 26.5zM733 354q0 64 -23.5 121.5t-68.5 102.5
t-102.5 68.5t-122.5 23.5t-121 -23t-100 -68q-46 -47 -70 -104.5t-24 -120.5t24 -119.5t69 -102.5q45 -45 102 -69t120 -24t121 24t105 70q45 44 68 100t23 121zM520 445q-8 38 -35 59t-67 21q-57 0 -89 -44t-32 -128q0 -81 33 -124.5t88 -43.5q42 0 70.5 23.5t36.5 65.5h63
q-3 -31 -16.5 -57t-36.5 -44.5t-53.5 -28.5t-66.5 -10q-85 0 -136.5 58t-51.5 160q0 52 14 93t39.5 70t61 44.5t78.5 15.5q68 0 113 -36.5t50 -93.5h-63z" />
    <glyph glyph-name="ordfeminine" unicode="&#xaa;" horiz-adv-x="342" 
d="M288 442v-5q0 -25 4 -47t27 -48l-77 -19q-11 20 -15 39q-35 -17 -59.5 -28t-44.5 -11q-38 0 -65 26t-27 65q0 49 38 71t118 22h18.5t20.5 -1v64q0 30 -14.5 46.5t-40.5 16.5q-17 0 -42 -18t-66 -50v74q40 11 72.5 15.5t58.5 4.5q32 0 50.5 -5.5t28 -17.5t12.5 -31.5
t3 -46.5v-116zM226 488q-66 -5 -96.5 -18t-30.5 -45q0 -28 21.5 -44t61.5 -16q7 0 18 0.5t26 1.5v121z" />
    <glyph glyph-name="guillemotleft" unicode="&#xab;" horiz-adv-x="347" 
d="M185 414l-90 -173l92 -174h-45l-111 174l106 173h48zM319 414l-93 -173l95 -174h-46l-109 174l107 173h46z" />
    <glyph glyph-name="logicalnot" unicode="&#xac;" horiz-adv-x="833" 
d="M709 174h-56v188h-529v57h585v-245z" />
    <glyph glyph-name="registered" unicode="&#xae;" horiz-adv-x="833" 
d="M416 713q74 0 139 -27t117 -79q51 -51 77 -116t26 -137q0 -74 -26.5 -138t-77.5 -114q-54 -52 -119 -79.5t-136 -27.5q-72 0 -136.5 27.5t-116.5 79.5q-51 51 -78 115.5t-27 136.5t27.5 137.5t80.5 118.5q50 51 113.5 77t136.5 26zM733 352q0 65 -23 122.5t-68 102.5
q-93 93 -226 93q-64 0 -120 -22.5t-100 -67.5q-47 -47 -71 -105t-24 -121t24 -119.5t69 -102.5t102 -69.5t119 -23.5q64 0 121.5 23.5t104.5 69.5q45 44 68.5 100t23.5 120zM426 565q171 0 171 -113q0 -43 -25.5 -72t-70.5 -37l92 -188h-77l-86 178h-87v-178h-69v410h152z
M343 520v-142h72q57 0 84 15t27 54q0 40 -27.5 56.5t-85.5 16.5h-70z" />
    <glyph glyph-name="macron" unicode="&#xaf;" 
d="M414 627v-51h-331v51h331z" />
    <glyph glyph-name="degree" unicode="&#xb0;" horiz-adv-x="329" 
d="M165 710q29 0 54 -11t43.5 -29.5t29.5 -43.5t11 -54q0 -28 -10.5 -53t-29.5 -44t-44.5 -30t-54.5 -11t-54 10.5t-43.5 29.5t-29 44t-10.5 54t11 54.5t29.5 44t44 29t53.5 10.5zM263 572q0 41 -28 69.5t-70 28.5q-20 0 -38 -7.5t-31.5 -21t-21.5 -31t-8 -38.5
q0 -42 29 -70.5t70 -28.5q42 0 70 29t28 70z" />
    <glyph glyph-name="plusminus" unicode="&#xb1;" horiz-adv-x="833" 
d="M446 408h263v-57h-263v-168h-58v168h-264v57h264v168h58v-168zM709 20h-585v57h585v-57z" />
    <glyph glyph-name="twosuperior" unicode="&#xb2;" horiz-adv-x="338" 
d="M233 303q33 0 75 40l-13 -84h-277q101 94 154.5 162t53.5 124q0 41 -20.5 64t-55.5 23q-22 0 -45 -17l-61 -45v72q65 14 116 14q65 0 100 -27t35 -75q0 -50 -50 -108.5t-145 -142.5h133z" />
    <glyph glyph-name="threesuperior" unicode="&#xb3;" horiz-adv-x="338" 
d="M190 465q54 -6 82 -31.5t28 -65.5q0 -56 -41 -86.5t-122 -30.5q-51 0 -107 12v76l64 -51q17 -13 40 -13q43 0 71.5 24t28.5 64q0 84 -111 85q51 26 75.5 52.5t24.5 62.5q0 29 -21.5 48t-61.5 19q-14 0 -23.5 -4t-19.5 -12l-61 -47v73q29 8 59 12t59 4q66 0 99.5 -23.5
t33.5 -64.5q0 -68 -97 -103z" />
    <glyph glyph-name="acute" unicode="&#xb4;" 
d="M424 688l-230 -165l94 165h136z" />
    <glyph glyph-name="mu" unicode="&#xb5;" horiz-adv-x="551" 
d="M115 231q-7 -31 -7 -67q0 -53 27.5 -82t78.5 -29q121 0 164 200l59 269h76l-79 -368q-11 -49 -11 -66q0 -32 35 -32h6t11 1l-13 -61q-13 -3 -24.5 -4t-20.5 -1q-35 0 -51.5 17t-19.5 55q-20 -34 -56.5 -53t-84.5 -19q-85 0 -128 67l-55 -266h-76l154 730h77z" />
    <glyph glyph-name="paragraph" unicode="&#xb6;" 
d="M402 684v-684h-46v684h-90v-684h-46v382q-86 4 -134.5 50.5t-48.5 119.5q0 38 13.5 69t38.5 53.5t60.5 35t79.5 12.5h234v-38h-61z" />
    <glyph glyph-name="periodcentered" unicode="&#xb7;" horiz-adv-x="257" 
d="M128 380q23 0 39.5 -17t16.5 -40t-16.5 -39.5t-39.5 -16.5t-39.5 16.5t-16.5 39.5t16.5 40t39.5 17z" />
    <glyph glyph-name="cedilla" unicode="&#xb8;" 
d="M245 0v-32q38 -3 58.5 -24t20.5 -56q0 -40 -33.5 -68t-87.5 -28q-15 0 -27 4q38 22 57 46t19 47t-11 37.5t-29 18.5v55h33z" />
    <glyph glyph-name="onesuperior" unicode="&#xb9;" horiz-adv-x="338" 
d="M212 338q0 -15 3 -34t22 -45h-108q18 27 21.5 47.5t3.5 39.5v7v235h-97q23 8 62 25.5t93 45.5v-321z" />
    <glyph glyph-name="ordmasculine" unicode="&#xba;" horiz-adv-x="403" 
d="M35 490q0 37 13 68t35.5 53.5t53.5 35t67 12.5q35 0 65 -12.5t52 -35t34.5 -53.5t12.5 -69q0 -37 -13 -68t-35.5 -53t-53.5 -34.5t-67 -12.5q-35 0 -65 12.5t-52 34.5t-34.5 53.5t-12.5 68.5zM199 633q-42 0 -67 -34t-25 -99q0 -74 26.5 -114t70.5 -40q42 0 67 34.5
t25 99.5q0 73 -26.5 113t-70.5 40z" />
    <glyph glyph-name="guillemotright" unicode="&#xbb;" horiz-adv-x="347" 
d="M73 414l107 -173l-108 -174h-47l95 174l-92 173h45zM211 414l105 -173l-110 -174h-46l92 174l-90 173h49z" />
    <glyph glyph-name="onequarter" unicode="&#xbc;" horiz-adv-x="812" 
d="M202 359q0 -14 3 -32t21 -42h-104q18 26 21.5 45t3.5 36v7v219h-93q23 7 60 24t88 43v-300zM660 551l-495 -465l-15 16l494 466zM739 141h59v-39h-59v-33q0 -40 23 -69h-98q24 33 24 72v30h-197q46 67 96 130.5t107 125.5l45 14v-231zM549 141h139v174z" />
    <glyph glyph-name="onehalf" unicode="&#xbd;" horiz-adv-x="812" 
d="M202 359q0 -14 3 -32t21 -42h-104q18 26 21.5 45t3.5 36v7v219h-93q23 7 60 24t88 43v-300zM660 551l-495 -465l-15 16l494 466zM711 41q32 0 72 37l-12 -78h-264q97 88 147 151.5t50 115.5q0 38 -19 59.5t-52 21.5q-12 0 -22 -4t-22 -12l-58 -42v67q64 14 111 14
q62 0 95.5 -25.5t33.5 -70.5q0 -46 -48 -101t-139 -133h127z" />
    <glyph glyph-name="threequarters" unicode="&#xbe;" horiz-adv-x="812" 
d="M181 478q51 -6 78.5 -30t27.5 -61q0 -53 -40 -81.5t-117 -28.5q-48 0 -101 12v71l61 -48q17 -12 38 -12q42 0 69 22.5t27 59.5q0 77 -106 79q49 25 72 49.5t23 57.5q0 28 -20.5 45.5t-58.5 17.5q-14 0 -23 -3.5t-18 -10.5l-58 -44v68q58 14 112 14q63 0 95 -22t32 -60
q0 -30 -23.5 -55t-69.5 -40zM661 551l-495 -465l-15 16l494 466zM740 141h59v-39h-59v-33q0 -40 23 -69h-98q24 33 24 72v30h-197q46 67 96 130.5t107 125.5l45 14v-231zM550 141h139v174z" />
    <glyph glyph-name="questiondown" unicode="&#xbf;" horiz-adv-x="449" 
d="M265 658q24 0 39 -13.5t15 -39.5q0 -27 -15.5 -43t-42.5 -16q-26 0 -40.5 14.5t-14.5 40.5q0 57 59 57zM291 496q1 -6 1 -12v-11q0 -38 -10.5 -60t-21.5 -41q-19 -33 -38 -61.5t-34 -56.5t-24 -55.5t-9 -58.5q0 -54 26 -82.5t72 -28.5q38 0 62 20l102 84v-121
q-50 -14 -94 -20t-81 -6q-44 0 -80 12t-61.5 33t-39 50.5t-13.5 64.5q0 36 13 62t35 55q42 55 78.5 88.5t53.5 57.5q11 15 13.5 31t2.5 36v20h47z" />
    <glyph glyph-name="Agrave" unicode="&#xc0;" horiz-adv-x="562" 
d="M498 143q15 -45 34 -80.5t48 -62.5h-179q30 38 30 58q0 13 -11 44l-54 162h-201l-59 -172q-8 -21 -8 -37q0 -14 8 -27t22 -28h-152q27 26 46.5 62.5t37.5 83.5l192 497l68 24zM181 306h171l-83 259zM337 719l-230 165h136z" />
    <glyph glyph-name="Aacute" unicode="&#xc1;" horiz-adv-x="562" 
d="M498 143q15 -45 34 -80.5t48 -62.5h-179q30 38 30 58q0 13 -11 44l-54 162h-201l-59 -172q-8 -21 -8 -37q0 -14 8 -27t22 -28h-152q27 26 46.5 62.5t37.5 83.5l192 497l68 24zM181 306h171l-83 259zM455 884l-230 -165l94 165h136z" />
    <glyph glyph-name="Acircumflex" unicode="&#xc2;" horiz-adv-x="562" 
d="M498 143q15 -45 34 -80.5t48 -62.5h-179q30 38 30 58q0 13 -11 44l-54 162h-201l-59 -172q-8 -21 -8 -37q0 -14 8 -27t22 -28h-152q27 26 46.5 62.5t37.5 83.5l192 497l68 24zM181 306h171l-83 259zM457 719l-176 80l-176 -80l176 177z" />
    <glyph glyph-name="Atilde" unicode="&#xc3;" horiz-adv-x="562" 
d="M498 143q15 -45 34 -80.5t48 -62.5h-179q30 38 30 58q0 13 -11 44l-54 162h-201l-59 -172q-8 -21 -8 -37q0 -14 8 -27t22 -28h-152q27 26 46.5 62.5t37.5 83.5l192 497l68 24zM181 306h171l-83 259zM342 801q14 -7 24 -7q25 0 78 56q-10 -51 -36 -77.5t-55 -26.5
q-26 0 -47 9l-86 40q-16 7 -24 7q-24 0 -78 -56q10 50 36 77t55 27q25 0 47 -10z" />
    <glyph glyph-name="Adieresis" unicode="&#xc4;" horiz-adv-x="562" 
d="M498 143q15 -45 34 -80.5t48 -62.5h-179q30 38 30 58q0 13 -11 44l-54 162h-201l-59 -172q-8 -21 -8 -37q0 -14 8 -27t22 -28h-152q27 26 46.5 62.5t37.5 83.5l192 497l68 24zM181 306h171l-83 259zM165 849q54 0 54 -53q0 -23 -14 -36.5t-40 -13.5q-50 0 -50 49
q0 25 13.5 39.5t36.5 14.5zM391 849q54 0 54 -53q0 -23 -14 -36.5t-40 -13.5q-51 0 -51 49q0 25 14 39.5t37 14.5z" />
    <glyph glyph-name="Aring" unicode="&#xc5;" horiz-adv-x="562" 
d="M276 939q24 0 45 -9t37 -24.5t25 -36.5t9 -45t-9 -45.5t-24.5 -37t-37 -24.5t-45.5 -9t-45 9t-36.5 24.5t-24 37t-8.5 45.5t9 45t24 36.5t36 24.5t45 9zM276 888q-28 0 -47 -19t-19 -47t19 -47t47 -19t47 19t19 47q0 27 -19.5 46.5t-46.5 19.5zM498 143q15 -45 34 -80.5
t48 -62.5h-179q30 38 30 58q0 13 -11 44l-54 162h-201l-59 -172q-8 -21 -8 -37q0 -14 8 -27t22 -28h-152q27 26 46.5 62.5t37.5 83.5l192 497l68 24zM181 306h171l-83 259z" />
    <glyph glyph-name="AE" unicode="&#xc6;" horiz-adv-x="787" 
d="M732 655v-126l-94 72q-18 14 -49 14h-132v-281h122q7 0 22 5.5t27 13.5l58 42v-153l-56 40q-16 11 -31 13t-32 2h-110v-259h144q17 0 26.5 6.5t22.5 15.5l98 73l-19 -133h-398q28 50 32.5 84t4.5 61v152h-156l-115 -223q-4 -7 -5.5 -14t-1.5 -12q0 -22 26 -48h-155
q33 27 54 59.5t41 67.5l295 528h381zM232 334h136v270z" />
    <glyph glyph-name="Ccedilla" unicode="&#xc7;" horiz-adv-x="566" 
d="M532 529l-106 78q-14 10 -27.5 12.5t-30.5 2.5q-50 0 -90.5 -20t-69.5 -58.5t-44.5 -95t-15.5 -129.5q0 -140 57.5 -216.5t157.5 -76.5q42 0 58 13l119 91l-17 -124q-88 -21 -163 -21q-155 0 -235 83t-80 242q0 81 23 146.5t65 112t101.5 71.5t133.5 25q38 0 78.5 -5
t85.5 -15v-116zM333 0v-32q38 -3 58.5 -24t20.5 -56q0 -40 -33.5 -68t-87.5 -28q-15 0 -27 4q38 22 57 46t19 47t-11 37.5t-29 18.5v55h33z" />
    <glyph glyph-name="Egrave" unicode="&#xc8;" horiz-adv-x="509" 
d="M458 655v-126l-94 72q-18 14 -49 14h-132v-267h122q7 0 22 5.5t27 13.5l58 42v-153l-56 40q-16 11 -31 13t-32 2h-110v-273h144q17 0 26.5 6.5t22.5 15.5l98 73l-19 -133h-398q28 50 32.5 84t4.5 61v367q0 31 -5.5 65t-31.5 78h401zM330 719l-230 165h136z" />
    <glyph glyph-name="Eacute" unicode="&#xc9;" horiz-adv-x="509" 
d="M458 655v-126l-94 72q-18 14 -49 14h-132v-267h122q7 0 22 5.5t27 13.5l58 42v-153l-56 40q-16 11 -31 13t-32 2h-110v-273h144q17 0 26.5 6.5t22.5 15.5l98 73l-19 -133h-398q28 50 32.5 84t4.5 61v367q0 31 -5.5 65t-31.5 78h401zM448 884l-230 -165l94 165h136z" />
    <glyph glyph-name="Ecircumflex" unicode="&#xca;" horiz-adv-x="509" 
d="M458 655v-126l-94 72q-18 14 -49 14h-132v-267h122q7 0 22 5.5t27 13.5l58 42v-153l-56 40q-16 11 -31 13t-32 2h-110v-273h144q17 0 26.5 6.5t22.5 15.5l98 73l-19 -133h-398q28 50 32.5 84t4.5 61v367q0 31 -5.5 65t-31.5 78h401zM450 719l-176 80l-176 -80l176 177z
" />
    <glyph glyph-name="Edieresis" unicode="&#xcb;" horiz-adv-x="509" 
d="M458 655v-126l-94 72q-18 14 -49 14h-132v-267h122q7 0 22 5.5t27 13.5l58 42v-153l-56 40q-16 11 -31 13t-32 2h-110v-273h144q17 0 26.5 6.5t22.5 15.5l98 73l-19 -133h-398q28 50 32.5 84t4.5 61v367q0 31 -5.5 65t-31.5 78h401zM158 849q54 0 54 -53q0 -23 -14 -36.5
t-40 -13.5q-50 0 -50 49q0 25 13.5 39.5t36.5 14.5zM384 849q54 0 54 -53q0 -23 -14 -36.5t-40 -13.5q-51 0 -51 49q0 25 14 39.5t37 14.5z" />
    <glyph glyph-name="Igrave" unicode="&#xcc;" horiz-adv-x="275" 
d="M218 655q-26 -45 -31 -77.5t-5 -60.5v-6v-367v-6q0 -28 5 -60.5t31 -77.5h-161q27 47 32 81t5 63v367q0 29 -5 63t-32 81h161zM193 719l-230 165h136z" />
    <glyph glyph-name="Iacute" unicode="&#xcd;" horiz-adv-x="275" 
d="M218 655q-26 -45 -31 -77.5t-5 -60.5v-6v-367v-6q0 -28 5 -60.5t31 -77.5h-161q27 47 32 81t5 63v367q0 29 -5 63t-32 81h161zM311 884l-230 -165l94 165h136z" />
    <glyph glyph-name="Icircumflex" unicode="&#xce;" horiz-adv-x="275" 
d="M218 655q-26 -45 -31 -77.5t-5 -60.5v-6v-367v-6q0 -28 5 -60.5t31 -77.5h-161q27 47 32 81t5 63v367q0 29 -5 63t-32 81h161zM313 719l-176 80l-176 -80l176 177z" />
    <glyph glyph-name="Idieresis" unicode="&#xcf;" horiz-adv-x="275" 
d="M218 655q-26 -45 -31 -77.5t-5 -60.5v-6v-367v-6q0 -28 5 -60.5t31 -77.5h-161q27 47 32 81t5 63v367q0 29 -5 63t-32 81h161zM21 849q54 0 54 -53q0 -23 -14 -36.5t-40 -13.5q-50 0 -50 49q0 25 13.5 39.5t36.5 14.5zM247 849q54 0 54 -53q0 -23 -14 -36.5t-40 -13.5
q-51 0 -51 49q0 25 14 39.5t37 14.5z" />
    <glyph glyph-name="Eth" unicode="&#xd0;" horiz-adv-x="646" 
d="M285 655q155 0 233.5 -78t78.5 -228q0 -170 -89 -262q-28 -30 -58 -47t-62.5 -26t-68.5 -11.5t-77 -2.5h-189q27 47 31.5 81t4.5 63v180h-87v49h87v138q0 29 -4.5 63t-31.5 81h232zM176 373h132v-49h-132v-280h88q116 0 175 71.5t59 213.5q0 136 -55.5 209t-161.5 73
h-105v-238z" />
    <glyph glyph-name="Ntilde" unicode="&#xd1;" horiz-adv-x="625" 
d="M170 655l321 -491v347q0 29 -5 63t-32 81h125q-28 -47 -32.5 -81t-4.5 -63v-516h-44l-359 547v-398v-6q0 -28 5 -60.5t31 -77.5h-124q27 47 31.5 81t4.5 63v367q0 29 -4.5 63t-31.5 81h119zM373 801q14 -7 24 -7q25 0 78 56q-10 -51 -36 -77.5t-55 -26.5q-26 0 -47 9
l-86 40q-16 7 -24 7q-24 0 -78 -56q10 50 36 77t55 27q25 0 47 -10z" />
    <glyph glyph-name="Ograve" unicode="&#xd2;" horiz-adv-x="676" 
d="M49 317q0 80 21 144t60 109t94 69.5t123 24.5q63 0 114.5 -23.5t88 -66.5t57 -104.5t20.5 -137.5q0 -80 -21.5 -144t-60.5 -109t-94 -69.5t-123 -24.5q-63 0 -114 23.5t-88 67t-57 104.5t-20 137zM337 619q-85 0 -136 -74t-51 -211q0 -73 14 -130t38.5 -96t59.5 -59
t77 -20q85 0 136 74.5t51 211.5q0 74 -14 130.5t-38.5 95t-59.5 58.5t-77 20zM394 719l-230 165h136z" />
    <glyph glyph-name="Oacute" unicode="&#xd3;" horiz-adv-x="676" 
d="M49 317q0 80 21 144t60 109t94 69.5t123 24.5q63 0 114.5 -23.5t88 -66.5t57 -104.5t20.5 -137.5q0 -80 -21.5 -144t-60.5 -109t-94 -69.5t-123 -24.5q-63 0 -114 23.5t-88 67t-57 104.5t-20 137zM337 619q-85 0 -136 -74t-51 -211q0 -73 14 -130t38.5 -96t59.5 -59
t77 -20q85 0 136 74.5t51 211.5q0 74 -14 130.5t-38.5 95t-59.5 58.5t-77 20zM512 884l-230 -165l94 165h136z" />
    <glyph glyph-name="Ocircumflex" unicode="&#xd4;" horiz-adv-x="676" 
d="M49 317q0 80 21 144t60 109t94 69.5t123 24.5q63 0 114.5 -23.5t88 -66.5t57 -104.5t20.5 -137.5q0 -80 -21.5 -144t-60.5 -109t-94 -69.5t-123 -24.5q-63 0 -114 23.5t-88 67t-57 104.5t-20 137zM337 619q-85 0 -136 -74t-51 -211q0 -73 14 -130t38.5 -96t59.5 -59
t77 -20q85 0 136 74.5t51 211.5q0 74 -14 130.5t-38.5 95t-59.5 58.5t-77 20zM514 719l-176 80l-176 -80l176 177z" />
    <glyph glyph-name="Otilde" unicode="&#xd5;" horiz-adv-x="676" 
d="M49 317q0 80 21 144t60 109t94 69.5t123 24.5q63 0 114.5 -23.5t88 -66.5t57 -104.5t20.5 -137.5q0 -80 -21.5 -144t-60.5 -109t-94 -69.5t-123 -24.5q-63 0 -114 23.5t-88 67t-57 104.5t-20 137zM337 619q-85 0 -136 -74t-51 -211q0 -73 14 -130t38.5 -96t59.5 -59
t77 -20q85 0 136 74.5t51 211.5q0 74 -14 130.5t-38.5 95t-59.5 58.5t-77 20zM399 801q14 -7 24 -7q25 0 78 56q-10 -51 -36 -77.5t-55 -26.5q-26 0 -47 9l-86 40q-16 7 -24 7q-24 0 -78 -56q10 50 36 77t55 27q25 0 47 -10z" />
    <glyph glyph-name="Odieresis" unicode="&#xd6;" horiz-adv-x="676" 
d="M49 317q0 80 21 144t60 109t94 69.5t123 24.5q63 0 114.5 -23.5t88 -66.5t57 -104.5t20.5 -137.5q0 -80 -21.5 -144t-60.5 -109t-94 -69.5t-123 -24.5q-63 0 -114 23.5t-88 67t-57 104.5t-20 137zM337 619q-85 0 -136 -74t-51 -211q0 -73 14 -130t38.5 -96t59.5 -59
t77 -20q85 0 136 74.5t51 211.5q0 74 -14 130.5t-38.5 95t-59.5 58.5t-77 20zM222 849q54 0 54 -53q0 -23 -14 -36.5t-40 -13.5q-50 0 -50 49q0 25 13.5 39.5t36.5 14.5zM448 849q54 0 54 -53q0 -23 -14 -36.5t-40 -13.5q-51 0 -51 49q0 25 14 39.5t37 14.5z" />
    <glyph glyph-name="multiply" unicode="&#xd7;" horiz-adv-x="833" 
d="M651 571l40 -40l-232 -233l232 -232l-40 -40l-232 232l-233 -232l-39 40l232 232l-232 233l39 40l233 -233z" />
    <glyph glyph-name="Oslash" unicode="&#xd8;" horiz-adv-x="676" 
d="M571 674l-47 -76q103 -96 103 -263q0 -81 -21.5 -146t-60.5 -110.5t-94 -70t-123 -24.5q-98 0 -153 47l-50 -80l-37 23l53 86q-44 44 -68 110t-24 150q0 79 21.5 142.5t60.5 108.5t94 69t123 24q73 0 142 -38l44 71zM452 564q-46 55 -115 55q-86 0 -136.5 -74t-50.5 -213
q0 -59 8.5 -107.5t28.5 -89.5zM213 94q52 -65 126 -65q86 0 136 74.5t50 213.5q0 64 -10 115.5t-34 94.5z" />
    <glyph glyph-name="Ugrave" unicode="&#xd9;" horiz-adv-x="616" 
d="M200 655q-28 -47 -32.5 -81t-4.5 -63v-302q0 -94 32.5 -139t117.5 -45q112 0 146 71q11 23 13.5 49t2.5 57v41v268q0 29 -4.5 63t-31.5 81h138q-28 -47 -32.5 -81t-4.5 -63v-280v-14q0 -39 -3 -73t-18 -64q-23 -46 -77.5 -71t-137.5 -25q-121 0 -175 49.5t-54 155.5v322
q0 29 -4.5 63t-31.5 81h161zM381 719l-230 165h136z" />
    <glyph glyph-name="Uacute" unicode="&#xda;" horiz-adv-x="616" 
d="M200 655q-28 -47 -32.5 -81t-4.5 -63v-302q0 -94 32.5 -139t117.5 -45q112 0 146 71q11 23 13.5 49t2.5 57v41v268q0 29 -4.5 63t-31.5 81h138q-28 -47 -32.5 -81t-4.5 -63v-280v-14q0 -39 -3 -73t-18 -64q-23 -46 -77.5 -71t-137.5 -25q-121 0 -175 49.5t-54 155.5v322
q0 29 -4.5 63t-31.5 81h161zM499 884l-230 -165l94 165h136z" />
    <glyph glyph-name="Ucircumflex" unicode="&#xdb;" horiz-adv-x="616" 
d="M200 655q-28 -47 -32.5 -81t-4.5 -63v-302q0 -94 32.5 -139t117.5 -45q112 0 146 71q11 23 13.5 49t2.5 57v41v268q0 29 -4.5 63t-31.5 81h138q-28 -47 -32.5 -81t-4.5 -63v-280v-14q0 -39 -3 -73t-18 -64q-23 -46 -77.5 -71t-137.5 -25q-121 0 -175 49.5t-54 155.5v322
q0 29 -4.5 63t-31.5 81h161zM501 719l-176 80l-176 -80l176 177z" />
    <glyph glyph-name="Udieresis" unicode="&#xdc;" horiz-adv-x="616" 
d="M200 655q-28 -47 -32.5 -81t-4.5 -63v-302q0 -94 32.5 -139t117.5 -45q112 0 146 71q11 23 13.5 49t2.5 57v41v268q0 29 -4.5 63t-31.5 81h138q-28 -47 -32.5 -81t-4.5 -63v-280v-14q0 -39 -3 -73t-18 -64q-23 -46 -77.5 -71t-137.5 -25q-121 0 -175 49.5t-54 155.5v322
q0 29 -4.5 63t-31.5 81h161zM209 849q54 0 54 -53q0 -23 -14 -36.5t-40 -13.5q-50 0 -50 49q0 25 13.5 39.5t36.5 14.5zM435 849q54 0 54 -53q0 -23 -14 -36.5t-40 -13.5q-51 0 -51 49q0 25 14 39.5t37 14.5z" />
    <glyph glyph-name="Yacute" unicode="&#xdd;" horiz-adv-x="532" 
d="M166 655q-24 -34 -24 -47t17 -41l123 -205l116 214q5 8 8 15.5t3 17.5q0 15 -22 46h155q-31 -28 -54.5 -58.5t-45.5 -64.5l-135 -207v-181q0 -29 4.5 -63t32.5 -81h-161q27 47 31.5 81t4.5 63v157l-154 251q-11 17 -30 43.5t-57 59.5h188zM440 884l-230 -165l94 165h136z
" />
    <glyph glyph-name="Thorn" unicode="&#xde;" horiz-adv-x="491" 
d="M214 655q-23 -42 -30.5 -72.5t-7.5 -41.5q0 -6 1 -6h96q101 0 153 -48.5t52 -138.5q0 -42 -15 -77.5t-44 -61t-70.5 -40t-94.5 -14.5q-14 0 -33 0.5t-44 1.5q-1 -6 -1 -12v-11q0 -69 38 -134h-161q27 47 31.5 81t4.5 63v367q0 29 -4.5 63t-31.5 81h161zM177 196
q21 -1 33 -1h16q151 0 151 152q0 71 -33 109.5t-91 38.5h-76v-299z" />
    <glyph glyph-name="germandbls" unicode="&#xdf;" horiz-adv-x="568" 
d="M242 124l97 -75q11 -8 21.5 -14t27.5 -6q31 0 53 21t22 50q0 21 -8.5 35t-24.5 25t-38.5 21.5t-50.5 25.5q-46 24 -68.5 50.5t-22.5 69.5q0 31 12 54.5t33 48.5q15 18 30.5 33.5t28 32t20.5 35t8 42.5q0 45 -28 70.5t-79 25.5q-64 0 -88.5 -38t-24.5 -115v-516h-121
q21 30 30 65.5t9 79.5v25v295q0 28 1 52t5.5 45.5t15 41.5t29.5 39q29 31 73.5 47.5t98.5 16.5q38 0 69 -9t53.5 -25.5t35 -39.5t12.5 -51q0 -21 -6.5 -38t-18.5 -31t-28.5 -28t-35.5 -29q-31 -25 -48.5 -45.5t-17.5 -48.5q0 -19 8.5 -31.5t24 -23.5t38 -21.5t50.5 -25.5
q26 -13 45 -25.5t31.5 -27.5t18.5 -34t6 -45q0 -30 -11.5 -54.5t-32 -42.5t-49.5 -28t-64 -10q-60 0 -141 23v108z" />
    <glyph glyph-name="agrave" unicode="&#xe0;" horiz-adv-x="456" 
d="M384 158v-7q0 -34 5.5 -66t35.5 -69l-102 -27q-16 28 -20 55q-47 -25 -80 -40.5t-59 -15.5q-25 0 -47.5 10t-39 27.5t-26.5 41.5t-10 52q0 70 51 101.5t157 31.5q12 0 25 -0.5t27 -1.5v91q0 44 -19.5 67t-53.5 23q-22 0 -56 -25.5t-88 -70.5v105q53 15 96 22t78 7
q42 0 67 -8t38 -25t17 -44.5t4 -66.5v-167zM301 224q-88 -7 -128.5 -25t-40.5 -65q0 -40 28.5 -62.5t81.5 -22.5q19 0 59 3v172zM284 523l-230 165h136z" />
    <glyph glyph-name="aacute" unicode="&#xe1;" horiz-adv-x="456" 
d="M384 158v-7q0 -34 5.5 -66t35.5 -69l-102 -27q-16 28 -20 55q-47 -25 -80 -40.5t-59 -15.5q-25 0 -47.5 10t-39 27.5t-26.5 41.5t-10 52q0 70 51 101.5t157 31.5q12 0 25 -0.5t27 -1.5v91q0 44 -19.5 67t-53.5 23q-22 0 -56 -25.5t-88 -70.5v105q53 15 96 22t78 7
q42 0 67 -8t38 -25t17 -44.5t4 -66.5v-167zM301 224q-88 -7 -128.5 -25t-40.5 -65q0 -40 28.5 -62.5t81.5 -22.5q19 0 59 3v172zM402 688l-230 -165l94 165h136z" />
    <glyph glyph-name="acircumflex" unicode="&#xe2;" horiz-adv-x="456" 
d="M384 158v-7q0 -34 5.5 -66t35.5 -69l-102 -27q-16 28 -20 55q-47 -25 -80 -40.5t-59 -15.5q-25 0 -47.5 10t-39 27.5t-26.5 41.5t-10 52q0 70 51 101.5t157 31.5q12 0 25 -0.5t27 -1.5v91q0 44 -19.5 67t-53.5 23q-22 0 -56 -25.5t-88 -70.5v105q53 15 96 22t78 7
q42 0 67 -8t38 -25t17 -44.5t4 -66.5v-167zM301 224q-88 -7 -128.5 -25t-40.5 -65q0 -40 28.5 -62.5t81.5 -22.5q19 0 59 3v172zM404 523l-176 80l-176 -80l176 177z" />
    <glyph glyph-name="atilde" unicode="&#xe3;" horiz-adv-x="456" 
d="M384 158v-7q0 -34 5.5 -66t35.5 -69l-102 -27q-16 28 -20 55q-47 -25 -80 -40.5t-59 -15.5q-25 0 -47.5 10t-39 27.5t-26.5 41.5t-10 52q0 70 51 101.5t157 31.5q12 0 25 -0.5t27 -1.5v91q0 44 -19.5 67t-53.5 23q-22 0 -56 -25.5t-88 -70.5v105q53 15 96 22t78 7
q42 0 67 -8t38 -25t17 -44.5t4 -66.5v-167zM301 224q-88 -7 -128.5 -25t-40.5 -65q0 -40 28.5 -62.5t81.5 -22.5q19 0 59 3v172zM289 605q14 -7 24 -7q25 0 78 56q-10 -51 -36 -77.5t-55 -26.5q-26 0 -47 9l-86 40q-16 7 -24 7q-24 0 -78 -56q10 50 36 77t55 27q25 0 47 -10
z" />
    <glyph glyph-name="adieresis" unicode="&#xe4;" horiz-adv-x="456" 
d="M384 158v-7q0 -34 5.5 -66t35.5 -69l-102 -27q-16 28 -20 55q-47 -25 -80 -40.5t-59 -15.5q-25 0 -47.5 10t-39 27.5t-26.5 41.5t-10 52q0 70 51 101.5t157 31.5q12 0 25 -0.5t27 -1.5v91q0 44 -19.5 67t-53.5 23q-22 0 -56 -25.5t-88 -70.5v105q53 15 96 22t78 7
q42 0 67 -8t38 -25t17 -44.5t4 -66.5v-167zM301 224q-88 -7 -128.5 -25t-40.5 -65q0 -40 28.5 -62.5t81.5 -22.5q19 0 59 3v172zM112 653q54 0 54 -53q0 -23 -14 -36.5t-40 -13.5q-50 0 -50 49q0 25 13.5 39.5t36.5 14.5zM338 653q54 0 54 -53q0 -23 -14 -36.5t-40 -13.5
q-51 0 -51 49q0 25 14 39.5t37 14.5z" />
    <glyph glyph-name="aring" unicode="&#xe5;" horiz-adv-x="456" 
d="M232 742q24 0 45 -9t36.5 -24.5t24.5 -36.5t9 -45t-9 -45t-24.5 -36.5t-36.5 -24.5t-45 -9t-45 9t-36.5 24.5t-24.5 36.5t-9 45t9 45t24.5 36.5t36.5 24.5t45 9zM232 692q-28 0 -47 -19t-19 -47t19 -47t47 -19t47 19t19 47q0 27 -19.5 46.5t-46.5 19.5zM384 158v-7
q0 -34 5.5 -66t35.5 -69l-102 -27q-16 28 -20 55q-47 -25 -80 -40.5t-59 -15.5q-25 0 -47.5 10t-39 27.5t-26.5 41.5t-10 52q0 70 51 101.5t157 31.5q12 0 25 -0.5t27 -1.5v91q0 44 -19.5 67t-53.5 23q-22 0 -56 -25.5t-88 -70.5v105q53 15 96 22t78 7q42 0 67 -8t38 -25
t17 -44.5t4 -66.5v-167zM301 224q-88 -7 -128.5 -25t-40.5 -65q0 -40 28.5 -62.5t81.5 -22.5q19 0 59 3v172z" />
    <glyph glyph-name="ae" unicode="&#xe6;" horiz-adv-x="729" 
d="M94 440q40 14 81 21t83 7q49 0 79 -11t44 -37q48 48 127 48q82 0 131 -56t49 -157v-6h-305q0 -106 47 -152.5t152 -46.5q51 0 112 9q-79 -67 -181 -67q-89 0 -151 55q-49 -26 -90 -41.5t-81 -15.5q-63 0 -100.5 35.5t-37.5 94.5q0 70 51.5 100.5t157.5 30.5h23t25 -1v93
q0 41 -20.5 64.5t-50.5 23.5q-20 0 -35 -12l-110 -84v105zM310 224q-88 -8 -128.5 -27t-40.5 -64q0 -85 112 -85q12 0 26 2t31 5v169zM589 302q-1 63 -26 96.5t-68 33.5q-48 0 -79 -41t-32 -116z" />
    <glyph glyph-name="ccedilla" unicode="&#xe7;" horiz-adv-x="428" 
d="M407 344l-100 69q-25 17 -43 17q-24 0 -47 -13.5t-40.5 -39t-28 -61t-10.5 -80.5q0 -190 188 -190q30 0 57.5 2t52.5 6q-42 -35 -86 -51t-95 -16q-45 0 -83.5 16t-66.5 45t-43.5 69t-15.5 88q0 60 18 108.5t50 83t76.5 53.5t98.5 19q29 0 57.5 -4.5t60.5 -12.5v-108z
M252 0v-32q38 -3 58.5 -24t20.5 -56q0 -40 -33.5 -68t-87.5 -28q-15 0 -27 4q38 22 57 46t19 47t-11 37.5t-29 18.5v55h33z" />
    <glyph glyph-name="egrave" unicode="&#xe8;" horiz-adv-x="484" 
d="M344 304q-1 128 -91 128q-51 0 -81 -39t-33 -114zM138 252v-3q0 -105 50 -153.5t156 -48.5q47 0 105 12q-79 -70 -190 -70q-47 0 -86 16t-66.5 46t-42.5 73t-15 97q0 104 59 174q30 35 71 54.5t83 19.5q87 0 133.5 -55t49.5 -162h-307zM318 523l-230 165h136z" />
    <glyph glyph-name="eacute" unicode="&#xe9;" horiz-adv-x="484" 
d="M344 304q-1 128 -91 128q-51 0 -81 -39t-33 -114zM138 252v-3q0 -105 50 -153.5t156 -48.5q47 0 105 12q-79 -70 -190 -70q-47 0 -86 16t-66.5 46t-42.5 73t-15 97q0 104 59 174q30 35 71 54.5t83 19.5q87 0 133.5 -55t49.5 -162h-307zM436 688l-230 -165l94 165h136z
" />
    <glyph glyph-name="ecircumflex" unicode="&#xea;" horiz-adv-x="484" 
d="M344 304q-1 128 -91 128q-51 0 -81 -39t-33 -114zM138 252v-3q0 -105 50 -153.5t156 -48.5q47 0 105 12q-79 -70 -190 -70q-47 0 -86 16t-66.5 46t-42.5 73t-15 97q0 104 59 174q30 35 71 54.5t83 19.5q87 0 133.5 -55t49.5 -162h-307zM438 523l-176 80l-176 -80l176 177
z" />
    <glyph glyph-name="edieresis" unicode="&#xeb;" horiz-adv-x="484" 
d="M344 304q-1 128 -91 128q-51 0 -81 -39t-33 -114zM138 252v-3q0 -105 50 -153.5t156 -48.5q47 0 105 12q-79 -70 -190 -70q-47 0 -86 16t-66.5 46t-42.5 73t-15 97q0 104 59 174q30 35 71 54.5t83 19.5q87 0 133.5 -55t49.5 -162h-307zM146 653q54 0 54 -53
q0 -23 -14 -36.5t-40 -13.5q-50 0 -50 49q0 25 13.5 39.5t36.5 14.5zM372 653q54 0 54 -53q0 -23 -14 -36.5t-40 -13.5q-51 0 -51 49q0 25 14 39.5t37 14.5z" />
    <glyph glyph-name="igrave" unicode="&#xec;" horiz-adv-x="257" 
d="M172 144q0 -29 4.5 -63t32.5 -81h-157q27 47 32 81t5 63v191q0 28 -10 55t-30 56l123 27v-329zM185 523l-230 165h136z" />
    <glyph glyph-name="iacute" unicode="&#xed;" horiz-adv-x="257" 
d="M172 144q0 -29 4.5 -63t32.5 -81h-157q27 47 32 81t5 63v191q0 28 -10 55t-30 56l123 27v-329zM303 688l-230 -165l94 165h136z" />
    <glyph glyph-name="icircumflex" unicode="&#xee;" horiz-adv-x="257" 
d="M172 144q0 -29 4.5 -63t32.5 -81h-157q27 47 32 81t5 63v191q0 28 -10 55t-30 56l123 27v-329zM305 523l-176 80l-176 -80l176 177z" />
    <glyph glyph-name="idieresis" unicode="&#xef;" horiz-adv-x="257" 
d="M172 144q0 -29 4.5 -63t32.5 -81h-157q27 47 32 81t5 63v191q0 28 -10 55t-30 56l123 27v-329zM13 653q54 0 54 -53q0 -23 -14 -36.5t-40 -13.5q-50 0 -50 49q0 25 13.5 39.5t36.5 14.5zM239 653q54 0 54 -53q0 -23 -14 -36.5t-40 -13.5q-51 0 -51 49q0 25 14 39.5
t37 14.5z" />
    <glyph glyph-name="eth" unicode="&#xf0;" horiz-adv-x="537" 
d="M386 419q-11 48 -34.5 88.5t-58.5 79.5l-130 -70l-18 36l123 62q-20 20 -43 38.5t-47 35.5l103 24q14 -13 28.5 -28t30.5 -32l118 62l18 -35l-113 -59q125 -152 125 -350q0 -67 -16.5 -120.5t-46 -90t-71 -56t-91.5 -19.5q-46 0 -85.5 18t-69 50t-46 77t-16.5 99
q0 51 16.5 93t46 72t70 47t87.5 17q32 0 61.5 -9.5t58.5 -29.5zM389 396q-60 20 -104 20q-65 0 -103 -48t-38 -137q0 -100 35.5 -154.5t92.5 -54.5q63 0 96 62.5t33 184.5q0 58 -12 127z" />
    <glyph glyph-name="ntilde" unicode="&#xf1;" horiz-adv-x="521" 
d="M166 418q54 23 94.5 37t74.5 14q114 0 114 -169v-156q0 -29 4.5 -63t32.5 -81h-157q27 47 32 81t5 63v128q0 39 -7 65.5t-23 42.5t-43 23t-67 7q-30 0 -60 -3v-263v-6q0 -28 5 -60.5t31 -77.5h-156q27 47 31.5 81t4.5 63v191q0 30 -9.5 56t-29.5 55l123 27v-55zM322 605
q14 -7 24 -7q25 0 78 56q-10 -51 -36 -77.5t-55 -26.5q-26 0 -47 9l-86 40q-16 7 -24 7q-24 0 -78 -56q10 50 36 77t55 27q25 0 47 -10z" />
    <glyph glyph-name="ograve" unicode="&#xf2;" horiz-adv-x="537" 
d="M46 227q0 53 17 97.5t47.5 76.5t72 50t89.5 18q47 0 87 -18t69.5 -50t46 -76.5t16.5 -98.5q0 -53 -17 -97t-47 -76t-71.5 -50t-90.5 -18q-47 0 -87 17.5t-69.5 49.5t-46 76.5t-16.5 98.5zM265 432q-57 0 -89.5 -49t-32.5 -142q0 -105 35 -162t94 -57q57 0 89.5 49
t32.5 142q0 105 -35.5 162t-93.5 57zM325 523l-230 165h136z" />
    <glyph glyph-name="oacute" unicode="&#xf3;" horiz-adv-x="537" 
d="M46 227q0 53 17 97.5t47.5 76.5t72 50t89.5 18q47 0 87 -18t69.5 -50t46 -76.5t16.5 -98.5q0 -53 -17 -97t-47 -76t-71.5 -50t-90.5 -18q-47 0 -87 17.5t-69.5 49.5t-46 76.5t-16.5 98.5zM265 432q-57 0 -89.5 -49t-32.5 -142q0 -105 35 -162t94 -57q57 0 89.5 49
t32.5 142q0 105 -35.5 162t-93.5 57zM443 688l-230 -165l94 165h136z" />
    <glyph glyph-name="ocircumflex" unicode="&#xf4;" horiz-adv-x="537" 
d="M46 227q0 53 17 97.5t47.5 76.5t72 50t89.5 18q47 0 87 -18t69.5 -50t46 -76.5t16.5 -98.5q0 -53 -17 -97t-47 -76t-71.5 -50t-90.5 -18q-47 0 -87 17.5t-69.5 49.5t-46 76.5t-16.5 98.5zM265 432q-57 0 -89.5 -49t-32.5 -142q0 -105 35 -162t94 -57q57 0 89.5 49
t32.5 142q0 105 -35.5 162t-93.5 57zM445 523l-176 80l-176 -80l176 177z" />
    <glyph glyph-name="otilde" unicode="&#xf5;" horiz-adv-x="537" 
d="M46 227q0 53 17 97.5t47.5 76.5t72 50t89.5 18q47 0 87 -18t69.5 -50t46 -76.5t16.5 -98.5q0 -53 -17 -97t-47 -76t-71.5 -50t-90.5 -18q-47 0 -87 17.5t-69.5 49.5t-46 76.5t-16.5 98.5zM265 432q-57 0 -89.5 -49t-32.5 -142q0 -105 35 -162t94 -57q57 0 89.5 49
t32.5 142q0 105 -35.5 162t-93.5 57zM330 605q14 -7 24 -7q25 0 78 56q-10 -51 -36 -77.5t-55 -26.5q-26 0 -47 9l-86 40q-16 7 -24 7q-24 0 -78 -56q10 50 36 77t55 27q25 0 47 -10z" />
    <glyph glyph-name="odieresis" unicode="&#xf6;" horiz-adv-x="537" 
d="M46 227q0 53 17 97.5t47.5 76.5t72 50t89.5 18q47 0 87 -18t69.5 -50t46 -76.5t16.5 -98.5q0 -53 -17 -97t-47 -76t-71.5 -50t-90.5 -18q-47 0 -87 17.5t-69.5 49.5t-46 76.5t-16.5 98.5zM265 432q-57 0 -89.5 -49t-32.5 -142q0 -105 35 -162t94 -57q57 0 89.5 49
t32.5 142q0 105 -35.5 162t-93.5 57zM153 653q54 0 54 -53q0 -23 -14 -36.5t-40 -13.5q-50 0 -50 49q0 25 13.5 39.5t36.5 14.5zM379 653q54 0 54 -53q0 -23 -14 -36.5t-40 -13.5q-51 0 -51 49q0 25 14 39.5t37 14.5z" />
    <glyph glyph-name="divide" unicode="&#xf7;" horiz-adv-x="833" 
d="M417 530q23 0 39.5 -16.5t16.5 -39.5t-16 -39.5t-40 -16.5t-40 16.5t-16 39.5t16.5 39.5t39.5 16.5zM709 270h-585v57h585v-57zM417 178q23 0 39.5 -16.5t16.5 -39.5t-16 -39.5t-40 -16.5q-23 0 -39.5 16.5t-16.5 39.5q0 24 16.5 40t39.5 16z" />
    <glyph glyph-name="oslash" unicode="&#xf8;" horiz-adv-x="537" 
d="M460 506l-53 -86q84 -70 84 -193q0 -53 -17 -97.5t-47.5 -76.5t-72 -50t-90.5 -18q-60 0 -112 31l-56 -87l-29 19l56 90q-77 73 -77 189q0 53 17 97.5t47.5 76.5t72 50t89.5 18q55 0 104 -29l54 82zM346 392q-28 40 -79 40q-58 0 -91 -48.5t-33 -140.5q0 -63 23 -137z
M184 70q35 -48 86 -48q58 0 90.5 49.5t32.5 144.5q0 42 -6.5 76.5t-20.5 63.5z" />
    <glyph glyph-name="ugrave" unicode="&#xf9;" horiz-adv-x="521" 
d="M156 197q0 -39 4 -66.5t17 -45t38 -25t66 -7.5q16 0 34 1.5t40 3.5v277q0 28 -10 55t-30 56l124 27v-346q0 -29 10 -55t30 -55l-124 -28v61q-50 -28 -90 -42.5t-75 -14.5q-67 0 -92 37.5t-25 117.5v187q0 28 -10 55t-30 56l123 27v-276zM317 523l-230 165h136z" />
    <glyph glyph-name="uacute" unicode="&#xfa;" horiz-adv-x="521" 
d="M156 197q0 -39 4 -66.5t17 -45t38 -25t66 -7.5q16 0 34 1.5t40 3.5v277q0 28 -10 55t-30 56l124 27v-346q0 -29 10 -55t30 -55l-124 -28v61q-50 -28 -90 -42.5t-75 -14.5q-67 0 -92 37.5t-25 117.5v187q0 28 -10 55t-30 56l123 27v-276zM435 688l-230 -165l94 165h136z
" />
    <glyph glyph-name="ucircumflex" unicode="&#xfb;" horiz-adv-x="521" 
d="M156 197q0 -39 4 -66.5t17 -45t38 -25t66 -7.5q16 0 34 1.5t40 3.5v277q0 28 -10 55t-30 56l124 27v-346q0 -29 10 -55t30 -55l-124 -28v61q-50 -28 -90 -42.5t-75 -14.5q-67 0 -92 37.5t-25 117.5v187q0 28 -10 55t-30 56l123 27v-276zM437 523l-176 80l-176 -80
l176 177z" />
    <glyph glyph-name="udieresis" unicode="&#xfc;" horiz-adv-x="521" 
d="M156 197q0 -39 4 -66.5t17 -45t38 -25t66 -7.5q16 0 34 1.5t40 3.5v277q0 28 -10 55t-30 56l124 27v-346q0 -29 10 -55t30 -55l-124 -28v61q-50 -28 -90 -42.5t-75 -14.5q-67 0 -92 37.5t-25 117.5v187q0 28 -10 55t-30 56l123 27v-276zM145 653q54 0 54 -53
q0 -23 -14 -36.5t-40 -13.5q-50 0 -50 49q0 25 13.5 39.5t36.5 14.5zM371 653q54 0 54 -53q0 -23 -14 -36.5t-40 -13.5q-51 0 -51 49q0 25 14 39.5t37 14.5z" />
    <glyph glyph-name="yacute" unicode="&#xfd;" horiz-adv-x="442" 
d="M168 463q-30 -36 -30 -57q0 -7 2.5 -14.5l5.5 -16.5l104 -284l87 285q7 22 7 35q0 11 -6.5 23t-18.5 29h137q-25 -24 -40.5 -51t-27.5 -59l-157 -425q-26 -69 -62.5 -102t-89.5 -33q-12 0 -28.5 1.5t-36.5 5.5v106l61 -52q8 -7 17 -10.5t14 -3.5q51 0 101 152l-148 365
q-10 23 -23.5 50t-45.5 56h178zM395 688l-230 -165l94 165h136z" />
    <glyph glyph-name="thorn" unicode="&#xfe;" horiz-adv-x="532" 
d="M82 541q0 39 -11 71.5t-33 68.5l128 27v-293q42 30 78.5 44t64.5 14q37 0 70 -16.5t57.5 -46t38.5 -71t14 -91.5q0 -54 -17.5 -100.5t-47 -81t-68.5 -54.5t-81 -20q-58 0 -109 33v-87v-6q0 -28 5 -60.5t31 -77.5h-156q27 47 31.5 81t4.5 63v603zM166 54q35 -16 76 -16
q71 0 113 51t42 141q0 91 -43.5 137t-130.5 46q-14 0 -28 -2t-29 -5v-352z" />
    <glyph glyph-name="ydieresis" unicode="&#xff;" horiz-adv-x="442" 
d="M168 463q-30 -36 -30 -57q0 -7 2.5 -14.5l5.5 -16.5l104 -284l87 285q7 22 7 35q0 11 -6.5 23t-18.5 29h137q-25 -24 -40.5 -51t-27.5 -59l-157 -425q-26 -69 -62.5 -102t-89.5 -33q-12 0 -28.5 1.5t-36.5 5.5v106l61 -52q8 -7 17 -10.5t14 -3.5q51 0 101 152l-148 365
q-10 23 -23.5 50t-45.5 56h178zM105 653q54 0 54 -53q0 -23 -14 -36.5t-40 -13.5q-50 0 -50 49q0 25 13.5 39.5t36.5 14.5zM331 653q54 0 54 -53q0 -23 -14 -36.5t-40 -13.5q-51 0 -51 49q0 25 14 39.5t37 14.5z" />
    <glyph glyph-name="dotlessi" unicode="&#x131;" horiz-adv-x="257" 
d="M172 144q0 -29 4.5 -63t32.5 -81h-157q27 47 32 81t5 63v191q0 28 -10 55t-30 56l123 27v-329z" />
    <glyph glyph-name="Lslash" unicode="&#x141;" horiz-adv-x="444" 
d="M218 655q-28 -47 -32.5 -81t-4.5 -63v-96l79 70l30 -33l-109 -98v-316h110q20 0 32 6t25 16l98 73l-18 -133h-373q28 50 32.5 84t4.5 61v127l-56 -49l-31 34l87 77v178q0 31 -5.5 65t-31.5 78h163z" />
    <glyph glyph-name="lslash" unicode="&#x142;" horiz-adv-x="245" 
d="M164 446l55 48l28 -29l-83 -73v-248q0 -29 4.5 -63t32.5 -81h-157q27 47 32 81t5 63v173l-57 -51l-27 30l84 75v199q0 28 -10 55t-30 56l123 27v-262z" />
    <glyph glyph-name="OE" unicode="&#x152;" horiz-adv-x="843" 
d="M792 655v-126l-94 72q-18 14 -50 14h-132v-267h122q7 0 22 5.5t27 13.5l58 42v-153l-56 40q-16 11 -31 13t-32 2h-110v-273h144q17 0 26.5 6.5t22.5 15.5l98 73l-18 -133h-370q-49 -11 -83 -11q-67 0 -120.5 22.5t-90.5 64.5t-56.5 102.5t-19.5 137.5t21.5 141t60.5 110
t93.5 71.5t119.5 25.5q38 0 77 -9h371zM430 594q-49 24 -92 24q-42 0 -77 -20t-59.5 -58t-38.5 -91.5t-14 -121.5q0 -69 14.5 -123.5t40 -92.5t60.5 -58.5t75 -20.5t91 24v538z" />
    <glyph glyph-name="oe" unicode="&#x153;" horiz-adv-x="836" 
d="M265 435q-58 0 -91 -49t-33 -143q0 -106 35.5 -163.5t95.5 -57.5q58 0 91 49.5t33 142.5q0 106 -35.5 163.5t-95.5 57.5zM442 381q68 88 169 88q84 0 133.5 -56t49.5 -157v-6h-307q0 -106 47.5 -153.5t153.5 -47.5q51 0 112 9q-79 -66 -181 -66q-117 0 -181 82
q-32 -48 -71.5 -69t-95.5 -21q-51 0 -93 17.5t-72 49.5t-46.5 77t-16.5 99q0 53 17.5 98t48 77t73 50t93.5 18q106 0 167 -89zM695 304q0 63 -25.5 97.5t-69.5 34.5q-49 0 -80 -42t-32 -117z" />
    <glyph glyph-name="Scaron" unicode="&#x160;" horiz-adv-x="484" 
d="M414 529l-99 76q-27 21 -54 21q-22 0 -42 -8t-35 -22.5t-24 -34.5t-9 -44q0 -44 23.5 -70t67.5 -55l106 -70q47 -31 69.5 -62.5t22.5 -83.5q0 -41 -15 -76t-43.5 -60.5t-69.5 -40t-93 -14.5q-77 0 -160 30v117l106 -81q14 -11 26.5 -16t26.5 -5q60 0 97 32.5t37 83.5
q0 35 -18 57.5t-52 45.5l-117 81q-51 35 -74.5 70.5t-23.5 88.5q0 37 14.5 69t41 55.5t63.5 37t82 13.5q66 0 146 -20v-115zM242 812l176 81l-176 -177l-176 177z" />
    <glyph glyph-name="scaron" unicode="&#x161;" horiz-adv-x="398" 
d="M340 346q-54 41 -87.5 63.5t-53.5 22.5q-26 0 -45.5 -19t-19.5 -48q0 -23 16.5 -41.5t49.5 -35.5l67 -35q46 -24 68.5 -50t22.5 -69q0 -69 -44.5 -107.5t-129.5 -38.5q-24 0 -57 5t-75 17v112q56 -46 91.5 -71.5t58.5 -25.5q30 0 52 21.5t22 53.5q0 29 -15.5 45.5
t-47.5 32.5l-52 26q-53 26 -78 57.5t-25 73.5q0 59 43 96.5t117 37.5q25 0 56 -4t66 -12v-107zM199 616l176 81l-176 -177l-176 177z" />
    <glyph glyph-name="Ydieresis" unicode="&#x178;" horiz-adv-x="532" 
d="M166 655q-24 -34 -24 -47t17 -41l123 -205l116 214q5 8 8 15.5t3 17.5q0 15 -22 46h155q-31 -28 -54.5 -58.5t-45.5 -64.5l-135 -207v-181q0 -29 4.5 -63t32.5 -81h-161q27 47 31.5 81t4.5 63v157l-154 251q-11 17 -30 43.5t-57 59.5h188zM150 849q54 0 54 -53
q0 -23 -14 -36.5t-40 -13.5q-50 0 -50 49q0 25 13.5 39.5t36.5 14.5zM376 849q54 0 54 -53q0 -23 -14 -36.5t-40 -13.5q-51 0 -51 49q0 25 14 39.5t37 14.5z" />
    <glyph glyph-name="Zcaron" unicode="&#x17d;" horiz-adv-x="539" 
d="M507 655l-355 -614h202q16 0 31.5 7t33.5 19.5t39 29.5t49 37l-19 -134h-463l356 615h-165q-32 0 -65.5 -23t-84.5 -60v123h441zM269 812l176 81l-176 -177l-176 177z" />
    <glyph glyph-name="zcaron" unicode="&#x17e;" horiz-adv-x="463" 
d="M427 463l-269 -422h124q15 0 26.5 2.5t22.5 10.5l90 71v-125h-387l269 422h-102q-22 0 -39 -12l-93 -64v117h358zM232 616l176 81l-176 -177l-176 177z" />
    <glyph glyph-name="florin" unicode="&#x192;" horiz-adv-x="512" 
d="M477 606q-74 56 -100 56q-49 0 -68 -48.5t-28 -150.5h125l-5 -41h-126l-46 -371q-8 -66 -22 -113.5t-46 -81.5q-29 -30 -67 -47t-81 -17q-24 0 -48 6l12 93q32 -25 52 -38t33 -13q42 0 58 40t24 113l49 429h-90l5 41h89q4 117 64 180.5t158 63.5q32 0 70 -7z" />
    <glyph glyph-name="circumflex" unicode="&#x2c6;" 
d="M426 523l-176 80l-176 -80l176 177z" />
    <glyph glyph-name="caron" unicode="&#x2c7;" 
d="M250 616l176 81l-176 -177l-176 177z" />
    <glyph glyph-name="breve" unicode="&#x2d8;" 
d="M93 665q40 -30 76.5 -45t78.5 -15q45 0 83.5 14.5t76.5 45.5q-20 -63 -60 -95t-97 -32q-122 0 -158 127z" />
    <glyph glyph-name="dotaccent" unicode="&#x2d9;" 
d="M248 659q59 0 59 -60q0 -26 -15 -40t-43 -14q-56 0 -56 54q0 27 15.5 43.5t39.5 16.5z" />
    <glyph glyph-name="ring" unicode="&#x2da;" 
d="M250 731q24 0 45 -9t36.5 -24t24.5 -36t9 -45t-9 -45.5t-24.5 -37t-36.5 -24.5t-45 -9t-45 9t-36.5 24.5t-24.5 37t-9 45.5t9 45t24.5 36t36.5 24t45 9zM250 681q-28 0 -47 -19t-19 -47t18.5 -47t46.5 -19t47 19t19 47q0 27 -19 46.5t-46 19.5z" />
    <glyph glyph-name="ogonek" unicode="&#x2db;" 
d="M298 0q-15 -21 -21 -42.5t-6 -47.5q0 -59 47 -100q-61 2 -96 30.5t-35 70.5q0 34 24 57t71 32h16z" />
    <glyph glyph-name="tilde" unicode="&#x2dc;" 
d="M311 605q14 -7 24 -7q25 0 78 56q-10 -51 -36 -77.5t-55 -26.5q-26 0 -47 9l-86 40q-16 7 -24 7q-24 0 -78 -56q10 50 36 77t55 27q25 0 47 -10z" />
    <glyph glyph-name="hungarumlaut" unicode="&#x2dd;" 
d="M302 673l-157 -150l74 150h83zM447 673l-156 -150l73 150h83z" />
    <glyph glyph-name="endash" unicode="&#x2013;" 
d="M500 256v-61h-500v61h500z" />
    <glyph glyph-name="emdash" unicode="&#x2014;" horiz-adv-x="1000" 
d="M1000 256v-61h-1000v61h1000z" />
    <glyph glyph-name="quoteleft" unicode="&#x2018;" horiz-adv-x="215" 
d="M155 704q-21 -28 -31 -60.5t-11 -69.5q25 0 39 -14t14 -39q0 -60 -59 -60q-28 0 -43 21t-15 60q0 29 8 55.5t22 48t33.5 36.5t42.5 22z" />
    <glyph glyph-name="quoteright" unicode="&#x2019;" horiz-adv-x="215" 
d="M59 462q40 52 41 129q-25 0 -39 14t-14 39q0 60 58 60q59 0 59 -81q0 -58 -29.5 -102.5t-75.5 -58.5z" />
    <glyph glyph-name="quotesinglbase" unicode="&#x201a;" horiz-adv-x="215" 
d="M54 -136q41 55 42 130q-25 0 -39 14t-14 39q0 60 58 60t58 -81q0 -58 -29.5 -103t-75.5 -59z" />
    <glyph glyph-name="quotedblleft" unicode="&#x201c;" horiz-adv-x="398" 
d="M153 704q-21 -28 -31 -60.5t-11 -69.5q25 0 39 -13.5t14 -39.5q0 -60 -58 -60q-28 0 -43.5 20.5t-15.5 60.5q0 29 8 55.5t22 48t33.5 36.5t42.5 22zM343 704q-21 -28 -31 -61t-11 -69q25 0 39 -13.5t14 -39.5q0 -60 -58 -60q-28 0 -43.5 20.5t-15.5 60.5q0 29 8 55.5
t22 48t33.5 36.5t42.5 22z" />
    <glyph glyph-name="quotedblright" unicode="&#x201d;" horiz-adv-x="398" 
d="M59 462q40 52 41 129q-25 0 -39 14t-14 39q0 60 58 60q59 0 59 -81q0 -58 -29.5 -102.5t-75.5 -58.5zM249 462q40 52 41 129q-25 0 -38.5 14t-13.5 39q0 60 58 60t58 -81q0 -58 -29.5 -102.5t-75.5 -58.5z" />
    <glyph glyph-name="quotedblbase" unicode="&#x201e;" horiz-adv-x="398" 
d="M59 -136q39 53 41 130q-25 0 -38.5 14t-13.5 39q0 60 58 60t58 -81q0 -58 -29.5 -103t-75.5 -59zM249 -136q41 55 42 130q-25 0 -39 14t-14 39q0 60 58 60t58 -81q0 -58 -29.5 -103t-75.5 -59z" />
    <glyph glyph-name="dagger" unicode="&#x2020;" horiz-adv-x="403" 
d="M254 655l-44 -212l156 31v-74l-157 32q6 -73 44 -112q-1 -137 -13 -268.5t-36 -260.5h-3q-24 122 -36 253.5t-14 275.5q38 39 44 112l-158 -32v74l157 -31l-44 212h104z" />
    <glyph glyph-name="daggerdbl" unicode="&#x2021;" horiz-adv-x="403" 
d="M257 655l-44 -217l156 33v-76l-157 33q7 -79 44 -201q-37 -122 -44 -202l157 33v-76l-156 32l44 -216h-109l43 216l-157 -32v76l158 -33q-2 21 -12 71.5t-31 130.5q21 79 31 129t12 72l-158 -33v76l157 -33l-43 217h109z" />
    <glyph glyph-name="bullet" unicode="&#x2022;" horiz-adv-x="590" 
d="M150 372q0 30 11.5 56.5t31 46t46 30.5t56.5 11t56 -11t45.5 -30.5t31 -46t11.5 -56.5t-11.5 -56t-31 -46t-46 -31.5t-56.5 -11.5t-56 11.5t-45.5 31t-31 46t-11.5 56.5z" />
    <glyph glyph-name="ellipsis" unicode="&#x2026;" horiz-adv-x="1000" 
d="M127 51q0 31 16 48.5t43 17.5q26 0 40.5 -17t14.5 -49q0 -59 -60 -59q-54 0 -54 59zM460 51q0 31 16 48.5t43 17.5q26 0 40.5 -17t14.5 -49q0 -59 -60 -59q-54 0 -54 59zM794 51q0 31 16 48.5t43 17.5q26 0 40.5 -17t14.5 -49q0 -59 -60 -59q-54 0 -54 59z" />
    <glyph glyph-name="perthousand" unicode="&#x2030;" horiz-adv-x="819" 
d="M152 662q56 0 91 -41.5t35 -111.5q0 -69 -35 -111.5t-92 -42.5q-27 0 -49.5 11.5t-39 31.5t-25.5 48t-9 61q0 34 9.5 62.5t26 49t39.5 32t49 11.5zM152 632q-27 0 -44.5 -32t-17.5 -93q0 -59 17 -90t45 -31q29 0 46.5 32t17.5 95q0 57 -18 88t-46 31zM520 549l-495 -465
l-15 16l493 466zM368 290q56 0 91 -41.5t35 -110.5q0 -34 -9.5 -62t-26 -48t-39.5 -31t-50 -11q-57 0 -91 41.5t-34 107.5q0 34 9.5 62.5t26.5 49t39.5 32t48.5 11.5zM679 290q56 0 91 -41.5t35 -110.5q0 -34 -9.5 -62t-26 -48t-39.5 -31t-50 -11q-57 0 -91 41.5t-34 107.5
q0 34 9.5 62.5t26.5 49t39.5 32t48.5 11.5zM368 259q-27 0 -44.5 -31.5t-17.5 -91.5q0 -58 16.5 -89t45.5 -31t46.5 32t17.5 94q0 56 -18 86.5t-46 30.5zM679 259q-27 0 -44.5 -31.5t-17.5 -91.5q0 -58 16.5 -89t45.5 -31t46.5 32t17.5 94q0 56 -18 86.5t-46 30.5z" />
    <glyph glyph-name="guilsinglleft" unicode="&#x2039;" horiz-adv-x="215" 
d="M185 414l-90 -173l92 -174h-45l-111 174l106 173h48z" />
    <glyph glyph-name="guilsinglright" unicode="&#x203a;" horiz-adv-x="215" 
d="M77 414l106 -173l-111 -174h-46l92 174l-89 173h48z" />
    <glyph glyph-name="fraction" unicode="&#x2044;" horiz-adv-x="167" 
d="M338 551l-495 -465l-15 16l494 466z" />
    <glyph glyph-name="trademark" unicode="&#x2122;" horiz-adv-x="644" 
d="M190 377q11 19 13.5 33t2.5 28v198h-28q-11 0 -18 -5l-40 -31v55h221v-55l-39 30q-8 6 -19 6h-26v-198q0 -12 2 -26.5t13 -34.5h-82zM397 377q11 19 13.5 33.5t2.5 27.5v156q0 13 -2.5 27t-13.5 34h69l83 -207l84 207h67q-11 -20 -13.5 -34.5t-2.5 -26.5v-156
q0 -12 2.5 -26.5t13.5 -34.5h-78q11 19 13.5 33.5t2.5 27.5v174l-96 -235h-14l-94 235v-174q0 -11 2 -26t14 -35h-53z" />
    <glyph glyph-name="minus" unicode="&#x2212;" horiz-adv-x="833" 
d="M709 269h-585v58h585v-58z" />
    <glyph glyph-name="fi" unicode="&#xfb01;" horiz-adv-x="546" 
d="M174 463h177q34 0 61 2t47 8v-329q0 -29 4.5 -63t32.5 -81h-157q27 47 32 81t5 63v201q0 22 -1 36t-6.5 22.5t-18 12t-35.5 3.5h-141v-294q0 -26 5.5 -55t33.5 -70h-161q27 45 32.5 74t5.5 49v11v285h-63v44h63v46q0 104 52 152.5t170 48.5q80 0 117.5 -11.5t37.5 -41.5
q0 -51 -55 -51q-20 0 -34 11.5t-30 28.5q-12 13 -23.5 20.5t-34.5 7.5q-37 0 -59.5 -10t-35 -30.5t-17 -51.5t-4.5 -73v-46z" />
    <glyph glyph-name="fl" unicode="&#xfb02;" horiz-adv-x="546" 
d="M467 144v-6q0 -28 5 -60.5t31 -77.5h-156q27 47 32 81t5 63v475l-68 40q-6 4 -16.5 6.5t-24.5 2.5q-54 0 -77.5 -34.5t-23.5 -103.5v-67h115v-44h-115v-294q0 -26 5.5 -55t33.5 -70h-161q27 45 32.5 74t5.5 49v11v285h-63v44h63v55q0 100 57.5 144.5t182.5 44.5
q43 0 83 -10l54 11v-564z" />
  </font>
</defs>
</svg>
