<?xml version="1.0" standalone="no"?>
<!DOCTYPE svg PUBLIC "-//W3C//DTD SVG 1.1//EN" "http://www.w3.org/Graphics/SVG/1.1/DTD/svg11.dtd" >
<svg xmlns="http://www.w3.org/2000/svg" xmlns:xlink="http://www.w3.org/1999/xlink" version="1.1">
<metadata>
Created by FontForge 20161013 at Tue Jan 31 20:37:30 2017
 By ,,,
Copyright 1990-1992 as an unpublished work by Bitstream Inc.  All rights reserved.  Confidential.
</metadata>
<defs>
<font id="AmerigoBT-MediumItalicA" horiz-adv-x="500" >
  <font-face 
    font-family="Bitstream Amerigo Med"
    font-weight="500"
    font-style="italic"
    font-stretch="normal"
    units-per-em="1000"
    panose-1="0 0 0 0 0 0 0 0 0 0"
    ascent="750"
    descent="-250"
    x-height="463"
    cap-height="655"
    bbox="-178 -236 985 940"
    underline-thickness="62"
    underline-position="-165"
    slope="-10.5"
    unicode-range="U+000D-FB02"
  />
<missing-glyph horiz-adv-x="250" 
 />
    <glyph glyph-name=".notdef" horiz-adv-x="250" 
 />
    <glyph glyph-name=".null" horiz-adv-x="0" 
 />
    <glyph glyph-name=".null" horiz-adv-x="0" 
 />
    <glyph glyph-name="nonmarkingreturn" unicode="&#xd;" horiz-adv-x="250" 
 />
    <glyph glyph-name="space" unicode=" " horiz-adv-x="250" 
 />
    <glyph glyph-name="exclam" unicode="!" horiz-adv-x="254" 
d="M136 161h-55l36 398q3 28 6 47.5t10 32t19 18.5t33 6q55 0 55 -45q0 -16 -9 -54zM91 105q27 0 41.5 -14t14.5 -40q0 -30 -16.5 -46.5t-46.5 -16.5q-56 0 -56 50q0 30 17 48.5t46 18.5z" />
    <glyph glyph-name="quotedbl" unicode="&#x22;" horiz-adv-x="300" 
d="M112 430h-68v271h68v-271zM256 430h-68v271h68v-271z" />
    <glyph glyph-name="numbersign" unicode="#" horiz-adv-x="769" 
d="M372 490h125l80 222h80l-78 -222h147l-25 -71h-148l-45 -129h157l-25 -71h-157l-79 -221h-81l79 221h-126l-79 -221h-81l78 221h-151l26 71h151l45 129h-161l25 71h162l79 222h81zM346 419l-45 -129h127l45 129h-127z" />
    <glyph glyph-name="dollar" unicode="$" 
d="M328 728l-12 -71q33 -1 70 -7t79 -19l-20 -110q-50 43 -83 66t-53 25l-37 -224l55 -46q42 -34 62 -70t20 -78q0 -39 -14.5 -73.5t-41 -60.5t-64 -42.5t-82.5 -19.5l-12 -74h-33l11 72q-89 7 -152 27l22 119q51 -48 84 -74.5t54 -27.5l42 254q-60 51 -91.5 92.5
t-31.5 90.5q0 75 49 124t134 55l12 72h33zM275 611q-41 -8 -64 -37t-23 -70q0 -26 13.5 -46.5t41.5 -43.5zM215 43q45 8 71.5 42.5t26.5 79.5q0 63 -61 106z" />
    <glyph glyph-name="percent" unicode="%" horiz-adv-x="531" 
d="M20 460q0 47 12.5 85t35 64.5t53 41t67.5 14.5q48 0 75 -30t27 -83q0 -39 -12.5 -77t-34.5 -67q-23 -30 -52 -43t-71 -13q-47 0 -73.5 28.5t-26.5 79.5zM175 635q-36 0 -60 -50.5t-24 -135.5q0 -63 43 -63q37 0 60 50.5t23 138.5q0 60 -42 60zM492 583l-425 -529l-22 19
l424 530zM241 91q0 47 12.5 84.5t34.5 64t53.5 41t68.5 14.5q47 0 74 -29.5t27 -83.5q0 -43 -12 -79.5t-34 -63t-53.5 -41.5t-70.5 -15q-46 0 -73 28.5t-27 79.5zM396 265q-36 0 -59.5 -50t-23.5 -135q0 -64 43 -64q36 0 59 50.5t23 139.5q0 59 -42 59z" />
    <glyph glyph-name="ampersand" unicode="&#x26;" horiz-adv-x="644" 
d="M465 526q-50 42 -82.5 68.5t-64.5 26.5q-45 0 -76 -38.5t-31 -104.5q0 -64 32.5 -86t105.5 -22h304l-8 -47h-76l-11 -73q-9 -56 -23.5 -103t-56.5 -87q-37 -35 -93 -55t-126 -20q-115 0 -177.5 49.5t-62.5 136.5q0 75 55 124.5t155 57.5q-60 8 -92.5 43t-32.5 91
q0 37 15.5 69t45 56t71.5 37.5t94 13.5q87 0 154 -24zM322 323q-35 0 -67 -3.5t-64 -21.5q-65 -39 -65 -129q0 -61 40.5 -95t117.5 -34q42 0 72.5 7t46.5 16q17 9 20.5 22.5t7.5 33.5l36 204h-134h-11z" />
    <glyph glyph-name="quotesingle" unicode="'" horiz-adv-x="155" 
d="M112 430h-68v271h68v-271z" />
    <glyph glyph-name="parenleft" unicode="(" horiz-adv-x="259" 
d="M320 710q-45 -60 -80.5 -140t-64.5 -183q-28 -97 -41.5 -193t-13.5 -184q0 -115 35 -217q-57 48 -87.5 126.5t-30.5 186.5q0 107 27 216t75 197q68 123 181 191z" />
    <glyph glyph-name="parenright" unicode=")" horiz-adv-x="259" 
d="M94 710q57 -47 87.5 -126t30.5 -188q0 -106 -27 -214.5t-75 -197.5q-67 -123 -181 -191q46 62 81 141.5t64 181.5q27 96 41 192.5t14 186.5q0 59 -8.5 112t-26.5 103z" />
    <glyph glyph-name="asterisk" unicode="*" horiz-adv-x="336" 
d="M261 682l-53 -151l109 121l30 -37l-137 -86l157 24l-9 -50l-149 24l107 -90l-35 -31l-73 120l-4 -151h-50l53 150l-113 -120l-30 35l140 87l-156 -25l8 50l149 -24l-108 96l39 32l70 -126l4 152h51z" />
    <glyph glyph-name="plus" unicode="+" horiz-adv-x="833" 
d="M451 332h258v-68h-258v-264h-69v264h-258v68h258v264h69v-264z" />
    <glyph glyph-name="comma" unicode="," horiz-adv-x="250" 
d="M-3 -123q52 55 67 121h-5q-17 0 -27.5 12t-10.5 30q0 29 17.5 48t46.5 19q26 0 40.5 -15.5t14.5 -44.5q0 -31 -11 -60.5t-30 -53t-45.5 -38.5t-56.5 -18z" />
    <glyph glyph-name="hyphen" unicode="-" horiz-adv-x="237" 
d="M219 281l-13 -73h-216l13 73h216z" />
    <glyph glyph-name="period" unicode="." horiz-adv-x="250" 
d="M89 107q58 0 58 -49q0 -70 -64 -70q-58 0 -58 49q0 33 17 51.5t47 18.5z" />
    <glyph glyph-name="slash" unicode="/" horiz-adv-x="235" 
d="M267 681l-276 -833h-57l279 833h54z" />
    <glyph glyph-name="zero" unicode="0" 
d="M304 667q78 0 121 -59t43 -169q0 -73 -16.5 -149.5t-47.5 -147.5q-34 -77 -90.5 -117.5t-124.5 -40.5q-75 0 -118 56.5t-43 163.5q0 94 21.5 179.5t58.5 151.5q36 64 87.5 98t108.5 34zM368 494q0 127 -79 127q-61 0 -96 -94q-29 -77 -46 -175.5t-17 -195.5q0 -66 18 -97
t59 -31q35 0 62.5 30.5t44.5 90.5q28 97 41 187t13 158z" />
    <glyph glyph-name="one" unicode="1" 
d="M277 109q-2 -8 -3 -17t-1 -20q0 -28 31 -72h-184q36 42 47 72t15 55l70 417l-153 -21q75 37 144 74.5t129 79.5z" />
    <glyph glyph-name="two" unicode="2" 
d="M90 83h160q21 0 38 3.5t32.5 11.5t32 21t35.5 32l-26 -151h-411l271 278q66 68 98 128.5t32 110.5q0 49 -26.5 77t-66.5 28q-17 0 -33.5 -7.5t-35.5 -22.5l-107 -88l26 140q48 9 88 14.5t74 5.5q92 0 142 -40t50 -105q0 -38 -14 -73t-40.5 -70.5t-65 -72.5t-87.5 -79z
" />
    <glyph glyph-name="three" unicode="3" 
d="M270 333q72 -8 111 -48t39 -106q0 -40 -20 -78t-58 -67q-34 -26 -75 -37.5t-92 -11.5q-95 0 -187 33l23 134q27 -29 47 -52t38 -38.5t36.5 -24t40.5 -8.5q30 0 55 11.5t43.5 32t29 49t10.5 62.5q0 119 -145 138q94 33 142 86t48 120q0 41 -24.5 67.5t-62.5 26.5
q-34 0 -66 -26l-112 -92l24 139q86 23 169 23q85 0 132.5 -39t47.5 -102t-48.5 -112t-145.5 -80z" />
    <glyph glyph-name="four" unicode="4" 
d="M376 258h84l-16 -72h-80l-12 -80l-2.5 -15t-1.5 -21q0 -13 7 -30t20 -40h-174q36 41 46 69.5t14 50.5l12 66h-289l379 455l83 29zM91 258h196l52 299z" />
    <glyph glyph-name="five" unicode="5" 
d="M492 657l-15 -84h-299l-29 -168q41 10 85 10q94 0 145.5 -48t51.5 -133q0 -54 -19.5 -100t-55 -79t-85 -51.5t-110.5 -18.5q-81 0 -173 36l24 132q54 -60 87.5 -92.5t66.5 -32.5q31 0 59.5 15t50 41t34.5 62t13 79q0 139 -145 139q-17 0 -39.5 -2.5t-49.5 -7.5l53 303
h350z" />
    <glyph glyph-name="six" unicode="6" 
d="M525 609q-42 12 -80 12q-107 0 -181 -67.5t-105 -198.5q65 24 120 24q75 0 120.5 -47t45.5 -125q0 -49 -16.5 -90t-45.5 -70.5t-69 -46t-88 -16.5q-91 0 -143 53t-52 147q0 85 21 164t60 146q50 85 119 128t154 43q45 0 81 -15t59 -41zM151 319q-20 -88 -20 -160
q0 -67 25.5 -101.5t69.5 -34.5q48 0 80.5 49t32.5 134q0 122 -120 122q-29 0 -68 -9z" />
    <glyph glyph-name="seven" unicode="7" 
d="M535 657q-150 -241 -238.5 -405.5t-126.5 -251.5h-129l387 572h-190q-20 0 -37 -6t-34.5 -17t-36 -26.5t-41.5 -35.5l33 170h413z" />
    <glyph glyph-name="eight" unicode="8" 
d="M312 364q122 -80 122 -186q0 -40 -17 -75.5t-47 -62t-72 -41.5t-93 -15q-94 0 -148 41.5t-54 108.5q0 63 49.5 110.5t150.5 88.5q-57 41 -85 78.5t-28 84.5q0 36 14.5 67t42 54t66.5 36t88 13q81 0 129 -38t48 -98q0 -104 -166 -166zM290 382q106 67 106 151
q0 41 -28.5 67.5t-76.5 26.5t-79 -29t-31 -72q0 -53 58 -102zM223 314q-131 -85 -131 -180q0 -52 31 -81t86 -29q28 0 52 10t41.5 27.5t27.5 41t10 49.5q0 37 -16 64t-49 55z" />
    <glyph glyph-name="nine" unicode="9" 
d="M349 328q18 98 18 153q0 71 -23.5 107.5t-65.5 36.5q-54 0 -86.5 -49.5t-32.5 -135.5q0 -59 30.5 -90t87.5 -31q13 0 31 2t41 7zM-25 42q47 -11 80 -11q112 0 181.5 64.5t103.5 198.5q-66 -26 -116 -26q-77 0 -123.5 47t-46.5 126q0 48 17 89.5t46.5 71.5t69.5 47.5
t87 17.5q44 0 80 -14.5t61.5 -41t39.5 -64t14 -82.5q0 -86 -21 -165.5t-60 -145.5q-48 -81 -117.5 -124.5t-147.5 -43.5q-95 0 -148 56z" />
    <glyph glyph-name="colon" unicode=":" horiz-adv-x="259" 
d="M147 462q59 0 59 -48q0 -71 -67 -71q-56 0 -56 50q0 32 16.5 50.5t47.5 18.5zM88 107q58 0 58 -49q0 -70 -65 -70q-57 0 -57 49q0 33 17 51.5t47 18.5z" />
    <glyph glyph-name="semicolon" unicode=";" horiz-adv-x="259" 
d="M147 462q59 0 59 -48q0 -71 -67 -71q-56 0 -56 50q0 32 16.5 50.5t47.5 18.5zM-1 -123q52 55 67 121h-5q-17 0 -27.5 12t-10.5 30q0 29 17 48t46 19q26 0 41 -15.5t15 -44.5q0 -31 -11 -60.5t-30 -53t-45.5 -38.5t-56.5 -18z" />
    <glyph glyph-name="less" unicode="&#x3c;" horiz-adv-x="833" 
d="M231 298l473 -192v-75l-575 236v63l575 236v-75z" />
    <glyph glyph-name="equal" unicode="=" horiz-adv-x="833" 
d="M709 361h-585v68h585v-68zM709 167h-585v68h585v-68z" />
    <glyph glyph-name="greater" unicode="&#x3e;" horiz-adv-x="833" 
d="M704 267l-575 -236v75l474 192l-474 193v75l575 -236v-63z" />
    <glyph glyph-name="question" unicode="?" horiz-adv-x="417" 
d="M145 200q4 30 18.5 55t33.5 51l68 94q54 76 54 133q0 38 -21.5 61.5t-55.5 23.5q-37 0 -76.5 -31.5t-101.5 -82.5l24 140q88 20 160 20q87 0 133.5 -38t46.5 -101q0 -37 -21.5 -79t-64.5 -84l-76 -73q-29 -29 -47.5 -50.5t-21.5 -43.5l-5 -34h-52zM148 105q27 0 41.5 -14
t14.5 -40q0 -30 -16.5 -46.5t-46.5 -16.5q-56 0 -56 50q0 30 17 48.5t46 18.5z" />
    <glyph glyph-name="at" unicode="@" horiz-adv-x="1000" 
d="M610 347q-8 44 -33.5 67t-63.5 23q-34 0 -63 -17t-50.5 -46.5t-33.5 -69.5t-12 -86q0 -52 23.5 -79.5t67.5 -27.5q47 0 84.5 33t51.5 88zM655 473h64l-71 -281q-4 -16 -4 -29q0 -46 49 -46q23 0 49.5 12.5t52.5 37.5q38 36 60.5 89.5t22.5 115.5t-24 114.5t-68 90
t-106 58.5t-139 21q-129 0 -223 -56t-145 -146t-51 -200q0 -87 30 -150.5t94 -112.5q48 -36 113.5 -57t142.5 -21q83 0 160.5 24t142.5 69l27 -40q-145 -109 -324 -109q-187 0 -307 91q-149 115 -149 307q0 81 25 152.5t74 131.5q71 87 170.5 132t223.5 45q84 0 154.5 -23
t120.5 -61q63 -49 96 -112.5t33 -138.5q0 -86 -30.5 -154t-90.5 -115q-34 -27 -73.5 -41t-80.5 -14q-98 0 -98 77v9q-53 -85 -147 -85q-75 0 -114 41.5t-39 120.5q0 58 18 107.5t49.5 85.5t74 56.5t91.5 20.5q83 0 118 -73z" />
    <glyph glyph-name="A" unicode="A" horiz-adv-x="532" 
d="M452 109q3 -27 11.5 -51.5t41.5 -57.5h-175q13 19 20.5 34t7.5 32q0 3 -0.5 9t-1.5 14l-15 171h-184l-88 -175q-11 -22 -11 -36q0 -9 6 -20.5t17 -28.5h-154q29 24 48.5 50t34.5 54l297 543l82 26zM178 302h159l-26 266z" />
    <glyph glyph-name="B" unicode="B" horiz-adv-x="515" 
d="M303 655q186 0 186 -140q0 -79 -50.5 -129t-141.5 -57q74 -4 115.5 -43t41.5 -99q0 -88 -62.5 -137.5t-184.5 -49.5h-217q34 33 45 62t16 60l75 433q2 8 2 13.5v7.5q0 21 -8 39t-22 40h205zM186 348h37q78 0 119 43.5t41 123.5q0 101 -106 101h-44zM134 38h72
q63 0 102.5 43t39.5 115q0 115 -134 115h-34z" />
    <glyph glyph-name="C" unicode="C" horiz-adv-x="535" 
d="M534 525l-100 78q-24 19 -56 19q-42 0 -85.5 -25.5t-78.5 -75.5q-34 -48 -55 -125t-21 -176q0 -42 10.5 -76.5t29.5 -59t44.5 -37.5t56.5 -13q39 0 65 18l133 93l-43 -134q-42 -12 -82 -17.5t-80 -5.5q-57 0 -101.5 17.5t-76 49t-48 76t-16.5 99.5q0 86 22.5 160.5
t64.5 135.5q48 69 116.5 104t154.5 35q47 0 88 -7t76 -20z" />
    <glyph glyph-name="D" unicode="D" horiz-adv-x="620" 
d="M318 655q137 0 202.5 -57.5t65.5 -182.5q0 -88 -28 -167.5t-79 -137.5t-119.5 -84t-162.5 -26h-209q35 34 45 63t15 58l73 425q2 8 3 15.5t1 15.5q0 18 -8.5 36.5t-22.5 41.5h224zM131 41h77q65 0 108 23t85 73q14 17 28 45.5t25.5 66t19 82.5t7.5 93q0 90 -46 140
t-127 50h-79z" />
    <glyph glyph-name="E" unicode="E" horiz-adv-x="475" 
d="M484 655l-21 -116q-45 35 -75.5 56t-62.5 21h-91l-45 -262h74q30 0 59.5 15t68.5 41l-27 -159q-32 29 -55.5 46t-50.5 17h-75l-48 -275h90q42 0 87 28t108 79l-47 -146h-382q19 19 30 36t17 32.5t9 29.5t5 27l75 431q2 8 2 13.5v8.5q0 21 -8 38t-22 39h385z" />
    <glyph glyph-name="F" unicode="F" horiz-adv-x="449" 
d="M481 655l-20 -116q-45 35 -75.5 56t-62.5 21h-89l-44 -262h70q30 0 59.5 15t68.5 41l-27 -159q-32 29 -55 46t-50 17h-74l-37 -214q-3 -15 -3 -26q0 -17 8.5 -34.5t22.5 -39.5h-183q19 19 30 36t17 32.5t9 29.5t5 27l74 431q3 20 3 22q0 21 -8 38t-22 39h383z" />
    <glyph glyph-name="G" unicode="G" horiz-adv-x="591" 
d="M567 524l-81 64q-20 16 -40.5 23.5t-45.5 7.5q-56 0 -104 -27.5t-83.5 -77.5t-55.5 -121.5t-20 -160.5q0 -201 184 -201q22 0 58 6l21 136q2 9 2 15v9q0 17 -7.5 34t-21.5 38h185q-32 -34 -45.5 -60.5t-18.5 -59.5l-22 -135q-49 -14 -97 -20t-96 -6q-119 0 -183.5 63.5
t-64.5 178.5q0 87 22.5 162t66.5 135q49 68 122 103t170 35q44 0 87 -7t88 -21z" />
    <glyph glyph-name="H" unicode="H" horiz-adv-x="617" 
d="M278 655q-34 -35 -44 -64t-15 -58l-29 -170h252l32 184q3 17 3 33q0 18 -7.5 36t-21.5 39h180q-34 -33 -44 -62.5t-15 -58.5l-73 -424q-1 -5 -2.5 -14t-1.5 -22q0 -28 29 -74h-181q35 35 45 65t15 58l34 198h-251l-37 -212l-2.5 -15t-1.5 -21q0 -28 30 -73h-182
q32 32 44 61t17 60l74 425q1 6 2 15t1 21q0 25 -31 73h181z" />
    <glyph glyph-name="I" unicode="I" horiz-adv-x="269" 
d="M279 655q-35 -35 -44.5 -64.5t-14.5 -57.5l-73 -424q-1 -5 -2 -13.5t-1 -22.5q0 -28 30 -73h-183q32 32 44.5 61t17.5 60l73 425q1 6 2 15t1 21q0 27 -30 73h180z" />
    <glyph glyph-name="J" unicode="J" horiz-adv-x="280" 
d="M290 655q-34 -34 -44 -63.5t-15 -58.5l-82 -474q-11 -62 -22.5 -109t-39.5 -82q-59 -74 -174 -74q-52 0 -91 12l20 114q40 -38 64 -59.5t44 -21.5q36 0 57 41.5t35 125.5l93 540q2 9 3 16.5t1 15.5q0 17 -8.5 35.5t-22.5 41.5h182z" />
    <glyph glyph-name="K" unicode="K" horiz-adv-x="558" 
d="M282 655q-35 -35 -44.5 -64t-14.5 -58l-73 -424q-2 -9 -3 -17t-1 -15q0 -18 8 -36.5t23 -40.5h-183q35 34 46 63t16 58l73 425q3 18 3 31q0 18 -8 36.5t-22 41.5h180zM622 655q-63 -38 -109 -80l-219 -198l153 -294q25 -48 70 -83h-139l-178 352l229 221q25 25 25 41
q0 8 -6 17.5t-17 23.5h191z" />
    <glyph glyph-name="L" unicode="L" horiz-adv-x="433" 
d="M281 655q-19 -19 -30 -36.5t-17 -32.5t-8.5 -28t-4.5 -25l-84 -492h81q23 0 43.5 7.5t42.5 22t47 34t56 43.5l-42 -148h-374q19 19 30 36t17 32.5t9 29.5t5 27l75 431q2 8 2 13.5v8.5q0 21 -8 38t-22 39h182z" />
    <glyph glyph-name="M" unicode="M" horiz-adv-x="773" 
d="M236 655l115 -491l298 491h132q-30 -32 -41 -58t-16 -54l-74 -437q-3 -18 -3 -36q0 -24 29 -70h-182q20 20 31.5 37.5t18 33t9 30t4.5 27.5l67 388l-311 -521h-20l-120 518l-68 -408q-1 -7 -2.5 -16t-1.5 -21t8 -28.5t23 -39.5h-140q26 29 40.5 57.5t20.5 63.5l74 437
q3 17 3 22q0 20 -8.5 37t-23.5 38h138z" />
    <glyph glyph-name="N" unicode="N" horiz-adv-x="606" 
d="M211 655l236 -474l63 374q3 18 3 30q0 17 -9 33t-23 37h143q-18 -18 -28.5 -33.5t-16.5 -30t-8.5 -27.5t-4.5 -25l-96 -548h-37l-261 526l-69 -410q-2 -8 -3.5 -17t-1.5 -20q0 -14 9 -30.5t23 -39.5h-142q36 39 46.5 71t15.5 60l72 420q2 11 3 18.5t1 14.5q0 16 -9 32.5
t-23 38.5h117z" />
    <glyph glyph-name="O" unicode="O" horiz-adv-x="590" 
d="M351 664q100 0 155 -63.5t55 -181.5q0 -68 -15 -132.5t-40 -115.5q-48 -95 -113 -141t-156 -46q-97 0 -152.5 65.5t-55.5 185.5q0 69 18 138t49 124q93 167 255 167zM457 435q0 93 -31 140t-90 47q-51 0 -91.5 -41t-68.5 -124q-23 -66 -33.5 -130t-10.5 -116
q0 -90 33.5 -137t90.5 -47q50 0 87 36.5t66 111.5q23 57 35.5 124.5t12.5 135.5z" />
    <glyph glyph-name="P" unicode="P" horiz-adv-x="480" 
d="M314 655q92 0 139.5 -39.5t47.5 -114.5q0 -45 -14.5 -83t-40.5 -65.5t-61 -43.5t-76 -16q-58 0 -99 26q11 -1 18 -1.5t11 -0.5q35 0 63 13.5t48.5 37.5t31.5 57.5t11 73.5q0 120 -98 120h-61l-89 -510q-3 -18 -3 -32q0 -33 30 -77h-182q35 34 45.5 63t15.5 58l73 425
q2 9 3 16.5t1 14.5q0 18 -8.5 36.5t-22.5 41.5h217z" />
    <glyph glyph-name="Q" unicode="Q" horiz-adv-x="590" 
d="M455 436q0 186 -118 186q-50 0 -91 -42t-69 -126q-22 -66 -32 -128t-10 -113q0 -90 32.5 -137.5t87.5 -47.5q96 0 154 151q22 57 34 123.5t12 133.5zM320 0q42 -26 77 -48.5t64.5 -39t56 -26t52.5 -9.5q14 0 28.5 1.5t28.5 3.5q-37 -45 -71.5 -67.5t-60.5 -22.5
q-45 0 -116.5 50t-179.5 148q-79 14 -123 77.5t-44 167.5q0 66 16.5 132.5t45.5 121.5q46 87 110 131t139 44q103 0 159 -62.5t56 -176.5q0 -82 -17 -151.5t-48 -124.5t-75 -93t-98 -56z" />
    <glyph glyph-name="R" unicode="R" horiz-adv-x="536" 
d="M300 655q38 0 67 -2t49 -11q38 -17 58.5 -49.5t20.5 -76.5q0 -40 -13.5 -73.5t-39 -58.5t-62.5 -40t-83 -18l112 -222q27 -55 78 -104h-137l-163 336l-40 -233q-2 -8 -3 -15.5t-1 -13.5q0 -17 8.5 -34t22.5 -40h-181q37 42 46.5 71.5t13.5 52.5l73 422q2 11 3 20t1 17
q0 16 -8 33.5t-22 38.5h200zM189 350h51q33 0 60.5 12.5t47 34t30.5 51.5t11 65q0 55 -23.5 79t-77.5 24h-53z" />
    <glyph glyph-name="S" unicode="S" horiz-adv-x="463" 
d="M431 525q-52 42 -86 67.5t-64 25.5q-23 0 -43.5 -8.5t-35.5 -23t-24 -33.5t-9 -41q0 -30 15.5 -52t42.5 -47q32 -30 66.5 -57.5t63.5 -61.5q36 -42 36 -104q0 -42 -16 -79t-46 -64.5t-72 -43t-93 -15.5q-76 0 -169 27l22 121q51 -49 85.5 -76.5t66.5 -27.5q26 0 48.5 10
t39 27t26.5 39.5t10 48.5q0 27 -10 48t-27 39.5t-40 37.5t-49 43q-45 40 -67.5 75.5t-22.5 80.5q0 40 15 73.5t42.5 57.5t67.5 37.5t90 13.5q80 0 156 -26z" />
    <glyph glyph-name="T" unicode="T" horiz-adv-x="505" 
d="M561 655l-24 -130q-44 42 -72.5 66t-56.5 24h-60l-85 -505q-2 -14 -3.5 -23.5t-1.5 -15.5q0 -15 8.5 -31.5t22.5 -39.5h-183q35 35 45.5 65t14.5 58l85 492h-56q-26 0 -65 -24t-99 -64l22 128h508z" />
    <glyph glyph-name="U" unicode="U" horiz-adv-x="595" 
d="M270 655q-33 -30 -43.5 -57t-15.5 -56l-58 -338q-6 -33 -6 -61q0 -54 34 -82.5t98 -28.5q38 0 64.5 10t44.5 31t29.5 53t18.5 76l60 349q3 20 3 36q0 14 -7 30.5t-21 37.5h149q-29 -32 -41 -60t-17 -58l-56 -318q-10 -56 -22.5 -99t-44.5 -75q-31 -31 -75.5 -45
t-104.5 -14q-101 0 -155.5 43.5t-54.5 121.5q0 14 2.5 35.5t7.5 49.5l55 316q2 8 3 15.5t1 15.5q0 17 -7.5 34t-21.5 38h181z" />
    <glyph glyph-name="V" unicode="V" horiz-adv-x="521" 
d="M204 655q-30 -39 -30 -71v-11t2 -20l47 -458l235 464q8 15 12.5 27.5t4.5 24.5q0 9 -6 19.5t-17 24.5h153q-36 -30 -52.5 -55t-25.5 -42l-301 -544l-81 -28l-64 558q-4 32 -15 57t-39 54h177z" />
    <glyph glyph-name="W" unicode="W" horiz-adv-x="845" 
d="M212 655q-20 -21 -26 -39t-6 -37q0 -6 0.5 -11.5t0.5 -11.5l32 -441l287 547h16l46 -561l214 458q17 36 17 53q0 9 -7 19t-19 24h152q-35 -26 -49 -49t-24 -42l-279 -548l-85 -29l-40 457l-223 -427l-87 -30l-44 552q-3 33 -13.5 59.5t-40.5 56.5h178z" />
    <glyph glyph-name="X" unicode="X" horiz-adv-x="586" 
d="M272 655q-11 -14 -16.5 -24.5t-5.5 -21.5t9 -32l70 -166l131 175q13 17 13 30q0 11 -22 39h179q-33 -17 -59 -39.5t-50 -50.5l-172 -202l111 -262q8 -17 21.5 -42.5t45.5 -58.5h-179q11 16 18 27t7 22q0 9 -3 17t-7 16l-88 205l-165 -212q-16 -20 -16 -35q0 -6 6 -15.5
t17 -24.5h-172q56 40 97 86l214 249l-99 238q-10 24 -24 44t-36 38h175z" />
    <glyph glyph-name="Y" unicode="Y" horiz-adv-x="505" 
d="M202 655q-25 -30 -25 -45q0 -10 2 -18.5t5 -16.5l84 -259l175 266q14 22 14 35q0 8 -6.5 17t-17.5 21h172q-29 -21 -55 -42.5t-47 -50.5l-216 -298l-27 -161q-1 -6 -2 -14.5t-1 -20.5q0 -24 29 -68h-183q25 28 39.5 53.5t19.5 58.5l25 152l-98 295q-9 27 -23 50t-39 46
h175z" />
    <glyph glyph-name="Z" unicode="Z" horiz-adv-x="501" 
d="M539 655l-426 -613h145q41 0 84 25.5t103 68.5l-40 -136h-435l430 613h-137q-38 0 -79 -24t-98 -62l21 128h432z" />
    <glyph glyph-name="bracketleft" unicode="[" horiz-adv-x="259" 
d="M308 712q-22 -18 -37 -32t-25 -27.5t-16 -28.5t-9 -34l-116 -655q-3 -15 -4 -26t-1 -18q0 -17 11.5 -41t33.5 -57h-144l162 919h145z" />
    <glyph glyph-name="backslash" unicode="\" horiz-adv-x="235" 
d="M47 681h55l70 -833h-56z" />
    <glyph glyph-name="bracketright" unicode="]" horiz-adv-x="259" 
d="M254 712l-162 -919h-146q22 18 37 32t25 27t16 27.5t9 34.5l117 655q2 14 3.5 25t1.5 19q0 17 -12.5 40.5t-33.5 58.5h145z" />
    <glyph glyph-name="asciicircum" unicode="^" horiz-adv-x="1000" 
d="M794 440h-88l-206 205l-207 -205h-88l249 272h91z" />
    <glyph glyph-name="underscore" unicode="_" 
d="M500 -236h-500v70h500v-70z" />
    <glyph glyph-name="grave" unicode="`" 
d="M286 691l30 -142h-13l-134 142h117z" />
    <glyph glyph-name="a" unicode="a" horiz-adv-x="468" 
d="M424 465l-66 -367q-3 -18 -3 -22q0 -8 6 -10t17 -2h31q-68 -71 -119 -71q-38 0 -38 37q0 6 1.5 15t3.5 22l8 36q-47 -55 -86 -82.5t-74 -27.5q-43 0 -68.5 36t-25.5 105q0 59 16 115.5t41 95.5q39 62 83.5 95.5t98.5 33.5q26 0 46.5 -10.5t38.5 -27.5zM320 404
q-24 11 -49 11q-60 0 -101 -60q-26 -38 -42 -94t-16 -113q0 -80 51 -80q17 0 42.5 11.5t60.5 32.5z" />
    <glyph glyph-name="b" unicode="b" horiz-adv-x="476" 
d="M173 359q48 55 88 85t77 30q45 0 70 -39.5t25 -109.5q0 -36 -6 -73.5t-20 -75.5q-32 -89 -87.5 -136.5t-123.5 -47.5q-52 0 -94 30l-88 -28l102 575q2 12 3 21t1 14q0 14 -9 31.5t-23 40.5l146 32zM118 58q26 -12 54 -12q68 0 108 63q25 40 40.5 95.5t15.5 112.5
q0 76 -58 76q-20 0 -46 -11.5t-61 -34.5z" />
    <glyph glyph-name="c" unicode="c" horiz-adv-x="384" 
d="M362 353l-85 64q-17 13 -35 13q-21 0 -43 -19.5t-40 -54t-30 -81.5t-12 -102q0 -54 16.5 -80.5t53.5 -26.5q34 0 70.5 13t80.5 38q-48 -64 -100 -96t-100 -32q-57 0 -89.5 42t-32.5 121q0 68 21 129t61 112q63 81 174 81q26 0 53 -5t56 -13z" />
    <glyph glyph-name="d" unicode="d" horiz-adv-x="469" 
d="M469 709l-110 -612q-3 -13 -3 -19q0 -13 20 -13h32q-33 -37 -63 -54.5t-54 -17.5q-17 0 -26.5 9.5t-9.5 24.5v13.5t2 13.5l10 50q-51 -55 -89.5 -84t-74.5 -29q-45 0 -71 37.5t-26 107.5q0 51 12.5 101.5t34.5 92.5q36 69 86.5 106.5t105.5 37.5q21 0 41.5 -8t42.5 -20
l25 133q3 12 3 22q0 24 -10 41l-22 36l138 32zM321 408q-27 12 -50 12q-64 0 -111 -74q-25 -40 -40 -92.5t-15 -100.5q0 -84 56 -84q18 0 44 12t64 33z" />
    <glyph glyph-name="e" unicode="e" horiz-adv-x="391" 
d="M340 116q-46 -63 -100 -94.5t-111 -31.5q-54 0 -86 41t-32 116q0 70 18.5 130t51.5 103.5t78 68.5t97 25q54 0 83.5 -29t29.5 -72q0 -63 -51.5 -96t-155.5 -33h-42q-8 -40 -8 -74q0 -106 75 -106q26 0 65.5 12t87.5 40zM123 269q76 10 112.5 36t36.5 80q0 23 -11 35.5
t-29 12.5q-36 0 -64 -41t-45 -123z" />
    <glyph glyph-name="f" unicode="f" horiz-adv-x="281" 
d="M424 593l-77 58q-11 8 -21 13t-22 5q-47 0 -67 -50.5t-33 -155.5h114l-6 -39h-115l-61 -354q-12 -69 -27.5 -121t-39 -86.5t-57 -51.5t-82.5 -17q-41 0 -83 21l18 99l62 -62q8 -8 14 -12.5t17 -4.5q32 0 47 41.5t29 128.5l70 419h-62l7 39h63q5 66 18.5 112.5t39 76
t64.5 43t96 13.5q59 0 114 -16z" />
    <glyph glyph-name="g" unicode="g" horiz-adv-x="502" 
d="M495 387l-144 41q47 -45 47 -105q0 -33 -13 -61t-37 -49t-57.5 -33t-74.5 -12q-7 0 -14.5 0.5t-15.5 1.5q-30 -31 -30 -50q0 -14 13.5 -20.5t40.5 -12.5l136 -31q45 -10 67 -26.5t22 -51.5t-20 -68t-56.5 -58.5t-87 -41t-111.5 -15.5q-48 0 -87.5 9t-67 24t-42.5 34
t-15 38q0 32 40 61t120 64q-50 15 -50 51q0 26 30 46t89 49q-62 10 -95.5 45.5t-33.5 90.5q0 35 13.5 65.5t38.5 53t60 35.5t77 13q29 0 54.5 -9.5t48.5 -24.5l170 31zM229 438q-34 0 -59 -35.5t-25 -98.5q0 -49 19.5 -75.5t53.5 -26.5q38 0 63 34.5t25 96.5q0 51 -20.5 78
t-56.5 27zM115 22q-41 -32 -60 -61t-19 -52q0 -32 33 -52t94 -20q41 0 74 9t56.5 24t36.5 33t13 36t-13.5 27t-42.5 16z" />
    <glyph glyph-name="h" unicode="h" horiz-adv-x="478" 
d="M167 359q60 57 107 86t84 29q29 0 46 -16.5t17 -44.5q0 -9 -2 -23.5t-6 -34.5l-47 -257q-1 -6 -2 -10.5t-1 -7.5q0 -11 5.5 -13t18.5 -2h30q-63 -72 -120 -72q-35 0 -35 38q0 7 1.5 16.5t3.5 22.5l48 270q2 10 3 16.5t1 10.5q0 27 -28 27q-17 0 -48.5 -11t-76.5 -35
l-63 -348h-93l101 569q2 11 3 19t1 16q0 15 -8.5 33t-23.5 41l148 30z" />
    <glyph glyph-name="i" unicode="i" horiz-adv-x="264" 
d="M190 691q53 0 53 -46q0 -28 -16.5 -44t-45.5 -16q-49 0 -49 46q0 27 16 43.5t42 16.5zM135 99q-3 -15 -3 -21q0 -9 5.5 -12t17.5 -3h30q-30 -35 -60 -52.5t-56 -17.5q-37 0 -37 37q0 4 1 12t3 22l49 262q2 11 4 21t2 19q0 14 -7.5 31.5t-21.5 40.5l146 31z" />
    <glyph glyph-name="j" unicode="j" horiz-adv-x="262" 
d="M200 691q53 0 53 -46q0 -28 -16.5 -44t-45.5 -16q-23 0 -36 12t-13 33q0 27 16 44t42 17zM134 33q-10 -60 -25.5 -105t-39 -75t-55.5 -44.5t-77 -14.5t-88 18l18 103l67 -65q15 -15 29 -15q29 0 44 40.5t29 118.5l57 332q2 14 3 22.5t1 13.5q0 18 -11 38l-19 34l145 37z
" />
    <glyph glyph-name="k" unicode="k" horiz-adv-x="448" 
d="M106 0h-91l104 577q3 15 3 29q0 17 -9 33l-19 36l142 34zM338 84q7 -14 11.5 -17.5t21.5 -3.5h28q-64 -69 -101 -69q-16 0 -25.5 9.5t-18.5 29.5l-95 218v7l106 79q48 36 48 67q0 9 -3 15l-14 27q26 11 47 19.5t35 8.5q23 0 35.5 -13t12.5 -32q0 -24 -23.5 -46t-70.5 -51
l-87 -54z" />
    <glyph glyph-name="l" unicode="l" horiz-adv-x="235" 
d="M121 91q-1 -5 -1.5 -9t-0.5 -8q0 -12 22 -12h30q-61 -69 -118 -69q-36 0 -36 31q0 9 3 27l94 517q4 19 4 34q0 22 -11 40l-20 35l147 32z" />
    <glyph glyph-name="m" unicode="m" horiz-adv-x="742" 
d="M178 360q60 55 106.5 84.5t85.5 29.5q62 0 62 -66q0 -6 -1.5 -18.5t-5.5 -30.5q58 57 105.5 86t86.5 29q27 0 43.5 -16.5t16.5 -46.5q0 -8 -1 -21t-5 -30l-52 -262q-1 -5 -2 -9.5t-1 -8.5q0 -11 7 -12.5t23 -1.5h26q-65 -73 -120 -73q-35 0 -35 40q0 5 1 15t4 25l50 272
q3 15 3 22q0 29 -28 29q-13 0 -45.5 -10.5t-78.5 -36.5l-64 -349h-95l63 345q3 15 3 21q0 29 -28 29q-11 0 -43.5 -10t-81.5 -35l-62 -350h-94l60 337q1 6 2 11.5t1 10.5q0 11 -3.5 21.5t-8.5 20.5l-18 31l146 39z" />
    <glyph glyph-name="n" unicode="n" horiz-adv-x="478" 
d="M169 358q57 57 104 86.5t91 29.5q27 0 43 -17t16 -43q0 -10 -1.5 -24t-5.5 -32l-51 -261q-2 -8 -2 -12.5v-6.5q0 -9 7 -11t21 -2h26q-32 -36 -62 -54t-56 -18q-20 0 -28.5 9.5t-8.5 30.5q0 14 4 35l52 271q4 20 4 30q0 26 -30 26q-18 0 -49 -11.5t-76 -36.5l-62 -347h-92
l59 334q2 7 2 13.5v14.5q0 20 -10 37l-19 33l146 39z" />
    <glyph glyph-name="o" unicode="o" horiz-adv-x="456" 
d="M254 474q79 0 121 -43t42 -122q0 -54 -12.5 -105t-35.5 -90q-39 -69 -87 -99t-123 -30q-70 0 -111.5 46t-41.5 121q0 72 19 131.5t52 102t78.5 65.5t98.5 23zM317 328q0 57 -18.5 85t-53.5 28q-27 0 -51.5 -21.5t-42.5 -64.5q-23 -54 -34 -109.5t-11 -106.5
q0 -120 70 -120q28 0 52.5 22t42.5 65q22 53 34 110t12 112z" />
    <glyph glyph-name="p" unicode="p" horiz-adv-x="470" 
d="M-67 -206q37 40 47.5 71.5t15.5 58.5l74 412q1 5 1.5 11t0.5 11q0 11 -3.5 22t-8.5 20l-18 32l144 37l-19 -109q50 56 91 85t73 29q45 0 71.5 -37.5t26.5 -104.5q0 -60 -16.5 -118t-46.5 -106q-72 -115 -176 -115q-49 0 -84 26l-23 -126q-3 -15 -3 -33q0 -21 28 -66h-175
zM113 58q26 -12 53 -12q33 0 63 20.5t52.5 56.5t35.5 85.5t13 107.5q0 79 -52 79q-22 0 -49 -12.5t-64 -32.5z" />
    <glyph glyph-name="q" unicode="q" horiz-adv-x="466" 
d="M330 -92q-6 -33 -6 -43q0 -26 27 -71h-175q35 37 45.5 66.5t15.5 56.5l34 184q-49 -53 -87 -81.5t-77 -28.5q-48 0 -72.5 36t-24.5 105t20 132.5t57 113.5q35 47 75.5 71.5t94.5 24.5q20 0 40.5 -10t43.5 -24l88 29zM325 404q-25 11 -49 11q-32 0 -55.5 -11t-43.5 -37
q-32 -42 -50.5 -100t-18.5 -125q0 -75 53 -75q36 0 112 46z" />
    <glyph glyph-name="r" unicode="r" horiz-adv-x="345" 
d="M172 339q49 62 82 95.5t65 33.5q19 0 36 -11l-19 -104q-29 20 -58 20q-25 0 -51 -11t-57 -33l-60 -329h-93l59 332q2 8 3 15.5t1 15.5q0 17 -7.5 35t-21.5 39l145 33z" />
    <glyph glyph-name="s" unicode="s" horiz-adv-x="344" 
d="M306 355q-41 32 -67.5 52t-52.5 20t-42.5 -17.5t-16.5 -43.5q0 -32 33 -61l64 -56q56 -47 56 -109q0 -33 -12 -60.5t-34.5 -48t-53.5 -32t-69 -11.5q-30 0 -60 5t-61 16l19 103q41 -37 67 -59.5t55 -22.5q28 0 47.5 21.5t19.5 53.5q0 34 -40 70l-60 54q-27 24 -40.5 47
t-13.5 55q0 30 12 56t35 45.5t55.5 30.5t72.5 11q28 0 54 -6t52 -14z" />
    <glyph glyph-name="t" unicode="t" horiz-adv-x="318" 
d="M228 580l-22 -117h126l-7 -38h-126l-57 -300q-4 -21 -4 -30q0 -27 26 -27q45 0 123 44q-46 -61 -95 -90.5t-87 -29.5q-30 0 -49 17.5t-19 45.5q0 5 1 16t5 29l62 325h-61l8 38h60l24 117h92z" />
    <glyph glyph-name="u" unicode="u" horiz-adv-x="476" 
d="M127 125q-2 -8 -3 -14.5t-1 -13.5q0 -28 31 -28q17 0 48 11t74 36l59 328l98 24l-67 -371q-2 -7 -2 -11v-6q0 -11 4.5 -13.5t18.5 -2.5h30q-33 -35 -61.5 -53t-55.5 -18q-37 0 -37 39q0 14 4 34l8 39q-58 -57 -104.5 -85t-85.5 -28q-29 0 -46 16t-17 45q0 10 2 22.5
t5 28.5l42 227q1 5 3 14t2 21q0 26 -28 71l144 33z" />
    <glyph glyph-name="v" unicode="v" horiz-adv-x="403" 
d="M182 103l109 224q14 30 14 48q0 22 -28 70q47 25 85 25q20 0 31.5 -11t11.5 -29q0 -15 -8 -30t-20 -35l-224 -374h-45l-42 339q-2 20 -7.5 35.5t-16.5 28.5l-29 34l130 43z" />
    <glyph glyph-name="w" unicode="w" horiz-adv-x="650" 
d="M188 129l155 334h44l42 -357l105 226q12 26 12 41q0 12 -6 24l-24 50q52 23 83 23q46 0 46 -38q0 -9 -4 -22.5t-14 -30.5l-224 -390h-47l-37 325l-148 -325h-53l-46 354q-5 35 -18 50l-33 37l131 41z" />
    <glyph glyph-name="x" unicode="x" horiz-adv-x="440" 
d="M239 291l45 53q18 21 18 44q0 9 -5 19l-22 41q29 12 51.5 17.5t37.5 5.5q43 0 43 -36q0 -34 -56 -85l-100 -91l66 -168q5 -14 10.5 -19.5t22.5 -5.5h31q-51 -72 -94 -72q-19 0 -28.5 11t-18.5 34l-65 161l-56 -65q-15 -17 -23.5 -31.5t-8.5 -25.5q0 -5 3 -12t7 -15
l17 -33q-51 -24 -89 -24q-17 0 -28 10.5t-11 27.5q0 27 22.5 54t61.5 64l92 85l-45 115q-5 13 -14.5 25t-17.5 20l-38 33l119 42z" />
    <glyph glyph-name="y" unicode="y" horiz-adv-x="400" 
d="M187 116l108 220q8 14 8 36q0 10 -2.5 19t-4.5 14l-23 42q53 21 85 21q20 0 32 -10t12 -25q0 -23 -27 -70l-267 -461q-32 -55 -64 -81t-74 -26q-28 0 -63 16l18 110l51 -47q14 -14 29 -14q26 0 50 39l62 101l-51 338q-2 17 -6.5 30.5t-14.5 24.5l-36 38l132 39z" />
    <glyph glyph-name="z" unicode="z" horiz-adv-x="428" 
d="M416 463l-330 -394q9 3 21 5t27 2l112 1q20 0 35 3t32 16l59 44q-10 -44 -20 -71.5t-23.5 -43.5t-33 -21.5t-50.5 -5.5h-41l-128 5h-59q-11 0 -24 -1.5t-27 -3.5l326 388h-135q-30 0 -45 -14l-59 -56l25 147h338z" />
    <glyph glyph-name="braceleft" unicode="{" 
d="M403 648q-31 0 -50.5 -5.5t-30 -18.5t-14.5 -34.5t-4 -53.5v-118q0 -35 -4 -61t-14.5 -45.5t-30 -32t-49.5 -20.5q31 -8 50 -20.5t29.5 -32t14.5 -45.5t4 -61v-118q0 -32 3.5 -53.5t14.5 -34.5t30.5 -18.5t51.5 -5.5h19v-72h-21q-44 0 -76.5 4.5t-56.5 19.5
q-33 20 -41 56.5t-8 93.5v120q0 72 -25.5 102t-91.5 30q-5 0 -10.5 -0.5t-10.5 -0.5v73q6 0 11.5 -0.5t10.5 -0.5q65 0 90.5 29.5t25.5 101.5v120q0 57 8 93.5t41 56.5q25 15 58 20t78 5h18v-73h-20z" />
    <glyph glyph-name="bar" unicode="|" 
d="M287 -236h-73v1000h73v-1000z" />
    <glyph glyph-name="braceright" unicode="}" 
d="M281 426q0 -72 25.5 -101.5t90.5 -29.5q5 0 10.5 0.5t11.5 0.5v-73q-5 0 -10.5 0.5t-10.5 0.5q-66 0 -91.5 -30t-25.5 -102v-120q0 -57 -8 -93.5t-41 -56.5q-24 -15 -56.5 -19.5t-76.5 -4.5h-21v72h19q32 0 51.5 5.5t30 18.5t14.5 35t4 54v117q0 35 4 61t14.5 45.5t30 32
t49.5 20.5q-30 8 -49.5 20.5t-30 32t-14.5 45.5t-4 61v118q0 32 -4 53.5t-14.5 34.5t-30 18.5t-51.5 5.5h-19v73h18q45 0 78.5 -5t57.5 -20q33 -20 41 -56.5t8 -93.5v-120z" />
    <glyph glyph-name="asciitilde" unicode="~" horiz-adv-x="833" 
d="M747 300q-50 -35 -96 -52t-94 -17q-38 0 -72 11t-69 23t-69 22t-72 10q-45 0 -89.5 -19.5t-98.5 -57.5v76q103 70 189 70q39 0 73.5 -9t68.5 -21q37 -13 71 -24.5t69 -11.5q47 0 92 19.5t97 56.5v-76z" />
    <glyph glyph-name="exclamdown" unicode="&#xa1;" horiz-adv-x="254" 
d="M183 664q56 0 56 -50q0 -30 -17 -48.5t-46 -18.5q-27 0 -41.5 14t-14.5 40q0 30 16.5 46.5t46.5 16.5zM186 491l-36 -398q-3 -28 -6 -48t-10 -32.5t-19 -18t-33 -5.5q-55 0 -55 45q0 18 9 54l95 403h55z" />
    <glyph glyph-name="cent" unicode="&#xa2;" 
d="M297 539l-11 -68q71 -3 115 -17l-18 -102l-84 64q-4 3 -9 5t-12 5l-59 -361q27 2 60.5 16.5t76.5 37.5q-61 -85 -148 -119l-13 -76h-29l12 68h-13q-62 0 -95 40t-33 117q0 65 17 121t46 98.5t69.5 69t86.5 31.5l12 70h29zM249 428q-21 -7 -41.5 -29t-36 -56.5t-25 -79.5
t-9.5 -96q0 -44 11.5 -68t40.5 -32z" />
    <glyph glyph-name="sterling" unicode="&#xa3;" 
d="M487 528q-49 41 -81.5 66t-67.5 25q-91 0 -112 -130l-21 -127h160l-8 -41h-160l-14 -94q-8 -51 -29.5 -86.5t-66.5 -65.5q33 12 59 12h12.5t18.5 -2l116 -12q29 -3 35 -3q24 0 54 15t68 43q-14 -38 -26.5 -65.5t-26 -45t-29.5 -25.5t-37 -8h-8q-6 0 -15.5 0.5t-22.5 2.5
l-189 25l-31.5 3.5t-23.5 1.5q-20 0 -41 -6l31 71q17 2 27 19t16 52l29 168h-68l8 41h67l18 110q17 100 69.5 146t152.5 46q32 0 72 -5.5t85 -18.5z" />
    <glyph glyph-name="currency" unicode="&#xa4;" horiz-adv-x="606" 
d="M179 595q56 42 124 42q70 0 125 -42l100 100l40 -39l-100 -101q40 -53 40 -123q0 -34 -9.5 -64.5t-30.5 -58.5l100 -100l-40 -40l-100 100q-26 -20 -56.5 -31t-67.5 -11q-69 0 -125 42l-100 -100l-40 40l101 100q-17 21 -29 52t-12 71q0 68 41 123l-101 101l40 39z
M452 433q0 30 -11.5 57t-31.5 47.5t-47 32t-58 11.5t-58 -11.5t-47 -32t-31.5 -47.5t-11.5 -57q0 -31 11.5 -58t31.5 -47t47 -32t58 -12t58 12t47 32t31.5 47t11.5 58z" />
    <glyph glyph-name="yen" unicode="&#xa5;" horiz-adv-x="503" 
d="M202 655q-25 -30 -25 -45q0 -9 2 -17.5t5 -17.5l31 -91h163l65 98q14 22 14 35q0 8 -6.5 17t-17.5 21h172q-30 -21 -56 -42.5t-46 -50.5l-56 -78h87l-7 -38h-108l-84 -115h169l-7 -38h-188l-22 -29l-27 -161q-1 -6 -2 -14.5t-1 -20.5q0 -24 29 -68h-183q25 28 39.5 53.5
t19.5 58.5l25 152l-9 29h-183l7 38h163l-39 115h-119l7 38h100l-25 75q-9 28 -23.5 50.5t-38.5 45.5h175zM269 317l85 129h-128z" />
    <glyph glyph-name="brokenbar" unicode="&#xa6;" 
d="M287 329h-73v370h73v-370zM287 -171h-73v370h73v-370z" />
    <glyph glyph-name="section" unicode="&#xa7;" horiz-adv-x="439" 
d="M412 531q-48 42 -78.5 66t-53.5 24q-16 0 -31 -7t-27 -19t-19 -27.5t-7 -32.5q0 -19 6 -32.5t17 -24.5t26 -20.5t33 -21.5q27 -17 48.5 -32t36.5 -32t23 -38t8 -50q0 -65 -40 -109.5t-118 -64.5q38 -26 56 -54.5t18 -66.5q0 -36 -14.5 -66.5t-40.5 -53t-63.5 -35.5
t-82.5 -13q-56 0 -120 19l20 116q48 -44 79 -68t54 -24q15 0 29.5 7.5t26 20t18.5 28.5t7 33q0 22 -9 37.5t-25.5 29t-39.5 26.5t-51 31q-72 44 -72 128q0 126 158 171q-74 44 -74 119q0 36 14 67t40.5 53.5t64 35.5t83.5 13q33 0 63.5 -5t57.5 -13zM212 358
q-99 -49 -99 -121q0 -35 23 -61t71 -48q49 20 74 51.5t25 70.5q0 65 -94 108z" />
    <glyph glyph-name="dieresis" unicode="&#xa8;" 
d="M219 682q21 0 33.5 -11t12.5 -29q0 -26 -15 -45t-36 -19q-48 0 -48 39q0 27 15 46t38 19zM378 682q21 0 33.5 -11t12.5 -29q0 -26 -15 -45t-36 -19q-23 0 -35 10.5t-12 28.5q0 27 14.5 46t37.5 19z" />
    <glyph glyph-name="copyright" unicode="&#xa9;" horiz-adv-x="833" 
d="M416 715q74 0 139 -26.5t117 -78.5q51 -51 78 -116.5t27 -138.5q0 -74 -26.5 -138t-77.5 -114q-54 -52 -119.5 -80t-137.5 -28t-136.5 27.5t-116.5 79.5t-79 116.5t-27 136.5t27 137t80 119q51 51 115 77.5t137 26.5zM729 355q0 64 -23 120.5t-67 100.5q-92 92 -222 92
q-64 0 -119.5 -23t-99.5 -67q-46 -46 -70 -103.5t-24 -119.5t24 -118.5t69 -101.5t101 -68.5t119 -23.5q62 0 118.5 24t103.5 69q44 43 67 98.5t23 120.5zM514 443q-6 38 -32 58t-68 20q-50 0 -80 -42.5t-30 -123.5q0 -78 30.5 -120t84.5 -42q40 0 66.5 22.5t33.5 63.5h71
q-5 -64 -52.5 -103.5t-121.5 -39.5q-88 0 -139 58t-51 164q0 50 14 90t39.5 68t61 43.5t78.5 15.5q70 0 116 -36.5t51 -95.5h-72z" />
    <glyph glyph-name="ordfeminine" unicode="&#xaa;" horiz-adv-x="351" 
d="M318 648l-49 -256q-3 -13 -3 -16q0 -8 18 -8h23q-51 -50 -89 -50q-29 0 -29 26q0 5 1 11t3 15l6 25q-35 -38 -64.5 -57.5t-55.5 -19.5q-32 0 -51.5 25.5t-19.5 73.5q0 41 12 80.5t31 66.5q29 44 62.5 67.5t74.5 23.5q19 0 34 -7.5t29 -19.5zM240 606q-15 7 -37 7
q-45 0 -75 -42q-20 -26 -32 -65t-12 -79q0 -56 38 -56q14 0 32.5 8t45.5 22z" />
    <glyph glyph-name="guillemotleft" unicode="&#xab;" horiz-adv-x="359" 
d="M226 421l-132 -184l65 -191h-55l-86 191l146 184h62zM364 421l-131 -184l64 -191h-55l-86 191l147 184h61z" />
    <glyph glyph-name="logicalnot" unicode="&#xac;" horiz-adv-x="833" 
d="M709 175h-67v177h-518v68h585v-245z" />
    <glyph glyph-name="registered" unicode="&#xae;" horiz-adv-x="833" 
d="M416 715q74 0 139.5 -27t117.5 -80q50 -51 77 -116t27 -137q0 -75 -27 -139t-78 -114q-54 -52 -119.5 -79.5t-136.5 -27.5q-72 0 -137 27.5t-117 80.5q-51 52 -78 116t-27 136t28 138t81 120q50 51 113.5 76.5t136.5 25.5zM729 352q0 66 -22.5 122.5t-66.5 100.5
q-91 93 -223 93q-63 0 -119 -22.5t-99 -66.5q-46 -47 -70.5 -104.5t-24.5 -119.5t23.5 -118t68.5 -101t101.5 -69t116.5 -24q64 0 120.5 23.5t103.5 68.5q45 43 68 98.5t23 118.5zM426 566q170 0 170 -112q0 -44 -24 -72.5t-69 -37.5l91 -186h-86l-83 174h-76v-174h-77v408
h154zM349 516v-135h65q53 0 78 14.5t25 50.5q0 38 -25.5 54t-79.5 16h-63z" />
    <glyph glyph-name="macron" unicode="&#xaf;" 
d="M441 654l-9 -53h-280l10 53h279z" />
    <glyph glyph-name="degree" unicode="&#xb0;" horiz-adv-x="329" 
d="M165 711q29 0 54.5 -11t44.5 -30t30 -45t11 -55q0 -28 -11 -53.5t-29.5 -45t-44.5 -30.5t-56 -11t-55.5 11t-44 30t-29.5 44.5t-11 54.5q0 30 11 55.5t30.5 44.5t45 30t54.5 11zM259 571q0 39 -27 66.5t-67 27.5q-39 0 -67 -27t-28 -67t27.5 -68t67.5 -28q41 0 67.5 28.5
t26.5 67.5z" />
    <glyph glyph-name="plusminus" unicode="&#xb1;" horiz-adv-x="833" 
d="M451 416h258v-68h-258v-166h-69v166h-258v68h258v166h69v-166zM709 14h-585v69h585v-69z" />
    <glyph glyph-name="twosuperior" unicode="&#xb2;" horiz-adv-x="330" 
d="M59 309h106q27 0 46 9t45 32l-17 -91h-271l179 167q44 41 64.5 77.5t20.5 65.5t-17.5 46t-43.5 17q-20 0 -46 -18l-70 -53l17 84q63 12 107 12q60 0 93.5 -24t33.5 -63q0 -45 -36 -85.5t-101 -91.5z" />
    <glyph glyph-name="threesuperior" unicode="&#xb3;" horiz-adv-x="330" 
d="M178 459q48 -5 73.5 -29t25.5 -64q0 -23 -13 -46.5t-38 -40.5q-43 -29 -110 -29q-62 0 -124 20l15 80q35 -34 56.5 -54t50.5 -20q39 0 65 26t26 67q0 71 -95 83q125 41 125 124q0 24 -16 40t-41 16q-23 0 -44 -15l-74 -56l16 84q58 14 111 14q57 0 88 -23.5t31 -61.5
t-32 -67.5t-96 -47.5z" />
    <glyph glyph-name="acute" unicode="&#xb4;" 
d="M476 692l-241 -143h-16l124 143h133z" />
    <glyph glyph-name="mu" unicode="&#xb5;" horiz-adv-x="562" 
d="M125 230q-7 -31 -7 -65q0 -49 25.5 -75t72.5 -26q68 0 104 47.5t58 149.5l56 262h87l-76 -357q-5 -22 -8 -38t-3 -27q0 -18 8 -25.5t27 -7.5h7.5t8.5 1l-15 -70q-14 -3 -27 -4t-26 -1q-32 0 -48 14.5t-25 48.5q-43 -64 -132 -64q-40 0 -69.5 13.5t-55.5 43.5l-54 -259
h-88l155 732h88z" />
    <glyph glyph-name="paragraph" unicode="&#xb6;" 
d="M409 680v-680h-54v680h-87v-680h-54v382q-85 4 -133.5 50.5t-48.5 119.5q0 38 13.5 69t38.5 53.5t60.5 35t79.5 12.5h244v-42h-59z" />
    <glyph glyph-name="periodcentered" unicode="&#xb7;" horiz-adv-x="250" 
d="M124 388q26 0 45.5 -19.5t19.5 -45.5t-19 -45t-46 -19q-26 0 -44.5 19t-18.5 45q0 27 18.5 46t44.5 19z" />
    <glyph glyph-name="cedilla" unicode="&#xb8;" 
d="M226 0l-6 -34q27 -4 42 -20.5t15 -41.5q0 -42 -43.5 -74.5t-121.5 -36.5q41 22 62 52.5t21 59.5q0 26 -20 40l9 55h42z" />
    <glyph glyph-name="onesuperior" unicode="&#xb9;" horiz-adv-x="330" 
d="M183 324q-3 -9 -3 -22q0 -16 21 -43h-122q24 26 31 43.5t10 32.5l46 250l-101 -12q50 22 95.5 44.5t84.5 47.5z" />
    <glyph glyph-name="ordmasculine" unicode="&#xba;" horiz-adv-x="342" 
d="M191 655q59 0 90.5 -30t31.5 -86q0 -38 -9.5 -73.5t-26.5 -62.5q-29 -48 -65 -69t-93 -21q-52 0 -83 31.5t-31 84.5q0 51 14 92.5t39 71t59 46t74 16.5zM238 553q0 39 -14 59t-40 20q-20 0 -38.5 -15.5t-32.5 -45.5q-17 -37 -25 -76.5t-8 -74.5q0 -84 52 -84q44 0 71 61
q17 37 26 77t9 79z" />
    <glyph glyph-name="guillemotright" unicode="&#xbb;" horiz-adv-x="359" 
d="M87 421l86 -190l-147 -185h-61l132 184l-65 191h55zM226 421l85 -190l-146 -185h-62l132 184l-65 191h56z" />
    <glyph glyph-name="onequarter" unicode="&#xbc;" horiz-adv-x="797" 
d="M175 347q-1 -5 -2 -9.5t-1 -11.5q0 -14 20 -40h-116q23 23 29.5 40t9.5 31l44 234l-96 -12q48 20 91 41.5t81 44.5zM611 598l-398 -551l-23 17l396 549zM719 144h53l-10 -40h-51l-7 -45q-1 -3 -2 -8t-1 -12t4.5 -16.5t12.5 -22.5h-109q23 23 29 38.5t8 28.5l8 37h-182
l239 255l52 16zM539 144h124l33 168z" />
    <glyph glyph-name="onehalf" unicode="&#xbd;" horiz-adv-x="797" 
d="M175 347q-1 -5 -2 -9.5t-1 -11.5q0 -14 20 -40h-116q23 23 29.5 40t9.5 31l44 234l-96 -12q48 20 91 41.5t81 44.5zM611 598l-398 -551l-23 17l396 549zM539 46h100q26 0 44.5 8.5t42.5 30.5l-16 -85h-259l171 156q42 38 62 72t20 62q0 27 -16.5 42.5t-42.5 15.5
q-21 0 -43 -16l-68 -50l17 79q29 5 54.5 8t47.5 3q58 0 89.5 -22.5t31.5 -58.5q0 -43 -34.5 -80.5t-96.5 -85.5z" />
    <glyph glyph-name="threequarters" unicode="&#xbe;" horiz-adv-x="797" 
d="M170 472q46 -4 70.5 -26t24.5 -60q0 -22 -13 -43.5t-37 -37.5q-40 -27 -105 -27q-59 0 -118 18l15 75q17 -16 29.5 -29t24 -22t23 -13.5t25.5 -4.5q38 0 62.5 24.5t24.5 62.5q0 67 -91 77q59 19 89 48.5t30 67.5q0 23 -15.5 37.5t-39.5 14.5q-21 0 -41 -14l-71 -52l15 78
q27 6 54 9.5t53 3.5q54 0 83.5 -22t29.5 -57t-30.5 -63t-91.5 -45zM611 598l-398 -551l-23 17l396 549zM719 144h53l-10 -40h-51l-7 -45q-1 -3 -2 -8t-1 -12t4.5 -16.5t12.5 -22.5h-109q23 23 29 38.5t8 28.5l8 37h-182l239 255l52 16zM539 144h124l33 168z" />
    <glyph glyph-name="questiondown" unicode="&#xbf;" horiz-adv-x="417" 
d="M291 663q56 0 56 -50q0 -29 -17.5 -48t-46.5 -19q-26 0 -40.5 14t-14.5 39q0 31 16.5 47.5t46.5 16.5zM292 491l-3 -33q-4 -37 -19.5 -62t-34.5 -51l-69 -94q-27 -37 -40 -71t-13 -61q0 -38 20.5 -61.5t54.5 -23.5q20 0 39.5 8t40.5 23t45.5 36t54.5 46l-25 -140
q-88 -20 -159 -20q-87 0 -134 38t-47 101q0 37 21.5 78.5t64.5 84.5l68 67q33 32 55 55.5t24 49.5l3 30h53z" />
    <glyph glyph-name="Agrave" unicode="&#xc0;" horiz-adv-x="532" 
d="M452 109q3 -27 11.5 -51.5t41.5 -57.5h-175q13 19 20.5 34t7.5 32q0 3 -0.5 9t-1.5 14l-15 171h-184l-88 -175q-11 -22 -11 -36q0 -9 6 -20.5t17 -28.5h-154q29 24 48.5 50t34.5 54l297 543l82 26zM178 302h159l-26 266zM362 861l30 -142h-13l-134 142h117z" />
    <glyph glyph-name="Aacute" unicode="&#xc1;" horiz-adv-x="532" 
d="M452 109q3 -27 11.5 -51.5t41.5 -57.5h-175q13 19 20.5 34t7.5 32q0 3 -0.5 9t-1.5 14l-15 171h-184l-88 -175q-11 -22 -11 -36q0 -9 6 -20.5t17 -28.5h-154q29 24 48.5 50t34.5 54l297 543l82 26zM178 302h159l-26 266zM552 862l-241 -143h-16l124 143h133z" />
    <glyph glyph-name="Acircumflex" unicode="&#xc2;" horiz-adv-x="532" 
d="M452 109q3 -27 11.5 -51.5t41.5 -57.5h-175q13 19 20.5 34t7.5 32q0 3 -0.5 9t-1.5 14l-15 171h-184l-88 -175q-11 -22 -11 -36q0 -9 6 -20.5t17 -28.5h-154q29 24 48.5 50t34.5 54l297 543l82 26zM178 302h159l-26 266zM505 719h-22l-116 57l-142 -62h-30l187 148z" />
    <glyph glyph-name="Atilde" unicode="&#xc3;" horiz-adv-x="532" 
d="M452 109q3 -27 11.5 -51.5t41.5 -57.5h-175q13 19 20.5 34t7.5 32q0 3 -0.5 9t-1.5 14l-15 171h-184l-88 -175q-11 -22 -11 -36q0 -9 6 -20.5t17 -28.5h-154q29 24 48.5 50t34.5 54l297 543l82 26zM178 302h159l-26 266zM418 807q11 -8 19 -8q11 0 21 6l83 45
q-63 -112 -122 -112q-21 0 -46 17l-43 31q-10 8 -18 8q-4 0 -7 -2t-8 -4l-87 -48q31 57 64 85.5t57 28.5q11 0 21.5 -4t21.5 -12z" />
    <glyph glyph-name="Adieresis" unicode="&#xc4;" horiz-adv-x="532" 
d="M452 109q3 -27 11.5 -51.5t41.5 -57.5h-175q13 19 20.5 34t7.5 32q0 3 -0.5 9t-1.5 14l-15 171h-184l-88 -175q-11 -22 -11 -36q0 -9 6 -20.5t17 -28.5h-154q29 24 48.5 50t34.5 54l297 543l82 26zM178 302h159l-26 266zM295 852q21 0 33.5 -11t12.5 -29q0 -26 -15 -45
t-36 -19q-48 0 -48 39q0 27 15 46t38 19zM454 852q21 0 33.5 -11t12.5 -29q0 -26 -15 -45t-36 -19q-23 0 -35 10.5t-12 28.5q0 27 14.5 46t37.5 19z" />
    <glyph glyph-name="Aring" unicode="&#xc5;" horiz-adv-x="532" 
d="M364 940q24 0 45 -9t37 -24.5t25 -36.5t9 -45t-9 -45.5t-24.5 -37t-37 -24.5t-45.5 -9t-45 9t-36.5 24.5t-24.5 37t-9 45.5t9 45t24.5 36.5t36.5 24.5t45 9zM364 888q-26 0 -44.5 -18t-18.5 -45t18 -45.5t45 -18.5q26 0 45 19t19 45t-19 44.5t-45 18.5zM452 109
q3 -27 11.5 -51.5t41.5 -57.5h-175q13 19 20.5 34t7.5 32q0 3 -0.5 9t-1.5 14l-15 171h-184l-88 -175q-11 -22 -11 -36q0 -9 6 -20.5t17 -28.5h-154q29 24 48.5 50t34.5 54l297 543l82 26zM178 302h159l-26 266z" />
    <glyph glyph-name="AE" unicode="&#xc6;" horiz-adv-x="718" 
d="M724 655l-21 -116q-45 35 -75 56t-62 21h-89l-49 -281h71q30 0 60.5 15t70.5 41l-27 -158q-32 29 -55 45.5t-53 16.5h-73l-44 -256h87q42 0 87.5 28t110.5 78l-46 -145h-383q19 20 30 37t17 32.5t9 29.5t5 26l29 170h-145l-135 -212q-14 -20 -14 -38q0 -17 22 -45h-159
q51 41 89 97l383 558h359zM208 335h123l45 264z" />
    <glyph glyph-name="Ccedilla" unicode="&#xc7;" horiz-adv-x="535" 
d="M534 525l-100 78q-24 19 -56 19q-42 0 -85.5 -25.5t-78.5 -75.5q-34 -48 -55 -125t-21 -176q0 -42 10.5 -76.5t29.5 -59t44.5 -37.5t56.5 -13q39 0 65 18l133 93l-43 -134q-42 -12 -82 -17.5t-80 -5.5q-57 0 -101.5 17.5t-76 49t-48 76t-16.5 99.5q0 86 22.5 160.5
t64.5 135.5q48 69 116.5 104t154.5 35q47 0 88 -7t76 -20zM294 0l-6 -34q27 -4 42 -20.5t15 -41.5q0 -42 -43.5 -74.5t-121.5 -36.5q41 22 62 52.5t21 59.5q0 26 -20 40l9 55h42z" />
    <glyph glyph-name="Egrave" unicode="&#xc8;" horiz-adv-x="475" 
d="M484 655l-21 -116q-45 35 -75.5 56t-62.5 21h-91l-45 -262h74q30 0 59.5 15t68.5 41l-27 -159q-32 29 -55.5 46t-50.5 17h-75l-48 -275h90q42 0 87 28t108 79l-47 -146h-382q19 19 30 36t17 32.5t9 29.5t5 27l75 431q2 8 2 13.5v8.5q0 21 -8 38t-22 39h385zM306 861
l30 -142h-13l-134 142h117z" />
    <glyph glyph-name="Eacute" unicode="&#xc9;" horiz-adv-x="475" 
d="M484 655l-21 -116q-45 35 -75.5 56t-62.5 21h-91l-45 -262h74q30 0 59.5 15t68.5 41l-27 -159q-32 29 -55.5 46t-50.5 17h-75l-48 -275h90q42 0 87 28t108 79l-47 -146h-382q19 19 30 36t17 32.5t9 29.5t5 27l75 431q2 8 2 13.5v8.5q0 21 -8 38t-22 39h385zM496 862
l-241 -143h-16l124 143h133z" />
    <glyph glyph-name="Ecircumflex" unicode="&#xca;" horiz-adv-x="475" 
d="M484 655l-21 -116q-45 35 -75.5 56t-62.5 21h-91l-45 -262h74q30 0 59.5 15t68.5 41l-27 -159q-32 29 -55.5 46t-50.5 17h-75l-48 -275h90q42 0 87 28t108 79l-47 -146h-382q19 19 30 36t17 32.5t9 29.5t5 27l75 431q2 8 2 13.5v8.5q0 21 -8 38t-22 39h385zM449 719h-22
l-116 57l-142 -62h-30l187 148z" />
    <glyph glyph-name="Edieresis" unicode="&#xcb;" horiz-adv-x="475" 
d="M484 655l-21 -116q-45 35 -75.5 56t-62.5 21h-91l-45 -262h74q30 0 59.5 15t68.5 41l-27 -159q-32 29 -55.5 46t-50.5 17h-75l-48 -275h90q42 0 87 28t108 79l-47 -146h-382q19 19 30 36t17 32.5t9 29.5t5 27l75 431q2 8 2 13.5v8.5q0 21 -8 38t-22 39h385zM239 852
q21 0 33.5 -11t12.5 -29q0 -26 -15 -45t-36 -19q-48 0 -48 39q0 27 15 46t38 19zM398 852q21 0 33.5 -11t12.5 -29q0 -26 -15 -45t-36 -19q-23 0 -35 10.5t-12 28.5q0 27 14.5 46t37.5 19z" />
    <glyph glyph-name="Igrave" unicode="&#xcc;" horiz-adv-x="269" 
d="M279 655q-35 -35 -44.5 -64.5t-14.5 -57.5l-73 -424q-1 -5 -2 -13.5t-1 -22.5q0 -28 30 -73h-183q32 32 44.5 61t17.5 60l73 425q1 6 2 15t1 21q0 27 -30 73h180zM203 861l30 -142h-13l-134 142h117z" />
    <glyph glyph-name="Iacute" unicode="&#xcd;" horiz-adv-x="269" 
d="M279 655q-35 -35 -44.5 -64.5t-14.5 -57.5l-73 -424q-1 -5 -2 -13.5t-1 -22.5q0 -28 30 -73h-183q32 32 44.5 61t17.5 60l73 425q1 6 2 15t1 21q0 27 -30 73h180zM393 862l-241 -143h-16l124 143h133z" />
    <glyph glyph-name="Icircumflex" unicode="&#xce;" horiz-adv-x="269" 
d="M279 655q-35 -35 -44.5 -64.5t-14.5 -57.5l-73 -424q-1 -5 -2 -13.5t-1 -22.5q0 -28 30 -73h-183q32 32 44.5 61t17.5 60l73 425q1 6 2 15t1 21q0 27 -30 73h180zM346 719h-22l-116 57l-142 -62h-30l187 148z" />
    <glyph glyph-name="Idieresis" unicode="&#xcf;" horiz-adv-x="269" 
d="M279 655q-35 -35 -44.5 -64.5t-14.5 -57.5l-73 -424q-1 -5 -2 -13.5t-1 -22.5q0 -28 30 -73h-183q32 32 44.5 61t17.5 60l73 425q1 6 2 15t1 21q0 27 -30 73h180zM136 852q21 0 33.5 -11t12.5 -29q0 -26 -15 -45t-36 -19q-48 0 -48 39q0 27 15 46t38 19zM295 852
q21 0 33.5 -11t12.5 -29q0 -26 -15 -45t-36 -19q-23 0 -35 10.5t-12 28.5q0 27 14.5 46t37.5 19z" />
    <glyph glyph-name="Eth" unicode="&#xd0;" horiz-adv-x="620" 
d="M318 655q137 0 202.5 -57.5t65.5 -182.5q0 -88 -28 -167.5t-79 -137.5t-119.5 -84t-162.5 -26h-209q28 27 41 56t19 65l36 202h-76l6 41h76l31 182q2 8 3 15.5t1 15.5q0 18 -8.5 36.5t-22.5 41.5h224zM187 364h121l-6 -41h-124l-47 -282h77q65 0 108 23t85 73
q14 17 28 45.5t25.5 66t19 82.5t7.5 93q0 90 -46 140t-127 50h-79z" />
    <glyph glyph-name="Ntilde" unicode="&#xd1;" horiz-adv-x="606" 
d="M211 655l236 -474l63 374q3 18 3 30q0 17 -9 33t-23 37h143q-18 -18 -28.5 -33.5t-16.5 -30t-8.5 -27.5t-4.5 -25l-96 -548h-37l-261 526l-69 -410q-2 -8 -3.5 -17t-1.5 -20q0 -14 9 -30.5t23 -39.5h-142q36 39 46.5 71t15.5 60l72 420q2 11 3 18.5t1 14.5q0 16 -9 32.5
t-23 38.5h117zM427 807q11 -8 19 -8q11 0 21 6l83 45q-63 -112 -122 -112q-21 0 -46 17l-43 31q-10 8 -18 8q-4 0 -7 -2t-8 -4l-87 -48q31 57 64 85.5t57 28.5q11 0 21.5 -4t21.5 -12z" />
    <glyph glyph-name="Ograve" unicode="&#xd2;" horiz-adv-x="590" 
d="M351 664q100 0 155 -63.5t55 -181.5q0 -68 -15 -132.5t-40 -115.5q-48 -95 -113 -141t-156 -46q-97 0 -152.5 65.5t-55.5 185.5q0 69 18 138t49 124q93 167 255 167zM457 435q0 93 -31 140t-90 47q-51 0 -91.5 -41t-68.5 -124q-23 -66 -33.5 -130t-10.5 -116
q0 -90 33.5 -137t90.5 -47q50 0 87 36.5t66 111.5q23 57 35.5 124.5t12.5 135.5zM363 861l30 -142h-13l-134 142h117z" />
    <glyph glyph-name="Oacute" unicode="&#xd3;" horiz-adv-x="590" 
d="M351 664q100 0 155 -63.5t55 -181.5q0 -68 -15 -132.5t-40 -115.5q-48 -95 -113 -141t-156 -46q-97 0 -152.5 65.5t-55.5 185.5q0 69 18 138t49 124q93 167 255 167zM457 435q0 93 -31 140t-90 47q-51 0 -91.5 -41t-68.5 -124q-23 -66 -33.5 -130t-10.5 -116
q0 -90 33.5 -137t90.5 -47q50 0 87 36.5t66 111.5q23 57 35.5 124.5t12.5 135.5zM553 862l-241 -143h-16l124 143h133z" />
    <glyph glyph-name="Ocircumflex" unicode="&#xd4;" horiz-adv-x="590" 
d="M351 664q100 0 155 -63.5t55 -181.5q0 -68 -15 -132.5t-40 -115.5q-48 -95 -113 -141t-156 -46q-97 0 -152.5 65.5t-55.5 185.5q0 69 18 138t49 124q93 167 255 167zM457 435q0 93 -31 140t-90 47q-51 0 -91.5 -41t-68.5 -124q-23 -66 -33.5 -130t-10.5 -116
q0 -90 33.5 -137t90.5 -47q50 0 87 36.5t66 111.5q23 57 35.5 124.5t12.5 135.5zM506 719h-22l-116 57l-142 -62h-30l187 148z" />
    <glyph glyph-name="Otilde" unicode="&#xd5;" horiz-adv-x="590" 
d="M351 664q100 0 155 -63.5t55 -181.5q0 -68 -15 -132.5t-40 -115.5q-48 -95 -113 -141t-156 -46q-97 0 -152.5 65.5t-55.5 185.5q0 69 18 138t49 124q93 167 255 167zM457 435q0 93 -31 140t-90 47q-51 0 -91.5 -41t-68.5 -124q-23 -66 -33.5 -130t-10.5 -116
q0 -90 33.5 -137t90.5 -47q50 0 87 36.5t66 111.5q23 57 35.5 124.5t12.5 135.5zM419 807q11 -8 19 -8q11 0 21 6l83 45q-63 -112 -122 -112q-21 0 -46 17l-43 31q-10 8 -18 8q-4 0 -7 -2t-8 -4l-87 -48q31 57 64 85.5t57 28.5q11 0 21.5 -4t21.5 -12z" />
    <glyph glyph-name="Odieresis" unicode="&#xd6;" horiz-adv-x="590" 
d="M351 664q100 0 155 -63.5t55 -181.5q0 -68 -15 -132.5t-40 -115.5q-48 -95 -113 -141t-156 -46q-97 0 -152.5 65.5t-55.5 185.5q0 69 18 138t49 124q93 167 255 167zM457 435q0 93 -31 140t-90 47q-51 0 -91.5 -41t-68.5 -124q-23 -66 -33.5 -130t-10.5 -116
q0 -90 33.5 -137t90.5 -47q50 0 87 36.5t66 111.5q23 57 35.5 124.5t12.5 135.5zM296 852q21 0 33.5 -11t12.5 -29q0 -26 -15 -45t-36 -19q-48 0 -48 39q0 27 15 46t38 19zM455 852q21 0 33.5 -11t12.5 -29q0 -26 -15 -45t-36 -19q-23 0 -35 10.5t-12 28.5q0 27 14.5 46
t37.5 19z" />
    <glyph glyph-name="multiply" unicode="&#xd7;" horiz-adv-x="833" 
d="M649 575l48 -48l-229 -229l229 -229l-48 -47l-229 228l-229 -228l-48 47l229 229l-229 229l48 48l229 -229z" />
    <glyph glyph-name="Oslash" unicode="&#xd8;" horiz-adv-x="590" 
d="M513 712l-41 -83q87 -52 87 -211q0 -66 -14 -129t-38 -114q-93 -190 -265 -190q-45 0 -92 18l-47 -86l-38 19l49 89q-38 28 -60 81.5t-22 128.5q0 66 17 133t46 121q47 87 110.5 131t141.5 44q23 0 43.5 -3t41.5 -11l43 81zM406 597q-34 25 -63 25q-109 0 -165 -168
q-22 -66 -32.5 -128.5t-10.5 -112.5q0 -59 18 -110zM178 61q33 -34 78 -34q96 0 154 151q22 57 34 124t12 136q0 64 -21 121z" />
    <glyph glyph-name="Ugrave" unicode="&#xd9;" horiz-adv-x="595" 
d="M270 655q-33 -30 -43.5 -57t-15.5 -56l-58 -338q-6 -33 -6 -61q0 -54 34 -82.5t98 -28.5q38 0 64.5 10t44.5 31t29.5 53t18.5 76l60 349q3 20 3 36q0 14 -7 30.5t-21 37.5h149q-29 -32 -41 -60t-17 -58l-56 -318q-10 -56 -22.5 -99t-44.5 -75q-31 -31 -75.5 -45
t-104.5 -14q-101 0 -155.5 43.5t-54.5 121.5q0 14 2.5 35.5t7.5 49.5l55 316q2 8 3 15.5t1 15.5q0 17 -7.5 34t-21.5 38h181zM366 861l30 -142h-13l-134 142h117z" />
    <glyph glyph-name="Uacute" unicode="&#xda;" horiz-adv-x="595" 
d="M270 655q-33 -30 -43.5 -57t-15.5 -56l-58 -338q-6 -33 -6 -61q0 -54 34 -82.5t98 -28.5q38 0 64.5 10t44.5 31t29.5 53t18.5 76l60 349q3 20 3 36q0 14 -7 30.5t-21 37.5h149q-29 -32 -41 -60t-17 -58l-56 -318q-10 -56 -22.5 -99t-44.5 -75q-31 -31 -75.5 -45
t-104.5 -14q-101 0 -155.5 43.5t-54.5 121.5q0 14 2.5 35.5t7.5 49.5l55 316q2 8 3 15.5t1 15.5q0 17 -7.5 34t-21.5 38h181zM556 862l-241 -143h-16l124 143h133z" />
    <glyph glyph-name="Ucircumflex" unicode="&#xdb;" horiz-adv-x="595" 
d="M270 655q-33 -30 -43.5 -57t-15.5 -56l-58 -338q-6 -33 -6 -61q0 -54 34 -82.5t98 -28.5q38 0 64.5 10t44.5 31t29.5 53t18.5 76l60 349q3 20 3 36q0 14 -7 30.5t-21 37.5h149q-29 -32 -41 -60t-17 -58l-56 -318q-10 -56 -22.5 -99t-44.5 -75q-31 -31 -75.5 -45
t-104.5 -14q-101 0 -155.5 43.5t-54.5 121.5q0 14 2.5 35.5t7.5 49.5l55 316q2 8 3 15.5t1 15.5q0 17 -7.5 34t-21.5 38h181zM509 719h-22l-116 57l-142 -62h-30l187 148z" />
    <glyph glyph-name="Udieresis" unicode="&#xdc;" horiz-adv-x="595" 
d="M270 655q-33 -30 -43.5 -57t-15.5 -56l-58 -338q-6 -33 -6 -61q0 -54 34 -82.5t98 -28.5q38 0 64.5 10t44.5 31t29.5 53t18.5 76l60 349q3 20 3 36q0 14 -7 30.5t-21 37.5h149q-29 -32 -41 -60t-17 -58l-56 -318q-10 -56 -22.5 -99t-44.5 -75q-31 -31 -75.5 -45
t-104.5 -14q-101 0 -155.5 43.5t-54.5 121.5q0 14 2.5 35.5t7.5 49.5l55 316q2 8 3 15.5t1 15.5q0 17 -7.5 34t-21.5 38h181zM299 852q21 0 33.5 -11t12.5 -29q0 -26 -15 -45t-36 -19q-48 0 -48 39q0 27 15 46t38 19zM458 852q21 0 33.5 -11t12.5 -29q0 -26 -15 -45t-36 -19
q-23 0 -35 10.5t-12 28.5q0 27 14.5 46t37.5 19z" />
    <glyph glyph-name="Yacute" unicode="&#xdd;" horiz-adv-x="505" 
d="M202 655q-25 -30 -25 -45q0 -10 2 -18.5t5 -16.5l84 -259l175 266q14 22 14 35q0 8 -6.5 17t-17.5 21h172q-29 -21 -55 -42.5t-47 -50.5l-216 -298l-27 -161q-1 -6 -2 -14.5t-1 -20.5q0 -24 29 -68h-183q25 28 39.5 53.5t19.5 58.5l25 152l-98 295q-9 27 -23 50t-39 46
h175zM511 862l-241 -143h-16l124 143h133z" />
    <glyph glyph-name="Thorn" unicode="&#xde;" horiz-adv-x="480" 
d="M278 655q-29 -29 -39.5 -52.5t-15.5 -50.5l-7 -41h78q92 0 139.5 -40t47.5 -115q0 -45 -14.5 -83t-40 -65.5t-60.5 -43.5t-76 -16q-29 0 -54 7t-45 19q8 -1 15 -1.5t13 -0.5q35 0 63.5 13t48.5 37t31.5 58t11.5 76q0 57 -25 87t-73 31l-66 1l-65 -366q-3 -16 -3 -32
q0 -33 30 -77h-182q35 34 45.5 63t15.5 58l73 425q2 9 3 16.5t1 14.5q0 18 -8.5 36.5t-22.5 41.5h181z" />
    <glyph glyph-name="germandbls" unicode="&#xdf;" horiz-adv-x="544" 
d="M-77 -149q16 -16 31 -16q25 0 41 31.5t27 97.5l89 522q10 59 27.5 101t46.5 69t72.5 40t104.5 13q77 0 121 -32t44 -82q0 -43 -22.5 -68.5t-64.5 -50.5l-67 -38q-28 -17 -42 -32.5t-14 -38.5q0 -25 24 -48l69 -63q31 -28 47 -55.5t16 -59.5q0 -69 -43.5 -109t-124.5 -40
q-56 0 -118 21l18 103l73 -64q24 -21 48 -21q27 0 48 21t21 51q0 20 -9.5 36t-28.5 33l-75 65q-20 17 -30.5 40.5t-10.5 48.5q0 41 21.5 69.5t61.5 60.5l69 54q17 14 27.5 36t10.5 48q0 38 -24 58t-70 20q-32 0 -53 -8t-35 -24.5t-22 -41.5t-14 -58l-79 -462
q-12 -72 -28.5 -125.5t-40.5 -88.5t-57.5 -52.5t-79.5 -17.5q-50 0 -89 19l19 103z" />
    <glyph glyph-name="agrave" unicode="&#xe0;" horiz-adv-x="468" 
d="M424 465l-66 -367q-3 -18 -3 -22q0 -8 6 -10t17 -2h31q-68 -71 -119 -71q-38 0 -38 37q0 6 1.5 15t3.5 22l8 36q-47 -55 -86 -82.5t-74 -27.5q-43 0 -68.5 36t-25.5 105q0 59 16 115.5t41 95.5q39 62 83.5 95.5t98.5 33.5q26 0 46.5 -10.5t38.5 -27.5zM320 404
q-24 11 -49 11q-60 0 -101 -60q-26 -38 -42 -94t-16 -113q0 -80 51 -80q17 0 42.5 11.5t60.5 32.5zM270 691l30 -142h-13l-134 142h117z" />
    <glyph glyph-name="aacute" unicode="&#xe1;" horiz-adv-x="468" 
d="M424 465l-66 -367q-3 -18 -3 -22q0 -8 6 -10t17 -2h31q-68 -71 -119 -71q-38 0 -38 37q0 6 1.5 15t3.5 22l8 36q-47 -55 -86 -82.5t-74 -27.5q-43 0 -68.5 36t-25.5 105q0 59 16 115.5t41 95.5q39 62 83.5 95.5t98.5 33.5q26 0 46.5 -10.5t38.5 -27.5zM320 404
q-24 11 -49 11q-60 0 -101 -60q-26 -38 -42 -94t-16 -113q0 -80 51 -80q17 0 42.5 11.5t60.5 32.5zM460 692l-241 -143h-16l124 143h133z" />
    <glyph glyph-name="acircumflex" unicode="&#xe2;" horiz-adv-x="468" 
d="M424 465l-66 -367q-3 -18 -3 -22q0 -8 6 -10t17 -2h31q-68 -71 -119 -71q-38 0 -38 37q0 6 1.5 15t3.5 22l8 36q-47 -55 -86 -82.5t-74 -27.5q-43 0 -68.5 36t-25.5 105q0 59 16 115.5t41 95.5q39 62 83.5 95.5t98.5 33.5q26 0 46.5 -10.5t38.5 -27.5zM320 404
q-24 11 -49 11q-60 0 -101 -60q-26 -38 -42 -94t-16 -113q0 -80 51 -80q17 0 42.5 11.5t60.5 32.5zM413 549h-22l-116 57l-142 -62h-30l187 148z" />
    <glyph glyph-name="atilde" unicode="&#xe3;" horiz-adv-x="468" 
d="M424 465l-66 -367q-3 -18 -3 -22q0 -8 6 -10t17 -2h31q-68 -71 -119 -71q-38 0 -38 37q0 6 1.5 15t3.5 22l8 36q-47 -55 -86 -82.5t-74 -27.5q-43 0 -68.5 36t-25.5 105q0 59 16 115.5t41 95.5q39 62 83.5 95.5t98.5 33.5q26 0 46.5 -10.5t38.5 -27.5zM320 404
q-24 11 -49 11q-60 0 -101 -60q-26 -38 -42 -94t-16 -113q0 -80 51 -80q17 0 42.5 11.5t60.5 32.5zM326 637q11 -8 19 -8q11 0 21 6l83 45q-63 -112 -122 -112q-21 0 -46 17l-43 31q-10 8 -18 8q-4 0 -7 -2t-8 -4l-87 -48q31 57 64 85.5t57 28.5q11 0 21.5 -4t21.5 -12z" />
    <glyph glyph-name="adieresis" unicode="&#xe4;" horiz-adv-x="468" 
d="M424 465l-66 -367q-3 -18 -3 -22q0 -8 6 -10t17 -2h31q-68 -71 -119 -71q-38 0 -38 37q0 6 1.5 15t3.5 22l8 36q-47 -55 -86 -82.5t-74 -27.5q-43 0 -68.5 36t-25.5 105q0 59 16 115.5t41 95.5q39 62 83.5 95.5t98.5 33.5q26 0 46.5 -10.5t38.5 -27.5zM320 404
q-24 11 -49 11q-60 0 -101 -60q-26 -38 -42 -94t-16 -113q0 -80 51 -80q17 0 42.5 11.5t60.5 32.5zM203 682q21 0 33.5 -11t12.5 -29q0 -26 -15 -45t-36 -19q-48 0 -48 39q0 27 15 46t38 19zM362 682q21 0 33.5 -11t12.5 -29q0 -26 -15 -45t-36 -19q-23 0 -35 10.5t-12 28.5
q0 27 14.5 46t37.5 19z" />
    <glyph glyph-name="aring" unicode="&#xe5;" horiz-adv-x="468" 
d="M287 739q23 0 43.5 -9t35.5 -24t24 -35t9 -43q0 -24 -8.5 -44.5t-23.5 -35.5t-35.5 -24t-44.5 -9q-23 0 -43.5 9t-35.5 24t-23.5 35.5t-8.5 44.5q0 23 8.5 43.5t23.5 35.5t35.5 23.5t43.5 8.5zM287 690q-26 0 -44.5 -18.5t-18.5 -45.5q0 -26 18.5 -44.5t44.5 -18.5
t44.5 18.5t18.5 44.5t-18.5 45t-44.5 19zM424 465l-66 -367q-3 -18 -3 -22q0 -8 6 -10t17 -2h31q-68 -71 -119 -71q-38 0 -38 37q0 6 1.5 15t3.5 22l8 36q-47 -55 -86 -82.5t-74 -27.5q-43 0 -68.5 36t-25.5 105q0 59 16 115.5t41 95.5q39 62 83.5 93t98.5 31q49 0 85 -33z
M320 404q-24 11 -49 11q-60 0 -101 -60q-26 -38 -42 -94t-16 -113q0 -80 51 -80q17 0 42.5 11.5t60.5 32.5z" />
    <glyph glyph-name="ae" unicode="&#xe6;" horiz-adv-x="610" 
d="M355 422q52 46 122 46q52 0 80.5 -24.5t28.5 -66.5q0 -63 -50.5 -96.5t-151.5 -33.5h-22t-24 1q-4 -24 -5.5 -44.5t-1.5 -37.5q0 -101 73 -101q31 0 70.5 13t84.5 41q-48 -63 -99.5 -95t-101.5 -32q-61 0 -93 60q-34 -29 -74.5 -45t-82.5 -16q-51 0 -81 28.5t-30 76.5
q0 79 52.5 116t160.5 37h21.5t21.5 -1l19 121q1 6 1 11q1 2 1 4q0 48 -50 48q-14 0 -25 -4.5t-22 -12.5l-107 -78l20 110q84 21 144 21q47 0 76.5 -10t44.5 -36zM248 221q-79 -7 -115 -31.5t-36 -81.5q0 -61 65 -61q28 0 55 12zM344 272q145 16 145 116q0 23 -10.5 35.5
t-30.5 12.5q-35 0 -62 -41t-42 -123z" />
    <glyph glyph-name="ccedilla" unicode="&#xe7;" horiz-adv-x="384" 
d="M362 353l-85 64q-17 13 -35 13q-21 0 -43 -19.5t-40 -54t-30 -81.5t-12 -102q0 -54 16.5 -80.5t53.5 -26.5q34 0 70.5 13t80.5 38q-48 -64 -100 -96t-100 -32q-57 0 -89.5 42t-32.5 121q0 68 21 129t61 112q63 81 174 81q26 0 53 -5t56 -13zM168 0l-6 -34q27 -4 42 -20.5
t15 -41.5q0 -42 -43.5 -74.5t-121.5 -36.5q41 22 62 52.5t21 59.5q0 26 -20 40l9 55h42z" />
    <glyph glyph-name="egrave" unicode="&#xe8;" horiz-adv-x="391" 
d="M340 116q-46 -63 -100 -94.5t-111 -31.5q-54 0 -86 41t-32 116q0 70 18.5 130t51.5 103.5t78 68.5t97 25q54 0 83.5 -29t29.5 -72q0 -63 -51.5 -96t-155.5 -33h-42q-8 -40 -8 -74q0 -106 75 -106q26 0 65.5 12t87.5 40zM123 269q76 10 112.5 36t36.5 80q0 23 -11 35.5
t-29 12.5q-36 0 -64 -41t-45 -123zM232 691l30 -142h-13l-134 142h117z" />
    <glyph glyph-name="eacute" unicode="&#xe9;" horiz-adv-x="391" 
d="M340 116q-46 -63 -100 -94.5t-111 -31.5q-54 0 -86 41t-32 116q0 70 18.5 130t51.5 103.5t78 68.5t97 25q54 0 83.5 -29t29.5 -72q0 -63 -51.5 -96t-155.5 -33h-42q-8 -40 -8 -74q0 -106 75 -106q26 0 65.5 12t87.5 40zM123 269q76 10 112.5 36t36.5 80q0 23 -11 35.5
t-29 12.5q-36 0 -64 -41t-45 -123zM422 692l-241 -143h-16l124 143h133z" />
    <glyph glyph-name="ecircumflex" unicode="&#xea;" horiz-adv-x="391" 
d="M340 116q-46 -63 -100 -94.5t-111 -31.5q-54 0 -86 41t-32 116q0 70 18.5 130t51.5 103.5t78 68.5t97 25q54 0 83.5 -29t29.5 -72q0 -63 -51.5 -96t-155.5 -33h-42q-8 -40 -8 -74q0 -106 75 -106q26 0 65.5 12t87.5 40zM123 269q76 10 112.5 36t36.5 80q0 23 -11 35.5
t-29 12.5q-36 0 -64 -41t-45 -123zM375 549h-22l-116 57l-142 -62h-30l187 148z" />
    <glyph glyph-name="edieresis" unicode="&#xeb;" horiz-adv-x="391" 
d="M340 116q-46 -63 -100 -94.5t-111 -31.5q-54 0 -86 41t-32 116q0 70 18.5 130t51.5 103.5t78 68.5t97 25q54 0 83.5 -29t29.5 -72q0 -63 -51.5 -96t-155.5 -33h-42q-8 -40 -8 -74q0 -106 75 -106q26 0 65.5 12t87.5 40zM123 269q76 10 112.5 36t36.5 80q0 23 -11 35.5
t-29 12.5q-36 0 -64 -41t-45 -123zM165 682q21 0 33.5 -11t12.5 -29q0 -26 -15 -45t-36 -19q-48 0 -48 39q0 27 15 46t38 19zM324 682q21 0 33.5 -11t12.5 -29q0 -26 -15 -45t-36 -19q-23 0 -35 10.5t-12 28.5q0 27 14.5 46t37.5 19z" />
    <glyph glyph-name="igrave" unicode="&#xec;" horiz-adv-x="264" 
d="M135 99q-3 -15 -3 -21q0 -9 5.5 -12t17.5 -3h30q-30 -35 -60 -52.5t-56 -17.5q-37 0 -37 37q0 4 1 12t3 22l49 262q2 11 4 21t2 19q0 14 -7.5 31.5t-21.5 40.5l146 31zM168 691l30 -142h-13l-134 142h117z" />
    <glyph glyph-name="iacute" unicode="&#xed;" horiz-adv-x="264" 
d="M135 99q-3 -15 -3 -21q0 -9 5.5 -12t17.5 -3h30q-30 -35 -60 -52.5t-56 -17.5q-37 0 -37 37q0 4 1 12t3 22l49 262q2 11 4 21t2 19q0 14 -7.5 31.5t-21.5 40.5l146 31zM358 692l-241 -143h-16l124 143h133z" />
    <glyph glyph-name="icircumflex" unicode="&#xee;" horiz-adv-x="264" 
d="M135 99q-3 -15 -3 -21q0 -9 5.5 -12t17.5 -3h30q-30 -35 -60 -52.5t-56 -17.5q-37 0 -37 37q0 4 1 12t3 22l49 262q2 11 4 21t2 19q0 14 -7.5 31.5t-21.5 40.5l146 31zM311 549h-22l-116 57l-142 -62h-30l187 148z" />
    <glyph glyph-name="idieresis" unicode="&#xef;" horiz-adv-x="264" 
d="M135 99q-3 -15 -3 -21q0 -9 5.5 -12t17.5 -3h30q-30 -35 -60 -52.5t-56 -17.5q-37 0 -37 37q0 4 1 12t3 22l49 262q2 11 4 21t2 19q0 14 -7.5 31.5t-21.5 40.5l146 31zM101 682q21 0 33.5 -11t12.5 -29q0 -26 -15 -45t-36 -19q-48 0 -48 39q0 27 15 46t38 19zM260 682
q21 0 33.5 -11t12.5 -29q0 -26 -15 -45t-36 -19q-23 0 -35 10.5t-12 28.5q0 27 14.5 46t37.5 19z" />
    <glyph glyph-name="eth" unicode="&#xf0;" horiz-adv-x="457" 
d="M338 423q-2 42 -13.5 82t-30.5 81l-150 -35l-10 41l141 32q-23 40 -59 84l120 -1q8 -14 16.5 -29.5t18.5 -32.5l87 21l12 -37l-83 -20q41 -117 41 -236q0 -116 -41 -216q-72 -173 -228 -173q-69 0 -110 45.5t-41 120.5q0 72 16.5 131.5t45 102t67 65.5t81.5 23
q60 0 120 -49zM338 409q-45 21 -81 21q-33 0 -61 -20t-48 -57.5t-31 -90t-11 -117.5q0 -122 71 -122q29 0 56 25.5t49.5 75t37.5 121.5t18 164z" />
    <glyph glyph-name="ntilde" unicode="&#xf1;" horiz-adv-x="478" 
d="M169 358q57 57 104 86.5t91 29.5q27 0 43 -17t16 -43q0 -10 -1.5 -24t-5.5 -32l-51 -261q-2 -8 -2 -12.5v-6.5q0 -9 7 -11t21 -2h26q-32 -36 -62 -54t-56 -18q-20 0 -28.5 9.5t-8.5 30.5q0 14 4 35l52 271q4 20 4 30q0 26 -30 26q-18 0 -49 -11.5t-76 -36.5l-62 -347h-92
l59 334q2 7 2 13.5v14.5q0 20 -10 37l-19 33l146 39zM331 637q11 -8 19 -8q11 0 21 6l83 45q-63 -112 -122 -112q-21 0 -46 17l-43 31q-10 8 -18 8q-4 0 -7 -2t-8 -4l-87 -48q31 57 64 85.5t57 28.5q11 0 21.5 -4t21.5 -12z" />
    <glyph glyph-name="ograve" unicode="&#xf2;" horiz-adv-x="456" 
d="M254 474q79 0 121 -43t42 -122q0 -54 -12.5 -105t-35.5 -90q-39 -69 -87 -99t-123 -30q-70 0 -111.5 46t-41.5 121q0 72 19 131.5t52 102t78.5 65.5t98.5 23zM317 328q0 57 -18.5 85t-53.5 28q-27 0 -51.5 -21.5t-42.5 -64.5q-23 -54 -34 -109.5t-11 -106.5
q0 -120 70 -120q28 0 52.5 22t42.5 65q22 53 34 110t12 112zM264 691l30 -142h-13l-134 142h117z" />
    <glyph glyph-name="oacute" unicode="&#xf3;" horiz-adv-x="456" 
d="M254 474q79 0 121 -43t42 -122q0 -54 -12.5 -105t-35.5 -90q-39 -69 -87 -99t-123 -30q-70 0 -111.5 46t-41.5 121q0 72 19 131.5t52 102t78.5 65.5t98.5 23zM317 328q0 57 -18.5 85t-53.5 28q-27 0 -51.5 -21.5t-42.5 -64.5q-23 -54 -34 -109.5t-11 -106.5
q0 -120 70 -120q28 0 52.5 22t42.5 65q22 53 34 110t12 112zM454 692l-241 -143h-16l124 143h133z" />
    <glyph glyph-name="ocircumflex" unicode="&#xf4;" horiz-adv-x="456" 
d="M254 474q79 0 121 -43t42 -122q0 -54 -12.5 -105t-35.5 -90q-39 -69 -87 -99t-123 -30q-70 0 -111.5 46t-41.5 121q0 72 19 131.5t52 102t78.5 65.5t98.5 23zM317 328q0 57 -18.5 85t-53.5 28q-27 0 -51.5 -21.5t-42.5 -64.5q-23 -54 -34 -109.5t-11 -106.5
q0 -120 70 -120q28 0 52.5 22t42.5 65q22 53 34 110t12 112zM407 549h-22l-116 57l-142 -62h-30l187 148z" />
    <glyph glyph-name="otilde" unicode="&#xf5;" horiz-adv-x="456" 
d="M254 474q79 0 121 -43t42 -122q0 -54 -12.5 -105t-35.5 -90q-39 -69 -87 -99t-123 -30q-70 0 -111.5 46t-41.5 121q0 72 19 131.5t52 102t78.5 65.5t98.5 23zM317 328q0 57 -18.5 85t-53.5 28q-27 0 -51.5 -21.5t-42.5 -64.5q-23 -54 -34 -109.5t-11 -106.5
q0 -120 70 -120q28 0 52.5 22t42.5 65q22 53 34 110t12 112zM320 637q11 -8 19 -8q11 0 21 6l83 45q-63 -112 -122 -112q-21 0 -46 17l-43 31q-10 8 -18 8q-4 0 -7 -2t-8 -4l-87 -48q31 57 64 85.5t57 28.5q11 0 21.5 -4t21.5 -12z" />
    <glyph glyph-name="odieresis" unicode="&#xf6;" horiz-adv-x="456" 
d="M254 474q79 0 121 -43t42 -122q0 -54 -12.5 -105t-35.5 -90q-39 -69 -87 -99t-123 -30q-70 0 -111.5 46t-41.5 121q0 72 19 131.5t52 102t78.5 65.5t98.5 23zM317 328q0 57 -18.5 85t-53.5 28q-27 0 -51.5 -21.5t-42.5 -64.5q-23 -54 -34 -109.5t-11 -106.5
q0 -120 70 -120q28 0 52.5 22t42.5 65q22 53 34 110t12 112zM197 682q21 0 33.5 -11t12.5 -29q0 -26 -15 -45t-36 -19q-48 0 -48 39q0 27 15 46t38 19zM356 682q21 0 33.5 -11t12.5 -29q0 -26 -15 -45t-36 -19q-23 0 -35 10.5t-12 28.5q0 27 14.5 46t37.5 19z" />
    <glyph glyph-name="divide" unicode="&#xf7;" horiz-adv-x="833" 
d="M417 540q25 0 43 -18t18 -44q0 -25 -17.5 -43t-43.5 -18t-43.5 17.5t-17.5 43.5t18 44t43 18zM709 264h-585v68h585v-68zM417 179q25 0 43 -17.5t18 -43.5q0 -25 -17.5 -43t-43.5 -18t-43.5 17.5t-17.5 43.5t18 43.5t43 17.5z" />
    <glyph glyph-name="oslash" unicode="&#xf8;" horiz-adv-x="456" 
d="M405 559l-57 -107q69 -41 69 -146q0 -75 -24 -140.5t-69 -115.5q-58 -64 -158 -64q-27 0 -61 8l-51 -96l-35 19l50 93q-62 51 -62 150q0 69 19 127t52.5 100t79 65t99.5 23q12 0 25 -2t28 -6l60 111zM288 423q-16 18 -41 18q-60 0 -96 -86q-46 -109 -46 -226q0 -9 1 -20
t3 -23zM129 40q17 -20 46 -20q60 0 96 86q22 52 34 109t12 112q0 31 -7 53z" />
    <glyph glyph-name="ugrave" unicode="&#xf9;" horiz-adv-x="476" 
d="M127 125q-2 -8 -3 -14.5t-1 -13.5q0 -28 31 -28q17 0 48 11t74 36l59 328l98 24l-67 -371q-2 -7 -2 -11v-6q0 -11 4.5 -13.5t18.5 -2.5h30q-33 -35 -61.5 -53t-55.5 -18q-37 0 -37 39q0 14 4 34l8 39q-58 -57 -104.5 -85t-85.5 -28q-29 0 -46 16t-17 45q0 10 2 22.5
t5 28.5l42 227q1 5 3 14t2 21q0 26 -28 71l144 33zM274 691l30 -142h-13l-134 142h117z" />
    <glyph glyph-name="uacute" unicode="&#xfa;" horiz-adv-x="476" 
d="M127 125q-2 -8 -3 -14.5t-1 -13.5q0 -28 31 -28q17 0 48 11t74 36l59 328l98 24l-67 -371q-2 -7 -2 -11v-6q0 -11 4.5 -13.5t18.5 -2.5h30q-33 -35 -61.5 -53t-55.5 -18q-37 0 -37 39q0 14 4 34l8 39q-58 -57 -104.5 -85t-85.5 -28q-29 0 -46 16t-17 45q0 10 2 22.5
t5 28.5l42 227q1 5 3 14t2 21q0 26 -28 71l144 33zM464 692l-241 -143h-16l124 143h133z" />
    <glyph glyph-name="ucircumflex" unicode="&#xfb;" horiz-adv-x="476" 
d="M127 125q-2 -8 -3 -14.5t-1 -13.5q0 -28 31 -28q17 0 48 11t74 36l59 328l98 24l-67 -371q-2 -7 -2 -11v-6q0 -11 4.5 -13.5t18.5 -2.5h30q-33 -35 -61.5 -53t-55.5 -18q-37 0 -37 39q0 14 4 34l8 39q-58 -57 -104.5 -85t-85.5 -28q-29 0 -46 16t-17 45q0 10 2 22.5
t5 28.5l42 227q1 5 3 14t2 21q0 26 -28 71l144 33zM417 549h-22l-116 57l-142 -62h-30l187 148z" />
    <glyph glyph-name="udieresis" unicode="&#xfc;" horiz-adv-x="476" 
d="M127 125q-2 -8 -3 -14.5t-1 -13.5q0 -28 31 -28q17 0 48 11t74 36l59 328l98 24l-67 -371q-2 -7 -2 -11v-6q0 -11 4.5 -13.5t18.5 -2.5h30q-33 -35 -61.5 -53t-55.5 -18q-37 0 -37 39q0 14 4 34l8 39q-58 -57 -104.5 -85t-85.5 -28q-29 0 -46 16t-17 45q0 10 2 22.5
t5 28.5l42 227q1 5 3 14t2 21q0 26 -28 71l144 33zM207 682q21 0 33.5 -11t12.5 -29q0 -26 -15 -45t-36 -19q-48 0 -48 39q0 27 15 46t38 19zM366 682q21 0 33.5 -11t12.5 -29q0 -26 -15 -45t-36 -19q-23 0 -35 10.5t-12 28.5q0 27 14.5 46t37.5 19z" />
    <glyph glyph-name="yacute" unicode="&#xfd;" horiz-adv-x="400" 
d="M187 116l108 220q8 14 8 36q0 10 -2.5 19t-4.5 14l-23 42q53 21 85 21q20 0 32 -10t12 -25q0 -23 -27 -70l-267 -461q-32 -55 -64 -81t-74 -26q-28 0 -63 16l18 110l51 -47q14 -14 29 -14q26 0 50 39l62 101l-51 338q-2 17 -6.5 30.5t-14.5 24.5l-36 38l132 39zM426 692
l-241 -143h-16l124 143h133z" />
    <glyph glyph-name="thorn" unicode="&#xfe;" horiz-adv-x="468" 
d="M-70 -206q37 40 48 71.5t16 58.5l114 642q2 14 3.5 24t1.5 15q0 14 -8.5 31.5t-24.5 41.5l148 30l-63 -348q100 112 164 112q45 0 71.5 -36.5t26.5 -103.5q0 -60 -16.5 -118t-46.5 -106q-72 -115 -176 -115q-49 0 -84 26l-23 -126q-3 -15 -3 -33q0 -23 27 -66h-175z
M111 58q26 -12 53 -12q33 0 63 20.5t52 56.5t35 85.5t13 107.5q0 79 -52 79q-22 0 -48.5 -12.5t-63.5 -32.5z" />
    <glyph glyph-name="ydieresis" unicode="&#xff;" horiz-adv-x="400" 
d="M187 116l108 220q8 14 8 36q0 10 -2.5 19t-4.5 14l-23 42q53 21 85 21q20 0 32 -10t12 -25q0 -23 -27 -70l-267 -461q-32 -55 -64 -81t-74 -26q-28 0 -63 16l18 110l51 -47q14 -14 29 -14q26 0 50 39l62 101l-51 338q-2 17 -6.5 30.5t-14.5 24.5l-36 38l132 39zM169 682
q21 0 33.5 -11t12.5 -29q0 -26 -15 -45t-36 -19q-48 0 -48 39q0 27 15 46t38 19zM328 682q21 0 33.5 -11t12.5 -29q0 -26 -15 -45t-36 -19q-23 0 -35 10.5t-12 28.5q0 27 14.5 46t37.5 19z" />
    <glyph glyph-name="dotlessi" unicode="&#x131;" horiz-adv-x="264" 
d="M135 99q-3 -15 -3 -21q0 -9 5.5 -12t17.5 -3h30q-30 -35 -60 -52.5t-56 -17.5q-37 0 -37 37q0 4 1 12t3 22l49 262q2 11 4 21t2 19q0 14 -7.5 31.5t-21.5 40.5l146 31z" />
    <glyph glyph-name="Lslash" unicode="&#x141;" horiz-adv-x="433" 
d="M281 655q-19 -19 -30 -36t-17 -32t-8.5 -28.5t-4.5 -25.5l-22 -132l97 61l20 -37l-126 -79l-53 -305h81q23 0 43.5 7.5t42.5 22t47 34t56 43.5l-42 -148h-374q19 20 30 37t17 32.5t9 29t5 26.5l28 153l-74 -45l-19 37l102 63l38 223q2 8 2 14v8q0 21 -8 38t-22 39h182z
" />
    <glyph glyph-name="lslash" unicode="&#x142;" horiz-adv-x="235" 
d="M184 440l78 50l20 -33l-107 -67l-54 -299q-1 -5 -1.5 -9t-0.5 -8q0 -12 22 -12h30q-61 -69 -118 -69q-36 0 -36 31q0 9 3 27l49 270l-60 -38l-18 33l87 56l36 196q2 10 3 18t1 16q0 22 -11 40l-20 35l147 32z" />
    <glyph glyph-name="OE" unicode="&#x152;" horiz-adv-x="801" 
d="M468 655h340l-21 -116q-45 35 -75.5 56t-62.5 21h-88l-45 -262h71q29 0 59 15t69 41l-27 -159q-32 29 -55 46t-51 17h-73l-47 -275h87q42 0 87 28t108 79l-47 -146h-342l5 26q-56 -37 -118 -37q-100 0 -156.5 64.5t-56.5 182.5q0 67 16.5 134t45.5 121q46 87 111 130.5
t143 43.5q64 0 118 -35zM444 513q-11 54 -40 82t-71 28q-50 0 -91.5 -43.5t-69.5 -130.5q-20 -63 -29.5 -122.5t-9.5 -110.5q0 -90 31 -137t88 -47q73 0 124 87z" />
    <glyph glyph-name="oe" unicode="&#x153;" horiz-adv-x="669" 
d="M390 395q30 36 67.5 54.5t79.5 18.5q54 0 84 -26t30 -71q0 -61 -49.5 -94t-149.5 -33h-49q-8 -42 -8 -78q0 -104 75 -104q29 0 68 13.5t85 40.5q-44 -62 -98.5 -94t-108.5 -32q-31 0 -54 16t-43 49q-69 -68 -154 -68q-74 0 -115.5 45.5t-41.5 123.5q0 71 18.5 129
t51 99.5t77.5 64.5t98 23q46 0 78.5 -18t58.5 -59zM407 268q73 7 110.5 37t37.5 79q0 23 -11.5 35t-29.5 12q-35 0 -62.5 -41t-44.5 -122zM248 439q-64 0 -100 -89q-20 -51 -31 -106t-11 -106q0 -118 71 -118q29 0 54.5 22.5t43.5 67.5q20 51 31 107.5t11 110.5t-18.5 82.5
t-50.5 28.5z" />
    <glyph glyph-name="Scaron" unicode="&#x160;" horiz-adv-x="463" 
d="M431 525q-52 42 -86 67.5t-64 25.5q-23 0 -43.5 -8.5t-35.5 -23t-24 -33.5t-9 -41q0 -30 15.5 -52t42.5 -47q32 -30 66.5 -57.5t63.5 -61.5q36 -42 36 -104q0 -42 -16 -79t-46 -64.5t-72 -43t-93 -15.5q-76 0 -169 27l22 121q51 -49 85.5 -76.5t66.5 -27.5q26 0 48.5 10
t39 27t26.5 39.5t10 48.5q0 27 -10 48t-27 39.5t-40 37.5t-49 43q-45 40 -67.5 75.5t-22.5 80.5q0 40 15 73.5t42.5 57.5t67.5 37.5t90 13.5q80 0 156 -26zM167 857h22l116 -57l142 62h30l-186 -148z" />
    <glyph glyph-name="scaron" unicode="&#x161;" horiz-adv-x="344" 
d="M306 355q-41 32 -67.5 52t-52.5 20t-42.5 -17.5t-16.5 -43.5q0 -32 33 -61l64 -56q56 -47 56 -109q0 -33 -12 -60.5t-34.5 -48t-53.5 -32t-69 -11.5q-30 0 -60 5t-61 16l19 103q41 -37 67 -59.5t55 -22.5q28 0 47.5 21.5t19.5 53.5q0 34 -40 70l-60 54q-27 24 -40.5 47
t-13.5 55q0 30 12 56t35 45.5t55.5 30.5t72.5 11q28 0 54 -6t52 -14zM75 687h22l116 -57l142 62h30l-186 -148z" />
    <glyph glyph-name="Ydieresis" unicode="&#x178;" horiz-adv-x="505" 
d="M202 655q-25 -30 -25 -45q0 -10 2 -18.5t5 -16.5l84 -259l175 266q14 22 14 35q0 8 -6.5 17t-17.5 21h172q-29 -21 -55 -42.5t-47 -50.5l-216 -298l-27 -161q-1 -6 -2 -14.5t-1 -20.5q0 -24 29 -68h-183q25 28 39.5 53.5t19.5 58.5l25 152l-98 295q-9 27 -23 50t-39 46
h175zM254 852q21 0 33.5 -11t12.5 -29q0 -26 -15 -45t-36 -19q-48 0 -48 39q0 27 15 46t38 19zM413 852q21 0 33.5 -11t12.5 -29q0 -26 -15 -45t-36 -19q-23 0 -35 10.5t-12 28.5q0 27 14.5 46t37.5 19z" />
    <glyph glyph-name="Zcaron" unicode="&#x17d;" horiz-adv-x="501" 
d="M539 655l-426 -613h145q41 0 84 25.5t103 68.5l-40 -136h-435l430 613h-137q-38 0 -79 -24t-98 -62l21 128h432zM186 857h22l116 -57l142 62h30l-186 -148z" />
    <glyph glyph-name="zcaron" unicode="&#x17e;" horiz-adv-x="428" 
d="M416 463l-330 -394q9 3 21 5t27 2l112 1q20 0 35 3t32 16l59 44q-10 -44 -20 -71.5t-23.5 -43.5t-33 -21.5t-50.5 -5.5h-41l-128 5h-59q-11 0 -24 -1.5t-27 -3.5l326 388h-135q-30 0 -45 -14l-59 -56l25 147h338zM117 687h22l116 -57l142 62h30l-186 -148z" />
    <glyph glyph-name="florin" unicode="&#x192;" 
d="M485 599q-40 29 -65 45t-39 16q-46 0 -63.5 -47.5t-26.5 -147.5h124l-4 -44h-126l-47 -370q-8 -65 -24 -113.5t-42.5 -81t-65 -48.5t-92.5 -16q-21 0 -49 6l13 100q35 -27 55.5 -41.5t32.5 -14.5q39 0 54.5 39t23.5 112l48 428h-90l5 44h90q5 118 64.5 180t162.5 62
q16 0 34.5 -1.5t40.5 -5.5z" />
    <glyph glyph-name="circumflex" unicode="&#x2c6;" 
d="M429 549h-22l-116 57l-142 -62h-30l187 148z" />
    <glyph glyph-name="caron" unicode="&#x2c7;" 
d="M153 687h22l116 -57l142 62h30l-186 -148z" />
    <glyph glyph-name="breve" unicode="&#x2d8;" 
d="M457 698q-49 -132 -166 -132q-50 0 -79.5 30t-32.5 84q37 -52 106 -52q49 0 91 17t81 53z" />
    <glyph glyph-name="dotaccent" unicode="&#x2d9;" 
d="M302 682q21 0 34 -11t13 -30q0 -25 -15.5 -44t-37.5 -19q-50 0 -50 40q0 26 15.5 45t40.5 19z" />
    <glyph glyph-name="ring" unicode="&#x2da;" 
d="M293 739q23 0 43.5 -9t35.5 -24t24 -35t9 -43q0 -24 -8.5 -44.5t-23.5 -35.5t-35.5 -24t-44.5 -9q-23 0 -43.5 9t-35.5 24t-23.5 35.5t-8.5 44.5q0 23 8.5 43.5t23.5 35.5t35.5 23.5t43.5 8.5zM293 690q-26 0 -44.5 -18.5t-18.5 -45.5q0 -26 18.5 -44.5t44.5 -18.5
t44.5 18.5t18.5 44.5t-18.5 45t-44.5 19z" />
    <glyph glyph-name="ogonek" unicode="&#x2db;" 
d="M278 0q-25 -24 -36 -49.5t-11 -57.5q0 -49 40 -89q-60 9 -91 35t-31 62q0 34 27.5 60t79.5 39h22z" />
    <glyph glyph-name="tilde" unicode="&#x2dc;" 
d="M342 637q11 -8 19 -8q11 0 21 6l83 45q-63 -112 -122 -112q-21 0 -46 17l-43 31q-10 8 -18 8q-4 0 -7 -2t-8 -4l-87 -48q31 57 64 85.5t57 28.5q11 0 21.5 -4t21.5 -12z" />
    <glyph glyph-name="hungarumlaut" unicode="&#x2dd;" 
d="M356 691l-187 -122h-13l98 122h102zM515 691l-188 -122h-12l98 122h102z" />
    <glyph glyph-name="endash" unicode="&#x2013;" 
d="M485 256l-10 -62h-492l11 62h491z" />
    <glyph glyph-name="emdash" unicode="&#x2014;" horiz-adv-x="1000" 
d="M985 256l-10 -62h-992l11 62h991z" />
    <glyph glyph-name="quoteleft" unicode="&#x2018;" horiz-adv-x="215" 
d="M220 684q-54 -57 -68 -120h5q17 0 27.5 -12.5t10.5 -29.5q0 -30 -17 -48.5t-46 -18.5q-55 0 -55 60q0 31 11 60t30 52.5t45.5 38.5t56.5 18z" />
    <glyph glyph-name="quoteright" unicode="&#x2019;" horiz-adv-x="215" 
d="M69 435q52 56 67 121h-5q-17 0 -27.5 12t-10.5 30q0 29 17 47.5t46 18.5q55 0 55 -60q0 -31 -11 -60t-30 -52.5t-45 -38.5t-56 -18z" />
    <glyph glyph-name="quotesinglbase" unicode="&#x201a;" horiz-adv-x="215" 
d="M-17 -123q50 55 67 121h-5q-17 0 -27.5 11.5t-10.5 29.5q0 29 17.5 48.5t46.5 19.5q54 0 54 -60q0 -31 -11 -60.5t-30 -53t-45 -38.5t-56 -18z" />
    <glyph glyph-name="quotedblleft" unicode="&#x201c;" horiz-adv-x="398" 
d="M217 684q-26 -28 -42.5 -57.5t-24.5 -62.5h5q16 0 26.5 -12t10.5 -29q0 -30 -17 -49t-46 -19q-55 0 -55 60q0 31 11 60t30 52.5t45.5 38.5t56.5 18zM400 684q-25 -26 -42 -55.5t-25 -64.5h5q17 0 27.5 -12.5t10.5 -29.5q0 -30 -17.5 -48.5t-46.5 -18.5q-55 0 -55 59
q0 32 11 61t30 52.5t45.5 38.5t56.5 18z" />
    <glyph glyph-name="quotedblright" unicode="&#x201d;" horiz-adv-x="398" 
d="M66 435q53 56 68 121h-5q-17 0 -27.5 11.5t-10.5 29.5q0 29 17 48t46 19q55 0 55 -60q0 -31 -11 -60t-30.5 -52.5t-45.5 -38.5t-56 -18zM252 435q25 26 42 56t25 65h-5q-17 0 -27.5 12t-10.5 30q0 29 17.5 47.5t46.5 18.5q54 0 54 -59q0 -31 -11 -60.5t-30 -53t-45 -38.5
t-56 -18z" />
    <glyph glyph-name="quotedblbase" unicode="&#x201e;" horiz-adv-x="398" 
d="M-25 -123q52 55 67 120h-5q-17 0 -27.5 12.5t-10.5 30.5q0 29 17.5 47.5t46.5 18.5q55 0 55 -59q0 -31 -11 -61t-30.5 -53t-45.5 -38t-56 -18zM161 -123q51 55 67 120h-5q-17 0 -27.5 12t-10.5 30q0 29 17 48t46 19q55 0 55 -60q0 -31 -11 -60.5t-30 -52.5t-45 -38
t-56 -18z" />
    <glyph glyph-name="dagger" unicode="&#x2020;" horiz-adv-x="404" 
d="M322 682l-84 -208l167 36l-14 -80l-156 32q-1 -7 -1 -13v-11q0 -50 25 -94q-29 -156 -66.5 -285t-83.5 -232q-2 26 -3.5 49t-1.5 45q0 75 10.5 180t33.5 242q22 17 39.5 46.5t28.5 71.5l-166 -31l13 80l155 -35l-5 207h109z" />
    <glyph glyph-name="daggerdbl" unicode="&#x2021;" horiz-adv-x="408" 
d="M322 682l-84 -208l167 36l-14 -80l-156 32v-14q0 -45 4 -92.5t10 -100.5q-35 -73 -56 -125t-29 -83l166 32l-13 -80l-155 35l5 -207h-109l84 207l-167 -35l15 80l155 -33v19q0 38 -3.5 85t-8.5 105q46 90 83 206l-166 -31l13 80l155 -35l-5 207h109z" />
    <glyph glyph-name="bullet" unicode="&#x2022;" horiz-adv-x="590" 
d="M150 372q0 30 11.5 56.5t31 46t46 30.5t56.5 11t56 -11t45.5 -30.5t31 -46t11.5 -56.5t-11.5 -56t-31 -46t-46 -31.5t-56.5 -11.5t-56 11.5t-45.5 31t-31 46t-11.5 56.5z" />
    <glyph glyph-name="ellipsis" unicode="&#x2026;" horiz-adv-x="1000" 
d="M131 107q58 0 58 -49q0 -70 -64 -70q-58 0 -58 49q0 33 17 51.5t47 18.5zM464 107q58 0 58 -49q0 -70 -64 -70q-58 0 -58 49q0 33 17 51.5t47 18.5zM798 107q58 0 58 -49q0 -70 -64 -70q-58 0 -58 49q0 33 17 51.5t47 18.5z" />
    <glyph glyph-name="perthousand" unicode="&#x2030;" horiz-adv-x="845" 
d="M20 460q0 47 12.5 85t35 64.5t53 41t67.5 14.5q48 0 75 -30t27 -83q0 -39 -12.5 -77t-34.5 -67q-23 -30 -52 -43t-71 -13q-47 0 -73.5 28.5t-26.5 79.5zM175 635q-36 0 -60 -50.5t-24 -135.5q0 -63 43 -63q37 0 60 50.5t23 138.5q0 60 -42 60zM492 583l-425 -529l-22 19
l424 530zM241 91q0 47 12.5 84.5t34.5 64t53.5 41t68.5 14.5q47 0 74 -29.5t27 -83.5q0 -43 -12 -79.5t-34 -63t-53.5 -41.5t-70.5 -15q-46 0 -73 28.5t-27 79.5zM554 91q0 47 12.5 84.5t34.5 64t53.5 41t68.5 14.5q47 0 74 -29.5t27 -82.5q0 -44 -12 -80.5t-34 -63
t-53.5 -41.5t-70.5 -15q-46 0 -73 28.5t-27 79.5zM396 265q-36 0 -59.5 -50t-23.5 -135q0 -64 43 -64q36 0 59 50.5t23 139.5q0 59 -42 59zM709 265q-36 0 -59 -50.5t-23 -135.5q0 -32 9.5 -47.5t32.5 -15.5q36 0 59 51t23 139q0 59 -42 59z" />
    <glyph glyph-name="guilsinglleft" unicode="&#x2039;" horiz-adv-x="255" 
d="M236 421l-132 -184l65 -191h-55l-86 191l147 184h61z" />
    <glyph glyph-name="guilsinglright" unicode="&#x203a;" horiz-adv-x="255" 
d="M110 421l85 -190l-146 -185h-61l131 184l-64 191h55z" />
    <glyph glyph-name="fraction" unicode="&#x2044;" horiz-adv-x="167" 
d="M296 598l-398 -551l-23 17l396 549z" />
    <glyph glyph-name="trademark" unicode="&#x2122;" horiz-adv-x="833" 
d="M339 673h-84v-224h-53v224h-84v39h221v-39zM544 524l69 188h73v-263h-48v217l-81 -217h-27l-85 217v-217h-48v263h73z" />
    <glyph glyph-name="minus" unicode="&#x2212;" horiz-adv-x="833" 
d="M709 264h-585v69h585v-69z" />
    <glyph glyph-name="fi" unicode="&#xfb01;" horiz-adv-x="493" 
d="M202 461h173q17 0 33.5 1.5t33.5 6.5l-69 -370q-3 -13 -3 -19q0 -11 6.5 -14t20.5 -3h25q-65 -71 -115 -71q-38 0 -38 39q0 10 6 41l60 315q1 5 1.5 9.5t0.5 6.5q0 14 -8 17.5t-28 3.5h-107l-60 -345q-12 -72 -29 -125.5t-41.5 -89.5t-58 -53.5t-78.5 -17.5q-46 0 -86 21
l17 100l64 -62q8 -8 15 -12.5t16 -4.5q27 0 42 33t27 100l81 456h-67l7 37h66l15 84q16 90 70.5 127.5t161.5 37.5q67 0 99 -12.5t32 -41.5q0 -20 -15 -36.5t-40 -16.5q-16 0 -30 9.5t-29 21.5t-31.5 21.5t-36.5 9.5q-68 0 -89 -126z" />
    <glyph glyph-name="fl" unicode="&#xfb02;" horiz-adv-x="493" 
d="M492 709l-113 -618q-1 -5 -1.5 -9t-0.5 -8q0 -12 22 -12h30q-61 -69 -118 -69q-36 0 -36 31q0 9 3 27l106 568q-10 6 -17.5 15t-14.5 17t-15.5 13.5t-22.5 5.5q-46 0 -66.5 -32.5t-31.5 -98.5l-14 -78h98l-6 -37h-100l-60 -345q-12 -72 -29 -125.5t-41.5 -89.5t-58 -53.5
t-78.5 -17.5q-46 0 -86 21l17 100l64 -62q8 -8 15 -12.5t16 -4.5q27 0 42 33t27 100l81 456h-67l7 37h66l15 84q16 89 69 127t158 38q51 0 100 -10z" />
  </font>
</defs>
</svg>
