<?xml version="1.0" standalone="no"?>
<!DOCTYPE svg PUBLIC "-//W3C//DTD SVG 1.1//EN" "http://www.w3.org/Graphics/SVG/1.1/DTD/svg11.dtd" >
<svg xmlns="http://www.w3.org/2000/svg" xmlns:xlink="http://www.w3.org/1999/xlink" version="1.1">
<metadata>
Created by FontForge 20161013 at Tue Jan 31 20:37:30 2017
 By ,,,
Copyright 1990 as an unpublished work by Bitstream Inc.  All rights reserved.  Confidential.
</metadata>
<defs>
<font id="AmerigoBT-MediumA" horiz-adv-x="500" >
  <font-face 
    font-family="Bitstream Amerigo Med"
    font-weight="500"
    font-stretch="normal"
    units-per-em="1000"
    panose-1="0 0 0 0 0 0 0 0 0 0"
    ascent="750"
    descent="-250"
    x-height="463"
    cap-height="655"
    bbox="-175 -236 1000 942"
    underline-thickness="68"
    underline-position="-171"
    unicode-range="U+000D-FB02"
  />
<missing-glyph horiz-adv-x="256" 
 />
    <glyph glyph-name=".notdef" horiz-adv-x="256" 
 />
    <glyph glyph-name=".null" horiz-adv-x="0" 
 />
    <glyph glyph-name=".null" horiz-adv-x="0" 
 />
    <glyph glyph-name="nonmarkingreturn" unicode="&#xd;" horiz-adv-x="250" 
 />
    <glyph glyph-name="space" unicode=" " horiz-adv-x="256" 
 />
    <glyph glyph-name="exclam" unicode="!" horiz-adv-x="241" 
d="M196 655l-45 -500h-43l-46 500h134zM126 103q64 0 64 -58q0 -25 -16.5 -39t-47.5 -14q-26 0 -42 14t-16 39q0 26 16 42t42 16z" />
    <glyph glyph-name="quotedbl" unicode="&#x22;" horiz-adv-x="300" 
d="M112 430h-68v271h68v-271zM256 430h-68v271h68v-271z" />
    <glyph glyph-name="numbersign" unicode="#" horiz-adv-x="769" 
d="M372 490h125l80 222h80l-78 -222h147l-25 -71h-148l-45 -129h157l-25 -71h-157l-79 -221h-81l79 221h-126l-79 -221h-81l78 221h-151l26 71h151l45 129h-161l25 71h162l79 222h81zM346 419l-45 -129h127l45 129h-127z" />
    <glyph glyph-name="dollar" unicode="$" horiz-adv-x="512" 
d="M267 728v-64q7 1 14 1h15q66 0 139 -18v-127l-102 79q-14 11 -27 16t-30 5h-9v-230q47 -27 82.5 -50t58.5 -47.5t34.5 -52.5t11.5 -63q0 -79 -48.5 -128t-138.5 -57v-61h-31v60q-90 0 -181 28v133l110 -96q15 -13 31.5 -17.5t39.5 -4.5v241q-43 26 -75 49t-53 47.5
t-31.5 52t-10.5 61.5q0 74 42.5 119t127.5 59v65h31zM236 617q-80 -26 -80 -101q0 -32 19.5 -58t60.5 -52v211zM267 38q42 11 65.5 38t23.5 63q0 35 -22 63.5t-67 54.5v-219z" />
    <glyph glyph-name="percent" unicode="%" horiz-adv-x="512" 
d="M152 662q59 0 96 -42t37 -111q0 -34 -10 -62t-27.5 -48.5t-42 -32t-54.5 -11.5q-28 0 -51.5 11.5t-41 31.5t-27 48t-9.5 61q0 34 10 62.5t27.5 49t41.5 32t51 11.5zM152 630q-26 0 -42.5 -31.5t-16.5 -91.5q0 -57 16.5 -88t40.5 -31q30 0 46.5 31.5t16.5 93.5
q0 55 -17.5 86t-43.5 31zM523 547l-496 -466l-19 22l494 464zM368 290q59 0 96 -41.5t37 -110.5q0 -33 -10 -61t-27.5 -48.5t-41.5 -31.5t-53 -11q-60 0 -95.5 41.5t-35.5 107.5q0 34 10 62.5t27.5 49t41.5 32t51 11.5zM368 256q-25 0 -41.5 -30.5t-16.5 -89.5
q0 -57 16 -86.5t42 -29.5q28 0 44 31t16 91q0 54 -17 84t-43 30z" />
    <glyph glyph-name="ampersand" unicode="&#x26;" horiz-adv-x="641" 
d="M268 388q77 62 77 144q0 43 -21.5 67t-56.5 24q-40 0 -61.5 -24.5t-21.5 -69.5q0 -34 21.5 -66.5t62.5 -74.5zM497 134q14 23 22.5 55.5t8.5 72.5q0 35 -17 62.5t-46 65.5h128q2 -21 3.5 -40.5t1.5 -36.5q0 -129 -70 -215q32 -35 60.5 -59.5t56.5 -38.5h-166l-34 36
q-81 -49 -178 -49q-54 0 -98 14t-74.5 38.5t-47.5 58t-17 71.5q0 110 148 174q-45 43 -66.5 83.5t-21.5 87.5q0 72 46 111t132 39q72 0 114.5 -37t42.5 -99q0 -50 -34 -92.5t-101 -72.5zM200 316q-64 -52 -64 -133q0 -31 11.5 -58t33 -46.5t51.5 -30.5t66 -11q35 0 65 7
t56 23z" />
    <glyph glyph-name="quotesingle" unicode="'" horiz-adv-x="155" 
d="M112 430h-68v271h68v-271z" />
    <glyph glyph-name="parenleft" unicode="(" horiz-adv-x="263" 
d="M235 708q-94 -160 -94 -455q0 -293 96 -461q-95 59 -145 173.5t-50 287.5q0 171 49.5 286t143.5 169z" />
    <glyph glyph-name="parenright" unicode=")" horiz-adv-x="263" 
d="M26 708q95 -58 145.5 -173.5t50.5 -284.5q0 -171 -50 -286t-144 -172q95 163 95 455q0 291 -97 461z" />
    <glyph glyph-name="asterisk" unicode="*" horiz-adv-x="340" 
d="M197 708l-26 -154l-27 154h53zM307 643l-132 -88l93 126zM329 523l-154 27l154 26v-53zM304 456l-38 -37l-91 126zM197 390h-53l27 154zM77 418l-39 38l128 88zM165 550l-154 -27v53zM168 555l-129 89l36 36z" />
    <glyph glyph-name="plus" unicode="+" horiz-adv-x="833" 
d="M451 332h258v-68h-258v-264h-69v264h-258v68h258v264h69v-264z" />
    <glyph glyph-name="comma" unicode="," horiz-adv-x="256" 
d="M91 -134q36 52 39 129h-2q-26 0 -40.5 14.5t-14.5 38.5q0 60 61 60q65 0 65 -84q0 -29 -8 -55t-22.5 -47t-34 -35.5t-43.5 -20.5z" />
    <glyph glyph-name="hyphen" unicode="-" horiz-adv-x="250" 
d="M233 289v-79h-212v79h212z" />
    <glyph glyph-name="period" unicode="." horiz-adv-x="256" 
d="M80 50q0 64 63 64q60 0 60 -64q0 -58 -64 -58q-59 0 -59 58z" />
    <glyph glyph-name="slash" unicode="/" horiz-adv-x="231" 
d="M248 680l-209 -813l-57 8l210 812z" />
    <glyph glyph-name="zero" unicode="0" horiz-adv-x="512" 
d="M28 329q0 161 63.5 248t175.5 87q103 0 160.5 -87t57.5 -253q0 -164 -63 -252t-174 -88q-106 0 -163 87.5t-57 257.5zM256 619q-59 0 -86 -75t-27 -227q0 -146 25.5 -217.5t82.5 -71.5t87 71t30 211q0 159 -24.5 234t-87.5 75z" />
    <glyph glyph-name="one" unicode="1" horiz-adv-x="512" 
d="M332 132q0 -26 4.5 -57t32.5 -75h-182q28 45 33.5 79.5t5.5 65.5v12v380h-150q42 15 105.5 47.5t150.5 80.5v-533z" />
    <glyph glyph-name="two" unicode="2" horiz-adv-x="512" 
d="M357 89q51 0 119 65l-22 -154h-442q76 81 135.5 148t100.5 124t62.5 107t21.5 97q0 69 -29 106.5t-78 37.5q-35 0 -66 -27l-101 -86v132q50 11 98 17.5t96 6.5q96 0 150 -46.5t54 -125.5q0 -44 -20 -87.5t-58.5 -91.5t-95 -102.5t-129.5 -120.5h204z" />
    <glyph glyph-name="three" unicode="3" horiz-adv-x="512" 
d="M292 344q86 -11 130.5 -53.5t44.5 -109.5q0 -93 -66 -144t-195 -51q-82 0 -168 21v138l103 -92q23 -22 58 -22q32 0 59 10.5t46.5 29.5t31 46t11.5 60q0 138 -167 140q77 42 114 86t37 104q0 49 -32.5 80.5t-90.5 31.5q-20 0 -33.5 -6t-29.5 -20l-98 -86v128
q95 26 188 26q104 0 157.5 -39t53.5 -107q0 -54 -39 -98.5t-115 -72.5z" />
    <glyph glyph-name="four" unicode="4" horiz-adv-x="512" 
d="M397 252h96v-78h-96v-50q0 -37 8.5 -67.5t28.5 -56.5h-170q38 61 38 129v45h-300q75 129 152 243t156 219l87 30v-414zM100 252h202v303z" />
    <glyph glyph-name="five" unicode="5" horiz-adv-x="512" 
d="M435 655v-89h-301v-170q65 18 120 18q103 0 161 -54.5t58 -154.5q0 -49 -17 -89t-50 -69t-81 -45t-109 -16q-33 0 -72.5 5t-87.5 15v139l103 -90q14 -12 26.5 -18t30.5 -6q30 0 55.5 11.5t44.5 33t30 52.5t11 69q0 78 -43 120t-124 42q-27 0 -55.5 -3.5t-58.5 -9.5v309
h359z" />
    <glyph glyph-name="six" unicode="6" horiz-adv-x="512" 
d="M477 607q-24 4 -44 6t-37 2q-118 0 -175 -61.5t-71 -195.5q65 33 142 33q41 0 76.5 -14.5t61.5 -40.5t40.5 -62t14.5 -78q0 -47 -16.5 -86t-46 -66.5t-71.5 -43t-93 -15.5q-111 0 -170 72.5t-59 215.5q0 91 21 163.5t59.5 123.5t92.5 78t120 27q99 0 155 -58zM146 326
q-2 -19 -2 -36v-31q0 -121 26.5 -178.5t91.5 -57.5q51 0 78.5 40.5t27.5 118.5q0 157 -140 157q-16 0 -36.5 -3t-45.5 -10z" />
    <glyph glyph-name="seven" unicode="7" horiz-adv-x="512" 
d="M494 655l-139 -326q-48 -113 -76.5 -196.5t-39.5 -136.5h-132l295 570h-198q-16 0 -28.5 -2t-22.5 -10l-94 -71v172h435z" />
    <glyph glyph-name="eight" unicode="8" horiz-adv-x="512" 
d="M291 386q68 66 68 133q0 48 -25.5 75.5t-70.5 27.5t-72 -27t-27 -73q0 -42 31.5 -72t95.5 -64zM319 366q40 -22 69 -43t48 -43.5t28 -48.5t9 -59q0 -86 -59.5 -137t-167.5 -51q-46 0 -84 12.5t-65.5 35.5t-42.5 54.5t-15 69.5q0 117 154 174q-62 36 -91.5 76.5
t-29.5 94.5q0 76 50 119t144 43q83 0 129 -38.5t46 -103.5q0 -101 -122 -155zM218 312q-85 -67 -85 -157q0 -61 32 -95t86 -34q55 0 89 34t34 86q0 26 -10 46.5t-29.5 39.5t-48.5 38.5t-68 41.5z" />
    <glyph glyph-name="nine" unicode="9" horiz-adv-x="512" 
d="M363 323q3 36 3 63q0 121 -27 180.5t-88 59.5q-110 0 -110 -160q0 -78 34.5 -117t100.5 -39q41 0 87 13zM30 45q38 -7 84 -7q225 0 248 253q-74 -34 -137 -34q-43 0 -79.5 14.5t-63.5 40t-42 62t-15 79.5q0 47 16.5 85t46.5 66t71.5 43t92.5 15q110 0 169 -70.5
t59 -207.5q0 -193 -78 -293.5t-214 -100.5q-95 0 -158 55z" />
    <glyph glyph-name="colon" unicode=":" horiz-adv-x="241" 
d="M60 367q0 64 63 64q60 0 60 -64q0 -58 -64 -58q-59 0 -59 58zM119 114q64 0 64 -64q0 -58 -64 -58q-59 0 -59 58q0 31 15.5 47.5t43.5 16.5z" />
    <glyph glyph-name="semicolon" unicode=";" horiz-adv-x="241" 
d="M60 367q0 64 63 64q60 0 60 -64q0 -58 -64 -58q-59 0 -59 58zM72 -134q36 52 39 129h-2q-26 0 -40.5 14.5t-14.5 38.5q0 60 62 60q64 0 64 -84q0 -29 -8 -55t-22.5 -47t-34 -35.5t-43.5 -20.5z" />
    <glyph glyph-name="less" unicode="&#x3c;" horiz-adv-x="833" 
d="M231 298l473 -192v-75l-575 236v63l575 236v-75z" />
    <glyph glyph-name="equal" unicode="=" horiz-adv-x="833" 
d="M709 361h-585v68h585v-68zM709 167h-585v68h585v-68z" />
    <glyph glyph-name="greater" unicode="&#x3e;" horiz-adv-x="833" 
d="M704 267l-575 -236v75l474 192l-474 193v75l575 -236v-63z" />
    <glyph glyph-name="question" unicode="?" horiz-adv-x="435" 
d="M175 154q-1 6 -1 11.5v10.5q0 32 8.5 54.5t20.5 44.5q19 33 37 61.5t32.5 56.5t23.5 55.5t9 57.5q0 55 -26.5 84.5t-71.5 29.5q-29 0 -54 -20l-110 -91v129q93 26 184 26q47 0 84.5 -12t64 -33t41 -50t14.5 -64q0 -32 -12.5 -61t-36.5 -60q-42 -54 -79 -87.5t-56 -57.5
q-13 -17 -17.5 -33t-4.5 -37v-15h-50zM201 103q63 0 63 -58q0 -25 -16.5 -39t-47.5 -14q-26 0 -42 14t-16 39q0 26 16.5 42t42.5 16z" />
    <glyph glyph-name="at" unicode="@" horiz-adv-x="1000" 
d="M610 347q-8 44 -33.5 67t-63.5 23q-34 0 -63 -17t-50.5 -46.5t-33.5 -69.5t-12 -86q0 -52 23.5 -79.5t67.5 -27.5q47 0 84.5 33t51.5 88zM655 473h64l-71 -281q-4 -16 -4 -29q0 -46 49 -46q23 0 49.5 12.5t52.5 37.5q38 36 60.5 89.5t22.5 115.5t-24 114.5t-68 90
t-106 58.5t-139 21q-129 0 -223 -56t-145 -146t-51 -200q0 -87 30 -150.5t94 -112.5q48 -36 113.5 -57t142.5 -21q83 0 160.5 24t142.5 69l27 -40q-145 -109 -324 -109q-187 0 -307 91q-149 115 -149 307q0 81 25 152.5t74 131.5q71 87 170.5 132t223.5 45q84 0 154.5 -23
t120.5 -61q63 -49 96 -112.5t33 -138.5q0 -86 -30.5 -154t-90.5 -115q-34 -27 -73.5 -41t-80.5 -14q-98 0 -98 77v9q-53 -85 -147 -85q-75 0 -114 41.5t-39 120.5q0 58 18 107.5t49.5 85.5t74 56.5t91.5 20.5q83 0 118 -73z" />
    <glyph glyph-name="A" unicode="A" horiz-adv-x="567" 
d="M511 130q14 -40 32 -72t46 -58h-200q15 19 23 33t8 25t-11 46l-50 155h-193l-54 -158q-5 -14 -8 -24.5t-3 -20.5q0 -24 29 -56h-155q32 32 49.5 67.5t32.5 73.5l196 502l75 24zM182 305h162l-78 246z" />
    <glyph glyph-name="B" unicode="B" horiz-adv-x="544" 
d="M260 655q109 0 162 -35.5t53 -117.5q0 -63 -42 -107.5t-117 -55.5q45 -1 80.5 -14.5t60 -35.5t38 -51.5t13.5 -64.5q0 -83 -59.5 -128t-175.5 -45h-226q27 47 32 80t5 59v5v367q0 29 -5 63t-32 81h213zM192 356h48q57 0 88 36t31 99q0 60 -29.5 92t-83.5 32h-54v-259z
M192 41h58q69 0 105 36t36 102q0 67 -39 102t-114 35h-46v-275z" />
    <glyph glyph-name="C" unicode="C" horiz-adv-x="556" 
d="M528 518l-117 88q-14 10 -25.5 12t-27.5 2q-45 0 -82 -19.5t-63.5 -58t-41 -94t-14.5 -127.5q0 -140 53.5 -215.5t143.5 -75.5q35 0 60 18l122 92l-17 -134q-99 -21 -167 -21q-155 0 -235 83t-80 242q0 81 23 146.5t65 112t101.5 71.5t132.5 25q43 0 85 -4.5t84 -15.5
v-127z" />
    <glyph glyph-name="D" unicode="D" horiz-adv-x="653" 
d="M290 655q66 0 118 -11t100 -50t75.5 -102.5t27.5 -142.5q0 -84 -22 -148.5t-70 -113.5q-27 -28 -56.5 -45.5t-61.5 -26.5t-69 -12t-79 -3h-208q27 47 32 80t5 59v5v367q0 29 -5 63t-32 81h245zM188 45h93q103 0 156.5 72.5t53.5 214.5q0 278 -210 278h-93v-565z" />
    <glyph glyph-name="E" unicode="E" horiz-adv-x="513" 
d="M459 655v-135l-96 76q-14 11 -29 13.5t-35 2.5h-107v-258h98q31 0 59 21l65 47v-175l-70 50q-16 11 -31 13t-32 2h-89v-270h122q18 0 30 5.5t26 16.5l106 80l-20 -144h-407q26 45 31 77t5 58v10v367v6q0 28 -5 60.5t-31 76.5h410z" />
    <glyph glyph-name="F" unicode="F" horiz-adv-x="464" 
d="M456 655v-135l-96 76q-14 11 -29 13.5t-35 2.5h-107v-258h97q32 0 60 21l64 47v-175l-69 50q-16 11 -31.5 13t-32.5 2h-88v-168v-6q0 -26 5 -59t31 -79h-180q27 48 32 81t5 59v5v367q0 29 -4.5 63t-32.5 80h411z" />
    <glyph glyph-name="G" unicode="G" horiz-adv-x="608" 
d="M546 519l-109 81q-26 20 -65 20q-98 0 -155 -76.5t-57 -219.5q0 -149 56.5 -220.5t172.5 -71.5q9 0 20 1t26 3v119q0 15 -1.5 28.5t-6.5 26.5l-26 58h179l-25 -55q-7 -14 -9.5 -26t-2.5 -27v-152q-95 -22 -199 -22q-144 0 -224 84.5t-80 239.5q0 83 23.5 149t67 111.5
t107 70t142.5 24.5q81 0 166 -21v-125z" />
    <glyph glyph-name="H" unicode="H" horiz-adv-x="642" 
d="M227 655q-26 -45 -31 -77.5t-5 -60.5v-6v-151h261v151q0 29 -5 63t-32 81h179q-26 -45 -31 -77.5t-5 -60.5v-6v-367v-6q0 -28 5 -60.5t31 -77.5h-179q27 47 32 81t5 63v170h-261v-170v-6q0 -28 5 -60.5t31 -77.5h-180q27 47 32 81t5 63v367q0 29 -5 63t-32 81h180z" />
    <glyph glyph-name="I" unicode="I" horiz-adv-x="274" 
d="M227 655q-26 -45 -31 -77.5t-5 -60.5v-6v-367v-6q0 -28 5 -60.5t31 -77.5h-180q27 47 32 81t5 63v367q0 29 -5 63t-32 81h180z" />
    <glyph glyph-name="J" unicode="J" horiz-adv-x="278" 
d="M238 655q-28 -47 -32.5 -81t-4.5 -63v-470q0 -31 -1 -58t-7 -51t-18 -46t-34 -42q-57 -51 -167 -51q-13 0 -30 1.5t-39 5.5v120l86 -65q8 -6 16 -10.5t20 -4.5q43 0 55.5 42t12.5 123v506q0 29 -4.5 63t-31.5 81h179z" />
    <glyph glyph-name="K" unicode="K" horiz-adv-x="560" 
d="M226 655q-27 -46 -32 -80.5t-5 -63.5v-367q0 -28 4.5 -62t32.5 -82h-179q26 45 31 79.5t5 64.5v367q0 29 -4.5 62.5t-31.5 81.5h179zM583 655q-57 -35 -109 -90l-174 -186l188 -279q18 -27 42 -51.5t63 -48.5h-174l-220 337l212 246q8 9 11.5 17t3.5 12q0 11 -6.5 21
t-18.5 22h182z" />
    <glyph glyph-name="L" unicode="L" horiz-adv-x="444" 
d="M227 655q-27 -46 -32 -80.5t-5 -63.5v-469h92q19 0 33 5.5t28 16.5l106 80l-20 -144h-382q26 45 31 77t5 58v10v367v6q0 28 -5 60.5t-31 76.5h180z" />
    <glyph glyph-name="M" unicode="M" horiz-adv-x="797" 
d="M195 655l205 -497l208 497h140q-26 -45 -31 -77.5t-5 -60.5v-6v-367v-6q0 -28 5 -60.5t31 -77.5h-177q27 47 31.5 81t4.5 63v369l-215 -513h-43l-210 513v-369v-6q0 -28 5 -60.5t31 -77.5h-130q27 47 31.5 81t4.5 63v367q0 29 -4.5 63t-31.5 81h150z" />
    <glyph glyph-name="N" unicode="N" horiz-adv-x="633" 
d="M178 655l320 -472v328q0 29 -5 63t-32 81h132q-28 -47 -32.5 -81t-4.5 -63v-516h-59l-357 524v-375q0 -29 4.5 -63t32.5 -81h-132q27 47 32 81t5 63v367q0 29 -5 63t-32 81h133z" />
    <glyph glyph-name="O" unicode="O" horiz-adv-x="674" 
d="M40 316q0 81 21.5 145.5t61.5 109.5t96.5 69t125.5 24q65 0 118 -23t91 -65t58.5 -102t20.5 -134q0 -84 -21.5 -150t-61 -111.5t-96 -69.5t-126.5 -24q-65 0 -118 23t-91 65.5t-58.5 104t-20.5 138.5zM331 618q-78 0 -124 -73t-46 -213q0 -149 46.5 -225t131.5 -76
q81 0 127.5 73t46.5 213q0 149 -47 225t-135 76z" />
    <glyph glyph-name="P" unicode="P" horiz-adv-x="497" 
d="M275 655q102 0 155 -49t53 -140q0 -43 -15.5 -79t-44.5 -62t-71.5 -40.5t-96.5 -14.5q-14 0 -30.5 0.5t-36.5 1.5v-128q0 -29 4.5 -63t32.5 -81h-180q27 47 32 81t5 63v367q0 29 -5 63t-32 81h230zM187 314q14 -1 23 -1h15q136 0 136 152q0 72 -30 110t-83 38h-61v-299z
" />
    <glyph glyph-name="Q" unicode="Q" horiz-adv-x="674" 
d="M336 618q-83 0 -129 -72.5t-46 -212.5q0 -147 46.5 -222.5t129.5 -75.5q84 0 130 72t46 213q0 147 -47 222.5t-130 75.5zM585 -102q39 -24 73 -24q9 0 24.5 1t36.5 3q-91 -83 -139 -83q-50 0 -109 48l-185 151q-118 23 -181.5 106.5t-63.5 217.5q0 80 21.5 144.5
t61 109.5t96 69t125.5 24q65 0 118.5 -23t91 -65.5t58 -104t20.5 -138.5q0 -67 -15.5 -123.5t-45 -99t-70.5 -70t-92 -38.5z" />
    <glyph glyph-name="R" unicode="R" horiz-adv-x="550" 
d="M274 655h10q35 0 66 -3.5t62 -22.5q29 -18 46.5 -51.5t17.5 -74.5q0 -69 -41.5 -114t-118.5 -57l147 -212q50 -72 114 -120h-162l-224 335v-191v-6q0 -28 5 -60.5t31 -77.5h-179q26 45 31 76.5t5 57.5v10v367q0 29 -4.5 63t-31.5 81h226zM191 353h49q121 0 121 131
q0 132 -121 132h-49v-263z" />
    <glyph glyph-name="S" unicode="S" horiz-adv-x="482" 
d="M417 520l-101 80q-14 11 -27 16.5t-29 5.5q-49 0 -80.5 -28.5t-31.5 -73.5q0 -40 24 -64.5t67 -52.5l97 -61q53 -34 79 -69.5t26 -93.5q0 -88 -58.5 -139t-169.5 -51q-42 0 -82.5 8t-84.5 22v134l110 -94q14 -12 26.5 -17.5t29.5 -5.5q62 0 95.5 28.5t33.5 75.5
q0 37 -19.5 60.5t-55.5 48.5l-107 72q-54 36 -79 73.5t-25 93.5q0 39 15 71.5t42 56t66 36.5t87 13q76 0 152 -19v-126z" />
    <glyph glyph-name="T" unicode="T" horiz-adv-x="541" 
d="M538 655v-136l-97 75q-8 5 -20 9.5t-25 4.5h-68v-464q0 -29 4.5 -63t32.5 -81h-180q27 47 32 81t5 63v464h-69q-11 0 -23.5 -4t-19.5 -9l-98 -76v136h526z" />
    <glyph glyph-name="U" unicode="U" horiz-adv-x="624" 
d="M212 655q-26 -47 -30.5 -81t-4.5 -62v-299q0 -93 31.5 -138t113.5 -45q54 0 90 18.5t52 52.5q11 23 13.5 49t2.5 57v40v265q0 30 -5 64t-31 79h146q-28 -47 -33 -81.5t-5 -62.5v-280v-14q0 -39 -3 -73t-19 -64q-24 -46 -80 -71t-142 -25q-126 0 -181 49t-55 156v322
q0 29 -5 63t-33 81h178z" />
    <glyph glyph-name="V" unicode="V" horiz-adv-x="557" 
d="M177 655q-14 -20 -22 -34t-8 -25q0 -12 12 -47l142 -431l154 452q6 18 6 31q0 12 -8 24.5t-20 29.5h153q-47 -48 -73 -116l-204 -539h-75l-186 544q-10 28 -25 55t-46 56h200z" />
    <glyph glyph-name="W" unicode="W" horiz-adv-x="878" 
d="M194 655q-29 -33 -29 -59q0 -7 2 -16.5t5 -21.5l108 -408l149 505h68l152 -508l117 428q5 20 5 25q0 13 -7 26t-20 29h150q-26 -27 -42 -54.5t-27 -61.5l-169 -539h-74l-146 490l-141 -490h-77l-156 546q-9 31 -24 57t-44 52h200z" />
    <glyph glyph-name="X" unicode="X" horiz-adv-x="584" 
d="M226 655q-24 -28 -24 -45q0 -8 5.5 -20t14.5 -28l89 -153l95 162q8 14 11.5 24.5t3.5 13.5q0 11 -24 46h157q-37 -34 -86 -104l-131 -186l159 -269q21 -37 83 -96h-207q11 17 17.5 27.5t6.5 16.5q0 13 -17 41l-108 184l-107 -185q-12 -21 -12 -37t26 -47h-161
q25 23 47.5 52t45.5 62l135 199l-138 235q-28 48 -88 107h207z" />
    <glyph glyph-name="Y" unicode="Y" horiz-adv-x="527" 
d="M175 655q-22 -33 -22 -47q0 -15 16 -41l123 -208l113 217q5 9 8 16.5t3 16.5q0 14 -23 46h159q-56 -52 -100 -123l-134 -216v-172v-6q0 -28 5 -60.5t31 -77.5h-179q27 47 31.5 81t4.5 63v151l-154 257q-17 27 -37.5 52.5t-49.5 50.5h205z" />
    <glyph glyph-name="Z" unicode="Z" horiz-adv-x="537" 
d="M512 655l-346 -610h189q17 0 33 7.5t34 20.5t40.5 31.5t50.5 39.5l-19 -144h-477l347 610h-155q-34 0 -67.5 -24t-83.5 -65v134h454z" />
    <glyph glyph-name="bracketleft" unicode="[" horiz-adv-x="262" 
d="M226 708q-39 -51 -51 -69q-8 -12 -10 -25.5t-2 -27.5v-17v-638v-14q0 -12 1.5 -24t8 -26t19 -32.5t34.5 -42.5h-151v916h151z" />
    <glyph glyph-name="backslash" unicode="\" horiz-adv-x="231" 
d="M248 -125l-57 -8l-209 813l56 7z" />
    <glyph glyph-name="bracketright" unicode="]" horiz-adv-x="262" 
d="M187 708v-916h-151q23 25 35.5 43.5t18.5 33t7.5 26.5t1.5 24v12v638v12q0 12 -1.5 24t-7.5 26.5t-18.5 33t-35.5 43.5h151z" />
    <glyph glyph-name="asciicircum" unicode="^" horiz-adv-x="1000" 
d="M794 440h-88l-206 205l-207 -205h-88l249 272h91z" />
    <glyph glyph-name="underscore" unicode="_" 
d="M500 -236h-500v70h500v-70z" />
    <glyph glyph-name="grave" unicode="`" 
d="M233 695l110 -158h-26l-223 158h139z" />
    <glyph glyph-name="a" unicode="a" horiz-adv-x="466" 
d="M398 154q0 -35 5.5 -67t33.5 -69l-115 -27q-16 25 -22 58q-45 -29 -78.5 -44t-58.5 -15t-47.5 10t-39.5 28t-27 42t-10 52q0 72 51 103t157 31q13 0 26 -0.5t27 -1.5v83q0 90 -73 90q-25 0 -59 -26.5t-87 -74.5v115q99 28 178 28q43 0 72.5 -9.5t47.5 -31.5
q14 -17 16.5 -38t2.5 -50v-11v-175zM300 227q-81 -6 -119.5 -25.5t-38.5 -64.5q0 -83 105 -83q10 0 23 1t30 3v169z" />
    <glyph glyph-name="b" unicode="b" horiz-adv-x="530" 
d="M174 409q85 58 136 58q39 0 72 -15.5t58 -44.5t39 -70t14 -93q0 -54 -17 -100t-46.5 -79.5t-69 -52t-85.5 -18.5q-60 0 -102 32l-101 -38v548q0 38 -11 71t-34 68l147 33v-299zM174 56q20 -7 36.5 -10.5t32.5 -3.5q66 0 106 49t40 135q0 85 -42.5 132t-114.5 47
q-13 0 -27 -1.5t-31 -3.5v-344z" />
    <glyph glyph-name="c" unicode="c" horiz-adv-x="431" 
d="M404 333l-102 76q-24 18 -45 18q-22 0 -42 -13.5t-35.5 -38t-24.5 -59t-9 -77.5q0 -93 46 -140.5t136 -47.5q67 0 103 9q-79 -72 -181 -72q-46 0 -85 16t-67 46t-43.5 71.5t-15.5 92.5q0 57 18 104.5t50.5 81t77.5 52t100 18.5q59 0 119 -18v-119z" />
    <glyph glyph-name="d" unicode="d" horiz-adv-x="538" 
d="M462 165v-12q0 -29 5.5 -61.5t31.5 -73.5l-138 -30v62q-46 -32 -82.5 -46.5t-62.5 -14.5q-37 0 -69.5 16.5t-56.5 45.5t-37.5 70.5t-13.5 90.5q0 56 17.5 103t46.5 81t68 53.5t81 19.5q57 0 109 -32v104q0 38 -12 68.5t-33 65.5l146 33v-543zM361 405q-33 15 -64 15
q-69 0 -110 -50t-41 -138q0 -86 42 -132t119 -46q29 0 54 6v345z" />
    <glyph glyph-name="e" unicode="e" horiz-adv-x="478" 
d="M331 299q0 132 -85 132q-45 0 -71.5 -39.5t-28.5 -116.5zM145 252v-6q0 -99 49 -146.5t152 -47.5q21 0 47 2.5t56 8.5q-81 -75 -195 -75q-47 0 -86.5 16.5t-68 47t-44.5 73.5t-16 97q0 104 63 175q31 35 72.5 53.5t86.5 18.5q87 0 135 -55.5t50 -161.5h-301z" />
    <glyph glyph-name="f" unicode="f" horiz-adv-x="296" 
d="M397 584l-90 66q-10 8 -19 12t-21 4q-36 0 -56.5 -28.5t-20.5 -86.5v-88h107v-46h-107v-283q0 -35 6.5 -67t30.5 -67h-178q29 47 34 79.5t5 57.5v280h-64v46h64v66q0 84 54.5 130.5t151.5 46.5q23 0 48.5 -3t54.5 -11v-108z" />
    <glyph glyph-name="g" unicode="g" horiz-adv-x="509" 
d="M492 388l-134 38q52 -45 52 -114q0 -30 -12.5 -55.5t-36.5 -45t-57.5 -30.5t-75.5 -11q-10 0 -20 1t-21 3q-5 -11 -7.5 -20.5t-2.5 -19.5q0 -25 17 -35t53 -10h96q63 0 94.5 -22t31.5 -79q0 -36 -17.5 -71.5t-50.5 -61.5q-36 -29 -81.5 -44.5t-96.5 -15.5q-48 0 -86 9
t-64.5 24t-40.5 34t-14 40q0 28 26 52t78 53q-40 22 -40 59q0 27 24.5 52t72.5 57q-63 13 -96.5 48.5t-33.5 89.5q0 34 13.5 62.5t37.5 49.5t57.5 32.5t74.5 11.5q61 0 114 -34l146 34v-81zM228 435q-35 0 -56 -26.5t-21 -74.5q0 -60 23.5 -94.5t61.5 -34.5q35 0 56 25.5
t21 71.5q0 62 -23.5 97.5t-61.5 35.5zM131 1q-30 -41 -30 -76t35 -59t92 -24q37 0 66.5 8t50.5 22t32.5 32t11.5 38q0 28 -19 39.5t-57 11.5h-116q-18 0 -34.5 1.5t-31.5 6.5z" />
    <glyph glyph-name="h" unicode="h" horiz-adv-x="530" 
d="M178 412q56 28 97.5 42.5t70.5 14.5q115 0 115 -169v-156v-6q0 -28 5 -60.5t31 -77.5h-175q27 47 32 80t5 59v5v120q0 38 -5.5 64.5t-19.5 43.5t-38 25t-62 8q-14 0 -28 -1t-28 -3v-257v-6q0 -26 5 -59t31 -79h-174q26 45 31 79.5t5 64.5v392q0 38 -10.5 70t-34.5 69
l147 33v-296z" />
    <glyph glyph-name="i" unicode="i" horiz-adv-x="265" 
d="M133 687q30 0 46.5 -15t16.5 -41q0 -55 -64 -55q-61 0 -61 56q0 26 16 40.5t46 14.5zM186 144q0 -28 4.5 -62t32.5 -82h-175q26 45 31 79.5t5 64.5v172q0 64 -38 124l140 33v-329z" />
    <glyph glyph-name="j" unicode="j" horiz-adv-x="266" 
d="M137 691q30 0 46.5 -15t16.5 -41q0 -55 -63 -55q-62 0 -62 56q0 26 16.5 40.5t45.5 14.5zM190 33q0 -122 -46 -181t-144 -59q-35 0 -63 6v111l65 -55q8 -7 15.5 -11.5t18.5 -4.5q32 0 42.5 35t10.5 103v339q0 63 -39 124l140 33v-440z" />
    <glyph glyph-name="k" unicode="k" horiz-adv-x="498" 
d="M177 144v-6q0 -27 5 -60t31 -78h-174q26 46 31 79t5 59v6v407q0 34 -10 63.5t-32 60.5l144 33v-564zM505 463q-55 -31 -85.5 -55t-44.5 -36l-96 -84l146 -204q18 -25 38 -46t49 -38h-156l-168 247l136 147q15 17 15 29q0 16 -18 40h184z" />
    <glyph glyph-name="l" unicode="l" horiz-adv-x="260" 
d="M179 144q0 -29 4.5 -63t32.5 -81h-175q27 47 32 81t5 63v407q0 34 -10.5 63t-32.5 61l144 33v-564z" />
    <glyph glyph-name="m" unicode="m" horiz-adv-x="801" 
d="M185 412q52 27 91 42t68 15q66 0 99 -59q51 26 92.5 42.5t83.5 16.5q59 0 86.5 -42t27.5 -127v-156v-6q0 -26 5 -59t31 -79h-175q27 47 32 80t5 59v5v120q0 38 -5 64.5t-18.5 43t-37 24.5t-59.5 8q-15 0 -31 -1t-33 -3q7 -14 9.5 -38.5t2.5 -61.5v-156q0 -29 4.5 -63
t32.5 -81h-175q26 46 31 80t5 64v120q0 38 -5 64.5t-18.5 43.5t-37 25t-59.5 8q-11 0 -23.5 -1t-28.5 -3v-257q0 -28 4.5 -62t32.5 -82h-175q26 45 31.5 79.5t5.5 64.5v172q0 63 -39 124l140 33v-61z" />
    <glyph glyph-name="n" unicode="n" horiz-adv-x="532" 
d="M179 412q56 28 97.5 42.5t70.5 14.5q115 0 115 -169v-156q0 -29 4.5 -63t32.5 -81h-175q26 45 31 76.5t5 57.5v10v120q0 38 -5.5 64.5t-19.5 43.5t-38 25t-62 8q-14 0 -28 -1t-28 -3v-257q0 -28 4.5 -62t32.5 -82h-175q26 45 31 79.5t5 64.5v172q0 33 -9 62.5t-29 61.5
l140 33v-61z" />
    <glyph glyph-name="o" unicode="o" horiz-adv-x="538" 
d="M39 226q0 54 17 98.5t47.5 77t74 50t95.5 17.5q50 0 91.5 -17.5t71.5 -49t46.5 -75.5t16.5 -98t-17 -99t-47.5 -77.5t-73.5 -50.5t-94 -18t-93 17.5t-72 49t-46.5 76.5t-16.5 99zM264 432q-49 0 -80 -50t-31 -145q0 -104 32.5 -159.5t83.5 -55.5q55 0 85.5 49.5
t30.5 145.5q0 105 -32 160t-89 55z" />
    <glyph glyph-name="p" unicode="p" horiz-adv-x="538" 
d="M178 411q45 32 81.5 46.5t62.5 14.5q37 0 69.5 -16t56.5 -45.5t37.5 -70t13.5 -90.5q0 -55 -17.5 -102.5t-46.5 -82t-68 -54t-81 -19.5q-59 0 -109 32v-86q0 -33 6 -67t31 -77h-174q23 40 30 74t7 70v375q0 35 -8.5 64.5t-30.5 64.5l140 31v-62zM177 56q33 -14 64 -14
q69 0 110 49.5t41 137.5t-42.5 133.5t-123.5 45.5q-11 0 -23 -2t-26 -5v-345z" />
    <glyph glyph-name="q" unicode="q" horiz-adv-x="532" 
d="M463 -62q0 -35 6 -68.5t31 -75.5h-175q25 43 31 77t6 67v115q-43 -29 -76.5 -45t-64.5 -16q-37 0 -69.5 16t-56.5 44.5t-38 69.5t-14 90q0 57 17 104t46.5 81.5t69 53.5t83.5 19q55 0 104 -33l100 38v-537zM362 406q-33 15 -69 15q-31 0 -57.5 -13t-46 -37t-30.5 -58
t-11 -77q0 -88 42.5 -133.5t123.5 -45.5q11 0 22.5 1.5t25.5 3.5v344z" />
    <glyph glyph-name="r" unicode="r" horiz-adv-x="359" 
d="M183 398q39 35 69 53t55 18q24 0 46 -9v-114q-55 45 -116 45q-27 0 -54 -3v-244v-6q0 -26 5 -59t31 -79h-174q26 45 31 79.5t5 64.5v172q0 64 -38 124l140 33v-75z" />
    <glyph glyph-name="s" unicode="s" horiz-adv-x="397" 
d="M343 341q-53 39 -85.5 62.5t-55.5 23.5q-26 0 -43.5 -17t-17.5 -40q0 -25 15.5 -41.5t45.5 -33.5l68 -36q47 -26 69.5 -54t22.5 -70q0 -66 -47 -107.5t-128 -41.5q-30 0 -66 6t-77 19v114q56 -45 91.5 -71t61.5 -26q29 0 48 19.5t19 47.5t-16 43.5t-46 32.5l-60 34
q-93 53 -93 125q0 63 45.5 101t123.5 38q56 0 125 -18v-110z" />
    <glyph glyph-name="t" unicode="t" horiz-adv-x="345" 
d="M179 463h152v-46h-152v-266q0 -28 3.5 -47t15 -30.5t32 -16.5t53.5 -5q17 0 34 1.5t35 3.5q-35 -32 -77 -49.5t-84 -17.5q-34 0 -56 8.5t-34.5 26t-17.5 43.5t-5 62v287h-79q45 33 90 77.5t90 101.5v-133z" />
    <glyph glyph-name="u" unicode="u" horiz-adv-x="528" 
d="M173 184q0 -36 5 -60t18.5 -39t36 -21.5t58.5 -6.5q15 0 30.5 1.5t31.5 3.5v254q0 33 -9 62.5t-29 61.5l140 33v-322q0 -35 8.5 -64.5t29.5 -62.5l-140 -33v62q-103 -60 -164 -60q-64 0 -91 37.5t-27 116.5v169q0 33 -9.5 62.5t-29.5 61.5l141 33v-289z" />
    <glyph glyph-name="v" unicode="v" horiz-adv-x="437" 
d="M178 463q-14 -20 -22 -33.5t-8 -24.5q0 -13 9 -40l93 -273l82 266q10 33 10 47q0 21 -25 58h145q-28 -27 -44.5 -57t-29.5 -63l-136 -349h-65l-126 333q-11 28 -27 62.5t-55 73.5h199z" />
    <glyph glyph-name="w" unicode="w" horiz-adv-x="704" 
d="M175 463q-28 -40 -28 -56q0 -13 6 -31l80 -263l117 350h50l119 -352l77 270q4 12 5 20t1 13q0 18 -24 49h140q-34 -35 -48.5 -68t-25.5 -61l-126 -341h-63l-107 317l-107 -317h-65l-129 369q-8 22 -20.5 46t-45.5 55h194z" />
    <glyph glyph-name="x" unicode="x" horiz-adv-x="470" 
d="M191 463q-16 -20 -16 -37q0 -12 12 -30l59 -94l60 95q5 8 8.5 14t3.5 14q0 7 -5.5 15.5t-14.5 22.5h141q-23 -17 -45 -41t-45 -54l-78 -105l97 -151q18 -29 40 -57t52 -55h-190q19 24 19 38q0 7 -4.5 14.5l-10.5 17.5l-68 108l-72 -114q-9 -13 -9 -26q0 -15 20 -38h-141
q37 31 76 83l101 134l-97 153q-35 56 -79 93h186z" />
    <glyph glyph-name="y" unicode="y" horiz-adv-x="449" 
d="M183 463q-14 -20 -22 -33.5t-8 -24.5t8 -32l99 -270l82 266q7 22 7 36q0 11 -7 25t-19 33h145q-26 -27 -43 -56t-30 -62l-147 -391q-16 -43 -32.5 -73t-36 -49.5t-44 -28.5t-57.5 -9q-11 0 -26.5 2t-37.5 6v111l62 -50q10 -8 19.5 -12t16.5 -4q46 0 96 141l-153 368
q-8 18 -21 45t-48 62h197z" />
    <glyph glyph-name="z" unicode="z" horiz-adv-x="462" 
d="M432 463l-259 -420h114q13 0 23.5 2.5t20.5 10.5l94 74v-130h-397l259 420h-87q-22 0 -41 -13l-93 -67v123h366z" />
    <glyph glyph-name="braceleft" unicode="{" 
d="M423 648h-20q-31 0 -50.5 -5.5t-30 -18.5t-14.5 -34.5t-4 -53.5v-118q0 -35 -4 -61t-14.5 -45.5t-30 -32t-49.5 -20.5q31 -8 50 -20.5t29.5 -32t14.5 -45.5t4 -61v-118q0 -32 3.5 -53.5t14.5 -34.5t30.5 -18.5t51.5 -5.5h19v-72h-21q-44 0 -76.5 4.5t-56.5 19.5
q-33 20 -41 56.5t-8 93.5v120q0 72 -25.5 102t-91.5 30q-5 0 -10.5 -0.5t-10.5 -0.5v73q6 0 11.5 -0.5t10.5 -0.5q65 0 90.5 29.5t25.5 101.5v120q0 57 8 93.5t41 56.5q25 15 58 20t78 5h18v-73z" />
    <glyph glyph-name="bar" unicode="|" 
d="M287 -236h-73v1000h73v-1000z" />
    <glyph glyph-name="braceright" unicode="}" 
d="M281 426q0 -72 25.5 -101.5t90.5 -29.5q5 0 10.5 0.5t11.5 0.5v-73q-5 0 -10.5 0.5t-10.5 0.5q-66 0 -91.5 -30t-25.5 -102v-120q0 -57 -8 -93.5t-41 -56.5q-24 -15 -56.5 -19.5t-76.5 -4.5h-21v72h19q32 0 51.5 5.5t30 18.5t14.5 35t4 54v117q0 35 4 61t14.5 45.5t30 32
t49.5 20.5q-30 8 -49.5 20.5t-30 32t-14.5 45.5t-4 61v118q0 32 -4 53.5t-14.5 34.5t-30 18.5t-51.5 5.5h-19v73h18q45 0 78.5 -5t57.5 -20q33 -20 41 -56.5t8 -93.5v-120z" />
    <glyph glyph-name="asciitilde" unicode="~" horiz-adv-x="833" 
d="M747 300q-50 -35 -96 -52t-94 -17q-38 0 -72 11t-69 23t-69 22t-72 10q-45 0 -89.5 -19.5t-98.5 -57.5v76q103 70 189 70q39 0 73.5 -9t68.5 -21q37 -13 71 -24.5t69 -11.5q47 0 92 19.5t97 56.5v-76z" />
    <glyph glyph-name="exclamdown" unicode="&#xa1;" horiz-adv-x="241" 
d="M130 663q26 0 42 -14t16 -39q0 -27 -16.5 -42.5t-46.5 -15.5q-28 0 -43.5 15t-15.5 43q0 25 16.5 39t47.5 14zM148 500l45 -500h-133l45 500h43z" />
    <glyph glyph-name="cent" unicode="&#xa2;" horiz-adv-x="512" 
d="M280 528v-60q5 1 10.5 1h11.5q54 0 121 -18v-118l-108 77q-16 12 -35 15v-367q34 -7 59 -7q72 0 111 9q-77 -68 -170 -72v-58h-30v57q-96 11 -147.5 70.5t-51.5 155.5q0 100 52.5 167t146.5 85v63h30zM250 424q-43 -17 -67.5 -65t-24.5 -121q0 -132 92 -172v358z" />
    <glyph glyph-name="sterling" unicode="&#xa3;" horiz-adv-x="512" 
d="M459 522l-97 79q-25 20 -48 20q-37 0 -58.5 -13t-31.5 -37.5t-12.5 -60.5t-2.5 -82v-39v-20h141v-44h-141v-100q0 -38 -19.5 -71.5t-59.5 -71.5q6 1 11.5 1.5t11.5 0.5q8 0 50 -3l134 -11h7h16q31 0 60.5 17t68.5 49l-30 -92q-22 -67 -80 -67q-34 0 -71 5t-76.5 10.5
t-81 10.5t-84.5 5q-7 0 -15 -1t-17 -3l31 74q22 11 30 37t8 70v140h-69v44h69v93q0 202 213 202q45 0 81 -5.5t62 -14.5v-122z" />
    <glyph glyph-name="currency" unicode="&#xa4;" horiz-adv-x="606" 
d="M179 595q56 42 124 42q70 0 125 -42l100 100l40 -39l-100 -101q40 -53 40 -123q0 -34 -9.5 -64.5t-30.5 -58.5l100 -100l-40 -40l-100 100q-26 -20 -56.5 -31t-67.5 -11q-69 0 -125 42l-100 -100l-40 40l101 100q-17 21 -29 52t-12 71q0 68 41 123l-101 101l40 39z
M452 433q0 30 -11.5 57t-31.5 47.5t-47 32t-58 11.5t-58 -11.5t-47 -32t-31.5 -47.5t-11.5 -57q0 -31 11.5 -58t31.5 -47t47 -32t58 -12t58 12t47 32t31.5 47t11.5 58z" />
    <glyph glyph-name="yen" unicode="&#xa5;" horiz-adv-x="534" 
d="M175 652q-11 -16 -17 -27.5t-6 -19.5q0 -13 17 -41l51 -88h136l50 97q4 8 7.5 15.5t3.5 17.5q0 15 -22 46h158q-29 -26 -53 -57t-47 -66l-34 -53h102v-42h-127l-63 -101h190v-42h-202v-148q0 -28 4.5 -62t32.5 -81h-179q27 48 32 81.5t5 61.5v148h-202v42h178l-60 101
h-118v42h92l-44 73q-17 29 -37.5 54t-48.5 49h201zM291 353l43 81h-89z" />
    <glyph glyph-name="brokenbar" unicode="&#xa6;" 
d="M287 329h-73v370h73v-370zM287 -171h-73v370h73v-370z" />
    <glyph glyph-name="section" unicode="&#xa7;" horiz-adv-x="481" 
d="M398 529l-113 80q-8 6 -19.5 10t-20.5 4q-29 0 -49 -19t-20 -51q0 -20 9.5 -35.5t27.5 -30t43.5 -30.5t58.5 -37q31 -20 55.5 -37.5t42 -37t26.5 -42.5t9 -53q0 -106 -140 -162q45 -35 66 -67.5t21 -76.5q0 -65 -46 -101.5t-134 -36.5q-29 0 -62.5 5t-72.5 13v119
l113 -79q8 -5 17.5 -10.5t25.5 -5.5q32 0 51.5 19.5t19.5 50.5q0 19 -7.5 34t-21.5 28.5t-34 27t-45 29.5q-39 26 -69.5 46.5t-52 41.5t-33 46t-11.5 59q0 108 139 161q-42 26 -63.5 60t-21.5 73q0 63 47.5 101.5t135.5 38.5q65 0 128 -18v-117zM198 371q-67 -46 -67 -111
q0 -53 57 -91l92 -61q70 48 70 109q0 57 -64 98z" />
    <glyph glyph-name="dieresis" unicode="&#xa8;" 
d="M90 652q0 26 15 41t41 15q52 0 52 -56q0 -24 -14.5 -37.5t-41.5 -13.5q-52 0 -52 51zM302 652q0 26 14.5 41t40.5 15q53 0 53 -56q0 -24 -15 -37.5t-42 -13.5q-51 0 -51 51z" />
    <glyph glyph-name="copyright" unicode="&#xa9;" horiz-adv-x="833" 
d="M416 715q74 0 139 -26.5t117 -78.5q51 -51 78 -116.5t27 -138.5q0 -74 -26.5 -138t-77.5 -114q-54 -52 -119.5 -80t-137.5 -28t-136.5 27.5t-116.5 79.5t-79 116.5t-27 136.5t27 137t80 119q51 51 115 77.5t137 26.5zM729 355q0 64 -23 120.5t-67 100.5q-92 92 -222 92
q-64 0 -119.5 -23t-99.5 -67q-46 -46 -70 -103.5t-24 -119.5t24 -118.5t69 -101.5t101 -68.5t119 -23.5q62 0 118.5 24t103.5 69q44 43 67 98.5t23 120.5zM514 443q-6 38 -32 58t-68 20q-50 0 -80 -42.5t-30 -123.5q0 -78 30.5 -120t84.5 -42q40 0 66.5 22.5t33.5 63.5h71
q-5 -64 -52.5 -103.5t-121.5 -39.5q-88 0 -139 58t-51 164q0 50 14 90t39.5 68t61 43.5t78.5 15.5q70 0 116 -36.5t51 -95.5h-72z" />
    <glyph glyph-name="ordfeminine" unicode="&#xaa;" horiz-adv-x="350" 
d="M299 439q0 -24 4 -46.5t25 -48.5l-86 -19q-12 16 -17 40q-34 -20 -59 -30.5t-44 -10.5t-35.5 7t-29.5 19.5t-20.5 29.5t-7.5 36q0 51 38.5 72.5t117.5 21.5q10 0 19.5 -0.5t20.5 -0.5v58q0 63 -55 63q-18 0 -44 -18.5t-65 -52.5v81q73 19 133 19q65 0 90 -28
q11 -13 13 -27.5t2 -34.5v-8v-122zM225 490q-61 -5 -89.5 -18.5t-28.5 -44.5q0 -58 78 -58q8 0 18 0.5t22 2.5v118z" />
    <glyph glyph-name="guillemotleft" unicode="&#xab;" horiz-adv-x="356" 
d="M194 418l-89 -181l90 -173h-52l-108 173l106 181h53zM326 418l-90 -181l91 -173h-52l-107 173l107 181h51z" />
    <glyph glyph-name="logicalnot" unicode="&#xac;" horiz-adv-x="833" 
d="M709 175h-67v177h-518v68h585v-245z" />
    <glyph glyph-name="registered" unicode="&#xae;" horiz-adv-x="833" 
d="M416 715q74 0 139.5 -27t117.5 -80q50 -51 77 -116t27 -137q0 -75 -27 -139t-78 -114q-54 -52 -119.5 -79.5t-136.5 -27.5q-72 0 -137 27.5t-117 80.5q-51 52 -78 116t-27 136t28 138t81 120q50 51 113.5 76.5t136.5 25.5zM729 352q0 66 -22.5 122.5t-66.5 100.5
q-91 93 -223 93q-63 0 -119 -22.5t-99 -66.5q-46 -47 -70.5 -104.5t-24.5 -119.5t23.5 -118t68.5 -101t101.5 -69t116.5 -24q64 0 120.5 23.5t103.5 68.5q45 43 68 98.5t23 118.5zM426 566q170 0 170 -112q0 -44 -24 -72.5t-69 -37.5l91 -186h-86l-83 174h-76v-174h-77v408
h154zM349 516v-135h65q53 0 78 14.5t25 50.5q0 38 -25.5 54t-79.5 16h-63z" />
    <glyph glyph-name="macron" unicode="&#xaf;" 
d="M414 681v-55h-331v55h331z" />
    <glyph glyph-name="degree" unicode="&#xb0;" horiz-adv-x="329" 
d="M165 711q29 0 54.5 -11t44.5 -30t30 -45t11 -55q0 -28 -11 -53.5t-29.5 -45t-44.5 -30.5t-56 -11t-55.5 11t-44 30t-29.5 44.5t-11 54.5q0 30 11 55.5t30.5 44.5t45 30t54.5 11zM259 571q0 39 -27 66.5t-67 27.5q-39 0 -67 -27t-28 -67t27.5 -68t67.5 -28q41 0 67.5 28.5
t26.5 67.5z" />
    <glyph glyph-name="plusminus" unicode="&#xb1;" horiz-adv-x="833" 
d="M451 416h258v-68h-258v-166h-69v166h-258v68h258v166h69v-166zM709 14h-585v69h585v-69z" />
    <glyph glyph-name="twosuperior" unicode="&#xb2;" horiz-adv-x="338" 
d="M236 312q33 0 78 39l-14 -92h-292q50 49 89.5 89t66.5 74.5t41 64.5t14 58q0 41 -19 63.5t-51 22.5q-24 0 -44 -16l-67 -52v79q33 7 64.5 11t63.5 4q63 0 99 -27.5t36 -75.5q0 -27 -13 -53t-38.5 -55t-63 -61.5t-85.5 -72.5h135z" />
    <glyph glyph-name="threesuperior" unicode="&#xb3;" horiz-adv-x="338" 
d="M193 465q57 -6 86 -31.5t29 -65.5q0 -56 -43.5 -86.5t-128.5 -30.5q-54 0 -111 12v83l68 -55q16 -13 38 -13q42 0 70 23.5t28 63.5q0 84 -110 84q51 26 75 52t24 62q0 29 -21.5 48t-59.5 19q-13 0 -21.5 -3.5t-19.5 -11.5l-65 -52v77q31 8 62.5 12t61.5 4q69 0 104 -23.5
t35 -64.5q0 -32 -25.5 -59t-75.5 -44z" />
    <glyph glyph-name="acute" unicode="&#xb4;" 
d="M407 695l-221 -158h-27l109 158h139z" />
    <glyph glyph-name="mu" unicode="&#xb5;" horiz-adv-x="562" 
d="M125 230q-7 -31 -7 -65q0 -49 25.5 -75t72.5 -26q68 0 104 47.5t58 149.5l56 262h87l-76 -357q-5 -22 -8 -38t-3 -27q0 -18 8 -25.5t27 -7.5h7.5t8.5 1l-15 -70q-14 -3 -27 -4t-26 -1q-32 0 -48 14.5t-25 48.5q-43 -64 -132 -64q-40 0 -69.5 13.5t-55.5 43.5l-54 -259
h-88l155 732h88z" />
    <glyph glyph-name="paragraph" unicode="&#xb6;" 
d="M409 680v-680h-54v680h-87v-680h-54v382q-85 4 -133.5 50.5t-48.5 119.5q0 38 13.5 69t38.5 53.5t60.5 35t79.5 12.5h244v-42h-59z" />
    <glyph glyph-name="periodcentered" unicode="&#xb7;" horiz-adv-x="256" 
d="M128 388q27 0 46 -19.5t19 -45.5t-19 -45t-46 -19q-26 0 -45 19t-19 45t19 45.5t45 19.5z" />
    <glyph glyph-name="cedilla" unicode="&#xb8;" 
d="M250 0v-32q78 -12 78 -80q0 -39 -34 -67t-88 -28q-15 0 -28 4q70 39 70 93q0 40 -36 51v59h38z" />
    <glyph glyph-name="onesuperior" unicode="&#xb9;" horiz-adv-x="338" 
d="M219 338q0 -15 3 -34t21 -45h-120q19 27 22.5 47.5t3.5 39.5v7v228h-99q27 9 69.5 28.5t99.5 48.5v-320z" />
    <glyph glyph-name="ordmasculine" unicode="&#xba;" horiz-adv-x="404" 
d="M29 489q0 38 12.5 69t36 53.5t56 35t71.5 12.5q38 0 69 -12t53 -34.5t34.5 -53t12.5 -68.5t-12.5 -69.5t-35.5 -54t-55 -35t-71 -12.5q-38 0 -69.5 12t-54 34.5t-35 53.5t-12.5 69zM198 633q-37 0 -60 -35t-23 -101q0 -73 24.5 -112t62.5 -39q42 0 64.5 35t22.5 102
q0 73 -24.5 111.5t-66.5 38.5z" />
    <glyph glyph-name="guillemotright" unicode="&#xbb;" horiz-adv-x="356" 
d="M82 418l106 -174l-107 -180h-52l92 180l-90 174h51zM217 418l105 -174l-108 -180h-52l90 180l-88 174h53z" />
    <glyph glyph-name="onequarter" unicode="&#xbc;" horiz-adv-x="812" 
d="M209 359q0 -14 3 -32t21 -42h-115q17 26 21 45t4 36v7v213h-95q26 8 66.5 26.5t94.5 44.5v-298zM663 548l-496 -466l-20 21l495 465zM739 141h61v-44h-61v-28q0 -40 23 -69h-107q24 33 24 72v25h-189q48 72 96 136t98 123l55 17v-232zM552 141h127v170z" />
    <glyph glyph-name="onehalf" unicode="&#xbd;" horiz-adv-x="812" 
d="M209 359q0 -14 3 -32t21 -42h-115q17 26 21 45t4 36v7v213h-95q26 8 66.5 26.5t94.5 44.5v-298zM663 548l-496 -466l-20 21l495 465zM714 50q32 0 75 36l-14 -86h-278q48 45 85 82.5t63 69.5t39.5 60t13.5 55q0 38 -18 59t-49 21q-23 0 -42 -15l-63 -48v74q31 6 61 9.5
t61 3.5q60 0 94 -25.5t34 -70.5q0 -49 -49.5 -100t-141.5 -125h129z" />
    <glyph glyph-name="threequarters" unicode="&#xbe;" horiz-adv-x="812" 
d="M184 478q54 -6 82 -30t28 -62q0 -52 -41.5 -80.5t-122.5 -28.5q-52 0 -106 12v77l65 -51q14 -13 36 -13q40 0 67 22t27 60q0 77 -106 79q49 23 72.5 47.5t23.5 58.5q0 27 -20.5 45t-57.5 18q-12 0 -20.5 -3.5t-19.5 -11.5l-61 -48v72q61 14 118 14q66 0 99.5 -22
t33.5 -60q0 -30 -24.5 -55t-72.5 -40zM664 548l-496 -466l-20 21l495 465zM740 141h61v-44h-61v-28q0 -40 23 -69h-107q24 33 24 72v25h-189q48 72 96 136t98 123l55 17v-232zM553 141h127v170z" />
    <glyph glyph-name="questiondown" unicode="&#xbf;" horiz-adv-x="435" 
d="M261 661q26 0 42 -14.5t16 -39.5q0 -27 -16 -42.5t-46 -15.5q-28 0 -44 15t-16 43q0 25 16.5 39.5t47.5 14.5zM286 498q1 -6 1 -12v-11q0 -35 -8.5 -56.5t-20.5 -42.5q-18 -32 -36.5 -60.5t-33 -56.5t-23.5 -55.5t-9 -58.5q0 -54 27 -83.5t72 -29.5q29 0 54 20l109 92
v-129q-96 -26 -184 -26q-46 0 -84 12t-64 33t-40.5 50t-14.5 63q0 32 12.5 61t36.5 61q42 54 78.5 87t55.5 57q13 17 18 33.5t5 37.5v14h49z" />
    <glyph glyph-name="Agrave" unicode="&#xc0;" horiz-adv-x="567" 
d="M511 130q14 -40 32 -72t46 -58h-200q15 19 23 33t8 25t-11 46l-50 155h-193l-54 -158q-5 -14 -8 -24.5t-3 -20.5q0 -24 29 -56h-155q32 32 49.5 67.5t32.5 73.5l196 502l75 24zM182 305h162l-78 246zM267 889l110 -158h-26l-223 158h139z" />
    <glyph glyph-name="Aacute" unicode="&#xc1;" horiz-adv-x="567" 
d="M511 130q14 -40 32 -72t46 -58h-200q15 19 23 33t8 25t-11 46l-50 155h-193l-54 -158q-5 -14 -8 -24.5t-3 -20.5q0 -24 29 -56h-155q32 32 49.5 67.5t32.5 73.5l196 502l75 24zM182 305h162l-78 246zM441 889l-221 -158h-27l109 158h139z" />
    <glyph glyph-name="Acircumflex" unicode="&#xc2;" horiz-adv-x="567" 
d="M511 130q14 -40 32 -72t46 -58h-200q15 19 23 33t8 25t-11 46l-50 155h-193l-54 -158q-5 -14 -8 -24.5t-3 -20.5q0 -24 29 -56h-155q32 32 49.5 67.5t32.5 73.5l196 502l75 24zM182 305h162l-78 246zM456 730h-26l-146 67l-146 -67h-26l172 171z" />
    <glyph glyph-name="Atilde" unicode="&#xc3;" horiz-adv-x="567" 
d="M511 130q14 -40 32 -72t46 -58h-200q15 19 23 33t8 25t-11 46l-50 155h-193l-54 -158q-5 -14 -8 -24.5t-3 -20.5q0 -24 29 -56h-155q32 32 49.5 67.5t32.5 73.5l196 502l75 24zM182 305h162l-78 246zM347 860q7 -2 13 -4.5t13 -2.5q23 0 74 49q-10 -50 -35 -77.5
t-56 -27.5q-11 0 -23 2.5t-24 7.5l-89 35q-18 7 -23 7q-14 0 -32 -13.5t-44 -38.5q11 51 36.5 78t60.5 27q23 0 42 -8z" />
    <glyph glyph-name="Adieresis" unicode="&#xc4;" horiz-adv-x="567" 
d="M511 130q14 -40 32 -72t46 -58h-200q15 19 23 33t8 25t-11 46l-50 155h-193l-54 -158q-5 -14 -8 -24.5t-3 -20.5q0 -24 29 -56h-155q32 32 49.5 67.5t32.5 73.5l196 502l75 24zM182 305h162l-78 246zM124 846q0 26 15 41t41 15q52 0 52 -56q0 -24 -14.5 -37.5
t-41.5 -13.5q-52 0 -52 51zM336 846q0 26 14.5 41t40.5 15q53 0 53 -56q0 -24 -15 -37.5t-42 -13.5q-51 0 -51 51z" />
    <glyph glyph-name="Aring" unicode="&#xc5;" horiz-adv-x="567" 
d="M279 942q25 0 46.5 -9.5t37.5 -25.5t25.5 -37.5t9.5 -45.5q0 -25 -9 -46.5t-25 -37.5t-38 -25.5t-47 -9.5t-46.5 9t-37.5 25t-25 38t-9 47t9 46.5t25 37.5t37.5 25t46.5 9zM279 888q-27 0 -46 -19t-19 -47q0 -27 18.5 -45.5t46.5 -18.5q27 0 46 18.5t19 45.5t-19 46.5
t-46 19.5zM511 130q14 -40 32 -72t46 -58h-200q15 19 23 33t8 25t-11 46l-50 155h-193l-54 -158q-5 -14 -8 -24.5t-3 -20.5q0 -24 29 -56h-155q32 32 49.5 67.5t32.5 73.5l196 502l75 24zM182 305h162l-78 246z" />
    <glyph glyph-name="AE" unicode="&#xc6;" horiz-adv-x="792" 
d="M738 655v-135l-96 76q-14 11 -29 13.5t-35 2.5h-107v-271h98q29 0 59 21l65 47v-175l-70 50q-16 11 -31.5 13t-32.5 2h-88v-257h122q18 0 30 5.5t26 16.5l106 80l-20 -144h-407q26 45 31 77t5 58v10v153h-151l-113 -224q-6 -12 -6 -25q0 -20 26 -49h-156q35 31 55 62
t36 60l293 533h390zM234 341h130v258z" />
    <glyph glyph-name="Ccedilla" unicode="&#xc7;" horiz-adv-x="556" 
d="M528 518l-117 88q-14 10 -25.5 12t-27.5 2q-45 0 -82 -19.5t-63.5 -58t-41 -94t-14.5 -127.5q0 -140 53.5 -215.5t143.5 -75.5q35 0 60 18l122 92l-17 -134q-99 -21 -167 -21q-155 0 -235 83t-80 242q0 81 23 146.5t65 112t101.5 71.5t132.5 25q43 0 85 -4.5t84 -15.5
v-127zM278 0v-32q78 -12 78 -80q0 -39 -34 -67t-88 -28q-15 0 -28 4q70 39 70 93q0 40 -36 51v59h38z" />
    <glyph glyph-name="Egrave" unicode="&#xc8;" horiz-adv-x="513" 
d="M459 655v-135l-96 76q-14 11 -29 13.5t-35 2.5h-107v-258h98q31 0 59 21l65 47v-175l-70 50q-16 11 -31 13t-32 2h-89v-270h122q18 0 30 5.5t26 16.5l106 80l-20 -144h-407q26 45 31 77t5 58v10v367v6q0 28 -5 60.5t-31 76.5h410zM240 889l110 -158h-26l-223 158h139z
" />
    <glyph glyph-name="Eacute" unicode="&#xc9;" horiz-adv-x="513" 
d="M459 655v-135l-96 76q-14 11 -29 13.5t-35 2.5h-107v-258h98q31 0 59 21l65 47v-175l-70 50q-16 11 -31 13t-32 2h-89v-270h122q18 0 30 5.5t26 16.5l106 80l-20 -144h-407q26 45 31 77t5 58v10v367v6q0 28 -5 60.5t-31 76.5h410zM414 889l-221 -158h-27l109 158h139z
" />
    <glyph glyph-name="Ecircumflex" unicode="&#xca;" horiz-adv-x="513" 
d="M459 655v-135l-96 76q-14 11 -29 13.5t-35 2.5h-107v-258h98q31 0 59 21l65 47v-175l-70 50q-16 11 -31 13t-32 2h-89v-270h122q18 0 30 5.5t26 16.5l106 80l-20 -144h-407q26 45 31 77t5 58v10v367v6q0 28 -5 60.5t-31 76.5h410zM429 730h-26l-146 67l-146 -67h-26
l172 171z" />
    <glyph glyph-name="Edieresis" unicode="&#xcb;" horiz-adv-x="513" 
d="M459 655v-135l-96 76q-14 11 -29 13.5t-35 2.5h-107v-258h98q31 0 59 21l65 47v-175l-70 50q-16 11 -31 13t-32 2h-89v-270h122q18 0 30 5.5t26 16.5l106 80l-20 -144h-407q26 45 31 77t5 58v10v367v6q0 28 -5 60.5t-31 76.5h410zM97 846q0 26 15 41t41 15q52 0 52 -56
q0 -24 -14.5 -37.5t-41.5 -13.5q-52 0 -52 51zM309 846q0 26 14.5 41t40.5 15q53 0 53 -56q0 -24 -15 -37.5t-42 -13.5q-51 0 -51 51z" />
    <glyph glyph-name="Igrave" unicode="&#xcc;" horiz-adv-x="274" 
d="M227 655q-26 -45 -31 -77.5t-5 -60.5v-6v-367v-6q0 -28 5 -60.5t31 -77.5h-180q27 47 32 81t5 63v367q0 29 -5 63t-32 81h180zM120 889l110 -158h-26l-223 158h139z" />
    <glyph glyph-name="Iacute" unicode="&#xcd;" horiz-adv-x="274" 
d="M227 655q-26 -45 -31 -77.5t-5 -60.5v-6v-367v-6q0 -28 5 -60.5t31 -77.5h-180q27 47 32 81t5 63v367q0 29 -5 63t-32 81h180zM294 889l-221 -158h-27l109 158h139z" />
    <glyph glyph-name="Icircumflex" unicode="&#xce;" horiz-adv-x="274" 
d="M227 655q-26 -45 -31 -77.5t-5 -60.5v-6v-367v-6q0 -28 5 -60.5t31 -77.5h-180q27 47 32 81t5 63v367q0 29 -5 63t-32 81h180zM309 730h-26l-146 67l-146 -67h-26l172 171z" />
    <glyph glyph-name="Idieresis" unicode="&#xcf;" horiz-adv-x="274" 
d="M227 655q-26 -45 -31 -77.5t-5 -60.5v-6v-367v-6q0 -28 5 -60.5t31 -77.5h-180q27 47 32 81t5 63v367q0 29 -5 63t-32 81h180zM-23 846q0 26 15 41t41 15q52 0 52 -56q0 -24 -14.5 -37.5t-41.5 -13.5q-52 0 -52 51zM189 846q0 26 14.5 41t40.5 15q53 0 53 -56
q0 -24 -15 -37.5t-42 -13.5q-51 0 -51 51z" />
    <glyph glyph-name="Eth" unicode="&#xd0;" horiz-adv-x="653" 
d="M289 655q65 0 117 -11t100 -50t75.5 -102.5t27.5 -142.5q0 -84 -22 -148.5t-69 -113.5q-27 -28 -56 -45.5t-61 -26.5t-69 -12t-80 -3h-208q27 47 32 80t5 59v5v179h-78v51h78v137q0 29 -5 63t-32 81h245zM187 374h127v-51h-127v-278h92q103 0 157 72.5t54 214.5
q0 278 -210 278h-93v-236z" />
    <glyph glyph-name="Ntilde" unicode="&#xd1;" horiz-adv-x="633" 
d="M178 655l320 -472v328q0 29 -5 63t-32 81h132q-28 -47 -32.5 -81t-4.5 -63v-516h-59l-357 524v-375q0 -29 4.5 -63t32.5 -81h-132q27 47 32 81t5 63v367q0 29 -5 63t-32 81h133zM380 860q7 -2 13 -4.5t13 -2.5q23 0 74 49q-10 -50 -35 -77.5t-56 -27.5q-11 0 -23 2.5
t-24 7.5l-89 35q-18 7 -23 7q-14 0 -32 -13.5t-44 -38.5q11 51 36.5 78t60.5 27q23 0 42 -8z" />
    <glyph glyph-name="Ograve" unicode="&#xd2;" horiz-adv-x="674" 
d="M40 316q0 81 21.5 145.5t61.5 109.5t96.5 69t125.5 24q65 0 118 -23t91 -65t58.5 -102t20.5 -134q0 -84 -21.5 -150t-61 -111.5t-96 -69.5t-126.5 -24q-65 0 -118 23t-91 65.5t-58.5 104t-20.5 138.5zM331 618q-78 0 -124 -73t-46 -213q0 -149 46.5 -225t131.5 -76
q81 0 127.5 73t46.5 213q0 149 -47 225t-135 76zM320 889l110 -158h-26l-223 158h139z" />
    <glyph glyph-name="Oacute" unicode="&#xd3;" horiz-adv-x="674" 
d="M40 316q0 81 21.5 145.5t61.5 109.5t96.5 69t125.5 24q65 0 118 -23t91 -65t58.5 -102t20.5 -134q0 -84 -21.5 -150t-61 -111.5t-96 -69.5t-126.5 -24q-65 0 -118 23t-91 65.5t-58.5 104t-20.5 138.5zM331 618q-78 0 -124 -73t-46 -213q0 -149 46.5 -225t131.5 -76
q81 0 127.5 73t46.5 213q0 149 -47 225t-135 76zM494 889l-221 -158h-27l109 158h139z" />
    <glyph glyph-name="Ocircumflex" unicode="&#xd4;" horiz-adv-x="674" 
d="M40 316q0 81 21.5 145.5t61.5 109.5t96.5 69t125.5 24q65 0 118 -23t91 -65t58.5 -102t20.5 -134q0 -84 -21.5 -150t-61 -111.5t-96 -69.5t-126.5 -24q-65 0 -118 23t-91 65.5t-58.5 104t-20.5 138.5zM331 618q-78 0 -124 -73t-46 -213q0 -149 46.5 -225t131.5 -76
q81 0 127.5 73t46.5 213q0 149 -47 225t-135 76zM509 730h-26l-146 67l-146 -67h-26l172 171z" />
    <glyph glyph-name="Otilde" unicode="&#xd5;" horiz-adv-x="674" 
d="M40 316q0 81 21.5 145.5t61.5 109.5t96.5 69t125.5 24q65 0 118 -23t91 -65t58.5 -102t20.5 -134q0 -84 -21.5 -150t-61 -111.5t-96 -69.5t-126.5 -24q-65 0 -118 23t-91 65.5t-58.5 104t-20.5 138.5zM331 618q-78 0 -124 -73t-46 -213q0 -149 46.5 -225t131.5 -76
q81 0 127.5 73t46.5 213q0 149 -47 225t-135 76zM400 860q7 -2 13 -4.5t13 -2.5q23 0 74 49q-10 -50 -35 -77.5t-56 -27.5q-11 0 -23 2.5t-24 7.5l-89 35q-18 7 -23 7q-14 0 -32 -13.5t-44 -38.5q11 51 36.5 78t60.5 27q23 0 42 -8z" />
    <glyph glyph-name="Odieresis" unicode="&#xd6;" horiz-adv-x="674" 
d="M40 316q0 81 21.5 145.5t61.5 109.5t96.5 69t125.5 24q65 0 118 -23t91 -65t58.5 -102t20.5 -134q0 -84 -21.5 -150t-61 -111.5t-96 -69.5t-126.5 -24q-65 0 -118 23t-91 65.5t-58.5 104t-20.5 138.5zM331 618q-78 0 -124 -73t-46 -213q0 -149 46.5 -225t131.5 -76
q81 0 127.5 73t46.5 213q0 149 -47 225t-135 76zM177 846q0 26 15 41t41 15q52 0 52 -56q0 -24 -14.5 -37.5t-41.5 -13.5q-52 0 -52 51zM389 846q0 26 14.5 41t40.5 15q53 0 53 -56q0 -24 -15 -37.5t-42 -13.5q-51 0 -51 51z" />
    <glyph glyph-name="multiply" unicode="&#xd7;" horiz-adv-x="833" 
d="M649 575l48 -48l-229 -229l229 -229l-48 -47l-229 228l-229 -228l-48 47l229 229l-229 229l48 48l229 -229z" />
    <glyph glyph-name="Oslash" unicode="&#xd8;" horiz-adv-x="674" 
d="M572 672l-45 -72q106 -91 106 -268q0 -80 -21.5 -144.5t-61.5 -109.5t-96.5 -69t-125.5 -24q-96 0 -153 43l-48 -79l-41 27l50 81q-46 44 -71 111.5t-25 153.5q0 78 22 141.5t61.5 108t96 68.5t125.5 24q73 0 143 -36l44 71zM449 564q-18 26 -48.5 40t-69.5 14
q-79 0 -124.5 -74t-45.5 -217q0 -54 6.5 -99t22.5 -83zM215 93q26 -32 55 -46.5t66 -14.5q85 0 131 73t46 217q0 58 -8 106.5t-27 91.5z" />
    <glyph glyph-name="Ugrave" unicode="&#xd9;" horiz-adv-x="624" 
d="M212 655q-26 -47 -30.5 -81t-4.5 -62v-299q0 -93 31.5 -138t113.5 -45q54 0 90 18.5t52 52.5q11 23 13.5 49t2.5 57v40v265q0 30 -5 64t-31 79h146q-28 -47 -33 -81.5t-5 -62.5v-280v-14q0 -39 -3 -73t-19 -64q-24 -46 -80 -71t-142 -25q-126 0 -181 49t-55 156v322
q0 29 -5 63t-33 81h178zM295 889l110 -158h-26l-223 158h139z" />
    <glyph glyph-name="Uacute" unicode="&#xda;" horiz-adv-x="624" 
d="M212 655q-26 -47 -30.5 -81t-4.5 -62v-299q0 -93 31.5 -138t113.5 -45q54 0 90 18.5t52 52.5q11 23 13.5 49t2.5 57v40v265q0 30 -5 64t-31 79h146q-28 -47 -33 -81.5t-5 -62.5v-280v-14q0 -39 -3 -73t-19 -64q-24 -46 -80 -71t-142 -25q-126 0 -181 49t-55 156v322
q0 29 -5 63t-33 81h178zM469 889l-221 -158h-27l109 158h139z" />
    <glyph glyph-name="Ucircumflex" unicode="&#xdb;" horiz-adv-x="624" 
d="M212 655q-26 -47 -30.5 -81t-4.5 -62v-299q0 -93 31.5 -138t113.5 -45q54 0 90 18.5t52 52.5q11 23 13.5 49t2.5 57v40v265q0 30 -5 64t-31 79h146q-28 -47 -33 -81.5t-5 -62.5v-280v-14q0 -39 -3 -73t-19 -64q-24 -46 -80 -71t-142 -25q-126 0 -181 49t-55 156v322
q0 29 -5 63t-33 81h178zM484 730h-26l-146 67l-146 -67h-26l172 171z" />
    <glyph glyph-name="Udieresis" unicode="&#xdc;" horiz-adv-x="624" 
d="M212 655q-26 -47 -30.5 -81t-4.5 -62v-299q0 -93 31.5 -138t113.5 -45q54 0 90 18.5t52 52.5q11 23 13.5 49t2.5 57v40v265q0 30 -5 64t-31 79h146q-28 -47 -33 -81.5t-5 -62.5v-280v-14q0 -39 -3 -73t-19 -64q-24 -46 -80 -71t-142 -25q-126 0 -181 49t-55 156v322
q0 29 -5 63t-33 81h178zM152 846q0 26 15 41t41 15q52 0 52 -56q0 -24 -14.5 -37.5t-41.5 -13.5q-52 0 -52 51zM364 846q0 26 14.5 41t40.5 15q53 0 53 -56q0 -24 -15 -37.5t-42 -13.5q-51 0 -51 51z" />
    <glyph glyph-name="Yacute" unicode="&#xdd;" horiz-adv-x="527" 
d="M175 655q-22 -33 -22 -47q0 -15 16 -41l123 -208l113 217q5 9 8 16.5t3 16.5q0 14 -23 46h159q-56 -52 -100 -123l-134 -216v-172v-6q0 -28 5 -60.5t31 -77.5h-179q27 47 31.5 81t4.5 63v151l-154 257q-17 27 -37.5 52.5t-49.5 50.5h205zM421 889l-221 -158h-27l109 158
h139z" />
    <glyph glyph-name="Thorn" unicode="&#xde;" horiz-adv-x="493" 
d="M224 655q-37 -66 -37 -120v-4h90q101 0 154.5 -49t53.5 -140q0 -43 -15.5 -79t-44.5 -61.5t-71 -40t-96 -14.5q-14 0 -32 0.5t-39 1.5q0 -5 -0.5 -9t-0.5 -9q0 -66 38 -131h-179q27 47 31.5 81t4.5 63v367q0 29 -4.5 63t-31.5 81h179zM187 190q8 -1 15.5 -1h15.5
q75 0 110 36.5t35 117.5q0 72 -30.5 109t-87.5 37h-58v-299z" />
    <glyph glyph-name="germandbls" unicode="&#xdf;" horiz-adv-x="576" 
d="M236 128l97 -75q11 -9 22 -14.5t27 -5.5q29 0 49 19.5t20 51.5q0 18 -9 30.5t-25 24t-38.5 23t-49.5 26.5q-44 25 -66 49.5t-22 66.5q0 39 20 67t51 62q29 31 47.5 57t18.5 64q0 42 -27 67.5t-72 25.5q-59 0 -82 -38t-23 -114v-515h-138q29 42 34 83t5 87v295q0 29 1 54
t6.5 46.5t16.5 41.5t31 39q30 29 74 45t100 16q79 0 127 -34.5t48 -90.5q0 -40 -24 -66.5t-64 -58.5q-29 -23 -46 -42t-17 -47q0 -20 9.5 -33t26.5 -24.5t40.5 -22.5t51.5 -27q47 -26 69 -53.5t22 -74.5q0 -66 -44 -103t-125 -37q-26 0 -61.5 5.5t-80.5 18.5v111z" />
    <glyph glyph-name="agrave" unicode="&#xe0;" horiz-adv-x="466" 
d="M398 154q0 -35 5.5 -67t33.5 -69l-115 -27q-16 25 -22 58q-45 -29 -78.5 -44t-58.5 -15t-47.5 10t-39.5 28t-27 42t-10 52q0 72 51 103t157 31q13 0 26 -0.5t27 -1.5v83q0 90 -73 90q-25 0 -59 -26.5t-87 -74.5v115q99 28 178 28q43 0 72.5 -9.5t47.5 -31.5
q14 -17 16.5 -38t2.5 -50v-11v-175zM300 227q-81 -6 -119.5 -25.5t-38.5 -64.5q0 -83 105 -83q10 0 23 1t30 3v169zM216 695l110 -158h-26l-223 158h139z" />
    <glyph glyph-name="aacute" unicode="&#xe1;" horiz-adv-x="466" 
d="M398 154q0 -35 5.5 -67t33.5 -69l-115 -27q-16 25 -22 58q-45 -29 -78.5 -44t-58.5 -15t-47.5 10t-39.5 28t-27 42t-10 52q0 72 51 103t157 31q13 0 26 -0.5t27 -1.5v83q0 90 -73 90q-25 0 -59 -26.5t-87 -74.5v115q99 28 178 28q43 0 72.5 -9.5t47.5 -31.5
q14 -17 16.5 -38t2.5 -50v-11v-175zM300 227q-81 -6 -119.5 -25.5t-38.5 -64.5q0 -83 105 -83q10 0 23 1t30 3v169zM390 695l-221 -158h-27l109 158h139z" />
    <glyph glyph-name="acircumflex" unicode="&#xe2;" horiz-adv-x="466" 
d="M398 154q0 -35 5.5 -67t33.5 -69l-115 -27q-16 25 -22 58q-45 -29 -78.5 -44t-58.5 -15t-47.5 10t-39.5 28t-27 42t-10 52q0 72 51 103t157 31q13 0 26 -0.5t27 -1.5v83q0 90 -73 90q-25 0 -59 -26.5t-87 -74.5v115q99 28 178 28q43 0 72.5 -9.5t47.5 -31.5
q14 -17 16.5 -38t2.5 -50v-11v-175zM300 227q-81 -6 -119.5 -25.5t-38.5 -64.5q0 -83 105 -83q10 0 23 1t30 3v169zM405 536h-26l-146 67l-146 -67h-26l172 171z" />
    <glyph glyph-name="atilde" unicode="&#xe3;" horiz-adv-x="466" 
d="M398 154q0 -35 5.5 -67t33.5 -69l-115 -27q-16 25 -22 58q-45 -29 -78.5 -44t-58.5 -15t-47.5 10t-39.5 28t-27 42t-10 52q0 72 51 103t157 31q13 0 26 -0.5t27 -1.5v83q0 90 -73 90q-25 0 -59 -26.5t-87 -74.5v115q99 28 178 28q43 0 72.5 -9.5t47.5 -31.5
q14 -17 16.5 -38t2.5 -50v-11v-175zM300 227q-81 -6 -119.5 -25.5t-38.5 -64.5q0 -83 105 -83q10 0 23 1t30 3v169zM296 666q7 -2 13 -4.5t13 -2.5q23 0 74 49q-10 -50 -35 -77.5t-56 -27.5q-11 0 -23 2.5t-24 7.5l-89 35q-18 7 -23 7q-14 0 -32 -13.5t-44 -38.5
q11 51 36.5 78t60.5 27q23 0 42 -8z" />
    <glyph glyph-name="adieresis" unicode="&#xe4;" horiz-adv-x="466" 
d="M398 154q0 -35 5.5 -67t33.5 -69l-115 -27q-16 25 -22 58q-45 -29 -78.5 -44t-58.5 -15t-47.5 10t-39.5 28t-27 42t-10 52q0 72 51 103t157 31q13 0 26 -0.5t27 -1.5v83q0 90 -73 90q-25 0 -59 -26.5t-87 -74.5v115q99 28 178 28q43 0 72.5 -9.5t47.5 -31.5
q14 -17 16.5 -38t2.5 -50v-11v-175zM300 227q-81 -6 -119.5 -25.5t-38.5 -64.5q0 -83 105 -83q10 0 23 1t30 3v169zM73 652q0 26 15 41t41 15q52 0 52 -56q0 -24 -14.5 -37.5t-41.5 -13.5q-52 0 -52 51zM285 652q0 26 14.5 41t40.5 15q53 0 53 -56q0 -24 -15 -37.5
t-42 -13.5q-51 0 -51 51z" />
    <glyph glyph-name="aring" unicode="&#xe5;" horiz-adv-x="466" 
d="M233 744q24 0 45.5 -9t37.5 -24.5t25 -37t9 -45.5t-9 -45.5t-24.5 -37.5t-37 -25.5t-46.5 -9.5q-24 0 -45.5 9t-37 25t-24.5 37.5t-9 46.5q0 24 9 45.5t24.5 37t37 24.5t45.5 9zM233 691q-26 0 -44.5 -18.5t-18.5 -45.5t18 -45.5t45 -18.5t45.5 18t18.5 44q0 28 -19 47
t-45 19zM397 154q0 -35 5 -67t33 -69l-114 -27q-16 25 -22 58q-45 -29 -78.5 -44t-58.5 -15t-47.5 10t-39.5 28t-27 42t-10 52q0 72 50.5 103t156.5 31q13 0 26 -0.5t27 -1.5v83q0 90 -71 90q-25 0 -59 -27t-89 -74v115q99 28 179 28q43 0 72.5 -9.5t47.5 -31.5
q14 -17 16.5 -38t2.5 -50v-11v-175zM298 227q-81 -6 -119.5 -25.5t-38.5 -64.5q0 -83 106 -83q10 0 22.5 1t29.5 3v169z" />
    <glyph glyph-name="ae" unicode="&#xe6;" horiz-adv-x="726" 
d="M82 442q45 14 86.5 20t81.5 6q49 0 81.5 -9.5t49.5 -32.5q23 20 55 31.5t70 11.5q85 0 135.5 -55.5t50.5 -155.5v-8h-300v-6q0 -99 46.5 -145.5t143.5 -46.5q26 0 54 3t60 8q-42 -37 -88 -55t-102 -18q-92 0 -155 59q-48 -28 -89 -43t-85 -15q-63 0 -100 37t-37 97
q0 131 207 131q13 0 26 -0.5t27 -1.5v84q0 43 -19.5 65.5t-52.5 22.5q-26 0 -52 -22l-94 -78v116zM300 226q-81 -7 -119.5 -26t-38.5 -64q0 -82 101 -82q12 0 26 1t31 4v167zM578 298q0 65 -23 99t-62 34q-45 0 -71.5 -40.5t-28.5 -118.5z" />
    <glyph glyph-name="ccedilla" unicode="&#xe7;" horiz-adv-x="431" 
d="M404 333l-102 76q-24 18 -45 18q-22 0 -42 -13.5t-35.5 -38t-24.5 -59t-9 -77.5q0 -93 46 -140.5t136 -47.5q67 0 103 9q-79 -72 -181 -72q-46 0 -85 16t-67 46t-43.5 71.5t-15.5 92.5q0 57 18 104.5t50.5 81t77.5 52t100 18.5q59 0 119 -18v-119zM216 0v-32
q78 -12 78 -80q0 -39 -34 -67t-88 -28q-15 0 -28 4q70 39 70 93q0 40 -36 51v59h38z" />
    <glyph glyph-name="egrave" unicode="&#xe8;" horiz-adv-x="478" 
d="M331 299q0 132 -85 132q-45 0 -71.5 -39.5t-28.5 -116.5zM145 252v-6q0 -99 49 -146.5t152 -47.5q21 0 47 2.5t56 8.5q-81 -75 -195 -75q-47 0 -86.5 16.5t-68 47t-44.5 73.5t-16 97q0 104 63 175q31 35 72.5 53.5t86.5 18.5q87 0 135 -55.5t50 -161.5h-301zM222 695
l110 -158h-26l-223 158h139z" />
    <glyph glyph-name="eacute" unicode="&#xe9;" horiz-adv-x="478" 
d="M331 299q0 132 -85 132q-45 0 -71.5 -39.5t-28.5 -116.5zM145 252v-6q0 -99 49 -146.5t152 -47.5q21 0 47 2.5t56 8.5q-81 -75 -195 -75q-47 0 -86.5 16.5t-68 47t-44.5 73.5t-16 97q0 104 63 175q31 35 72.5 53.5t86.5 18.5q87 0 135 -55.5t50 -161.5h-301zM396 695
l-221 -158h-27l109 158h139z" />
    <glyph glyph-name="ecircumflex" unicode="&#xea;" horiz-adv-x="478" 
d="M331 299q0 132 -85 132q-45 0 -71.5 -39.5t-28.5 -116.5zM145 252v-6q0 -99 49 -146.5t152 -47.5q21 0 47 2.5t56 8.5q-81 -75 -195 -75q-47 0 -86.5 16.5t-68 47t-44.5 73.5t-16 97q0 104 63 175q31 35 72.5 53.5t86.5 18.5q87 0 135 -55.5t50 -161.5h-301zM411 536h-26
l-146 67l-146 -67h-26l172 171z" />
    <glyph glyph-name="edieresis" unicode="&#xeb;" horiz-adv-x="478" 
d="M331 299q0 132 -85 132q-45 0 -71.5 -39.5t-28.5 -116.5zM145 252v-6q0 -99 49 -146.5t152 -47.5q21 0 47 2.5t56 8.5q-81 -75 -195 -75q-47 0 -86.5 16.5t-68 47t-44.5 73.5t-16 97q0 104 63 175q31 35 72.5 53.5t86.5 18.5q87 0 135 -55.5t50 -161.5h-301zM79 652
q0 26 15 41t41 15q52 0 52 -56q0 -24 -14.5 -37.5t-41.5 -13.5q-52 0 -52 51zM291 652q0 26 14.5 41t40.5 15q53 0 53 -56q0 -24 -15 -37.5t-42 -13.5q-51 0 -51 51z" />
    <glyph glyph-name="igrave" unicode="&#xec;" horiz-adv-x="265" 
d="M186 144q0 -29 4.5 -63t32.5 -81h-175q27 47 31.5 81t4.5 63v172q0 63 -38 124l140 33v-329zM116 695l110 -158h-26l-223 158h139z" />
    <glyph glyph-name="iacute" unicode="&#xed;" horiz-adv-x="265" 
d="M186 144q0 -29 4.5 -63t32.5 -81h-175q27 47 31.5 81t4.5 63v172q0 63 -38 124l140 33v-329zM290 695l-221 -158h-27l109 158h139z" />
    <glyph glyph-name="icircumflex" unicode="&#xee;" horiz-adv-x="265" 
d="M186 144q0 -29 4.5 -63t32.5 -81h-175q27 47 31.5 81t4.5 63v172q0 63 -38 124l140 33v-329zM305 536h-26l-146 67l-146 -67h-26l172 171z" />
    <glyph glyph-name="idieresis" unicode="&#xef;" horiz-adv-x="265" 
d="M186 144q0 -29 4.5 -63t32.5 -81h-175q27 47 31.5 81t4.5 63v172q0 63 -38 124l140 33v-329zM-27 652q0 26 15 41t41 15q52 0 52 -56q0 -24 -14.5 -37.5t-41.5 -13.5q-52 0 -52 51zM185 652q0 26 14.5 41t40.5 15q53 0 53 -56q0 -24 -15 -37.5t-42 -13.5q-51 0 -51 51z
" />
    <glyph glyph-name="eth" unicode="&#xf0;" horiz-adv-x="538" 
d="M379 419q-11 48 -33.5 87.5t-55.5 77.5l-133 -70l-18 38l123 62q-41 38 -88 73l116 28q14 -14 28 -28.5t28 -29.5l120 62l20 -36l-115 -59q60 -72 93.5 -159.5t33.5 -193.5q0 -137 -62.5 -211.5t-171.5 -74.5q-49 0 -90.5 17.5t-71.5 49.5t-46.5 77t-16.5 100
q0 51 16.5 93t46 72t70 47t87.5 17q32 0 61.5 -9.5t58.5 -29.5zM382 397q-28 10 -51.5 15.5t-45.5 5.5q-60 0 -96 -47.5t-36 -137.5q0 -101 32.5 -156t86.5 -55q59 0 90 62.5t31 185.5q0 29 -3 60.5t-8 66.5z" />
    <glyph glyph-name="ntilde" unicode="&#xf1;" horiz-adv-x="532" 
d="M179 412q56 28 97.5 42.5t70.5 14.5q115 0 115 -169v-156q0 -29 4.5 -63t32.5 -81h-175q26 45 31 76.5t5 57.5v10v120q0 38 -5.5 64.5t-19.5 43.5t-38 25t-62 8q-14 0 -28 -1t-28 -3v-257q0 -28 4.5 -62t32.5 -82h-175q26 45 31 79.5t5 64.5v172q0 33 -9 62.5t-29 61.5
l140 33v-61zM329 666q7 -2 13 -4.5t13 -2.5q23 0 74 49q-10 -50 -35 -77.5t-56 -27.5q-11 0 -23 2.5t-24 7.5l-89 35q-18 7 -23 7q-14 0 -32 -13.5t-44 -38.5q11 51 36.5 78t60.5 27q23 0 42 -8z" />
    <glyph glyph-name="ograve" unicode="&#xf2;" horiz-adv-x="538" 
d="M39 226q0 54 17 98.5t47.5 77t74 50t95.5 17.5q50 0 91.5 -17.5t71.5 -49t46.5 -75.5t16.5 -98t-17 -99t-47.5 -77.5t-73.5 -50.5t-94 -18t-93 17.5t-72 49t-46.5 76.5t-16.5 99zM264 432q-49 0 -80 -50t-31 -145q0 -104 32.5 -159.5t83.5 -55.5q55 0 85.5 49.5
t30.5 145.5q0 105 -32 160t-89 55zM252 695l110 -158h-26l-223 158h139z" />
    <glyph glyph-name="oacute" unicode="&#xf3;" horiz-adv-x="538" 
d="M39 226q0 54 17 98.5t47.5 77t74 50t95.5 17.5q50 0 91.5 -17.5t71.5 -49t46.5 -75.5t16.5 -98t-17 -99t-47.5 -77.5t-73.5 -50.5t-94 -18t-93 17.5t-72 49t-46.5 76.5t-16.5 99zM264 432q-49 0 -80 -50t-31 -145q0 -104 32.5 -159.5t83.5 -55.5q55 0 85.5 49.5
t30.5 145.5q0 105 -32 160t-89 55zM426 695l-221 -158h-27l109 158h139z" />
    <glyph glyph-name="ocircumflex" unicode="&#xf4;" horiz-adv-x="538" 
d="M39 226q0 54 17 98.5t47.5 77t74 50t95.5 17.5q50 0 91.5 -17.5t71.5 -49t46.5 -75.5t16.5 -98t-17 -99t-47.5 -77.5t-73.5 -50.5t-94 -18t-93 17.5t-72 49t-46.5 76.5t-16.5 99zM264 432q-49 0 -80 -50t-31 -145q0 -104 32.5 -159.5t83.5 -55.5q55 0 85.5 49.5
t30.5 145.5q0 105 -32 160t-89 55zM441 536h-26l-146 67l-146 -67h-26l172 171z" />
    <glyph glyph-name="otilde" unicode="&#xf5;" horiz-adv-x="538" 
d="M39 226q0 54 17 98.5t47.5 77t74 50t95.5 17.5q50 0 91.5 -17.5t71.5 -49t46.5 -75.5t16.5 -98t-17 -99t-47.5 -77.5t-73.5 -50.5t-94 -18t-93 17.5t-72 49t-46.5 76.5t-16.5 99zM264 432q-49 0 -80 -50t-31 -145q0 -104 32.5 -159.5t83.5 -55.5q55 0 85.5 49.5
t30.5 145.5q0 105 -32 160t-89 55zM332 666q7 -2 13 -4.5t13 -2.5q23 0 74 49q-10 -50 -35 -77.5t-56 -27.5q-11 0 -23 2.5t-24 7.5l-89 35q-18 7 -23 7q-14 0 -32 -13.5t-44 -38.5q11 51 36.5 78t60.5 27q23 0 42 -8z" />
    <glyph glyph-name="odieresis" unicode="&#xf6;" horiz-adv-x="538" 
d="M39 226q0 54 17 98.5t47.5 77t74 50t95.5 17.5q50 0 91.5 -17.5t71.5 -49t46.5 -75.5t16.5 -98t-17 -99t-47.5 -77.5t-73.5 -50.5t-94 -18t-93 17.5t-72 49t-46.5 76.5t-16.5 99zM264 432q-49 0 -80 -50t-31 -145q0 -104 32.5 -159.5t83.5 -55.5q55 0 85.5 49.5
t30.5 145.5q0 105 -32 160t-89 55zM109 652q0 26 15 41t41 15q52 0 52 -56q0 -24 -14.5 -37.5t-41.5 -13.5q-52 0 -52 51zM321 652q0 26 14.5 41t40.5 15q53 0 53 -56q0 -24 -15 -37.5t-42 -13.5q-51 0 -51 51z" />
    <glyph glyph-name="divide" unicode="&#xf7;" horiz-adv-x="833" 
d="M417 540q25 0 43 -18t18 -44q0 -25 -17.5 -43t-43.5 -18t-43.5 17.5t-17.5 43.5t18 44t43 18zM709 264h-585v68h585v-68zM417 179q25 0 43 -17.5t18 -43.5q0 -25 -17.5 -43t-43.5 -18t-43.5 17.5t-17.5 43.5t18 43.5t43 17.5z" />
    <glyph glyph-name="oslash" unicode="&#xf8;" horiz-adv-x="538" 
d="M462 505l-51 -81q88 -67 88 -196q0 -55 -17 -100t-48.5 -77t-75 -49.5t-97.5 -17.5q-63 0 -110 28l-54 -85l-32 22l54 86q-38 33 -58.5 80t-20.5 110q0 55 17 100t47.5 77t74 49.5t95.5 17.5q53 0 102 -24l51 79zM344 392q-27 40 -74 40q-54 0 -85.5 -49.5t-31.5 -143.5
q0 -31 4.5 -61t12.5 -62zM187 72q32 -50 83 -50q54 0 84.5 50.5t30.5 148.5q0 75 -21 130z" />
    <glyph glyph-name="ugrave" unicode="&#xf9;" horiz-adv-x="528" 
d="M173 184q0 -36 5 -60t18.5 -39t36 -21.5t58.5 -6.5q15 0 30.5 1.5t31.5 3.5v254q0 33 -9 62.5t-29 61.5l140 33v-322q0 -35 8.5 -64.5t29.5 -62.5l-140 -33v62q-103 -60 -164 -60q-64 0 -91 37.5t-27 116.5v169q0 33 -9.5 62.5t-29.5 61.5l141 33v-289zM247 695l110 -158
h-26l-223 158h139z" />
    <glyph glyph-name="uacute" unicode="&#xfa;" horiz-adv-x="528" 
d="M173 184q0 -36 5 -60t18.5 -39t36 -21.5t58.5 -6.5q15 0 30.5 1.5t31.5 3.5v254q0 33 -9 62.5t-29 61.5l140 33v-322q0 -35 8.5 -64.5t29.5 -62.5l-140 -33v62q-103 -60 -164 -60q-64 0 -91 37.5t-27 116.5v169q0 33 -9.5 62.5t-29.5 61.5l141 33v-289zM421 695
l-221 -158h-27l109 158h139z" />
    <glyph glyph-name="ucircumflex" unicode="&#xfb;" horiz-adv-x="528" 
d="M173 184q0 -36 5 -60t18.5 -39t36 -21.5t58.5 -6.5q15 0 30.5 1.5t31.5 3.5v254q0 33 -9 62.5t-29 61.5l140 33v-322q0 -35 8.5 -64.5t29.5 -62.5l-140 -33v62q-103 -60 -164 -60q-64 0 -91 37.5t-27 116.5v169q0 33 -9.5 62.5t-29.5 61.5l141 33v-289zM436 536h-26
l-146 67l-146 -67h-26l172 171z" />
    <glyph glyph-name="udieresis" unicode="&#xfc;" horiz-adv-x="528" 
d="M173 184q0 -36 5 -60t18.5 -39t36 -21.5t58.5 -6.5q15 0 30.5 1.5t31.5 3.5v254q0 33 -9 62.5t-29 61.5l140 33v-322q0 -35 8.5 -64.5t29.5 -62.5l-140 -33v62q-103 -60 -164 -60q-64 0 -91 37.5t-27 116.5v169q0 33 -9.5 62.5t-29.5 61.5l141 33v-289zM104 652
q0 26 15 41t41 15q52 0 52 -56q0 -24 -14.5 -37.5t-41.5 -13.5q-52 0 -52 51zM316 652q0 26 14.5 41t40.5 15q53 0 53 -56q0 -24 -15 -37.5t-42 -13.5q-51 0 -51 51z" />
    <glyph glyph-name="yacute" unicode="&#xfd;" horiz-adv-x="449" 
d="M183 463q-14 -20 -22 -33.5t-8 -24.5t8 -32l99 -270l82 266q7 22 7 36q0 11 -7 25t-19 33h145q-26 -27 -43 -56t-30 -62l-147 -391q-16 -43 -32.5 -73t-36 -49.5t-44 -28.5t-57.5 -9q-11 0 -26.5 2t-37.5 6v111l62 -50q10 -8 19.5 -12t16.5 -4q46 0 96 141l-153 368
q-8 18 -21 45t-48 62h197zM382 695l-221 -158h-27l109 158h139z" />
    <glyph glyph-name="thorn" unicode="&#xfe;" horiz-adv-x="536" 
d="M175 708v-297q45 32 81.5 46.5t62.5 14.5q37 0 69.5 -16t56.5 -45.5t38 -70t14 -90.5q0 -55 -17.5 -102.5t-46.5 -82t-68 -54t-81 -19.5q-59 0 -109 32v-86q0 -33 6 -67t31 -77h-175q23 40 30 74t7 70v598q0 38 -11.5 71t-34.5 68zM175 56q33 -14 64 -14q69 0 110 49.5
t41 137.5t-42.5 133.5t-123.5 45.5q-11 0 -23 -2t-26 -5v-345z" />
    <glyph glyph-name="ydieresis" unicode="&#xff;" horiz-adv-x="449" 
d="M183 463q-14 -20 -22 -33.5t-8 -24.5t8 -32l99 -270l82 266q7 22 7 36q0 11 -7 25t-19 33h145q-26 -27 -43 -56t-30 -62l-147 -391q-16 -43 -32.5 -73t-36 -49.5t-44 -28.5t-57.5 -9q-11 0 -26.5 2t-37.5 6v111l62 -50q10 -8 19.5 -12t16.5 -4q46 0 96 141l-153 368
q-8 18 -21 45t-48 62h197zM65 652q0 26 15 41t41 15q52 0 52 -56q0 -24 -14.5 -37.5t-41.5 -13.5q-52 0 -52 51zM277 652q0 26 14.5 41t40.5 15q53 0 53 -56q0 -24 -15 -37.5t-42 -13.5q-51 0 -51 51z" />
    <glyph glyph-name="dotlessi" unicode="&#x131;" horiz-adv-x="265" 
d="M186 144q0 -29 4.5 -63t32.5 -81h-175q27 47 31.5 81t4.5 63v172q0 63 -38 124l140 33v-329z" />
    <glyph glyph-name="Lslash" unicode="&#x141;" horiz-adv-x="444" 
d="M225 655q-27 -46 -31.5 -80.5t-4.5 -63.5v-88l75 68l32 -37l-107 -96v-316h92q19 0 33 5.5t28 16.5l106 80l-20 -144h-383q27 48 32 81t5 59v5v116l-49 -42l-32 36l81 72v185q0 29 -4.5 63.5t-32.5 79.5h180z" />
    <glyph glyph-name="lslash" unicode="&#x142;" horiz-adv-x="260" 
d="M179 460l50 44l31 -32l-81 -72v-256q0 -29 4.5 -63t32.5 -81h-175q27 47 32 81t5 63v166l-51 -45l-30 33l81 73v180q0 34 -10.5 63t-32.5 61l144 33v-248z" />
    <glyph glyph-name="OE" unicode="&#x152;" horiz-adv-x="849" 
d="M799 655v-135l-97 76q-14 11 -29 13.5t-35 2.5h-107v-258h98q31 0 59 21l65 47v-175l-70 50q-16 11 -31 13t-32 2h-89v-270h122q18 0 30 5.5t26 16.5l106 80l-19 -144h-377q-26 -5 -49.5 -8t-44.5 -3q-65 0 -118 22.5t-90 64.5t-57 103t-20 137q0 77 22 141t61.5 109.5
t93.5 71t117 25.5q23 0 45 -1.5t42 -6.5h378zM425 593q-22 11 -42.5 16.5t-40.5 5.5q-88 0 -135 -75t-47 -219q0 -67 13.5 -119.5t37.5 -89t57 -56t71 -19.5q37 0 86 23v533z" />
    <glyph glyph-name="oe" unicode="&#x153;" horiz-adv-x="825" 
d="M263 434q-49 0 -80.5 -50.5t-31.5 -145.5q0 -105 32.5 -160.5t86.5 -55.5q53 0 84.5 50t31.5 146q0 106 -33 161t-90 55zM442 393q67 75 162 75q87 0 137.5 -55.5t50.5 -156.5v-6h-301v-12q0 -186 187 -186q26 0 55.5 3t62.5 8q-80 -73 -191 -73q-100 0 -168 71
q-68 -77 -176 -77q-50 0 -91.5 17.5t-71 49.5t-45.5 76.5t-16 99.5q0 54 17 99t48.5 77t75 49.5t97.5 17.5q51 0 91.5 -19t75.5 -58zM678 299q0 66 -23.5 99.5t-63.5 33.5q-45 0 -72 -40.5t-28 -118.5z" />
    <glyph glyph-name="Scaron" unicode="&#x160;" horiz-adv-x="482" 
d="M417 520l-101 80q-14 11 -27 16.5t-29 5.5q-49 0 -80.5 -28.5t-31.5 -73.5q0 -40 24 -64.5t67 -52.5l97 -61q53 -34 79 -69.5t26 -93.5q0 -88 -58.5 -139t-169.5 -51q-42 0 -82.5 8t-84.5 22v134l110 -94q14 -12 26.5 -17.5t29.5 -5.5q62 0 95.5 28.5t33.5 75.5
q0 37 -19.5 60.5t-55.5 48.5l-107 72q-54 36 -79 73.5t-25 93.5q0 39 15 71.5t42 56t66 36.5t87 13q76 0 152 -19v-126zM96 889l145 -68l146 68h26l-172 -172l-172 172h27z" />
    <glyph glyph-name="scaron" unicode="&#x161;" horiz-adv-x="397" 
d="M343 341q-53 39 -85.5 62.5t-55.5 23.5q-26 0 -43.5 -17t-17.5 -40q0 -25 15.5 -41.5t45.5 -33.5l68 -36q47 -26 69.5 -54t22.5 -70q0 -66 -47 -107.5t-128 -41.5q-30 0 -66 6t-77 19v114q56 -45 91.5 -71t61.5 -26q29 0 48 19.5t19 47.5t-16 43.5t-46 32.5l-60 34
q-93 53 -93 125q0 63 45.5 101t123.5 38q56 0 125 -18v-110zM54 695l145 -68l146 68h26l-172 -172l-172 172h27z" />
    <glyph glyph-name="Ydieresis" unicode="&#x178;" horiz-adv-x="527" 
d="M175 655q-22 -33 -22 -47q0 -15 16 -41l123 -208l113 217q5 9 8 16.5t3 16.5q0 14 -23 46h159q-56 -52 -100 -123l-134 -216v-172v-6q0 -28 5 -60.5t31 -77.5h-179q27 47 31.5 81t4.5 63v151l-154 257q-17 27 -37.5 52.5t-49.5 50.5h205zM104 846q0 26 15 41t41 15
q52 0 52 -56q0 -24 -14.5 -37.5t-41.5 -13.5q-52 0 -52 51zM316 846q0 26 14.5 41t40.5 15q53 0 53 -56q0 -24 -15 -37.5t-42 -13.5q-51 0 -51 51z" />
    <glyph glyph-name="Zcaron" unicode="&#x17d;" horiz-adv-x="537" 
d="M512 655l-346 -610h189q17 0 33 7.5t34 20.5t40.5 31.5t50.5 39.5l-19 -144h-477l347 610h-155q-34 0 -67.5 -24t-83.5 -65v134h454zM124 889l145 -68l146 68h26l-172 -172l-172 172h27z" />
    <glyph glyph-name="zcaron" unicode="&#x17e;" horiz-adv-x="462" 
d="M432 463l-259 -420h114q13 0 23.5 2.5t20.5 10.5l94 74v-130h-397l259 420h-87q-22 0 -41 -13l-93 -67v123h366zM86 695l145 -68l146 68h26l-172 -172l-172 172h27z" />
    <glyph glyph-name="florin" unicode="&#x192;" horiz-adv-x="512" 
d="M483 599q-40 29 -65 45t-39 16q-46 0 -63.5 -47.5t-26.5 -147.5h125l-5 -44h-125l-47 -370q-8 -65 -24 -113.5t-42.5 -81t-65 -48.5t-92.5 -16q-22 0 -50 6l13 100q35 -27 56 -41.5t33 -14.5q39 0 54 39t23 112l49 428h-90l5 44h89q5 118 65 180t163 62q16 0 34 -1.5
t40 -5.5z" />
    <glyph glyph-name="circumflex" unicode="&#x2c6;" 
d="M422 536h-26l-146 67l-146 -67h-26l172 171z" />
    <glyph glyph-name="caron" unicode="&#x2c7;" 
d="M105 695l145 -68l146 68h26l-172 -172l-172 172h27z" />
    <glyph glyph-name="breve" unicode="&#x2d8;" 
d="M96 708q40 -27 78.5 -40t80.5 -13q40 0 78 13.5t77 39.5q-18 -61 -59.5 -94t-98.5 -33q-59 0 -100 33t-56 94z" />
    <glyph glyph-name="dotaccent" unicode="&#x2d9;" 
d="M191 652q0 29 16.5 45t44.5 16q27 0 42 -16t15 -45q0 -26 -15.5 -41t-45.5 -15q-57 0 -57 56z" />
    <glyph glyph-name="ring" unicode="&#x2da;" 
d="M250 744q24 0 45.5 -9t37.5 -25t25 -37t9 -45t-9 -45.5t-25 -37.5t-37.5 -25.5t-45.5 -9.5t-45.5 9t-37.5 25t-25 37.5t-9 46.5q0 24 9 45.5t25 37t37.5 24.5t45.5 9zM250 691q-26 0 -45 -19t-19 -45q0 -27 18.5 -45.5t45.5 -18.5t45 18.5t18 45.5q0 26 -18.5 45
t-44.5 19z" />
    <glyph glyph-name="ogonek" unicode="&#x2db;" 
d="M300 0q-16 -20 -22.5 -42t-6.5 -48q0 -58 51 -100q-66 2 -103.5 31t-37.5 70q0 34 25.5 57t75.5 32h18z" />
    <glyph glyph-name="tilde" unicode="&#x2dc;" 
d="M313 666q7 -2 13 -4.5t13 -2.5q23 0 74 49q-10 -50 -35 -77.5t-56 -27.5q-11 0 -23 2.5t-24 7.5l-89 35q-18 7 -23 7q-14 0 -32 -13.5t-44 -38.5q11 51 36.5 78t60.5 27q23 0 42 -8z" />
    <glyph glyph-name="hungarumlaut" unicode="&#x2dd;" 
d="M269 708l-140 -147h-20l72 147h88zM416 708l-140 -147h-19l70 147h89z" />
    <glyph glyph-name="endash" unicode="&#x2013;" 
d="M500 259v-68h-500v68h500z" />
    <glyph glyph-name="emdash" unicode="&#x2014;" horiz-adv-x="1000" 
d="M1000 259v-68h-1000v68h1000z" />
    <glyph glyph-name="quoteleft" unicode="&#x2018;" horiz-adv-x="215" 
d="M153 704q-18 -26 -27.5 -58.5t-11.5 -70.5q27 0 42 -14t15 -39q0 -60 -63 -60q-31 0 -47 21.5t-16 62.5q0 29 8.5 55t23 47t34 36t42.5 20z" />
    <glyph glyph-name="quoteright" unicode="&#x2019;" horiz-adv-x="215" 
d="M61 462q36 52 39 129q-56 0 -56 53q0 60 62 60q64 0 64 -83q0 -29 -8.5 -55.5t-23 -47.5t-34.5 -35.5t-43 -20.5z" />
    <glyph glyph-name="quotesinglbase" unicode="&#x201a;" horiz-adv-x="215" 
d="M59 -133q36 53 39 128q-27 0 -42 14t-15 39q0 60 62 60q31 0 48 -21t17 -63q0 -29 -8.5 -54.5t-23 -46.5t-34.5 -35.5t-43 -20.5z" />
    <glyph glyph-name="quotedblleft" unicode="&#x201c;" horiz-adv-x="398" 
d="M153 704q-37 -52 -40 -129q27 0 42 -13.5t15 -39.5q0 -60 -62 -60q-64 0 -64 83q0 29 8.5 55.5t23 48t34.5 36t43 19.5zM342 704q-37 -52 -40 -129q27 0 42 -13.5t15 -39.5q0 -60 -62 -60q-64 0 -64 83q0 29 8.5 55.5t23 48t34.5 36t43 19.5z" />
    <glyph glyph-name="quotedblright" unicode="&#x201d;" horiz-adv-x="398" 
d="M61 462q36 52 39 129q-56 0 -56 53q0 60 62 60q64 0 64 -83q0 -29 -8.5 -55.5t-23 -47.5t-34.5 -35.5t-43 -20.5zM250 462q36 52 39 129q-27 0 -42 14t-15 39q0 60 63 60q30 0 46.5 -21.5t16.5 -62.5q0 -28 -8 -54.5t-22.5 -47.5t-34.5 -36t-43 -20z" />
    <glyph glyph-name="quotedblbase" unicode="&#x201e;" horiz-adv-x="398" 
d="M61 -134q37 52 40 129q-27 0 -42 14t-15 39q0 60 62 60q64 0 64 -84q0 -29 -8.5 -55t-23 -47t-34.5 -35.5t-43 -20.5zM250 -134q18 26 27.5 58.5t11.5 70.5q-27 0 -42 13.5t-15 39.5q0 60 62 60q64 0 64 -83q0 -29 -8 -55.5t-22.5 -47.5t-34 -35.5t-43.5 -20.5z" />
    <glyph glyph-name="dagger" unicode="&#x2020;" horiz-adv-x="431" 
d="M272 655l-46 -212l166 37v-89l-167 37q6 -68 50 -112q-5 -320 -57 -525h-3q-57 249 -57 525q44 42 51 112l-168 -37v89l167 -37l-48 212h112z" />
    <glyph glyph-name="daggerdbl" unicode="&#x2021;" horiz-adv-x="431" 
d="M274 655l-47 -214l167 37v-89l-168 37q12 -79 51 -199q-15 -45 -28 -95t-23 -105l168 38v-90l-167 37l48 -214h-115l46 214l-167 -37v90l168 -38q-5 34 -17.5 84t-32.5 116q18 57 30 106.5t20 92.5l-168 -37v89l168 -37l-48 214h115z" />
    <glyph glyph-name="bullet" unicode="&#x2022;" horiz-adv-x="590" 
d="M150 372q0 30 11.5 56.5t31 46t46 30.5t56.5 11t56 -11t45.5 -30.5t31 -46t11.5 -56.5t-11.5 -56t-31 -46t-46 -31.5t-56.5 -11.5t-56 11.5t-45.5 31t-31 46t-11.5 56.5z" />
    <glyph glyph-name="ellipsis" unicode="&#x2026;" horiz-adv-x="1000" 
d="M119 50q0 64 63 64q60 0 60 -64q0 -58 -64 -58q-59 0 -59 58zM452 50q0 64 63 64q60 0 60 -64q0 -58 -64 -58q-59 0 -59 58zM786 50q0 64 63 64q60 0 60 -64q0 -58 -64 -58q-59 0 -59 58z" />
    <glyph glyph-name="perthousand" unicode="&#x2030;" horiz-adv-x="822" 
d="M152 662q59 0 96 -42t37 -111q0 -34 -10 -62t-27.5 -48.5t-42 -32t-54.5 -11.5q-28 0 -51.5 11.5t-41 31.5t-27 48t-9.5 61q0 34 10 62.5t27.5 49t41.5 32t51 11.5zM152 630q-26 0 -42.5 -31.5t-16.5 -91.5q0 -57 16.5 -88t40.5 -31q30 0 46.5 31.5t16.5 93.5
q0 55 -17.5 86t-43.5 31zM523 547l-496 -466l-19 22l494 464zM368 290q59 0 96 -41.5t37 -110.5q0 -33 -10 -61t-27.5 -48.5t-41.5 -31.5t-53 -11q-60 0 -95.5 41.5t-35.5 107.5q0 34 10 62.5t27.5 49t41.5 32t51 11.5zM680 290q59 0 95.5 -41.5t36.5 -110.5q0 -33 -10 -61
t-27 -48.5t-41 -31.5t-53 -11q-60 0 -95.5 41.5t-35.5 107.5q0 34 10 62.5t27.5 49t41.5 32t51 11.5zM368 256q-25 0 -41.5 -30.5t-16.5 -89.5q0 -57 16 -86.5t42 -29.5q28 0 44 31t16 91q0 54 -17 84t-43 30zM680 256q-25 0 -41.5 -30.5t-16.5 -89.5q0 -57 16 -86.5
t42 -29.5q28 0 44 31t16 91q0 54 -17 84t-43 30z" />
    <glyph glyph-name="guilsinglleft" unicode="&#x2039;" horiz-adv-x="223" 
d="M193 418l-89 -181l90 -173h-51l-109 173l106 181h53z" />
    <glyph glyph-name="guilsinglright" unicode="&#x203a;" horiz-adv-x="223" 
d="M84 418l106 -174l-109 -180h-51l90 180l-89 174h53z" />
    <glyph glyph-name="fraction" unicode="&#x2044;" horiz-adv-x="167" 
d="M341 548l-496 -466l-20 21l495 465z" />
    <glyph glyph-name="trademark" unicode="&#x2122;" horiz-adv-x="833" 
d="M339 673h-84v-224h-53v224h-84v39h221v-39zM544 524l69 188h73v-263h-48v217l-81 -217h-27l-85 217v-217h-48v263h73z" />
    <glyph glyph-name="minus" unicode="&#x2212;" horiz-adv-x="833" 
d="M709 264h-585v69h585v-69z" />
    <glyph glyph-name="fi" unicode="&#xfb01;" horiz-adv-x="550" 
d="M189 463h181q71 0 104 9v-338q0 -34 6.5 -65t28.5 -69h-175q26 45 32 80.5t6 70.5v203q0 40 -11.5 52t-49.5 12h-122v-289q0 -26 5 -56.5t33 -72.5h-178q29 47 33.5 81.5t4.5 62.5v274h-63v45h63v53q0 193 234 193q84 0 122 -11.5t38 -43.5q0 -23 -17 -39.5t-40 -16.5
q-21 0 -37.5 11t-34.5 27q-18 15 -35 23t-35 8q-51 0 -72 -36t-21 -110v-58z" />
    <glyph glyph-name="fl" unicode="&#xfb02;" horiz-adv-x="550" 
d="M478 144q0 -29 4.5 -63t32.5 -81h-175q27 47 32 80t5 59v5v481l-55 31q-18 10 -37 10q-51 0 -73.5 -33.5t-22.5 -101.5v-68h108l-1 -45h-107v-289q0 -26 5 -56.5t33 -72.5h-178q29 47 33.5 81.5t4.5 62.5v274h-63v45h63v58q0 96 61 141.5t186 45.5q47 0 96 -11l48 11
v-564z" />
  </font>
</defs>
</svg>
