<?xml version="1.0" standalone="no"?>
<!DOCTYPE svg PUBLIC "-//W3C//DTD SVG 1.1//EN" "http://www.w3.org/Graphics/SVG/1.1/DTD/svg11.dtd" >
<svg xmlns="http://www.w3.org/2000/svg" xmlns:xlink="http://www.w3.org/1999/xlink" version="1.1">
<metadata>
Created by FontForge 20161013 at Tue Jan 31 20:37:30 2017
 By ,,,
Copyright 1990-1992 as an unpublished work by Bitstream Inc.  All rights reserved.  Confidential.
</metadata>
<defs>
<font id="AmerigoBT-BoldItalicA" horiz-adv-x="500" >
  <font-face 
    font-family="Bitstream Amerigo"
    font-weight="700"
    font-style="italic"
    font-stretch="normal"
    units-per-em="1000"
    panose-1="0 0 0 0 0 0 0 0 0 0"
    ascent="750"
    descent="-250"
    x-height="463"
    cap-height="655"
    bbox="-181 -236 977 936"
    underline-thickness="76"
    underline-position="-179"
    slope="-10.5"
    unicode-range="U+000D-FB02"
  />
<missing-glyph horiz-adv-x="250" 
 />
    <glyph glyph-name=".notdef" horiz-adv-x="250" 
 />
    <glyph glyph-name=".null" horiz-adv-x="0" 
 />
    <glyph glyph-name=".null" horiz-adv-x="0" 
 />
    <glyph glyph-name="nonmarkingreturn" unicode="&#xd;" horiz-adv-x="250" 
 />
    <glyph glyph-name="space" unicode=" " horiz-adv-x="250" 
 />
    <glyph glyph-name="exclam" unicode="!" horiz-adv-x="250" 
d="M135 160h-59l28 390q2 30 5.5 51.5t11 35t21 19.5t36.5 6q68 0 68 -41q0 -9 -3 -22.5t-8 -33.5zM88 110q28 0 45 -16.5t17 -42.5q0 -28 -18.5 -44t-52.5 -16q-30 0 -46 14t-16 40q0 29 20 47t51 18z" />
    <glyph glyph-name="quotedbl" unicode="&#x22;" horiz-adv-x="314" 
d="M122 701v-272h-80v272h80zM273 701v-272h-80v272h80z" />
    <glyph glyph-name="numbersign" unicode="#" horiz-adv-x="769" 
d="M452 713l-75 -213h122l76 213h93l-75 -213h142l-29 -84h-143l-44 -123h151l-30 -84h-150l-76 -212h-93l76 212h-123l-77 -212h-93l76 212h-146l30 84h145l44 123h-154l30 84h154l76 213h93zM302 292h125l44 124h-125z" />
    <glyph glyph-name="dollar" unicode="$" 
d="M325 721l-13 -75q73 -2 146 -24l-21 -116q-100 89 -133 94l-35 -210l58 -46q39 -32 59 -68.5t20 -74.5t-15 -73t-41.5 -62.5t-63.5 -44t-81 -18.5l-13 -79h-39l13 76q-32 2 -69.5 8.5t-82.5 17.5l24 127q49 -50 82 -77t53 -31l40 239q-29 26 -51.5 48t-37.5 43t-23 43
t-8 49q0 75 48 123.5t133 56.5l13 74h38zM266 598q-36 -10 -56.5 -35.5t-20.5 -60.5q0 -22 12 -40.5t36 -38.5zM212 49q41 11 63.5 42t22.5 70q0 53 -52 92z" />
    <glyph glyph-name="percent" unicode="%" horiz-adv-x="551" 
d="M9 460q0 46 13.5 84t37.5 65t57.5 41.5t73.5 14.5q52 0 81 -30.5t29 -83.5q0 -38 -14 -76t-37 -67q-25 -31 -56 -43.5t-76 -12.5q-51 0 -80 28.5t-29 79.5zM176 634q-17 0 -32 -13.5t-26 -38.5t-17.5 -59.5t-6.5 -76.5q0 -60 40 -60q17 0 31.5 14t25.5 38.5t17.5 59
t6.5 76.5q0 60 -39 60zM494 581l-424 -529l-27 24l425 531zM236 90q0 46 13 83.5t37 64.5t57.5 41.5t73.5 14.5q52 0 81.5 -30t29.5 -83q0 -38 -14 -76.5t-37 -67.5q-25 -31 -56 -43.5t-76 -12.5q-51 0 -80 29t-29 80zM403 264q-17 0 -32 -13.5t-26 -38.5t-17.5 -59.5
t-6.5 -76.5q0 -60 40 -60q17 0 31.5 14t25.5 38.5t17 59t6 76.5q0 60 -38 60z" />
    <glyph glyph-name="ampersand" unicode="&#x26;" horiz-adv-x="634" 
d="M470 516q-28 23 -49 42t-38 32.5t-31 21.5t-28 8q-45 0 -74 -38.5t-29 -105.5q0 -31 7.5 -51.5t24 -32.5t42 -17t62.5 -5h303l-9 -51h-73l-10 -64q-10 -63 -25 -110t-55 -83q-45 -40 -102.5 -58t-132.5 -18q-114 0 -176 49t-62 133q0 81 54.5 128.5t160.5 56.5
q-131 17 -131 129q0 84 60.5 132t172.5 48q42 0 81.5 -5.5t77.5 -17.5zM325 319q-37 0 -68 -3.5t-59 -21.5q-27 -18 -43.5 -51t-16.5 -74q0 -60 37.5 -92.5t109.5 -32.5q48 0 78 6.5t44 14.5q7 5 9.5 14.5t5.5 25.5l38 214h-123h-12z" />
    <glyph glyph-name="quotesingle" unicode="'" horiz-adv-x="163" 
d="M122 701v-272h-80v272h80z" />
    <glyph glyph-name="parenleft" unicode="(" horiz-adv-x="259" 
d="M312 708q-46 -75 -82.5 -160t-61 -176t-37.5 -184t-13 -185q0 -104 32 -212q-66 55 -95 135t-29 192q0 107 28.5 214t82.5 200q35 61 77.5 104.5t97.5 71.5z" />
    <glyph glyph-name="parenright" unicode=")" horiz-adv-x="259" 
d="M83 708q65 -56 95 -135t30 -191q0 -106 -29 -214t-83 -201q-35 -61 -77 -104.5t-97 -71.5q46 75 82 160.5t61 176t37.5 183t12.5 182.5q0 107 -32 215z" />
    <glyph glyph-name="asterisk" unicode="*" horiz-adv-x="336" 
d="M269 709l-58 -151l107 124l34 -41l-140 -85l158 28l-11 -56l-147 26l109 -88l-38 -33l-72 120l-2 -151h-56l56 150l-109 -120l-36 38l142 84l-155 -28l8 58l148 -29l-107 95l43 36l66 -129v152h60z" />
    <glyph glyph-name="plus" unicode="+" horiz-adv-x="833" 
d="M458 596v-257h251v-81h-251v-258h-83v258h-251v81h251v257h83z" />
    <glyph glyph-name="comma" unicode="," horiz-adv-x="250" 
d="M-8 -120q59 65 71 120h-3q-44 0 -44 42q0 32 18 52t47 20q60 0 60 -60q0 -33 -11 -63.5t-31 -54.5t-47.5 -39t-59.5 -17z" />
    <glyph glyph-name="hyphen" unicode="-" horiz-adv-x="231" 
d="M214 292l-14 -81h-214l13 81h215z" />
    <glyph glyph-name="period" unicode="." horiz-adv-x="250" 
d="M87 115q59 0 59 -49q0 -74 -71 -74q-54 0 -54 53q0 32 18 51t48 19z" />
    <glyph glyph-name="slash" unicode="/" horiz-adv-x="227" 
d="M273 706l-304 -917h-64l307 917h61z" />
    <glyph glyph-name="zero" unicode="0" 
d="M303 667q79 0 123 -59t44 -169q0 -73 -16.5 -149.5t-48.5 -147.5q-35 -77 -92.5 -118.5t-126.5 -41.5q-76 0 -120 57.5t-44 163.5q0 94 21.5 180.5t59.5 151.5q37 64 89 98t111 34zM357 500q0 118 -69 118q-55 0 -88 -93q-29 -78 -46.5 -179.5t-17.5 -204.5
q0 -54 17.5 -82t49.5 -28q65 0 99 120q30 105 42.5 196.5t12.5 152.5z" />
    <glyph glyph-name="one" unicode="1" 
d="M282 108q-2 -9 -3.5 -18t-1.5 -18q0 -30 34 -72h-202q34 38 45.5 70t16.5 63l68 408l-152 -22q100 49 172 88t116 71z" />
    <glyph glyph-name="two" unicode="2" 
d="M95 93h178q33 0 62.5 16t63.5 49l-27 -158h-425l219 221q183 184 183 295q0 48 -25.5 75t-68.5 27q-30 0 -73 -35l-106 -89l29 151q125 18 164 18q103 0 156 -39t53 -110q0 -44 -20 -84t-56.5 -80t-89 -83.5t-117.5 -94.5z" />
    <glyph glyph-name="three" unicode="3" 
d="M267 334q80 -7 122.5 -44.5t42.5 -98.5q0 -43 -18 -80t-51 -64.5t-81 -43t-108 -15.5q-93 0 -192 34l26 143q28 -30 48.5 -54t38.5 -40.5t36 -25.5t41 -9q58 0 95.5 41.5t37.5 108.5q0 63 -34.5 94.5t-111.5 43.5q96 37 144 89.5t48 113.5q0 39 -26 65t-61 26
q-34 0 -71 -31l-112 -95l25 152q98 22 174 22q97 0 145.5 -36.5t48.5 -102.5q0 -127 -207 -193z" />
    <glyph glyph-name="four" unicode="4" 
d="M367 257h88l-20 -82h-80l-10 -72q-1 -7 -2 -15.5t-1 -18.5q0 -22 24 -69h-182q34 36 44 64t15 53l11 58h-288q112 146 206 260.5t173 200.5l93 31zM84 257h186l53 296z" />
    <glyph glyph-name="five" unicode="5" 
d="M495 657l-15 -92h-309l-27 -157q48 9 88 9q97 0 149 -47t52 -135q0 -54 -20 -99.5t-56 -78.5t-87 -51t-114 -18q-42 0 -86 9.5t-92 26.5l27 142q28 -30 48.5 -54t38 -41t35 -26t39.5 -9q30 0 56 14.5t45.5 40.5t30.5 62t11 78q0 64 -36 98.5t-103 34.5q-17 0 -39.5 -1.5
t-50.5 -6.5l53 301h362z" />
    <glyph glyph-name="six" unicode="6" 
d="M529 607q-50 11 -84 11q-50 0 -94.5 -17.5t-80.5 -51t-62 -82t-40 -110.5q62 22 103 22q82 0 129 -45.5t47 -123.5q0 -50 -16.5 -92t-46.5 -72t-71 -47t-90 -17q-95 0 -147 54.5t-52 157.5q0 51 9.5 102.5t26.5 98.5t41 89t54 75q96 106 225 106q46 0 84.5 -15t64.5 -43z
M159 316q-21 -79 -21 -159q0 -130 80 -130q48 0 77.5 48.5t29.5 137.5q0 111 -106 111q-22 0 -60 -8z" />
    <glyph glyph-name="seven" unicode="7" 
d="M537 655q-118 -192 -205.5 -354.5t-149.5 -300.5h-155l399 562h-198q-26 0 -60 -21t-80 -63l33 177h416z" />
    <glyph glyph-name="eight" unicode="8" 
d="M288 384q48 33 73 72t25 76q0 41 -27.5 66.5t-72.5 25.5q-48 0 -77 -27t-29 -70q0 -24 11 -47.5t29 -38.5zM313 366q118 -77 118 -182q0 -42 -17 -78.5t-47 -63.5t-72 -42.5t-93 -15.5q-100 0 -155.5 42t-55.5 111q0 60 49 105t149 87q-56 40 -83.5 77.5t-27.5 84.5
q0 37 14.5 68.5t42.5 55t68.5 37t91.5 13.5q82 0 130.5 -38t48.5 -97q0 -102 -161 -164zM209 309q-60 -42 -90 -87t-30 -89q0 -47 29.5 -76t79.5 -29q55 0 91.5 34.5t36.5 90.5q0 53 -52 99z" />
    <glyph glyph-name="nine" unicode="9" 
d="M335 330q8 45 13 83t5 70q0 139 -80 139q-23 0 -42.5 -13.5t-34 -37.5t-23 -58.5t-8.5 -76.5q0 -55 28.5 -85t79.5 -30q20 0 62 9zM-36 47q30 -4 52.5 -6t39.5 -2q106 0 171 61.5t99 191.5q-63 -25 -111 -25q-37 0 -67.5 13t-53 36t-35 54.5t-12.5 69.5q0 48 17 89.5
t48 72t73 48t93 17.5q43 0 78.5 -15t60.5 -43.5t39 -69t14 -91.5q0 -47 -8.5 -94.5t-23.5 -92t-36 -84.5t-47 -71q-48 -58 -107.5 -88t-127.5 -30q-85 0 -156 59z" />
    <glyph glyph-name="colon" unicode=":" horiz-adv-x="259" 
d="M143 461q59 0 59 -49q0 -74 -67 -74q-58 0 -58 53q0 32 18 51t48 19zM85 115q58 0 58 -49q0 -74 -70 -74q-54 0 -54 53q0 32 18 51t48 19z" />
    <glyph glyph-name="semicolon" unicode=";" horiz-adv-x="259" 
d="M143 461q59 0 59 -49q0 -74 -67 -74q-58 0 -58 53q0 32 18 51t48 19zM-11 -120q60 66 72 120h-3q-44 0 -44 42q0 32 18 52t47 20q60 0 60 -60q0 -33 -11.5 -63.5t-31.5 -54.5t-47.5 -39t-59.5 -17z" />
    <glyph glyph-name="less" unicode="&#x3c;" horiz-adv-x="833" 
d="M704 484l-456 -186l456 -186v-89l-575 236v78l575 237v-90z" />
    <glyph glyph-name="equal" unicode="=" horiz-adv-x="833" 
d="M709 440v-82h-585v82h585zM709 238v-81h-585v81h585z" />
    <glyph glyph-name="greater" unicode="&#x3e;" horiz-adv-x="833" 
d="M704 337v-78l-575 -236v89l456 186l-456 186v90z" />
    <glyph glyph-name="question" unicode="?" horiz-adv-x="417" 
d="M305 322q-22 -21 -41 -38.5t-34 -32.5t-24 -29t-11 -29l-4 -33h-59l3 38q3 32 23.5 63t47.5 70l65 95q36 53 36 105q0 41 -19 63.5t-50 22.5q-16 0 -33.5 -9.5t-39 -26t-48 -39.5t-61.5 -50l28 153q42 8 80.5 12.5t76.5 4.5q97 0 145.5 -35.5t48.5 -102.5q0 -72 -81 -153
zM144 110q28 0 45 -16.5t17 -42.5q0 -28 -18.5 -44t-52.5 -16q-30 0 -45.5 14t-15.5 40q0 29 19.5 47t50.5 18z" />
    <glyph glyph-name="at" unicode="@" horiz-adv-x="1000" 
d="M602 345q-7 42 -30 64t-60 22q-31 0 -58 -16.5t-47.5 -45.5t-32.5 -68t-12 -84q0 -49 22 -74.5t63 -25.5q43 0 79 31.5t49 85.5zM573 138q-27 -43 -62.5 -62.5t-85.5 -19.5q-75 0 -114 42t-39 122q0 59 18.5 108.5t50 86t73.5 57t88 20.5q84 0 121 -69l27 52h75l-72 -286
q-2 -8 -3 -13.5t-1 -10.5q0 -19 13 -30t34 -11q23 0 50.5 14t53.5 42q35 37 53.5 86t18.5 106q0 61 -23.5 112t-66.5 88t-104 57.5t-136 20.5q-135 0 -230 -61q-89 -56 -136.5 -142.5t-47.5 -192.5q0 -76 26.5 -138t75.5 -105.5t118.5 -67.5t154.5 -24q82 0 158.5 24
t141.5 69l33 -48q-147 -111 -329 -111q-189 0 -309 93q-150 114 -150 309q0 81 25.5 153.5t74.5 132.5q72 88 172 133t225 45q84 0 155.5 -22.5t122.5 -61.5q129 -99 129 -262q0 -80 -31.5 -147.5t-90.5 -115.5q-69 -55 -155 -55q-102 0 -102 81v2z" />
    <glyph glyph-name="A" unicode="A" horiz-adv-x="532" 
d="M457 114q3 -26 11.5 -53t43.5 -61h-192q16 20 22 37t6 36v8t-1 8l-16 163h-182l-86 -171q-5 -10 -7 -18t-2 -13q0 -17 21 -50h-151q37 32 53.5 59t26.5 45l298 543l93 27zM172 296h156l-26 256z" />
    <glyph glyph-name="B" unicode="B" horiz-adv-x="526" 
d="M324 655q86 0 130 -36t44 -105q0 -84 -53 -133.5t-151 -53.5q79 -2 123.5 -42t44.5 -103q0 -48 -26 -90.5t-73 -67.5q-31 -17 -69 -20.5t-86 -3.5h-227q31 27 44 56t19 65l75 442q1 6 1 10.5v7.5q0 14 -8 32t-22 42h234zM195 347h34q69 0 106.5 45t37.5 124
q0 48 -21.5 72.5t-62.5 24.5h-50zM144 41h74q24 0 46 11.5t38.5 32t26 49.5t9.5 64q0 51 -30.5 80.5t-84.5 29.5h-35z" />
    <glyph glyph-name="C" unicode="C" horiz-adv-x="530" 
d="M538 517l-108 84q-12 10 -24 15t-29 5q-44 0 -85 -27t-73 -78t-51 -123.5t-19 -163.5q0 -94 33.5 -142.5t94.5 -48.5q39 0 65 18l141 100l-46 -142q-94 -24 -163 -24q-58 0 -104.5 17.5t-78 49.5t-48.5 78.5t-17 103.5q0 180 97 303q48 61 113.5 92.5t144.5 31.5
q49 0 92.5 -7t81.5 -21z" />
    <glyph glyph-name="D" unicode="D" horiz-adv-x="611" 
d="M335 655q128 0 190 -59.5t62 -184.5q0 -95 -32.5 -177.5t-89.5 -139.5q-54 -54 -116.5 -74t-147.5 -20h-221q33 32 45.5 60.5t17.5 59.5l71 425q3 18 3 32q0 17 -8.5 36t-22.5 42h249zM141 43h74q112 0 174 92q15 23 29.5 55.5t25 71.5t17 81.5t6.5 84.5q0 88 -43.5 136
t-120.5 48h-65z" />
    <glyph glyph-name="E" unicode="E" horiz-adv-x="475" 
d="M488 655l-20 -124q-25 17 -43.5 32t-34 26t-29 17.5t-27.5 6.5h-90l-43 -261h67q29 0 58 17t70 44l-31 -172q-35 31 -58.5 49t-41.5 18h-71l-45 -265h79q24 0 46 8t45.5 22.5t49.5 35.5t58 47l-50 -156h-391q37 34 47.5 65t15.5 62l74 438q1 6 1.5 11t0.5 8q0 16 -8.5 32
t-22.5 39h394z" />
    <glyph glyph-name="F" unicode="F" horiz-adv-x="451" 
d="M484 655l-20 -124q-25 17 -43.5 32t-34 26t-29 17.5t-27.5 6.5h-85l-43 -261h62q29 0 58 17t70 44l-31 -172q-35 31 -58.5 49t-41.5 18h-67l-38 -216q-3 -13 -3 -23q0 -14 9.5 -30t23.5 -39h-202q37 34 48 65t16 62l74 438q1 6 1.5 11t0.5 8q0 16 -9 32t-23 39h392z" />
    <glyph glyph-name="G" unicode="G" horiz-adv-x="582" 
d="M567 517q-55 45 -91.5 72.5t-72.5 27.5q-54 0 -100 -25.5t-81 -76.5q-14 -20 -27 -50t-23.5 -66.5t-17 -79t-6.5 -86.5q0 -200 165 -200q12 0 25 1t27 3l21 147q1 7 1 11v5q0 14 -8 30t-21 39h201q-21 -19 -33 -36t-18.5 -32.5t-9.5 -30.5t-5 -29l-21 -126
q-113 -26 -194 -26q-124 0 -186.5 64t-62.5 192q0 94 27.5 171.5t77 133t118 86t151.5 30.5q95 0 185 -27z" />
    <glyph glyph-name="H" unicode="H" horiz-adv-x="618" 
d="M288 655q-34 -35 -43.5 -64t-14.5 -58l-28 -172h233l30 187q2 8 3 16t1 15q0 35 -29 76h194q-34 -31 -43.5 -59.5t-14.5 -59.5l-71 -425q-1 -3 -2.5 -12t-1.5 -23q0 -32 28 -76h-197q35 35 46 64.5t16 58.5l32 194h-232l-36 -209q-3 -15 -3 -31q0 -18 7.5 -36.5
t21.5 -40.5h-198q33 32 45 60.5t17 59.5l71 425q2 9 3 17t1 15q0 17 -8.5 36t-22.5 42h196z" />
    <glyph glyph-name="I" unicode="I" horiz-adv-x="269" 
d="M287 655q-35 -36 -44 -66t-14 -56l-72 -425q-3 -18 -3 -31q0 -18 8 -36.5t22 -40.5h-199q33 32 45 60.5t17 59.5l72 425q3 18 3 32q0 17 -8.5 36t-22.5 42h196z" />
    <glyph glyph-name="J" unicode="J" horiz-adv-x="280" 
d="M293 655q-34 -35 -43.5 -64.5t-14.5 -57.5l-78 -471q-11 -69 -24 -117.5t-41 -80.5q-61 -70 -179 -70q-45 0 -94 12l22 125q45 -40 68.5 -65t42.5 -25q34 0 51 43t32 134l88 527q3 18 3 32q0 21 -10 40t-21 38h198z" />
    <glyph glyph-name="K" unicode="K" horiz-adv-x="569" 
d="M293 655q-35 -36 -44 -66t-14 -56l-72 -425q-3 -18 -3 -31q0 -18 8 -36.5t22 -40.5h-199q33 32 45 60.5t17 59.5l72 425q3 18 3 32q0 17 -8.5 36t-22.5 42h196zM637 655q-28 -16 -53 -34.5t-48 -38.5l-221 -197l147 -297q15 -30 31.5 -52t41.5 -36h-158l-165 350l244 241
q5 5 8.5 9.5t3.5 11.5q0 16 -27 43h196z" />
    <glyph glyph-name="L" unicode="L" horiz-adv-x="433" 
d="M288 655q-35 -37 -44 -66.5t-14 -55.5l-81 -487h67q24 0 45.5 7.5t44 22t47.5 35.5t55 48l-42 -159h-382q37 34 47.5 65t15.5 62l74 438q1 6 1.5 11t0.5 8q0 16 -9 32t-23 39h197z" />
    <glyph glyph-name="M" unicode="M" horiz-adv-x="773" 
d="M241 655l115 -482l290 482h138q-24 -26 -37 -49.5t-18 -52.5l-72 -450q-2 -8 -2 -15v-15q0 -35 29 -73h-199q20 17 31 33.5t18 33t10 33.5t6 35l57 349l-291 -484h-35l-112 489l-65 -388q-2 -11 -3 -19.5t-1 -15.5q0 -19 33 -66h-142q25 30 39 57.5t20 62.5l75 450
q1 5 1 9.5v8.5q0 29 -34 67h149z" />
    <glyph glyph-name="N" unicode="N" horiz-adv-x="609" 
d="M219 655l235 -470l65 378q1 4 1 9v11q0 39 -32 72h146q-31 -27 -41 -54t-15 -57l-99 -552h-53l-257 514l-69 -401q-2 -14 -3.5 -23t-1.5 -14q0 -24 32 -68h-143q35 38 46 72t17 69l70 414q3 18 3 30q0 17 -8.5 34t-25.5 36h133z" />
    <glyph glyph-name="O" unicode="O" horiz-adv-x="595" 
d="M356 664q103 0 160.5 -63.5t57.5 -181.5q0 -66 -14.5 -129.5t-40.5 -114.5q-96 -190 -275 -190q-108 0 -166 64t-58 184q0 69 17.5 135.5t46.5 120.5q49 88 115.5 131.5t156.5 43.5zM455 439q0 182 -115 182q-102 0 -159 -168q-22 -66 -32 -129.5t-10 -116.5
q0 -88 31 -133.5t87 -45.5q93 0 150 148q23 60 35.5 128t12.5 135z" />
    <glyph glyph-name="P" unicode="P" horiz-adv-x="486" 
d="M332 655q89 0 134.5 -40t45.5 -117q0 -43 -15 -80.5t-41 -66t-61.5 -45t-77.5 -16.5q-56 0 -106 28q8 -2 14.5 -2h13.5q68 0 108 51t40 137q0 57 -22.5 86t-61.5 29h-62l-87 -511q-2 -8 -3 -15.5t-1 -15.5q0 -18 8 -36.5t22 -40.5h-199q33 32 45.5 60.5t17.5 59.5l71 425
q3 18 3 32q0 17 -8.5 36t-22.5 42h245z" />
    <glyph glyph-name="Q" unicode="Q" horiz-adv-x="595" 
d="M457 441q0 90 -30 135t-87 45q-102 0 -159 -168q-22 -65 -32 -128t-10 -114q0 -180 119 -180q94 0 151 147q23 60 35.5 128t12.5 135zM345 6q43 -25 78 -46.5t64 -37t53.5 -24.5t46.5 -9q8 0 22.5 1.5t35.5 3.5q-82 -99 -146 -99q-48 0 -116.5 50.5t-174.5 143.5
q-88 8 -137.5 71.5t-49.5 173.5q0 70 17 136t46 119q96 175 274 175q103 0 160.5 -63t57.5 -180q0 -77 -16.5 -144t-46.5 -120.5t-72.5 -92t-95.5 -58.5z" />
    <glyph glyph-name="R" unicode="R" horiz-adv-x="544" 
d="M316 655q101 0 149 -33.5t48 -110.5q0 -37 -13.5 -69.5t-38.5 -57.5t-60 -40.5t-79 -18.5l111 -230q12 -25 29.5 -48.5t40.5 -46.5h-155l-153 332l-39 -235q-2 -8 -2 -14.5v-12.5q0 -31 30 -70h-195q32 34 43.5 64.5t16.5 60.5l71 420q3 20 3 36q0 20 -7 37t-22 37h222z
M198 348h56q29 0 54 13t43 35t28.5 51.5t10.5 63.5q0 101 -87 101h-61z" />
    <glyph glyph-name="S" unicode="S" horiz-adv-x="463" 
d="M431 516q-53 48 -88 74t-67 26q-21 0 -39.5 -8t-33 -22.5t-23 -33.5t-8.5 -41q0 -27 18.5 -50t52.5 -52q33 -28 61 -52.5t49 -48.5t33 -50.5t12 -59.5q0 -42 -16.5 -79.5t-47 -66t-74 -45.5t-97.5 -17q-67 0 -173 26l26 132q53 -53 87.5 -82.5t67.5 -29.5q24 0 45 9.5
t36.5 26t24.5 39t9 49.5q0 22 -9.5 40t-26 36t-38.5 37.5t-48 43.5q-22 20 -39 37.5t-28.5 35.5t-17.5 38.5t-6 46.5q0 85 56.5 136t158.5 51q78 0 165 -25z" />
    <glyph glyph-name="T" unicode="T" horiz-adv-x="505" 
d="M567 655l-25 -139q-47 48 -78.5 72.5t-52.5 24.5h-53l-82 -502l-3.5 -24.5t-1.5 -17.5q0 -30 30 -69h-199q33 29 43.5 59t16.5 65l83 489h-53q-20 0 -61 -24.5t-105 -72.5l25 139h516z" />
    <glyph glyph-name="U" unicode="U" horiz-adv-x="595" 
d="M279 655q-29 -22 -41.5 -47t-17.5 -58l-59 -355q-2 -15 -3.5 -27.5t-1.5 -22.5q0 -109 130 -109q71 0 104 35.5t46 114.5l63 370q3 18 3 33q0 17 -6.5 32.5t-19.5 33.5h153q-23 -29 -37.5 -55.5t-19.5 -58.5l-53 -310q-5 -31 -10 -57.5t-12.5 -49.5t-20.5 -43.5
t-35 -39.5q-30 -26 -76 -40t-106 -14q-106 0 -162.5 43.5t-56.5 118.5q0 16 1.5 34.5t5.5 38.5l60 336q3 15 3 28q0 17 -7 33t-21 36h197z" />
    <glyph glyph-name="V" unicode="V" horiz-adv-x="523" 
d="M216 655q-14 -20 -22 -35.5t-8 -28.5q0 -14 3 -40l44 -447l239 474q9 18 9 30q0 16 -23 47h152q-34 -28 -49 -50t-23 -37l-303 -552l-91 -29l-68 570l-1.5 12t-0.5 6q0 12 -12.5 33t-38.5 47h193z" />
    <glyph glyph-name="W" unicode="W" horiz-adv-x="845" 
d="M228 655q-15 -20 -24 -33t-9 -30q0 -6 0.5 -14.5t1.5 -20.5l29 -434l273 532h29l45 -549l210 474q10 21 10 34q0 18 -28 41h153q-29 -14 -40.5 -34t-22.5 -42l-274 -560l-100 -31l-38 437l-209 -406l-103 -32l-43 559q-2 30 -12 55t-42 54h194z" />
    <glyph glyph-name="X" unicode="X" horiz-adv-x="586" 
d="M282 655q-24 -25 -24 -46q0 -11 6 -25l70 -165l134 176q8 11 8 22q0 12 -23 38h184q-50 -21 -106 -85l-176 -201l114 -269q10 -23 24 -48.5t43 -51.5h-201q27 36 27 48q0 7 -2 13t-5 14l-86 205l-169 -214q-5 -7 -7.5 -14t-2.5 -10q0 -14 25 -42h-176q24 17 45 35.5
t40 39.5l224 254l-99 247q-11 26 -23 45.5t-37 33.5h193z" />
    <glyph glyph-name="Y" unicode="Y" horiz-adv-x="507" 
d="M207 655q-24 -30 -24 -43q0 -10 6 -28l86 -265l179 276q6 9 6 18q0 17 -24 42h175q-26 -20 -51 -40t-48 -51l-216 -298l-27 -169q-3 -13 -3 -30q0 -27 28 -67h-201q50 55 58 103l27 162l-103 307q-13 40 -58 83h190z" />
    <glyph glyph-name="Z" unicode="Z" horiz-adv-x="505" 
d="M543 655l-415 -611h138q30 0 74 26.5t110 74.5l-43 -145h-439l419 611h-135q-27 0 -69 -23.5t-103 -66.5l22 134h441z" />
    <glyph glyph-name="bracketleft" unicode="[" horiz-adv-x="259" 
d="M298 711q-66 -58 -76 -76q-5 -9 -7.5 -20t-4.5 -24l-113 -649q-3 -20 -5 -32t-2 -18q0 -38 48 -101h-153l156 920h157z" />
    <glyph glyph-name="backslash" unicode="\" horiz-adv-x="227" 
d="M48 706h61l79 -917h-65z" />
    <glyph glyph-name="bracketright" unicode="]" horiz-adv-x="259" 
d="M252 710l-156 -919h-157q68 60 77 76q5 9 7 20t4 24l113 649q4 20 5.5 32.5t1.5 17.5q0 37 -48 100h153z" />
    <glyph glyph-name="asciicircum" unicode="^" horiz-adv-x="1000" 
d="M553 713l242 -274h-101l-194 194l-195 -194h-101l243 274h106z" />
    <glyph glyph-name="underscore" unicode="_" 
d="M500 -152v-84h-500v84h500z" />
    <glyph glyph-name="grave" unicode="`" 
d="M324 668l31 -139h-23l-135 139h127z" />
    <glyph glyph-name="a" unicode="a" horiz-adv-x="479" 
d="M441 464l-66 -367q-3 -13 -3 -19t4.5 -7.5t15.5 -1.5h34q-39 -38 -71 -57.5t-61 -19.5q-20 0 -31.5 10.5t-11.5 24.5q0 8 1 17.5t3 20.5l7 37q-48 -54 -85 -82t-73 -28q-44 0 -69.5 35t-25.5 101q0 72 20.5 137t57.5 113q67 89 163 89q52 0 92 -33zM319 400
q-22 10 -41 10q-49 0 -83 -38q-14 -16 -26.5 -39.5t-22.5 -53t-15.5 -62.5t-5.5 -67q0 -75 46 -75q32 0 94 40z" />
    <glyph glyph-name="b" unicode="b" horiz-adv-x="484" 
d="M186 358q47 54 86 82t81 28q94 0 94 -147q0 -66 -20.5 -129t-52.5 -107q-70 -94 -162 -94q-31 0 -57 7t-52 25l-94 -27l102 569q4 19 4 27q0 20 -9 37.5t-23 40.5l163 37zM131 59q14 -5 27 -7.5t25 -2.5q33 0 58 17.5t45 53.5q11 19 19.5 42.5t15 49t10 51t3.5 48.5
q0 75 -56 75q-19 0 -41.5 -10.5t-52.5 -29.5z" />
    <glyph glyph-name="c" unicode="c" horiz-adv-x="398" 
d="M377 341l-98 72q-10 7 -17.5 11t-18.5 4q-17 0 -36.5 -19.5t-36.5 -53.5t-28 -81t-11 -102q0 -54 17.5 -79t59.5 -25q23 0 62 13t90 42q-49 -68 -106 -102t-111 -34q-63 0 -97 41.5t-34 122.5q0 59 19.5 118.5t57.5 113.5q34 48 81 68.5t115 20.5q29 0 57 -3.5t56 -10.5z
" />
    <glyph glyph-name="d" unicode="d" horiz-adv-x="484" 
d="M491 708l-110 -607q-3 -13 -3 -19q0 -13 17 -13h37q-73 -78 -127 -78q-45 0 -45 43q0 7 0.5 11.5t1.5 8.5l10 47q-51 -54 -89 -82t-73 -28q-48 0 -74.5 35.5t-26.5 103.5q0 67 19 129.5t51 110.5q34 50 77 75t92 25q22 0 42.5 -6.5t42.5 -18.5l23 128q1 5 2 12t1 16
q0 10 -2.5 18t-6.5 15l-22 40l155 34h8zM325 405q-21 9 -41 9q-31 0 -54.5 -14.5t-43.5 -43.5q-27 -40 -44.5 -97t-17.5 -111q0 -35 14.5 -53.5t40.5 -18.5q16 0 39 9.5t56 26.5z" />
    <glyph glyph-name="e" unicode="e" horiz-adv-x="403" 
d="M137 271q69 10 100.5 35t31.5 83q0 45 -35 45q-29 0 -55 -41t-42 -122zM134 244q-3 -20 -5 -36.5t-2 -29.5q0 -54 17.5 -79.5t55.5 -25.5q28 0 68 12.5t90 39.5q-52 -68 -109.5 -101t-108.5 -33q-63 0 -97 41t-34 120q0 69 18.5 127t52.5 100t80.5 65.5t102.5 23.5
q57 0 89 -26.5t32 -68.5q0 -66 -55 -97.5t-167 -31.5h-28z" />
    <glyph glyph-name="f" unicode="f" horiz-adv-x="289" 
d="M428 583l-80 62q-10 8 -19.5 14t-24.5 6q-38 0 -56 -49.5t-33 -152.5h110l-5 -42h-112l-55 -331q-12 -74 -28 -129.5t-40.5 -92.5t-60 -55.5t-87.5 -18.5q-45 0 -91 21l20 105l63 -67q8 -9 14.5 -13t14.5 -4q16 0 27 11t19 34t15 58.5t15 84.5l66 397h-63l8 42h64
q5 67 18 113t38.5 75t65 42t97.5 13q60 0 121 -15z" />
    <glyph glyph-name="g" unicode="g" horiz-adv-x="509" 
d="M505 379l-142 50q49 -40 49 -104q0 -34 -14 -63t-39.5 -50t-62 -33t-82.5 -12q-10 0 -28 3q-23 -26 -23 -42q0 -14 8 -18.5t26 -8.5l165 -37q44 -10 65 -25.5t21 -56.5q0 -35 -20 -68.5t-56.5 -59.5t-88 -42t-113.5 -16q-53 0 -95.5 9.5t-72 24.5t-45 34t-15.5 37
q0 34 40.5 59.5t121.5 61.5q-25 9 -38 24.5t-13 33.5q0 14 7.5 24.5t23 20.5t38.5 20.5t54 25.5q-65 10 -99 46t-34 93q0 35 14 64.5t40 51.5t62 34t79 12q70 0 115 -30l172 31zM239 438q-39 0 -61.5 -35.5t-22.5 -102.5q0 -48 17.5 -72.5t48.5 -24.5q38 0 61.5 34t23.5 94
q0 107 -67 107zM113 19q-36 -33 -56 -56.5t-20 -47.5q0 -32 35.5 -52t100.5 -20q38 0 68.5 8.5t51.5 22t32.5 30.5t11.5 34t-14 26.5t-43 16.5z" />
    <glyph glyph-name="h" unicode="h" horiz-adv-x="498" 
d="M184 362q62 56 109.5 84.5t85.5 28.5q29 0 45 -17t16 -46q0 -17 -7 -53l-51 -261q-2 -10 -2 -15q0 -9 5.5 -10.5t18.5 -1.5h31q-35 -40 -67.5 -59.5t-60.5 -19.5q-22 0 -34 11.5t-12 28.5q0 11 1.5 20.5t3.5 17.5l48 264q3 20 3 33q0 20 -26 20q-31 0 -109 -37l-61 -350
h-111l102 566q1 6 2 11.5t1 13.5q0 40 -33 83l167 34z" />
    <glyph glyph-name="i" unicode="i" horiz-adv-x="252" 
d="M123 630q0 28 18.5 44.5t52.5 16.5q56 0 56 -50q0 -59 -69 -59q-58 0 -58 48zM138 100q-3 -13 -3 -19q0 -15 20 -15h33q-30 -37 -62.5 -55t-64.5 -18q-44 0 -44 38q0 4 1 11t3 17l49 257q2 9 4 19t2 22q0 14 -8.5 31t-21.5 41l167 37z" />
    <glyph glyph-name="j" unicode="j" horiz-adv-x="262" 
d="M132 630q0 28 18.5 44.5t52.5 16.5q57 0 57 -50q0 -59 -69 -59q-59 0 -59 48zM143 43q-11 -65 -27.5 -112t-41 -77.5t-58.5 -45.5t-80 -15q-52 0 -95 18l20 110l75 -76q5 -5 9.5 -8.5t12.5 -3.5q28 0 41.5 41.5t27.5 126.5l53 315q3 16 4 26.5t1 15.5q0 16 -11 36l-19 35
l163 37z" />
    <glyph glyph-name="k" unicode="k" horiz-adv-x="456" 
d="M119 0h-108l104 577q1 5 2 10.5t1 10.5q0 10 -2.5 18.5t-5.5 14.5l-20 38l158 38zM271 284l82 -190q8 -17 12.5 -21.5t22.5 -4.5h28q-35 -35 -62 -54.5t-55 -19.5q-17 0 -27.5 10t-18.5 32l-79 215v6l53 39q43 32 65 55t22 46q0 6 -1.5 11.5t-3.5 8.5l-14 28
q50 21 101 21q45 0 45 -37q0 -27 -23.5 -47t-69.5 -49z" />
    <glyph glyph-name="l" unicode="l" horiz-adv-x="252" 
d="M140 100q-3 -16 -3 -19q0 -15 20 -15h33q-30 -37 -62.5 -55t-64.5 -18q-44 0 -44 38q0 4 1 10.5t3 17.5l89 499q2 8 4 18t2 23q0 9 -3.5 18.5t-8.5 18.5l-23 36l168 36z" />
    <glyph glyph-name="m" unicode="m" horiz-adv-x="741" 
d="M189 362q62 56 109 84.5t85 28.5q29 0 45 -16t16 -44q0 -15 -6 -53q116 113 190 113q29 0 45.5 -17t16.5 -46q0 -17 -7 -53l-52 -261q-2 -10 -2 -15q0 -9 5.5 -10.5t18.5 -1.5h31q-35 -40 -67.5 -59.5t-60.5 -19.5q-22 0 -33.5 11.5t-11.5 28.5q0 11 1 20.5t3 17.5
l48 264q2 10 3 18.5t1 14.5q0 20 -26 20q-15 0 -43 -9t-64 -31l-62 -347h-116l62 334q3 20 3 33q0 20 -26 20q-30 0 -108 -37l-62 -350h-110l57 329q1 6 2.5 12.5t1.5 14.5q0 23 -13 44l-18 30l165 41z" />
    <glyph glyph-name="n" unicode="n" horiz-adv-x="498" 
d="M189 362q62 56 109 84.5t85 28.5q29 0 45 -17t16 -46q0 -17 -7 -53l-51 -261q-2 -10 -2 -15q0 -9 5.5 -10.5t18.5 -1.5h31q-35 -40 -67.5 -59.5t-60.5 -19.5q-22 0 -33.5 11.5t-11.5 28.5q0 11 1 20.5t3 17.5l48 264q3 20 3 33q0 20 -26 20q-30 0 -108 -37l-62 -350h-110
l57 329q1 6 2.5 12.5t1.5 14.5q0 23 -13 44l-18 30l165 41z" />
    <glyph glyph-name="o" unicode="o" horiz-adv-x="479" 
d="M271 475q84 0 127.5 -44t43.5 -125q0 -52 -13 -102t-36 -88q-41 -69 -92 -100t-129 -31q-77 0 -119.5 46.5t-42.5 127.5q0 51 11.5 96.5t29.5 78.5q40 72 93.5 106.5t126.5 34.5zM323 342q0 48 -17 73t-46 25q-25 0 -47.5 -21t-39.5 -63q-23 -56 -35 -114.5t-12 -116.5
q0 -51 16.5 -77.5t45.5 -26.5q54 0 88 84q23 55 35 115.5t12 121.5z" />
    <glyph glyph-name="p" unicode="p" horiz-adv-x="484" 
d="M183 360q48 52 85.5 80t80.5 28q94 0 94 -147q0 -66 -20.5 -129t-52.5 -107q-35 -48 -76.5 -71t-86.5 -23t-87 24l-24 -134q-1 -6 -1.5 -12.5t-0.5 -13.5q0 -17 29 -61h-193q27 32 41.5 57t20.5 60l72 417q3 14 3 32t-8 34l-21 36l163 39zM126 59q14 -5 27 -7.5t25 -2.5
q33 0 58 17.5t45 53.5q11 19 19.5 42.5t15.5 49t10.5 51t3.5 48.5q0 75 -56 75q-19 0 -41.5 -10.5t-52.5 -29.5z" />
    <glyph glyph-name="q" unicode="q" horiz-adv-x="479" 
d="M352 -88q-6 -38 -6 -46q0 -7 1 -10q2 -12 8.5 -27.5t17.5 -34.5h-194q23 26 37 50t19 53l38 201q-48 -52 -86 -79.5t-77 -27.5q-48 0 -73.5 35.5t-25.5 104.5q0 72 22 137t65 119q33 42 70 62.5t85 20.5q55 0 102 -34l95 31zM330 401q-22 8 -44 8q-59 0 -92 -45
q-28 -36 -46.5 -94.5t-18.5 -118.5q0 -78 49 -78q17 0 41 10t56 29z" />
    <glyph glyph-name="r" unicode="r" horiz-adv-x="347" 
d="M186 339q45 63 75.5 95.5t64.5 32.5q20 0 35 -12l-20 -119q-34 24 -73 24q-19 0 -39.5 -8.5t-45.5 -23.5l-60 -328h-111l60 328q3 18 3 22q0 20 -8 38.5t-24 39.5l166 40z" />
    <glyph glyph-name="s" unicode="s" horiz-adv-x="359" 
d="M319 341q-46 38 -71.5 62t-51.5 24q-24 0 -39 -16.5t-15 -44.5q0 -32 26 -55l78 -66q26 -22 38 -45t12 -57q0 -69 -46.5 -111t-126.5 -42q-72 0 -136 23l21 110q45 -41 71.5 -65.5t52.5 -24.5q27 0 45.5 19.5t18.5 48.5q0 20 -10.5 35.5t-31.5 34.5l-67 60
q-24 22 -35.5 44t-11.5 50q0 65 49.5 105t138.5 40q69 0 113 -16z" />
    <glyph glyph-name="t" unicode="t" horiz-adv-x="319" 
d="M247 579l-24 -116h114l-7 -42h-114l-54 -287q-4 -21 -4 -37q0 -9 7.5 -15t21.5 -6t41 8t65 27q-48 -61 -98.5 -90.5t-86.5 -29.5q-31 0 -51.5 17.5t-20.5 40.5q0 9 1 21.5t4 26.5l63 324h-59l9 42h58l25 116h110z" />
    <glyph glyph-name="u" unicode="u" horiz-adv-x="498" 
d="M148 134q-2 -8 -3.5 -16.5t-1.5 -19.5q0 -9 7.5 -16t21.5 -7q15 0 41.5 10t64.5 32l57 323l116 28l-65 -372q-1 -5 -2 -9.5t-1 -6.5q0 -8 5.5 -10t17.5 -2h30q-37 -37 -67.5 -56.5t-60.5 -19.5q-44 0 -44 41q0 6 1 13.5t3 15.5l8 42q-111 -112 -191 -112
q-30 0 -46.5 15.5t-16.5 43.5q0 11 2.5 22t4.5 24l43 230q2 8 3 14.5t1 12.5q0 17 -8 34t-22 39l165 41z" />
    <glyph glyph-name="v" unicode="v" horiz-adv-x="407" 
d="M188 117l99 205q6 12 8.5 24t2.5 19q0 19 -31 79q20 11 44.5 18.5t50.5 7.5q21 0 34 -11t13 -27q0 -19 -9 -36.5t-23 -39.5l-225 -366h-48l-48 345q-3 20 -9 31.5t-14 22.5l-27 38l146 45z" />
    <glyph glyph-name="w" unicode="w" horiz-adv-x="653" 
d="M198 152l145 311h48l41 -332l87 189q7 15 10 27t3 19q0 5 -1 10t-3 10l-29 59q34 14 58 20.5t35 6.5q24 0 37 -12t13 -32q0 -8 -4.5 -22t-14.5 -31l-229 -386h-46l-38 306l-137 -306h-55l-47 340q-3 22 -9 37t-12 23l-32 38l149 45z" />
    <glyph glyph-name="x" unicode="x" horiz-adv-x="444" 
d="M255 294l26 35q13 17 18.5 30.5t5.5 18.5q0 13 -4 20l-26 47q68 25 100 25q22 0 34.5 -11t12.5 -29q0 -20 -17.5 -42t-51.5 -51l-87 -75l64 -164q6 -16 11 -22.5t19 -6.5h35q-62 -77 -107 -77q-33 0 -54 53l-56 147l-29 -28q-24 -24 -35.5 -47.5t-11.5 -34.5
q0 -14 16 -41l13 -22q-27 -14 -51.5 -20t-45.5 -6q-46 0 -46 41q0 29 31 62t88 82l58 50l-44 117q-5 12 -13.5 24.5t-18.5 21.5l-38 32l136 52z" />
    <glyph glyph-name="y" unicode="y" horiz-adv-x="407" 
d="M194 123l95 204q8 16 8 34q0 11 -2.5 20.5t-5.5 14.5l-29 50q62 22 95 22q23 0 37 -11t14 -26q0 -18 -9 -35.5t-22 -39.5l-272 -473q-49 -87 -121 -87q-38 0 -77 15l21 122l54 -51q14 -14 31 -14q12 0 24.5 8.5t21.5 24.5l56 100l-56 332q-4 22 -8.5 37t-12.5 23l-36 35
l151 40z" />
    <glyph glyph-name="z" unicode="z" horiz-adv-x="428" 
d="M420 463l-324 -385q12 3 24 5t23 2l109 2q20 0 34.5 2.5t28.5 12.5l63 45q-14 -57 -28 -89.5t-22 -40.5q-13 -14 -34.5 -16.5t-55.5 -2.5q-13 0 -28.5 0.5t-35.5 1.5l-84 2l-52.5 1.5t-18.5 0.5q-13 0 -26.5 -1.5t-27.5 -3.5l319 377h-127q-16 0 -27 -2.5t-19 -10.5
l-62 -59l27 159h344z" />
    <glyph glyph-name="braceleft" unicode="{" 
d="M427 634q-6 0 -12 0.5t-11 0.5q-29 0 -47 -5.5t-27.5 -17.5t-13 -32t-3.5 -50v-118q0 -34 -4 -59.5t-15 -43.5t-30 -30t-50 -20q31 -7 50 -19.5t30 -31t15 -43.5t4 -59v-117q0 -30 3.5 -50t13.5 -32.5t28 -18t47 -5.5q5 0 10.5 0.5t11.5 0.5v-86h-31q-44 0 -76.5 5
t-56.5 19q-33 20 -41.5 55t-8.5 91v121q0 69 -25 98.5t-88 29.5q-5 0 -10.5 -0.5t-10.5 -0.5v87q5 0 10.5 -0.5t10.5 -0.5q63 0 88 29t25 98v121q0 56 8 91.5t42 55.5q26 15 60 19.5t82 4.5h22v-87z" />
    <glyph glyph-name="bar" unicode="|" 
d="M294 764v-1000h-87v1000h87z" />
    <glyph glyph-name="braceright" unicode="}" 
d="M96 721q47 0 81 -4.5t60 -19.5q34 -20 42 -56t8 -91v-121q0 -69 25 -98t88 -29q5 0 10.5 0.5t10.5 0.5v-87q-5 0 -10.5 0.5t-10.5 0.5q-63 0 -88 -29.5t-25 -98.5v-121q0 -55 -8 -90.5t-42 -55.5q-25 -15 -59.5 -19.5t-81.5 -4.5h-22v86q6 0 11.5 -0.5t10.5 -0.5
q29 0 47 5.5t28 18t13 32.5t3 50v117q0 34 4 59t15 43.5t30.5 31t50.5 19.5q-31 8 -50.5 20t-30.5 30.5t-15 43.5t-4 59v118q0 30 -3.5 50t-13 32t-27 17.5t-46.5 5.5q-5 0 -11 -0.5t-12 -0.5v87h22z" />
    <glyph glyph-name="asciitilde" unicode="~" horiz-adv-x="833" 
d="M747 293q-49 -34 -95 -51.5t-91 -17.5q-44 0 -93 17q-52 17 -98.5 32.5t-94.5 15.5q-44 0 -89 -19.5t-99 -57.5v91q103 70 189 70q43 0 77.5 -9t65.5 -20q37 -13 71.5 -24.5t71.5 -11.5q44 0 89 19t96 56v-90z" />
    <glyph glyph-name="exclamdown" unicode="&#xa1;" horiz-adv-x="250" 
d="M182 664q29 0 45.5 -14t16.5 -38q0 -31 -20 -49t-51 -18q-28 0 -45 16.5t-17 41.5q0 28 18.5 44.5t52.5 16.5zM185 495l-28 -390q-2 -30 -5 -51t-10.5 -34.5t-21.5 -20t-37 -6.5q-35 0 -51 9.5t-16 31.5q0 10 2.5 24t7.5 32l100 405h59z" />
    <glyph glyph-name="cent" unicode="&#xa2;" 
d="M299 539l-12 -69q42 -3 73 -7t51 -9l-21 -114l-96 70q-2 1 -5.5 3.5t-9.5 7.5l-58 -349q31 3 67.5 16t78.5 37q-66 -93 -158 -125l-13 -76h-32l12 68h-14q-67 0 -102 40.5t-35 119.5q0 72 27.5 140.5t75.5 116.5q26 26 56.5 40t71.5 19l11 71h32zM248 426q-20 -6 -39 -28
t-34 -56.5t-24 -79.5t-9 -98q0 -37 11 -58.5t37 -30.5z" />
    <glyph glyph-name="sterling" unicode="&#xa3;" 
d="M494 519q-54 43 -87 69.5t-65 26.5q-45 0 -68.5 -27.5t-33.5 -85.5l-23 -139h160l-8 -44h-161l-13 -85q-4 -26 -10.5 -47.5t-19 -39.5t-31.5 -34.5t-49 -33.5q21 8 40 12t37 4q9 0 17.5 -1t16.5 -2l100 -10q23 -3 38 -3q31 0 58.5 16t63.5 43q-15 -41 -27.5 -71
t-26.5 -49t-30.5 -28t-39.5 -9q-3 0 -13.5 1.5t-28.5 3.5l-203 27q-15 2 -26 3t-18 1q-13 0 -25 -1t-23 -5l33 80q17 2 26.5 18t15.5 51l27 159h-66l9 44h65l16 106q15 101 68.5 147.5t157.5 46.5q85 0 166 -24z" />
    <glyph glyph-name="currency" unicode="&#xa4;" horiz-adv-x="606" 
d="M181 599q53 40 122 40q70 0 123 -40l99 99l46 -45l-100 -100q39 -52 39 -121q0 -68 -39 -121l100 -100l-46 -45l-99 100q-55 -40 -122 -40q-70 0 -123 40l-99 -100l-45 45l99 100q-39 53 -39 121q0 69 39 121l-99 100l45 45zM304 574q-29 0 -55 -11.5t-45.5 -31
t-30.5 -45t-11 -54.5t11 -55t30.5 -45t45 -30t55.5 -11t55.5 11t45 30t30.5 45t11 55t-11 54.5t-30.5 45t-45.5 31t-55 11.5z" />
    <glyph glyph-name="yen" unicode="&#xa5;" horiz-adv-x="507" 
d="M207 655q-24 -30 -24 -43q0 -11 6 -28l32 -100h163l70 111q6 9 6 18q0 17 -24 42h175q-29 -21 -54 -41.5t-45 -49.5l-55 -80h82l-8 -40h-101l-82 -113h160l-6 -39h-179l-29 -37l-25 -158q-3 -15 -3 -30q0 -27 28 -67h-201q50 55 58 103l25 153l-12 36h-169l7 39h150
l-37 113h-108l7 40h89l-28 88q-12 39 -58 83h190zM274 310l85 134h-127z" />
    <glyph glyph-name="brokenbar" unicode="&#xa6;" 
d="M294 699v-370h-87v370h87zM294 199v-370h-87v370h87z" />
    <glyph glyph-name="section" unicode="&#xa7;" horiz-adv-x="437" 
d="M418 522q-51 43 -80 69t-54 26q-32 0 -55.5 -24t-23.5 -61q0 -17 7 -29.5t19.5 -23.5t29.5 -21.5t38 -24.5q50 -33 75.5 -63.5t25.5 -80.5q0 -69 -40.5 -113.5t-120.5 -62.5q78 -46 78 -124q0 -35 -14 -65.5t-40.5 -53t-64.5 -36t-85 -13.5q-64 0 -133 19l22 127
q47 -47 77.5 -73t56.5 -26q31 0 53 24.5t22 59.5q0 17 -5.5 29t-16.5 22.5t-26.5 20.5t-36.5 23q-25 15 -45 29.5t-34 32t-22 39.5t-8 53q0 130 162 172q-39 24 -58 53t-19 67q0 78 53.5 123.5t152.5 45.5q33 0 66 -4t67 -12zM205 354q-84 -52 -84 -120q0 -66 89 -104
q42 21 64 54.5t22 66.5q0 31 -23 57.5t-68 45.5z" />
    <glyph glyph-name="dieresis" unicode="&#xa8;" 
d="M370 642q22 0 35 -10.5t13 -28.5q0 -26 -15.5 -45t-38.5 -19q-50 0 -50 38q0 27 15.5 46t40.5 19zM211 642q22 0 35 -10.5t13 -28.5q0 -26 -15 -45t-38 -19q-51 0 -51 38q0 27 15.5 46t40.5 19z" />
    <glyph glyph-name="copyright" unicode="&#xa9;" horiz-adv-x="833" 
d="M416 718q74 0 139 -26.5t118 -79.5q51 -51 78 -116t27 -139q0 -75 -26.5 -139.5t-77.5 -114.5q-54 -53 -120 -80.5t-138 -27.5t-137 27.5t-117 79.5t-79.5 117.5t-27.5 137.5t28 137.5t80 118.5q103 105 253 105zM417 665q-63 0 -118 -22t-99 -67q-45 -45 -68 -101.5
t-23 -117.5q0 -62 23 -117t68 -100t100.5 -68t116.5 -23t117 23.5t102 68.5q89 87 89 216q0 63 -22.5 118.5t-66.5 99.5q-45 45 -100.5 67.5t-118.5 22.5zM508 441q-5 36 -29.5 55.5t-63.5 19.5q-47 0 -75 -40.5t-28 -118.5q0 -75 28.5 -115t79.5 -40q38 0 62.5 21t29.5 61
h81q-4 -66 -52 -106t-124 -40q-89 0 -141.5 57.5t-52.5 158.5q0 51 14 92.5t40 70t62 44t80 15.5q72 0 118.5 -37.5t51.5 -97.5h-81z" />
    <glyph glyph-name="ordfeminine" unicode="&#xaa;" horiz-adv-x="359" 
d="M331 648l-50 -257q-1 -5 -1.5 -8t-0.5 -5q0 -7 15 -7h26q-29 -26 -53 -40t-46 -14q-15 0 -24 7.5t-9 17.5q0 13 3 26l6 26q-36 -38 -64 -57.5t-55 -19.5q-32 0 -51.5 25t-19.5 71q0 51 15.5 96t42.5 79q50 62 123 62q20 0 36.5 -6t32.5 -17zM239 603q-16 7 -30 7
q-37 0 -63 -27q-20 -22 -36 -64.5t-16 -90.5q0 -53 34 -53q21 0 71 28z" />
    <glyph glyph-name="guillemotleft" unicode="&#xab;" horiz-adv-x="370" 
d="M224 426l-129 -187l61 -188h-57l-87 189l147 186h65zM364 426l-128 -187l61 -188h-57l-87 189l147 186h64z" />
    <glyph glyph-name="logicalnot" unicode="&#xac;" horiz-adv-x="833" 
d="M709 421v-245h-81v164h-504v81h585z" />
    <glyph glyph-name="registered" unicode="&#xae;" horiz-adv-x="833" 
d="M416 718q75 0 140.5 -27t118.5 -81q51 -51 77 -115.5t26 -137.5q0 -75 -27 -140t-79 -116q-54 -52 -119.5 -79t-136.5 -27q-72 0 -138 28t-118 81q-51 52 -78 116.5t-27 136.5t28 138.5t81 119.5q103 103 252 103zM417 665q-127 0 -215 -88q-45 -46 -69 -102.5
t-24 -117.5t22.5 -116t66.5 -100q45 -45 100 -68.5t114 -23.5q130 0 223 90q44 42 67 97t23 116q0 131 -88 221q-92 92 -220 92zM425 566q86 0 128.5 -28t42.5 -82q0 -45 -23 -73.5t-67 -38.5l90 -183h-97l-80 169h-63v-169h-87v405h156zM356 384h57q48 0 71 14.5t23 47.5
q0 35 -24 50t-74 15h-53v-127z" />
    <glyph glyph-name="macron" unicode="&#xaf;" 
d="M441 619l-9 -57h-298l9 57h298z" />
    <glyph glyph-name="degree" unicode="&#xb0;" horiz-adv-x="329" 
d="M165 713q30 0 56 -11.5t45.5 -31t31 -46t11.5 -56.5q0 -29 -11.5 -55.5t-31 -46t-46 -31t-56.5 -11.5t-56 11t-45.5 30.5t-30.5 46t-11 56.5t11.5 56.5t31 46t45.5 31t56 11.5zM165 659q-38 0 -64.5 -26t-26.5 -64t26.5 -64.5t64.5 -26.5t64 27t26 64q0 38 -26 64t-64 26
z" />
    <glyph glyph-name="plusminus" unicode="&#xb1;" horiz-adv-x="833" 
d="M458 589v-163h251v-81h-251v-163h-83v163h-251v81h251v163h83zM709 89v-82h-585v82h585z" />
    <glyph glyph-name="twosuperior" unicode="&#xb2;" horiz-adv-x="330" 
d="M63 315h117q41 0 83 39l-17 -95h-281l145 133q120 110 120 177q0 29 -16.5 45t-45.5 16q-19 0 -48 -21l-70 -54l19 91q42 5 69 8t40 3q68 0 102.5 -23.5t34.5 -66.5q0 -26 -13 -50t-37 -48t-58.5 -50t-77.5 -57z" />
    <glyph glyph-name="threesuperior" unicode="&#xb3;" horiz-adv-x="330" 
d="M176 459q53 -4 81 -26.5t28 -58.5q0 -52 -45.5 -87t-124.5 -35q-31 0 -62.5 4.5t-64.5 15.5l17 86q19 -18 32.5 -32.5t25.5 -24.5t24 -15t27 -5q38 0 62.5 24.5t24.5 65.5q0 38 -22.5 56.5t-73.5 25.5q63 23 95 54.5t32 67.5q0 23 -17.5 39t-40.5 16q-22 0 -47 -19
l-74 -57l17 91q33 7 61.5 10.5t53.5 3.5q63 0 95.5 -22.5t32.5 -61.5q0 -75 -137 -116z" />
    <glyph glyph-name="acute" unicode="&#xb4;" 
d="M454 668l-243 -139h-27l123 139h147z" />
    <glyph glyph-name="mu" unicode="&#xb5;" horiz-adv-x="590" 
d="M212 528l-61 -310q-6 -28 -6 -51q0 -96 89 -96q63 0 96.5 45t52.5 141l53 271h110l-71 -361q-9 -46 -9 -65q0 -17 7.5 -24.5t25.5 -7.5h8t9 1l-16 -78q-17 -5 -35 -6.5t-38 -1.5q-73 0 -73 61v7q-20 -33 -53 -51t-71 -18t-66 12t-49 41l-48 -247h-112l145 738h112z" />
    <glyph glyph-name="paragraph" unicode="&#xb6;" 
d="M473 674h-57v-674h-63v674h-83v-674h-63v383q-85 3 -132.5 50t-47.5 119q0 38 13.5 69t38 53.5t60 35t79.5 12.5h255v-48z" />
    <glyph glyph-name="periodcentered" unicode="&#xb7;" horiz-adv-x="250" 
d="M120 397q30 0 52 -22t22 -52t-21.5 -51.5t-52.5 -21.5q-29 0 -50 21.5t-21 51.5t21 52t50 22z" />
    <glyph glyph-name="cedilla" unicode="&#xb8;" 
d="M211 0l-7 -32q31 -2 48 -18.5t17 -42.5q0 -46 -47 -79t-131 -35q42 26 63 56.5t21 55.5q0 32 -20 41l10 54h46z" />
    <glyph glyph-name="onesuperior" unicode="&#xb9;" horiz-adv-x="330" 
d="M186 324q-1 -5 -2 -11t-1 -11q0 -18 22 -43h-133q23 23 30 42t11 38l45 245l-101 -14q66 29 113.5 53t76.5 43z" />
    <glyph glyph-name="ordmasculine" unicode="&#xba;" horiz-adv-x="359" 
d="M203 655q63 0 96 -30.5t33 -87.5q0 -36 -10 -71t-27 -62q-31 -48 -69.5 -69.5t-96.5 -21.5q-57 0 -89 32t-32 89q0 35 8 67.5t22 55.5q59 98 165 98zM242 562q0 33 -12.5 51t-34.5 18q-39 0 -65 -59q-35 -79 -35 -162q0 -72 46 -72q41 0 66 58q17 39 26 81.5t9 84.5z" />
    <glyph glyph-name="guillemotright" unicode="&#xbb;" horiz-adv-x="370" 
d="M97 426l87 -189l-147 -186h-64l128 187l-60 188h56zM238 426l87 -189l-147 -186h-64l128 187l-61 188h57z" />
    <glyph glyph-name="onequarter" unicode="&#xbc;" horiz-adv-x="797" 
d="M178 346l-2 -10t-1 -10q0 -17 21 -40h-127q21 22 28.5 39.5t10.5 34.5l43 229l-96 -12q63 27 108.5 49t73.5 40zM602 610l-370 -572l-30 20l368 569zM713 144h56l-13 -46h-50l-7 -40q0 -4 -1 -9t-1 -10q0 -14 16 -39h-115q21 20 27.5 36t9.5 30l7 32h-181
q70 81 129 145.5t109 112.5l59 18zM535 144h117l33 166z" />
    <glyph glyph-name="onehalf" unicode="&#xbd;" horiz-adv-x="797" 
d="M178 346l-2 -10t-1 -10q0 -17 21 -40h-127q21 22 28.5 39.5t10.5 34.5l43 229l-96 -12q63 27 108.5 49t73.5 40zM602 610l-370 -572l-30 20l368 569zM542 52h112q21 0 39.5 9t39.5 27l-17 -88h-267l138 124q115 103 115 165q0 27 -16 42t-43 15q-20 0 -46 -20l-67 -49
l18 84q39 5 65.5 7.5t37.5 2.5q66 0 99 -22t33 -61q0 -25 -12.5 -47t-35.5 -44.5t-56 -47t-74 -53.5z" />
    <glyph glyph-name="threequarters" unicode="&#xbe;" horiz-adv-x="797" 
d="M168 473q51 -4 77.5 -25t26.5 -55q0 -48 -43.5 -81t-118.5 -33q-60 0 -121 19l16 80q18 -17 31 -30.5t24 -22.5t22.5 -14t25.5 -5q37 0 60.5 23t23.5 61q0 35 -22 52.5t-70 24.5q60 21 90.5 50.5t30.5 63.5q0 22 -16 36.5t-39 14.5q-21 0 -44 -17l-71 -53l16 85
q63 12 109 12q61 0 92 -20.5t31 -57.5q0 -70 -131 -108zM602 610l-370 -572l-30 20l368 569zM713 144h56l-13 -46h-50l-7 -40q0 -4 -1 -9t-1 -10q0 -14 16 -39h-115q21 20 27.5 36t9.5 30l7 32h-181q70 81 129 145.5t109 112.5l59 18zM535 144h117l33 166z" />
    <glyph glyph-name="questiondown" unicode="&#xbf;" horiz-adv-x="417" 
d="M287 662q29 0 45.5 -14t16.5 -38q0 -31 -20 -49t-51 -18q-28 0 -45 16t-17 42q0 29 18.5 45t52.5 16zM291 493l-4 -38q-3 -32 -23.5 -63.5t-47.5 -70.5l-65 -94q-18 -26 -26.5 -52.5t-8.5 -52.5q0 -41 19.5 -63.5t49.5 -22.5q16 0 33.5 9.5t38.5 26t47.5 39.5t61.5 50
l-27 -153q-42 -8 -81 -13t-76 -5q-97 0 -145.5 36t-48.5 103q0 51 33.5 97.5t96.5 104.5l49 46q26 24 42.5 43t18.5 40l4 33h59z" />
    <glyph glyph-name="Agrave" unicode="&#xc0;" horiz-adv-x="532" 
d="M457 114q3 -26 11.5 -53t43.5 -61h-192q16 20 22 37t6 36v8t-1 8l-16 163h-182l-86 -171q-5 -10 -7 -18t-2 -13q0 -17 21 -50h-151q37 32 53.5 59t26.5 45l298 543l93 27zM172 296h156l-26 256zM399 857l31 -139h-23l-135 139h127z" />
    <glyph glyph-name="Aacute" unicode="&#xc1;" horiz-adv-x="532" 
d="M457 114q3 -26 11.5 -53t43.5 -61h-192q16 20 22 37t6 36v8t-1 8l-16 163h-182l-86 -171q-5 -10 -7 -18t-2 -13q0 -17 21 -50h-151q37 32 53.5 59t26.5 45l298 543l93 27zM172 296h156l-26 256zM529 857l-243 -139h-27l123 139h147z" />
    <glyph glyph-name="Acircumflex" unicode="&#xc2;" horiz-adv-x="532" 
d="M457 114q3 -26 11.5 -53t43.5 -61h-192q16 20 22 37t6 36v8t-1 8l-16 163h-182l-86 -171q-5 -10 -7 -18t-2 -13q0 -17 21 -50h-151q37 32 53.5 59t26.5 45l298 543l93 27zM172 296h156l-26 256zM244 718h-57l193 141l140 -141h-40l-114 50z" />
    <glyph glyph-name="Atilde" unicode="&#xc3;" horiz-adv-x="532" 
d="M457 114q3 -26 11.5 -53t43.5 -61h-192q16 20 22 37t6 36v8t-1 8l-16 163h-182l-86 -171q-5 -10 -7 -18t-2 -13q0 -17 21 -50h-151q37 32 53.5 59t26.5 45l298 543l93 27zM172 296h156l-26 256zM410 793q4 -2 7.5 -4.5t9.5 -2.5t22 8l83 45q-65 -121 -127 -121
q-12 0 -24 3.5t-20 10.5l-47 35q-7 6 -15 6q-4 0 -7 -2t-8 -4l-84 -48q33 61 63 91t63 30q15 0 37 -14z" />
    <glyph glyph-name="Adieresis" unicode="&#xc4;" horiz-adv-x="532" 
d="M457 114q3 -26 11.5 -53t43.5 -61h-192q16 20 22 37t6 36v8t-1 8l-16 163h-182l-86 -171q-5 -10 -7 -18t-2 -13q0 -17 21 -50h-151q37 32 53.5 59t26.5 45l298 543l93 27zM172 296h156l-26 256zM445 831q22 0 35 -10.5t13 -28.5q0 -26 -15.5 -45t-38.5 -19q-50 0 -50 38
q0 27 15.5 46t40.5 19zM286 831q22 0 35 -10.5t13 -28.5q0 -26 -15 -45t-38 -19q-51 0 -51 38q0 27 15.5 46t40.5 19z" />
    <glyph glyph-name="Aring" unicode="&#xc5;" horiz-adv-x="532" 
d="M364 936q24 0 45.5 -9t37 -24.5t24.5 -36.5t9 -45t-9 -45.5t-24.5 -37t-36.5 -24.5t-46 -9q-24 0 -45 9t-36.5 24.5t-24.5 36.5t-9 46q0 24 9 45t25 36.5t36.5 24.5t44.5 9zM364 881q-25 0 -42.5 -17.5t-17.5 -43.5t17 -43.5t43 -17.5q25 0 43 18t18 43t-18 43t-43 18z
M457 114q3 -26 11.5 -53t43.5 -61h-192q16 20 22 37t6 36v8t-1 8l-16 163h-182l-86 -171q-5 -10 -7 -18t-2 -13q0 -17 21 -50h-151q37 32 53.5 59t26.5 45l298 543l93 27zM172 296h156l-26 256z" />
    <glyph glyph-name="AE" unicode="&#xc6;" horiz-adv-x="734" 
d="M740 655l-19 -124q-25 17 -43.5 32t-34 26t-29 17.5t-27.5 6.5h-85l-46 -278h61q29 0 59.5 17.5t73.5 43.5l-29 -173q-35 33 -60.5 50.5t-45.5 17.5h-67l-41 -248h74q24 0 46 8t45.5 22.5t50.5 35t61 44.5l-48 -153h-392q19 18 30.5 34.5t17.5 32t9 30.5l6 30l28 164
h-142l-138 -216q-5 -7 -8 -13.5t-3 -14.5q0 -17 18 -47h-157q43 35 62.5 61t27.5 38l386 556h359zM225 334h117l42 253z" />
    <glyph glyph-name="Ccedilla" unicode="&#xc7;" horiz-adv-x="530" 
d="M538 517l-108 84q-12 10 -24 15t-29 5q-44 0 -85 -27t-73 -78t-51 -123.5t-19 -163.5q0 -94 33.5 -142.5t94.5 -48.5q39 0 65 18l141 100l-46 -142q-94 -24 -163 -24q-58 0 -104.5 17.5t-78 49.5t-48.5 78.5t-17 103.5q0 180 97 303q48 61 113.5 92.5t144.5 31.5
q49 0 92.5 -7t81.5 -21zM255 0l-7 -32q31 -2 48 -18.5t17 -42.5q0 -46 -47 -79t-131 -35q42 26 63 56.5t21 55.5q0 32 -20 41l10 54h46z" />
    <glyph glyph-name="Egrave" unicode="&#xc8;" horiz-adv-x="475" 
d="M488 655l-20 -124q-25 17 -43.5 32t-34 26t-29 17.5t-27.5 6.5h-90l-43 -261h67q29 0 58 17t70 44l-31 -172q-35 31 -58.5 49t-41.5 18h-71l-45 -265h79q24 0 46 8t45.5 22.5t49.5 35.5t58 47l-50 -156h-391q37 34 47.5 65t15.5 62l74 438q1 6 1.5 11t0.5 8q0 16 -8.5 32
t-22.5 39h394zM337 857l31 -139h-23l-135 139h127z" />
    <glyph glyph-name="Eacute" unicode="&#xc9;" horiz-adv-x="475" 
d="M488 655l-20 -124q-25 17 -43.5 32t-34 26t-29 17.5t-27.5 6.5h-90l-43 -261h67q29 0 58 17t70 44l-31 -172q-35 31 -58.5 49t-41.5 18h-71l-45 -265h79q24 0 46 8t45.5 22.5t49.5 35.5t58 47l-50 -156h-391q37 34 47.5 65t15.5 62l74 438q1 6 1.5 11t0.5 8q0 16 -8.5 32
t-22.5 39h394zM467 857l-243 -139h-27l123 139h147z" />
    <glyph glyph-name="Ecircumflex" unicode="&#xca;" horiz-adv-x="475" 
d="M488 655l-20 -124q-25 17 -43.5 32t-34 26t-29 17.5t-27.5 6.5h-90l-43 -261h67q29 0 58 17t70 44l-31 -172q-35 31 -58.5 49t-41.5 18h-71l-45 -265h79q24 0 46 8t45.5 22.5t49.5 35.5t58 47l-50 -156h-391q37 34 47.5 65t15.5 62l74 438q1 6 1.5 11t0.5 8q0 16 -8.5 32
t-22.5 39h394zM182 718h-57l193 141l140 -141h-40l-114 50z" />
    <glyph glyph-name="Edieresis" unicode="&#xcb;" horiz-adv-x="475" 
d="M488 655l-20 -124q-25 17 -43.5 32t-34 26t-29 17.5t-27.5 6.5h-90l-43 -261h67q29 0 58 17t70 44l-31 -172q-35 31 -58.5 49t-41.5 18h-71l-45 -265h79q24 0 46 8t45.5 22.5t49.5 35.5t58 47l-50 -156h-391q37 34 47.5 65t15.5 62l74 438q1 6 1.5 11t0.5 8q0 16 -8.5 32
t-22.5 39h394zM383 831q22 0 35 -10.5t13 -28.5q0 -26 -15.5 -45t-38.5 -19q-50 0 -50 38q0 27 15.5 46t40.5 19zM224 831q22 0 35 -10.5t13 -28.5q0 -26 -15 -45t-38 -19q-51 0 -51 38q0 27 15.5 46t40.5 19z" />
    <glyph glyph-name="Igrave" unicode="&#xcc;" horiz-adv-x="269" 
d="M287 655q-35 -36 -44 -66t-14 -56l-72 -425q-3 -18 -3 -31q0 -18 8 -36.5t22 -40.5h-199q33 32 45 60.5t17 59.5l72 425q3 18 3 32q0 17 -8.5 36t-22.5 42h196zM234 857l31 -139h-23l-135 139h127z" />
    <glyph glyph-name="Iacute" unicode="&#xcd;" horiz-adv-x="269" 
d="M287 655q-35 -36 -44 -66t-14 -56l-72 -425q-3 -18 -3 -31q0 -18 8 -36.5t22 -40.5h-199q33 32 45 60.5t17 59.5l72 425q3 18 3 32q0 17 -8.5 36t-22.5 42h196zM364 857l-243 -139h-27l123 139h147z" />
    <glyph glyph-name="Icircumflex" unicode="&#xce;" horiz-adv-x="269" 
d="M287 655q-35 -36 -44 -66t-14 -56l-72 -425q-3 -18 -3 -31q0 -18 8 -36.5t22 -40.5h-199q33 32 45 60.5t17 59.5l72 425q3 18 3 32q0 17 -8.5 36t-22.5 42h196zM79 718h-57l193 141l140 -141h-40l-114 50z" />
    <glyph glyph-name="Idieresis" unicode="&#xcf;" horiz-adv-x="269" 
d="M287 655q-35 -36 -44 -66t-14 -56l-72 -425q-3 -18 -3 -31q0 -18 8 -36.5t22 -40.5h-199q33 32 45 60.5t17 59.5l72 425q3 18 3 32q0 17 -8.5 36t-22.5 42h196zM280 831q22 0 35 -10.5t13 -28.5q0 -26 -15.5 -45t-38.5 -19q-50 0 -50 38q0 27 15.5 46t40.5 19zM121 831
q22 0 35 -10.5t13 -28.5q0 -26 -15 -45t-38 -19q-51 0 -51 38q0 27 15.5 46t40.5 19z" />
    <glyph glyph-name="Eth" unicode="&#xd0;" horiz-adv-x="611" 
d="M335 655q128 0 190 -59.5t62 -184.5q0 -95 -32.5 -177.5t-89.5 -139.5q-54 -54 -116.5 -74t-147.5 -20h-221q29 27 43 56t20 64l34 197h-70l7 44h70l30 184q3 18 3 32q0 17 -8.5 36t-22.5 42h249zM196 361h120l-7 -44h-121l-47 -274h74q112 0 174 92q15 23 29.5 55.5
t25 71.5t17 81.5t6.5 84.5q0 88 -43.5 136t-120.5 48h-65z" />
    <glyph glyph-name="Ntilde" unicode="&#xd1;" horiz-adv-x="609" 
d="M219 655l235 -470l65 378q1 4 1 9v11q0 39 -32 72h146q-31 -27 -41 -54t-15 -57l-99 -552h-53l-257 514l-69 -401q-2 -14 -3.5 -23t-1.5 -14q0 -24 32 -68h-143q35 38 46 72t17 69l70 414q3 18 3 30q0 17 -8.5 34t-25.5 36h133zM415 793q4 -2 7.5 -4.5t9.5 -2.5t22 8
l83 45q-65 -121 -127 -121q-12 0 -24 3.5t-20 10.5l-47 35q-7 6 -15 6q-4 0 -7 -2t-8 -4l-84 -48q33 61 63 91t63 30q15 0 37 -14z" />
    <glyph glyph-name="Ograve" unicode="&#xd2;" horiz-adv-x="595" 
d="M356 664q103 0 160.5 -63.5t57.5 -181.5q0 -66 -14.5 -129.5t-40.5 -114.5q-96 -190 -275 -190q-108 0 -166 64t-58 184q0 69 17.5 135.5t46.5 120.5q49 88 115.5 131.5t156.5 43.5zM455 439q0 182 -115 182q-102 0 -159 -168q-22 -66 -32 -129.5t-10 -116.5
q0 -88 31 -133.5t87 -45.5q93 0 150 148q23 60 35.5 128t12.5 135zM397 857l31 -139h-23l-135 139h127z" />
    <glyph glyph-name="Oacute" unicode="&#xd3;" horiz-adv-x="595" 
d="M356 664q103 0 160.5 -63.5t57.5 -181.5q0 -66 -14.5 -129.5t-40.5 -114.5q-96 -190 -275 -190q-108 0 -166 64t-58 184q0 69 17.5 135.5t46.5 120.5q49 88 115.5 131.5t156.5 43.5zM455 439q0 182 -115 182q-102 0 -159 -168q-22 -66 -32 -129.5t-10 -116.5
q0 -88 31 -133.5t87 -45.5q93 0 150 148q23 60 35.5 128t12.5 135zM527 857l-243 -139h-27l123 139h147z" />
    <glyph glyph-name="Ocircumflex" unicode="&#xd4;" horiz-adv-x="595" 
d="M356 664q103 0 160.5 -63.5t57.5 -181.5q0 -66 -14.5 -129.5t-40.5 -114.5q-96 -190 -275 -190q-108 0 -166 64t-58 184q0 69 17.5 135.5t46.5 120.5q49 88 115.5 131.5t156.5 43.5zM455 439q0 182 -115 182q-102 0 -159 -168q-22 -66 -32 -129.5t-10 -116.5
q0 -88 31 -133.5t87 -45.5q93 0 150 148q23 60 35.5 128t12.5 135zM242 718h-57l193 141l140 -141h-40l-114 50z" />
    <glyph glyph-name="Otilde" unicode="&#xd5;" horiz-adv-x="595" 
d="M356 664q103 0 160.5 -63.5t57.5 -181.5q0 -66 -14.5 -129.5t-40.5 -114.5q-96 -190 -275 -190q-108 0 -166 64t-58 184q0 69 17.5 135.5t46.5 120.5q49 88 115.5 131.5t156.5 43.5zM455 439q0 182 -115 182q-102 0 -159 -168q-22 -66 -32 -129.5t-10 -116.5
q0 -88 31 -133.5t87 -45.5q93 0 150 148q23 60 35.5 128t12.5 135zM408 793q4 -2 7.5 -4.5t9.5 -2.5t22 8l83 45q-65 -121 -127 -121q-12 0 -24 3.5t-20 10.5l-47 35q-7 6 -15 6q-4 0 -7 -2t-8 -4l-84 -48q33 61 63 91t63 30q15 0 37 -14z" />
    <glyph glyph-name="Odieresis" unicode="&#xd6;" horiz-adv-x="595" 
d="M356 664q103 0 160.5 -63.5t57.5 -181.5q0 -66 -14.5 -129.5t-40.5 -114.5q-96 -190 -275 -190q-108 0 -166 64t-58 184q0 69 17.5 135.5t46.5 120.5q49 88 115.5 131.5t156.5 43.5zM455 439q0 182 -115 182q-102 0 -159 -168q-22 -66 -32 -129.5t-10 -116.5
q0 -88 31 -133.5t87 -45.5q93 0 150 148q23 60 35.5 128t12.5 135zM443 831q22 0 35 -10.5t13 -28.5q0 -26 -15.5 -45t-38.5 -19q-50 0 -50 38q0 27 15.5 46t40.5 19zM284 831q22 0 35 -10.5t13 -28.5q0 -26 -15 -45t-38 -19q-51 0 -51 38q0 27 15.5 46t40.5 19z" />
    <glyph glyph-name="multiply" unicode="&#xd7;" horiz-adv-x="833" 
d="M421 356l225 224l57 -57l-224 -225l224 -224l-57 -58l-225 225l-224 -225l-57 58l224 224l-224 225l57 57z" />
    <glyph glyph-name="Oslash" unicode="&#xd8;" horiz-adv-x="595" 
d="M520 712l-39 -80q95 -60 95 -213q0 -91 -27 -174t-75 -146q-42 -56 -100 -85t-129 -29q-26 0 -48 3t-43 11l-46 -85l-38 19l47 86q-49 31 -71.5 83.5t-22.5 130.5q0 93 28.5 177t79.5 147q87 107 227 107q43 0 83 -12l41 79zM411 595q-34 25 -70 25q-101 0 -157 -167
q-22 -66 -33 -130t-11 -118q0 -57 18 -105zM185 58q32 -30 72 -30q50 0 86.5 36.5t65.5 111.5q23 60 35.5 129.5t12.5 138.5q0 58 -18 110z" />
    <glyph glyph-name="Ugrave" unicode="&#xd9;" horiz-adv-x="595" 
d="M279 655q-29 -22 -41.5 -47t-17.5 -58l-59 -355q-2 -15 -3.5 -27.5t-1.5 -22.5q0 -109 130 -109q71 0 104 35.5t46 114.5l63 370q3 18 3 33q0 17 -6.5 32.5t-19.5 33.5h153q-23 -29 -37.5 -55.5t-19.5 -58.5l-53 -310q-5 -31 -10 -57.5t-12.5 -49.5t-20.5 -43.5
t-35 -39.5q-30 -26 -76 -40t-106 -14q-106 0 -162.5 43.5t-56.5 118.5q0 16 1.5 34.5t5.5 38.5l60 336q3 15 3 28q0 17 -7 33t-21 36h197zM397 857l31 -139h-23l-135 139h127z" />
    <glyph glyph-name="Uacute" unicode="&#xda;" horiz-adv-x="595" 
d="M279 655q-29 -22 -41.5 -47t-17.5 -58l-59 -355q-2 -15 -3.5 -27.5t-1.5 -22.5q0 -109 130 -109q71 0 104 35.5t46 114.5l63 370q3 18 3 33q0 17 -6.5 32.5t-19.5 33.5h153q-23 -29 -37.5 -55.5t-19.5 -58.5l-53 -310q-5 -31 -10 -57.5t-12.5 -49.5t-20.5 -43.5
t-35 -39.5q-30 -26 -76 -40t-106 -14q-106 0 -162.5 43.5t-56.5 118.5q0 16 1.5 34.5t5.5 38.5l60 336q3 15 3 28q0 17 -7 33t-21 36h197zM527 857l-243 -139h-27l123 139h147z" />
    <glyph glyph-name="Ucircumflex" unicode="&#xdb;" horiz-adv-x="595" 
d="M279 655q-29 -22 -41.5 -47t-17.5 -58l-59 -355q-2 -15 -3.5 -27.5t-1.5 -22.5q0 -109 130 -109q71 0 104 35.5t46 114.5l63 370q3 18 3 33q0 17 -6.5 32.5t-19.5 33.5h153q-23 -29 -37.5 -55.5t-19.5 -58.5l-53 -310q-5 -31 -10 -57.5t-12.5 -49.5t-20.5 -43.5
t-35 -39.5q-30 -26 -76 -40t-106 -14q-106 0 -162.5 43.5t-56.5 118.5q0 16 1.5 34.5t5.5 38.5l60 336q3 15 3 28q0 17 -7 33t-21 36h197zM242 718h-57l193 141l140 -141h-40l-114 50z" />
    <glyph glyph-name="Udieresis" unicode="&#xdc;" horiz-adv-x="595" 
d="M279 655q-29 -22 -41.5 -47t-17.5 -58l-59 -355q-2 -15 -3.5 -27.5t-1.5 -22.5q0 -109 130 -109q71 0 104 35.5t46 114.5l63 370q3 18 3 33q0 17 -6.5 32.5t-19.5 33.5h153q-23 -29 -37.5 -55.5t-19.5 -58.5l-53 -310q-5 -31 -10 -57.5t-12.5 -49.5t-20.5 -43.5
t-35 -39.5q-30 -26 -76 -40t-106 -14q-106 0 -162.5 43.5t-56.5 118.5q0 16 1.5 34.5t5.5 38.5l60 336q3 15 3 28q0 17 -7 33t-21 36h197zM443 831q22 0 35 -10.5t13 -28.5q0 -26 -15.5 -45t-38.5 -19q-50 0 -50 38q0 27 15.5 46t40.5 19zM284 831q22 0 35 -10.5t13 -28.5
q0 -26 -15 -45t-38 -19q-51 0 -51 38q0 27 15.5 46t40.5 19z" />
    <glyph glyph-name="Yacute" unicode="&#xdd;" horiz-adv-x="507" 
d="M207 655q-24 -30 -24 -43q0 -10 6 -28l86 -265l179 276q6 9 6 18q0 17 -24 42h175q-26 -20 -51 -40t-48 -51l-216 -298l-27 -169q-3 -13 -3 -30q0 -27 28 -67h-201q50 55 58 103l27 162l-103 307q-13 40 -58 83h190zM483 857l-243 -139h-27l123 139h147z" />
    <glyph glyph-name="Thorn" unicode="&#xde;" horiz-adv-x="486" 
d="M284 655q-29 -27 -40.5 -53.5t-16.5 -61.5l-4 -31h85q89 0 134.5 -39.5t45.5 -116.5q0 -43 -15 -80.5t-41 -66t-61.5 -45t-77.5 -16.5q-58 0 -106 27q8 -2 14.5 -2h13.5q68 0 108.5 51t40.5 137q0 57 -22.5 86t-61.5 29h-63l-63 -365q-2 -9 -3 -16.5t-1 -14.5
q0 -18 8 -36.5t22 -40.5h-199q33 32 45.5 60.5t17.5 59.5l71 425q3 18 3 32q0 17 -8.5 36t-22.5 42h197z" />
    <glyph glyph-name="germandbls" unicode="&#xdf;" horiz-adv-x="562" 
d="M406 444q-63 -30 -63 -75q0 -15 7 -26t21 -23l71 -63q29 -26 45.5 -53t16.5 -66q0 -67 -44 -107t-126 -40q-66 0 -134 20l19 114l77 -70q26 -23 48 -23q25 0 45 20.5t20 47.5q0 24 -13 38.5t-33 31.5l-68 60q-19 17 -30 41t-11 48q0 29 8.5 49t22 36t31.5 29.5t37 29.5
l55 46q15 12 25.5 34.5t10.5 45.5q0 36 -22.5 56t-65.5 20q-35 0 -57 -7.5t-35.5 -23t-21 -40t-13.5 -58.5l-71 -430q-13 -81 -30.5 -139.5t-43.5 -97t-63 -56.5t-89 -18q-43 0 -91 18l20 111l71 -71q16 -16 27 -16q42 0 60 104l92 535q11 63 25 105t46 67q74 58 188 58
q91 0 140 -31.5t49 -82.5q0 -46 -26 -72.5t-79 -52.5z" />
    <glyph glyph-name="agrave" unicode="&#xe0;" horiz-adv-x="479" 
d="M441 464l-66 -367q-3 -13 -3 -19t4.5 -7.5t15.5 -1.5h34q-39 -38 -71 -57.5t-61 -19.5q-20 0 -31.5 10.5t-11.5 24.5q0 8 1 17.5t3 20.5l7 37q-48 -54 -85 -82t-73 -28q-44 0 -69.5 35t-25.5 101q0 72 20.5 137t57.5 113q67 89 163 89q52 0 92 -33zM319 400
q-22 10 -41 10q-49 0 -83 -38q-14 -16 -26.5 -39.5t-22.5 -53t-15.5 -62.5t-5.5 -67q0 -75 46 -75q32 0 94 40zM314 668l31 -139h-23l-135 139h127z" />
    <glyph glyph-name="aacute" unicode="&#xe1;" horiz-adv-x="479" 
d="M441 464l-66 -367q-3 -13 -3 -19t4.5 -7.5t15.5 -1.5h34q-39 -38 -71 -57.5t-61 -19.5q-20 0 -31.5 10.5t-11.5 24.5q0 8 1 17.5t3 20.5l7 37q-48 -54 -85 -82t-73 -28q-44 0 -69.5 35t-25.5 101q0 72 20.5 137t57.5 113q67 89 163 89q52 0 92 -33zM319 400
q-22 10 -41 10q-49 0 -83 -38q-14 -16 -26.5 -39.5t-22.5 -53t-15.5 -62.5t-5.5 -67q0 -75 46 -75q32 0 94 40zM444 668l-243 -139h-27l123 139h147z" />
    <glyph glyph-name="acircumflex" unicode="&#xe2;" horiz-adv-x="479" 
d="M441 464l-66 -367q-3 -13 -3 -19t4.5 -7.5t15.5 -1.5h34q-39 -38 -71 -57.5t-61 -19.5q-20 0 -31.5 10.5t-11.5 24.5q0 8 1 17.5t3 20.5l7 37q-48 -54 -85 -82t-73 -28q-44 0 -69.5 35t-25.5 101q0 72 20.5 137t57.5 113q67 89 163 89q52 0 92 -33zM319 400
q-22 10 -41 10q-49 0 -83 -38q-14 -16 -26.5 -39.5t-22.5 -53t-15.5 -62.5t-5.5 -67q0 -75 46 -75q32 0 94 40zM159 529h-57l193 141l140 -141h-40l-114 50z" />
    <glyph glyph-name="atilde" unicode="&#xe3;" horiz-adv-x="479" 
d="M441 464l-66 -367q-3 -13 -3 -19t4.5 -7.5t15.5 -1.5h34q-39 -38 -71 -57.5t-61 -19.5q-20 0 -31.5 10.5t-11.5 24.5q0 8 1 17.5t3 20.5l7 37q-48 -54 -85 -82t-73 -28q-44 0 -69.5 35t-25.5 101q0 72 20.5 137t57.5 113q67 89 163 89q52 0 92 -33zM319 400
q-22 10 -41 10q-49 0 -83 -38q-14 -16 -26.5 -39.5t-22.5 -53t-15.5 -62.5t-5.5 -67q0 -75 46 -75q32 0 94 40zM325 604q4 -2 7.5 -4.5t9.5 -2.5t22 8l83 45q-65 -121 -127 -121q-12 0 -24 3.5t-20 10.5l-47 35q-7 6 -15 6q-4 0 -7 -2t-8 -4l-84 -48q33 61 63 91t63 30
q15 0 37 -14z" />
    <glyph glyph-name="adieresis" unicode="&#xe4;" horiz-adv-x="479" 
d="M441 464l-66 -367q-3 -13 -3 -19t4.5 -7.5t15.5 -1.5h34q-39 -38 -71 -57.5t-61 -19.5q-20 0 -31.5 10.5t-11.5 24.5q0 8 1 17.5t3 20.5l7 37q-48 -54 -85 -82t-73 -28q-44 0 -69.5 35t-25.5 101q0 72 20.5 137t57.5 113q67 89 163 89q52 0 92 -33zM319 400
q-22 10 -41 10q-49 0 -83 -38q-14 -16 -26.5 -39.5t-22.5 -53t-15.5 -62.5t-5.5 -67q0 -75 46 -75q32 0 94 40zM360 642q22 0 35 -10.5t13 -28.5q0 -26 -15.5 -45t-38.5 -19q-50 0 -50 38q0 27 15.5 46t40.5 19zM201 642q22 0 35 -10.5t13 -28.5q0 -26 -15 -45t-38 -19
q-51 0 -51 38q0 27 15.5 46t40.5 19z" />
    <glyph glyph-name="aring" unicode="&#xe5;" horiz-adv-x="479" 
d="M375 97q-3 -13 -3 -19t4.5 -7.5t15.5 -1.5h34q-39 -38 -71 -58t-61 -20q-20 0 -31.5 11t-11.5 25q0 8 1 17.5t3 20.5l7 37q-48 -54 -85 -82.5t-73 -28.5q-44 0 -69.5 35.5t-25.5 101.5q0 72 20.5 137t57.5 113q67 89 163 89q52 0 92 -33l99 30zM319 400q-22 10 -41 10
q-49 0 -83 -38q-14 -16 -26.5 -39.5t-22.5 -53t-15.5 -62.5t-5.5 -67q0 -75 46 -75q32 0 94 40zM298 743q24 0 45.5 -9t37 -24.5t24.5 -36.5t9 -45t-9 -45.5t-24.5 -37t-36.5 -24.5t-46 -9q-24 0 -45 9t-36.5 24.5t-24.5 36.5t-9 46q0 24 9 45t25 36.5t36.5 24.5t44.5 9z
M298 688q-25 0 -42.5 -17.5t-17.5 -43.5t17 -43.5t43 -17.5q25 0 43 18t18 43t-18 43t-43 18z" />
    <glyph glyph-name="ae" unicode="&#xe6;" horiz-adv-x="616" 
d="M359 433q24 18 50.5 25.5t59.5 7.5q125 0 125 -94q0 -63 -52.5 -95.5t-155.5 -32.5h-19.5t-20.5 1q-4 -25 -5.5 -44.5t-1.5 -33.5q0 -94 78 -94q62 0 156 54q-53 -68 -106.5 -101.5t-104.5 -33.5q-38 0 -62.5 11.5t-40.5 37.5q-64 -49 -154 -49q-55 0 -84 27t-29 75
q0 79 53.5 116t163.5 37h17.5t20.5 -1l20 122q2 8 2 11.5v5.5q0 18 -11 30t-31 12q-17 0 -27 -5.5t-19 -12.5l-119 -90l23 126q40 11 82 16t89 5q35 0 60.5 -7.5t42.5 -25.5zM243 216q-70 -8 -101 -31.5t-31 -79.5t56 -56q17 0 44 9zM351 269q130 10 130 122q0 40 -34 40
q-32 0 -54 -40t-42 -122z" />
    <glyph glyph-name="ccedilla" unicode="&#xe7;" horiz-adv-x="398" 
d="M377 341l-98 72q-10 7 -17.5 11t-18.5 4q-17 0 -36.5 -19.5t-36.5 -53.5t-28 -81t-11 -102q0 -54 17.5 -79t59.5 -25q23 0 62 13t90 42q-49 -68 -106 -102t-111 -34q-63 0 -97 41.5t-34 122.5q0 59 19.5 118.5t57.5 113.5q34 48 81 68.5t115 20.5q29 0 57 -3.5t56 -10.5z
M160 0l-7 -32q31 -2 48 -18.5t17 -42.5q0 -46 -47 -79t-131 -35q42 26 63 56.5t21 55.5q0 32 -20 41l10 54h46z" />
    <glyph glyph-name="egrave" unicode="&#xe8;" horiz-adv-x="403" 
d="M137 271q69 10 100.5 35t31.5 83q0 45 -35 45q-29 0 -55 -41t-42 -122zM134 244q-3 -20 -5 -36.5t-2 -29.5q0 -54 17.5 -79.5t55.5 -25.5q28 0 68 12.5t90 39.5q-52 -68 -109.5 -101t-108.5 -33q-63 0 -97 41t-34 120q0 69 18.5 127t52.5 100t80.5 65.5t102.5 23.5
q57 0 89 -26.5t32 -68.5q0 -66 -55 -97.5t-167 -31.5h-28zM276 668l31 -139h-23l-135 139h127z" />
    <glyph glyph-name="eacute" unicode="&#xe9;" horiz-adv-x="403" 
d="M137 271q69 10 100.5 35t31.5 83q0 45 -35 45q-29 0 -55 -41t-42 -122zM134 244q-3 -20 -5 -36.5t-2 -29.5q0 -54 17.5 -79.5t55.5 -25.5q28 0 68 12.5t90 39.5q-52 -68 -109.5 -101t-108.5 -33q-63 0 -97 41t-34 120q0 69 18.5 127t52.5 100t80.5 65.5t102.5 23.5
q57 0 89 -26.5t32 -68.5q0 -66 -55 -97.5t-167 -31.5h-28zM406 668l-243 -139h-27l123 139h147z" />
    <glyph glyph-name="ecircumflex" unicode="&#xea;" horiz-adv-x="403" 
d="M137 271q69 10 100.5 35t31.5 83q0 45 -35 45q-29 0 -55 -41t-42 -122zM134 244q-3 -20 -5 -36.5t-2 -29.5q0 -54 17.5 -79.5t55.5 -25.5q28 0 68 12.5t90 39.5q-52 -68 -109.5 -101t-108.5 -33q-63 0 -97 41t-34 120q0 69 18.5 127t52.5 100t80.5 65.5t102.5 23.5
q57 0 89 -26.5t32 -68.5q0 -66 -55 -97.5t-167 -31.5h-28zM121 529h-57l193 141l140 -141h-40l-114 50z" />
    <glyph glyph-name="edieresis" unicode="&#xeb;" horiz-adv-x="403" 
d="M137 271q69 10 100.5 35t31.5 83q0 45 -35 45q-29 0 -55 -41t-42 -122zM134 244q-3 -20 -5 -36.5t-2 -29.5q0 -54 17.5 -79.5t55.5 -25.5q28 0 68 12.5t90 39.5q-52 -68 -109.5 -101t-108.5 -33q-63 0 -97 41t-34 120q0 69 18.5 127t52.5 100t80.5 65.5t102.5 23.5
q57 0 89 -26.5t32 -68.5q0 -66 -55 -97.5t-167 -31.5h-28zM322 642q22 0 35 -10.5t13 -28.5q0 -26 -15.5 -45t-38.5 -19q-50 0 -50 38q0 27 15.5 46t40.5 19zM163 642q22 0 35 -10.5t13 -28.5q0 -26 -15 -45t-38 -19q-51 0 -51 38q0 27 15.5 46t40.5 19z" />
    <glyph glyph-name="igrave" unicode="&#xec;" horiz-adv-x="252" 
d="M138 100q-3 -13 -3 -19q0 -15 20 -15h33q-30 -37 -62.5 -55t-64.5 -18q-44 0 -44 38q0 4 1 11t3 17l49 257q2 9 4 19t2 22q0 14 -8.5 31t-21.5 41l167 37zM200 668l31 -139h-23l-135 139h127z" />
    <glyph glyph-name="iacute" unicode="&#xed;" horiz-adv-x="252" 
d="M138 100q-3 -13 -3 -19q0 -15 20 -15h33q-30 -37 -62.5 -55t-64.5 -18q-44 0 -44 38q0 4 1 11t3 17l49 257q2 9 4 19t2 22q0 14 -8.5 31t-21.5 41l167 37zM330 668l-243 -139h-27l123 139h147z" />
    <glyph glyph-name="icircumflex" unicode="&#xee;" horiz-adv-x="252" 
d="M138 100q-3 -13 -3 -19q0 -15 20 -15h33q-30 -37 -62.5 -55t-64.5 -18q-44 0 -44 38q0 4 1 11t3 17l49 257q2 9 4 19t2 22q0 14 -8.5 31t-21.5 41l167 37zM45 529h-57l193 141l140 -141h-40l-114 50z" />
    <glyph glyph-name="idieresis" unicode="&#xef;" horiz-adv-x="252" 
d="M138 100q-3 -13 -3 -19q0 -15 20 -15h33q-30 -37 -62.5 -55t-64.5 -18q-44 0 -44 38q0 4 1 11t3 17l49 257q2 9 4 19t2 22q0 14 -8.5 31t-21.5 41l167 37zM246 642q22 0 35 -10.5t13 -28.5q0 -26 -15.5 -45t-38.5 -19q-50 0 -50 38q0 27 15.5 46t40.5 19zM87 642
q22 0 35 -10.5t13 -28.5q0 -26 -15 -45t-38 -19q-51 0 -51 38q0 27 15.5 46t40.5 19z" />
    <glyph glyph-name="eth" unicode="&#xf0;" horiz-adv-x="479" 
d="M358 708q14 -29 33 -61l88 22l13 -40l-83 -20q41 -117 41 -235q0 -90 -20.5 -162t-56.5 -122.5t-86 -78t-109 -27.5q-83 0 -126.5 44t-43.5 129q0 77 24 145.5t62 113.5q50 58 125 58q63 0 119 -46q-6 74 -42 154l-151 -36l-10 41l141 33q-25 45 -60 88h142zM338 410
q-40 22 -77 22q-33 0 -56 -18t-40 -57q-20 -43 -31 -97.5t-11 -112.5q0 -61 15 -90.5t50 -29.5q26 0 51 25.5t45.5 74t35 120t18.5 163.5z" />
    <glyph glyph-name="ntilde" unicode="&#xf1;" horiz-adv-x="498" 
d="M189 362q62 56 109 84.5t85 28.5q29 0 45 -17t16 -46q0 -17 -7 -53l-51 -261q-2 -10 -2 -15q0 -9 5.5 -10.5t18.5 -1.5h31q-35 -40 -67.5 -59.5t-60.5 -19.5q-22 0 -33.5 11.5t-11.5 28.5q0 11 1 20.5t3 17.5l48 264q3 20 3 33q0 20 -26 20q-30 0 -108 -37l-62 -350h-110
l57 329q1 6 2.5 12.5t1.5 14.5q0 23 -13 44l-18 30l165 41zM334 604q4 -2 7.5 -4.5t9.5 -2.5t22 8l83 45q-65 -121 -127 -121q-12 0 -24 3.5t-20 10.5l-47 35q-7 6 -15 6q-4 0 -7 -2t-8 -4l-84 -48q33 61 63 91t63 30q15 0 37 -14z" />
    <glyph glyph-name="ograve" unicode="&#xf2;" horiz-adv-x="479" 
d="M271 475q84 0 127.5 -44t43.5 -125q0 -52 -13 -102t-36 -88q-41 -69 -92 -100t-129 -31q-77 0 -119.5 46.5t-42.5 127.5q0 51 11.5 96.5t29.5 78.5q40 72 93.5 106.5t126.5 34.5zM323 342q0 48 -17 73t-46 25q-25 0 -47.5 -21t-39.5 -63q-23 -56 -35 -114.5t-12 -116.5
q0 -51 16.5 -77.5t45.5 -26.5q54 0 88 84q23 55 35 115.5t12 121.5zM314 668l31 -139h-23l-135 139h127z" />
    <glyph glyph-name="oacute" unicode="&#xf3;" horiz-adv-x="479" 
d="M271 475q84 0 127.5 -44t43.5 -125q0 -52 -13 -102t-36 -88q-41 -69 -92 -100t-129 -31q-77 0 -119.5 46.5t-42.5 127.5q0 51 11.5 96.5t29.5 78.5q40 72 93.5 106.5t126.5 34.5zM323 342q0 48 -17 73t-46 25q-25 0 -47.5 -21t-39.5 -63q-23 -56 -35 -114.5t-12 -116.5
q0 -51 16.5 -77.5t45.5 -26.5q54 0 88 84q23 55 35 115.5t12 121.5zM444 668l-243 -139h-27l123 139h147z" />
    <glyph glyph-name="ocircumflex" unicode="&#xf4;" horiz-adv-x="479" 
d="M271 475q84 0 127.5 -44t43.5 -125q0 -52 -13 -102t-36 -88q-41 -69 -92 -100t-129 -31q-77 0 -119.5 46.5t-42.5 127.5q0 51 11.5 96.5t29.5 78.5q40 72 93.5 106.5t126.5 34.5zM323 342q0 48 -17 73t-46 25q-25 0 -47.5 -21t-39.5 -63q-23 -56 -35 -114.5t-12 -116.5
q0 -51 16.5 -77.5t45.5 -26.5q54 0 88 84q23 55 35 115.5t12 121.5zM159 529h-57l193 141l140 -141h-40l-114 50z" />
    <glyph glyph-name="otilde" unicode="&#xf5;" horiz-adv-x="479" 
d="M271 475q84 0 127.5 -44t43.5 -125q0 -52 -13 -102t-36 -88q-41 -69 -92 -100t-129 -31q-77 0 -119.5 46.5t-42.5 127.5q0 51 11.5 96.5t29.5 78.5q40 72 93.5 106.5t126.5 34.5zM323 342q0 48 -17 73t-46 25q-25 0 -47.5 -21t-39.5 -63q-23 -56 -35 -114.5t-12 -116.5
q0 -51 16.5 -77.5t45.5 -26.5q54 0 88 84q23 55 35 115.5t12 121.5zM325 604q4 -2 7.5 -4.5t9.5 -2.5t22 8l83 45q-65 -121 -127 -121q-12 0 -24 3.5t-20 10.5l-47 35q-7 6 -15 6q-4 0 -7 -2t-8 -4l-84 -48q33 61 63 91t63 30q15 0 37 -14z" />
    <glyph glyph-name="odieresis" unicode="&#xf6;" horiz-adv-x="479" 
d="M271 475q84 0 127.5 -44t43.5 -125q0 -52 -13 -102t-36 -88q-41 -69 -92 -100t-129 -31q-77 0 -119.5 46.5t-42.5 127.5q0 51 11.5 96.5t29.5 78.5q40 72 93.5 106.5t126.5 34.5zM323 342q0 48 -17 73t-46 25q-25 0 -47.5 -21t-39.5 -63q-23 -56 -35 -114.5t-12 -116.5
q0 -51 16.5 -77.5t45.5 -26.5q54 0 88 84q23 55 35 115.5t12 121.5zM360 642q22 0 35 -10.5t13 -28.5q0 -26 -15.5 -45t-38.5 -19q-50 0 -50 38q0 27 15.5 46t40.5 19zM201 642q22 0 35 -10.5t13 -28.5q0 -26 -15 -45t-38 -19q-51 0 -51 38q0 27 15.5 46t40.5 19z" />
    <glyph glyph-name="divide" unicode="&#xf7;" horiz-adv-x="833" 
d="M417 551q28 0 47.5 -20t19.5 -48q0 -27 -19 -46.5t-48 -19.5t-48 19t-19 47t20 48t47 20zM709 339v-81h-585v81h585zM417 179q28 0 47.5 -19.5t19.5 -47.5q0 -27 -19 -46.5t-48 -19.5t-48 19t-19 47t20 47.5t47 19.5z" />
    <glyph glyph-name="oslash" unicode="&#xf8;" horiz-adv-x="479" 
d="M421 554l-54 -99q37 -23 56 -60t19 -85q0 -76 -24.5 -142t-70.5 -116q-62 -67 -169 -67q-24 0 -54 6l-49 -89l-38 20l46 84q-73 52 -73 155q0 69 19.5 126.5t55 99.5t84 65t105.5 23q12 0 25 -1t27 -4l57 106zM306 423q-16 21 -43 21q-29 0 -50.5 -21.5t-40.5 -64.5
q-25 -57 -37 -117t-12 -113v-22t2 -18zM146 35q15 -18 40 -18q56 0 92 86q25 58 37.5 119t12.5 113q0 17 -3 33z" />
    <glyph glyph-name="ugrave" unicode="&#xf9;" horiz-adv-x="498" 
d="M148 134q-2 -8 -3.5 -16.5t-1.5 -19.5q0 -9 7.5 -16t21.5 -7q15 0 41.5 10t64.5 32l57 323l116 28l-65 -372q-1 -5 -2 -9.5t-1 -6.5q0 -8 5.5 -10t17.5 -2h30q-37 -37 -67.5 -56.5t-60.5 -19.5q-44 0 -44 41q0 6 1 13.5t3 15.5l8 42q-111 -112 -191 -112
q-30 0 -46.5 15.5t-16.5 43.5q0 11 2.5 22t4.5 24l43 230q2 8 3 14.5t1 12.5q0 17 -8 34t-22 39l165 41zM323 668l31 -139h-23l-135 139h127z" />
    <glyph glyph-name="uacute" unicode="&#xfa;" horiz-adv-x="498" 
d="M148 134q-2 -8 -3.5 -16.5t-1.5 -19.5q0 -9 7.5 -16t21.5 -7q15 0 41.5 10t64.5 32l57 323l116 28l-65 -372q-1 -5 -2 -9.5t-1 -6.5q0 -8 5.5 -10t17.5 -2h30q-37 -37 -67.5 -56.5t-60.5 -19.5q-44 0 -44 41q0 6 1 13.5t3 15.5l8 42q-111 -112 -191 -112
q-30 0 -46.5 15.5t-16.5 43.5q0 11 2.5 22t4.5 24l43 230q2 8 3 14.5t1 12.5q0 17 -8 34t-22 39l165 41zM453 668l-243 -139h-27l123 139h147z" />
    <glyph glyph-name="ucircumflex" unicode="&#xfb;" horiz-adv-x="498" 
d="M148 134q-2 -8 -3.5 -16.5t-1.5 -19.5q0 -9 7.5 -16t21.5 -7q15 0 41.5 10t64.5 32l57 323l116 28l-65 -372q-1 -5 -2 -9.5t-1 -6.5q0 -8 5.5 -10t17.5 -2h30q-37 -37 -67.5 -56.5t-60.5 -19.5q-44 0 -44 41q0 6 1 13.5t3 15.5l8 42q-111 -112 -191 -112
q-30 0 -46.5 15.5t-16.5 43.5q0 11 2.5 22t4.5 24l43 230q2 8 3 14.5t1 12.5q0 17 -8 34t-22 39l165 41zM168 529h-57l193 141l140 -141h-40l-114 50z" />
    <glyph glyph-name="udieresis" unicode="&#xfc;" horiz-adv-x="498" 
d="M148 134q-2 -8 -3.5 -16.5t-1.5 -19.5q0 -9 7.5 -16t21.5 -7q15 0 41.5 10t64.5 32l57 323l116 28l-65 -372q-1 -5 -2 -9.5t-1 -6.5q0 -8 5.5 -10t17.5 -2h30q-37 -37 -67.5 -56.5t-60.5 -19.5q-44 0 -44 41q0 6 1 13.5t3 15.5l8 42q-111 -112 -191 -112
q-30 0 -46.5 15.5t-16.5 43.5q0 11 2.5 22t4.5 24l43 230q2 8 3 14.5t1 12.5q0 17 -8 34t-22 39l165 41zM369 642q22 0 35 -10.5t13 -28.5q0 -26 -15.5 -45t-38.5 -19q-50 0 -50 38q0 27 15.5 46t40.5 19zM210 642q22 0 35 -10.5t13 -28.5q0 -26 -15 -45t-38 -19
q-51 0 -51 38q0 27 15.5 46t40.5 19z" />
    <glyph glyph-name="yacute" unicode="&#xfd;" horiz-adv-x="407" 
d="M194 123l95 204q8 16 8 34q0 11 -2.5 20.5t-5.5 14.5l-29 50q62 22 95 22q23 0 37 -11t14 -26q0 -18 -9 -35.5t-22 -39.5l-272 -473q-49 -87 -121 -87q-38 0 -77 15l21 122l54 -51q14 -14 31 -14q12 0 24.5 8.5t21.5 24.5l56 100l-56 332q-4 22 -8.5 37t-12.5 23l-36 35
l151 40zM408 668l-243 -139h-27l123 139h147z" />
    <glyph glyph-name="thorn" unicode="&#xfe;" horiz-adv-x="484" 
d="M182 362q49 51 86.5 78.5t80.5 27.5q94 0 94 -147q0 -66 -20.5 -129t-52.5 -107q-35 -48 -76.5 -71t-86.5 -23t-87 24l-24 -134q-1 -6 -1.5 -12.5t-0.5 -13.5q0 -17 29 -61h-193q28 33 42 58t20 59l115 647q2 8 4 18t2 23q0 15 -9 32.5t-26 40.5l168 36zM126 59
q14 -5 27 -7.5t25 -2.5q33 0 58 17.5t45 53.5q11 19 19.5 42.5t15.5 49t10.5 51t3.5 48.5q0 75 -56 75q-19 0 -41.5 -10.5t-52.5 -29.5z" />
    <glyph glyph-name="ydieresis" unicode="&#xff;" horiz-adv-x="407" 
d="M194 123l95 204q8 16 8 34q0 11 -2.5 20.5t-5.5 14.5l-29 50q62 22 95 22q23 0 37 -11t14 -26q0 -18 -9 -35.5t-22 -39.5l-272 -473q-49 -87 -121 -87q-38 0 -77 15l21 122l54 -51q14 -14 31 -14q12 0 24.5 8.5t21.5 24.5l56 100l-56 332q-4 22 -8.5 37t-12.5 23l-36 35
l151 40zM324 642q22 0 35 -10.5t13 -28.5q0 -26 -15.5 -45t-38.5 -19q-50 0 -50 38q0 27 15.5 46t40.5 19zM165 642q22 0 35 -10.5t13 -28.5q0 -26 -15 -45t-38 -19q-51 0 -51 38q0 27 15.5 46t40.5 19z" />
    <glyph glyph-name="dotlessi" unicode="&#x131;" horiz-adv-x="252" 
d="M138 100q-3 -13 -3 -19q0 -15 20 -15h33q-30 -37 -62.5 -55t-64.5 -18q-44 0 -44 38q0 4 1 11t3 17l49 257q2 9 4 19t2 22q0 14 -8.5 31t-21.5 41l167 37z" />
    <glyph glyph-name="Lslash" unicode="&#x141;" horiz-adv-x="433" 
d="M312 655q-34 -36 -43.5 -66t-14.5 -56l-20 -123l96 61l22 -40l-128 -80l-51 -305h68q24 0 45.5 7.5t43.5 22t47 35.5t55 48l-41 -159h-383q29 26 42.5 54.5t19.5 63.5l28 157l-75 -46l-19 40l103 62l38 234q1 7 1.5 12t0.5 7q0 16 -8.5 32t-22.5 39h196z" />
    <glyph glyph-name="lslash" unicode="&#x142;" horiz-adv-x="252" 
d="M203 445l69 45l20 -33l-98 -62l-54 -295q-3 -16 -3 -19q0 -15 20 -15h33q-30 -37 -62.5 -55t-64.5 -18q-44 0 -44 38q0 4 1 11t3 17l46 255l-50 -31l-17 33l76 50l34 192q2 9 4 19t2 22q0 9 -3.5 18.5t-8.5 18.5l-23 36l168 36z" />
    <glyph glyph-name="OE" unicode="&#x152;" horiz-adv-x="803" 
d="M458 655h349l-20 -124q-25 17 -43.5 32t-34 26t-29 17.5t-27.5 6.5h-85l-43 -261h62q29 0 58 17t70 44l-31 -172q-35 31 -58.5 49t-41.5 18h-67l-44 -265h74q24 0 46 8t45.5 22.5t49.5 35.5t58 47l-50 -156h-347l3 16q-55 -28 -112 -28q-106 0 -163.5 64.5t-57.5 182.5
q0 90 28 173.5t74 141.5q45 57 100.5 86.5t117.5 29.5q70 0 116 -30zM436 512q-11 53 -38 81.5t-64 28.5q-70 0 -119 -86q-15 -27 -29 -63t-24.5 -78t-16.5 -88t-6 -93q0 -180 111 -180q38 0 65.5 22.5t55.5 68.5z" />
    <glyph glyph-name="oe" unicode="&#x153;" horiz-adv-x="694" 
d="M404 404q27 32 61 47t80 15q59 0 91.5 -25.5t32.5 -67.5q0 -63 -50.5 -96.5t-147.5 -33.5h-51q-6 -37 -6 -70q0 -56 15.5 -79t56.5 -23q35 0 74.5 14t83.5 40q-49 -66 -107.5 -100t-107.5 -34q-66 0 -101 59q-33 -31 -68.5 -45t-79.5 -14q-169 0 -169 178q0 65 19 120
t53 95.5t80 63.5t101 23q46 0 78.5 -15.5t61.5 -51.5zM258 436q-23 0 -45 -18t-39 -53q-22 -46 -35.5 -110t-13.5 -128q0 -103 60 -103q33 0 56.5 23t41.5 72q18 50 28.5 108.5t10.5 107.5q0 101 -64 101zM424 269q63 4 96.5 36t33.5 83q0 19 -10 30t-27 11q-29 0 -53.5 -40
t-39.5 -120z" />
    <glyph glyph-name="Scaron" unicode="&#x160;" horiz-adv-x="463" 
d="M431 516q-53 48 -88 74t-67 26q-21 0 -39.5 -8t-33 -22.5t-23 -33.5t-8.5 -41q0 -27 18.5 -50t52.5 -52q33 -28 61 -52.5t49 -48.5t33 -50.5t12 -59.5q0 -42 -16.5 -79.5t-47 -66t-74 -45.5t-97.5 -17q-67 0 -173 26l26 132q53 -53 87.5 -82.5t67.5 -29.5q24 0 45 9.5
t36.5 26t24.5 39t9 49.5q0 22 -9.5 40t-26 36t-38.5 37.5t-48 43.5q-22 20 -39 37.5t-28.5 35.5t-17.5 38.5t-6 46.5q0 85 56.5 136t158.5 51q78 0 165 -25zM187 859l114 -49l122 49h56l-192 -141l-140 141h40z" />
    <glyph glyph-name="scaron" unicode="&#x161;" horiz-adv-x="359" 
d="M319 341q-46 38 -71.5 62t-51.5 24q-24 0 -39 -16.5t-15 -44.5q0 -32 26 -55l78 -66q26 -22 38 -45t12 -57q0 -69 -46.5 -111t-126.5 -42q-72 0 -136 23l21 110q45 -41 71.5 -65.5t52.5 -24.5q27 0 45.5 19.5t18.5 48.5q0 20 -10.5 35.5t-31.5 34.5l-67 60
q-24 22 -35.5 44t-11.5 50q0 65 49.5 105t138.5 40q69 0 113 -16zM110 670l114 -49l122 49h56l-192 -141l-140 141h40z" />
    <glyph glyph-name="Ydieresis" unicode="&#x178;" horiz-adv-x="507" 
d="M207 655q-24 -30 -24 -43q0 -10 6 -28l86 -265l179 276q6 9 6 18q0 17 -24 42h175q-26 -20 -51 -40t-48 -51l-216 -298l-27 -169q-3 -13 -3 -30q0 -27 28 -67h-201q50 55 58 103l27 162l-103 307q-13 40 -58 83h190zM399 831q22 0 35 -10.5t13 -28.5q0 -26 -15.5 -45
t-38.5 -19q-50 0 -50 38q0 27 15.5 46t40.5 19zM240 831q22 0 35 -10.5t13 -28.5q0 -26 -15 -45t-38 -19q-51 0 -51 38q0 27 15.5 46t40.5 19z" />
    <glyph glyph-name="Zcaron" unicode="&#x17d;" horiz-adv-x="505" 
d="M543 655l-415 -611h138q30 0 74 26.5t110 74.5l-43 -145h-439l419 611h-135q-27 0 -69 -23.5t-103 -66.5l22 134h441zM208 859l114 -49l122 49h56l-192 -141l-140 141h40z" />
    <glyph glyph-name="zcaron" unicode="&#x17e;" horiz-adv-x="428" 
d="M420 463l-324 -385q12 3 24 5t23 2l109 2q20 0 34.5 2.5t28.5 12.5l63 45q-14 -57 -28 -89.5t-22 -40.5q-13 -14 -34.5 -16.5t-55.5 -2.5q-13 0 -28.5 0.5t-35.5 1.5l-84 2l-52.5 1.5t-18.5 0.5q-13 0 -26.5 -1.5t-27.5 -3.5l319 377h-127q-16 0 -27 -2.5t-19 -10.5
l-62 -59l27 159h344zM144 670l114 -49l122 49h56l-192 -141l-140 141h40z" />
    <glyph glyph-name="florin" unicode="&#x192;" 
d="M484 593q-43 29 -68.5 46.5t-39.5 17.5q-43 0 -59 -46.5t-26 -144.5h125l-4 -47h-126l-47 -368q-8 -65 -24 -113.5t-42.5 -81t-65.5 -48.5t-94 -16q-15 0 -29.5 1t-28.5 5l14 107q38 -28 59 -44.5t34 -16.5q35 0 49.5 38.5t22.5 110.5l48 426h-89l4 47h90
q6 118 66.5 179.5t167.5 61.5q17 0 36.5 -1.5t41.5 -5.5z" />
    <glyph glyph-name="circumflex" unicode="&#x2c6;" 
d="M169 529h-57l193 141l140 -141h-40l-114 50z" />
    <glyph glyph-name="caron" unicode="&#x2c7;" 
d="M180 670l114 -49l122 49h56l-192 -141l-140 141h40z" />
    <glyph glyph-name="breve" unicode="&#x2d8;" 
d="M448 664q-58 -139 -179 -139q-54 0 -85.5 31.5t-34.5 90.5q37 -51 113 -51q103 0 186 68z" />
    <glyph glyph-name="dotaccent" unicode="&#x2d9;" 
d="M293 641q22 0 35 -10.5t13 -28.5q0 -26 -15 -45t-38 -19q-51 0 -51 38q0 27 15.5 46t40.5 19z" />
    <glyph glyph-name="ring" unicode="&#x2da;" 
d="M287 739q24 0 45.5 -9t37 -25t24.5 -37t9 -45t-9 -45.5t-24.5 -37t-36.5 -24.5t-46 -9q-24 0 -45 9t-36.5 24.5t-24.5 36.5t-9 46q0 24 9 45t25 37t36.5 25t44.5 9zM287 684q-25 0 -42.5 -17.5t-17.5 -43.5t17 -43.5t43 -17.5q25 0 43.5 18t18.5 43t-18.5 43t-43.5 18z
" />
    <glyph glyph-name="ogonek" unicode="&#x2db;" 
d="M242 0q-49 -48 -49 -104q0 -49 39 -91q-63 12 -95.5 38.5t-32.5 62.5q0 35 27 59.5t81 34.5h30z" />
    <glyph glyph-name="tilde" unicode="&#x2dc;" 
d="M335 604q4 -2 7.5 -4.5t9.5 -2.5t22 8l83 45q-65 -121 -127 -121q-12 0 -24 3.5t-20 10.5l-47 35q-7 6 -15 6q-4 0 -7 -2t-8 -4l-84 -48q33 61 63 91t63 30q15 0 37 -14z" />
    <glyph glyph-name="hungarumlaut" unicode="&#x2dd;" 
d="M511 652l-191 -123h-20l97 123h114zM354 652l-188 -123h-22l96 123h114z" />
    <glyph glyph-name="endash" unicode="&#x2013;" 
d="M478 263l-12 -76h-489l12 76h489z" />
    <glyph glyph-name="emdash" unicode="&#x2014;" horiz-adv-x="1000" 
d="M977 263l-12 -76h-988l12 76h988z" />
    <glyph glyph-name="quoteleft" unicode="&#x2018;" horiz-adv-x="215" 
d="M212 664q-59 -66 -71 -120h3q43 0 43 -42q0 -33 -18 -52t-50 -19q-57 0 -57 63q0 31 11.5 60.5t31.5 53t47.5 39t59.5 17.5z" />
    <glyph glyph-name="quoteright" unicode="&#x2019;" horiz-adv-x="215" 
d="M68 431q60 68 72 120h-3q-44 0 -44 42q0 32 18 51.5t47 19.5q60 0 60 -59q0 -33 -11.5 -63.5t-31.5 -54.5t-47.5 -39t-59.5 -17z" />
    <glyph glyph-name="quotesinglbase" unicode="&#x201a;" horiz-adv-x="215" 
d="M-25 -120q59 65 71 120h-3q-43 0 -43 42q0 32 17.5 52t46.5 20q60 0 60 -60q0 -33 -11 -63.5t-31 -54.5t-47.5 -39t-59.5 -17z" />
    <glyph glyph-name="quotedblleft" unicode="&#x201c;" horiz-adv-x="398" 
d="M217 664q-59 -66 -71 -120h3q43 0 43 -42q0 -33 -18 -52t-50 -19q-57 0 -57 63q0 30 11 59.5t31 53.5t47.5 39.5t60.5 17.5zM406 664q-60 -67 -72 -120h3q44 0 44 -42q0 -33 -18.5 -52t-50.5 -19q-56 0 -56 63q0 31 11.5 60.5t31.5 53t47.5 39t59.5 17.5z" />
    <glyph glyph-name="quotedblright" unicode="&#x201d;" horiz-adv-x="398" 
d="M64 431q59 67 71 120h-3q-44 0 -44 42q0 32 18 51.5t47 19.5q60 0 60 -59q0 -33 -11 -63.5t-31 -54.5t-47.5 -39t-59.5 -17zM252 431q60 68 72 120h-3q-44 0 -44 42q0 32 18 51.5t47 19.5q60 0 60 -59q0 -33 -11.5 -63.5t-31.5 -54.5t-47.5 -39t-59.5 -17z" />
    <glyph glyph-name="quotedblbase" unicode="&#x201e;" horiz-adv-x="398" 
d="M-32 -120q60 66 72 120h-3q-44 0 -44 42q0 32 18 51.5t47 19.5q60 0 60 -59q0 -33 -11.5 -63.5t-31.5 -54.5t-47.5 -39t-59.5 -17zM157 -120q59 65 71 120h-3q-44 0 -44 42q0 32 18 51.5t47 19.5q60 0 60 -59q0 -33 -11 -63.5t-31 -54.5t-47.5 -39t-59.5 -17z" />
    <glyph glyph-name="dagger" unicode="&#x2020;" horiz-adv-x="387" 
d="M327 708l-86 -206l173 40l-18 -90l-157 36q0 -5 -0.5 -9t-0.5 -9q0 -26 6.5 -51t20.5 -48q-52 -304 -152 -515q-4 34 -6 65.5t-2 60.5q0 66 9.5 162.5t29.5 225.5q22 15 40.5 44t30.5 73l-168 -35l14 90l157 -39l-8 205h117z" />
    <glyph glyph-name="daggerdbl" unicode="&#x2021;" horiz-adv-x="394" 
d="M327 708l-86 -206l173 40l-18 -90l-157 36q2 -47 5 -98t8 -108q-35 -70 -56.5 -121.5t-30.5 -83.5l168 35l-14 -90l-157 39l8 -205h-117l86 206l-173 -40l18 91l157 -36q-2 35 -5 86.5t-9 119.5q60 113 88 204l-168 -35l14 90l157 -39l-8 205h117z" />
    <glyph glyph-name="bullet" unicode="&#x2022;" horiz-adv-x="590" 
d="M150 372q0 30 11.5 56.5t31 46t46 30.5t56.5 11t56 -11t45.5 -30.5t31 -46t11.5 -56.5t-11.5 -56t-31 -46t-46 -31.5t-56.5 -11.5t-56 11.5t-45.5 31t-31 46t-11.5 56.5z" />
    <glyph glyph-name="ellipsis" unicode="&#x2026;" horiz-adv-x="1000" 
d="M129 115q59 0 59 -49q0 -74 -71 -74q-54 0 -54 53q0 32 18 51t48 19zM462 115q59 0 59 -49q0 -74 -71 -74q-54 0 -54 53q0 32 18 51t48 19zM796 115q59 0 59 -49q0 -74 -71 -74q-54 0 -54 53q0 32 18 51t48 19z" />
    <glyph glyph-name="perthousand" unicode="&#x2030;" horiz-adv-x="880" 
d="M9 460q0 46 13.5 84t37.5 65t57.5 41.5t73.5 14.5q52 0 81 -30.5t29 -83.5q0 -38 -14 -76t-37 -67q-25 -31 -56 -43.5t-76 -12.5q-51 0 -80 28.5t-29 79.5zM176 634q-17 0 -32 -13.5t-26 -38.5t-17.5 -59.5t-6.5 -76.5q0 -60 40 -60q17 0 31.5 14t25.5 38.5t17.5 59
t6.5 76.5q0 60 -39 60zM494 581l-424 -529l-27 24l425 531zM236 90q0 46 13 83.5t37 64.5t57.5 41.5t73.5 14.5q52 0 81.5 -30t29.5 -83q0 -38 -14 -76.5t-37 -67.5q-25 -31 -56 -43.5t-76 -12.5q-51 0 -80 29t-29 80zM564 90q0 46 13.5 83.5t37.5 64.5t57.5 41.5t73.5 14.5
q52 0 81.5 -30t29.5 -83q0 -38 -14 -76.5t-37 -67.5q-25 -31 -56.5 -43.5t-76.5 -12.5q-51 0 -80 29t-29 80zM403 264q-17 0 -32 -13.5t-26 -38.5t-17.5 -59.5t-6.5 -76.5q0 -60 40 -60q17 0 31.5 14t25.5 38.5t17 59t6 76.5q0 60 -38 60zM731 264q-17 0 -32 -13.5
t-26 -38.5t-17 -59.5t-6 -76.5q0 -60 40 -60q17 0 31.5 14t25.5 38.5t17 59t6 76.5q0 60 -39 60z" />
    <glyph glyph-name="guilsinglleft" unicode="&#x2039;" horiz-adv-x="255" 
d="M233 426l-129 -187l61 -188h-57l-87 189l148 186h64z" />
    <glyph glyph-name="guilsinglright" unicode="&#x203a;" horiz-adv-x="255" 
d="M110 426l87 -189l-147 -186h-64l128 187l-61 188h57z" />
    <glyph glyph-name="fraction" unicode="&#x2044;" horiz-adv-x="167" 
d="M287 610l-370 -572l-30 20l368 569z" />
    <glyph glyph-name="trademark" unicode="&#x2122;" horiz-adv-x="833" 
d="M338 713v-46h-82v-219h-63v219h-83v46h228zM478 713l69 -176l65 176h83v-265h-56v209l-78 -209h-29l-81 209v-209h-56v265h83z" />
    <glyph glyph-name="minus" unicode="&#x2212;" horiz-adv-x="833" 
d="M709 340v-83h-585v83h585z" />
    <glyph glyph-name="fi" unicode="&#xfb01;" 
d="M209 458h185q18 0 34 2t30 7l-70 -367q-3 -15 -3 -18q0 -10 6.5 -13t21.5 -3h22q-34 -38 -66 -56.5t-55 -18.5q-48 0 -48 46q0 7 2.5 16t4.5 22l60 310q1 5 1.5 9t0.5 6q0 14 -9 17.5t-32 3.5h-93l-52 -314q-26 -158 -76.5 -236t-137.5 -78q-58 0 -101 22l18 106l66 -67
q8 -8 14.5 -12.5t15.5 -4.5q42 0 62 113l81 471h-65l8 37h63l12 81q14 91 72 130.5t170 39.5q76 0 112 -12t36 -42q0 -27 -18 -45.5t-44 -18.5q-34 0 -67 34q-15 16 -25 29t-30 13q-42 0 -62 -27.5t-29 -83.5z" />
    <glyph glyph-name="fl" unicode="&#xfb02;" 
d="M501 709l-111 -609q-3 -16 -3 -19q0 -15 20 -15h33q-30 -37 -62.5 -55t-64.5 -18q-44 0 -44 38q0 4 1 10.5t3 17.5l89 499q3 14 5 26.5t2 26.5q0 26 -15.5 41t-40.5 15q-40 0 -60 -27.5t-29 -83.5l-15 -98h92l-7 -37h-93l-52 -314q-26 -158 -76.5 -236t-137.5 -78
q-58 0 -101 22l18 106l67 -67q8 -8 14 -12.5t15 -4.5q42 0 62 113l81 471h-64l7 37h63l12 81q14 90 71.5 130t169.5 40q32 0 58 -3.5t48 -6.5z" />
  </font>
</defs>
</svg>
