<?xml version="1.0" encoding="UTF-8" standalone="no"?>
<svg width="58px" height="58px" viewBox="0 0 70 70" version="1.1" xmlns="http://www.w3.org/2000/svg" xmlns:xlink="http://www.w3.org/1999/xlink">
    <!-- Generator: Sketch 41.2 (35397) - http://www.bohemiancoding.com/sketch -->
    <title>close</title>
    <desc>Created with Sketch.</desc>
    <defs></defs>
    <g id="Page-1" stroke="none" stroke-width="1" fill="none" fill-rule="evenodd">
        <g id="contact-mb" transform="translate(-285.000000, -2105.000000)" fill="#FFFFFF">
            <g id="2--start-a-project" transform="translate(-2.000000, 762.000000)">
                <g id="Group-2" transform="translate(287.000000, 1343.000000)">
                    <g id="Group-Copy-3">
                        <g id="contact-copy">
                            <path d="M35,70 C54.3299662,70 70,54.3299662 70,35 C70,15.6700338 54.3299662,0 35,0 C15.6700338,0 0,15.6700338 0,35 C0,54.3299662 15.6700338,70 35,70 Z M32.8790663,35 L23.4398613,44.439205 C22.8533796,45.0256867 22.8533796,45.9736571 23.4398613,46.5601387 C23.7323521,46.8526296 24.1163401,46.999625 24.5003281,46.999625 C24.8843161,46.999625 25.2683041,46.8526296 25.560795,46.5601387 L35,37.1209337 L44.439205,46.5601387 C44.7316959,46.8526296 45.1156839,46.999625 45.4996719,46.999625 C45.8836599,46.999625 46.2676479,46.8526296 46.5601387,46.5601387 C47.1466204,45.9736571 47.1466204,45.0256867 46.5601387,44.439205 L37.1209337,35 L46.5601387,25.560795 C47.1466204,24.9743133 47.1466204,24.024843 46.5601387,23.4398613 C45.9736571,22.8533796 45.0256867,22.8533796 44.439205,23.4398613 L35,32.8790663 L25.560795,23.4398613 C24.9743133,22.8533796 24.0263429,22.8533796 23.4398613,23.4398613 C22.8533796,24.024843 22.8533796,24.9743133 23.4398613,25.560795 L32.8790663,35 Z" id="Combined-Shape"></path>
                        </g>
                    </g>
                </g>
            </g>
        </g>
    </g>
</svg>
