<?xml version="1.0" encoding="UTF-8"?>
<svg width="564px" height="564px" viewBox="0 0 564 564" version="1.1" xmlns="http://www.w3.org/2000/svg" xmlns:xlink="http://www.w3.org/1999/xlink">
    <!-- Generator: Sketch 44.1 (41455) - http://www.bohemiancoding.com/sketch -->
    <title>Group 5</title>
    <desc>Created with Sketch.</desc>
    <defs>
        <rect id="path-1" x="-3.41060493e-14" y="0" width="564" height="564"></rect>
    </defs>
    <g id="Awards" stroke="none" stroke-width="1" fill="none" fill-rule="evenodd">
        <g id="Group-5">
            <mask id="mask-2" fill="white">
                <use xlink:href="#path-1"></use>
            </mask>
            <use id="Mask" fill="#D9CD34" xlink:href="#path-1"></use>
            <g id="Group-8" mask="url(#mask-2)">
                <g transform="translate(118.000000, 255.000000)">
                    <g id="awwwards-website-logo" opacity="0.553534975" stroke-width="1" fill-rule="evenodd">
                        <g id="Capa_1" fill="#FFFFFF">
                            <g id="Group">
                                <g id="Shape">
                                    <path d="M200.274092,29.1797015 L186.932352,29.1797015 L183.726404,39.0113433 L176.602403,39.0113433 L189.993867,0.659104478 L197.216129,0.659104478 L210.61292,39.0113433 L203.480633,39.0113433 L200.274092,29.1797015 L200.274092,29.1797015 Z M193.575697,7.30626866 C193.575697,7.30626866 192.716792,11.0895522 191.971539,13.2453731 L188.599848,23.5038806 L198.55569,23.5038806 L195.179263,13.2453731 C194.481365,11.08 193.68343,7.30626866 193.68343,7.30626866 L193.575697,7.30626866 L193.575697,7.30626866 Z"></path>
                                    <path d="M220.839871,0.666865672 L233.102505,0.666865672 C237.224776,0.666865672 239.100043,0.987462687 240.753924,1.75283582 C244.561283,3.47164179 246.968704,7.15402985 246.968704,12.2292537 C246.968704,16.8208955 244.559508,21.080597 240.542009,22.7164179 L240.542009,22.8250746 C240.542009,22.8250746 241.075939,23.360597 241.830663,24.7170149 L249.650193,39.0268657 L241.941356,39.0268657 L234.388791,24.7146269 L227.741894,24.7146269 L227.741894,39.0226866 L220.836912,39.0226866 L220.836912,0.662686567 L220.841055,0.662686567 L220.841055,0.666865672 L220.839871,0.666865672 L220.839871,0.666865672 Z M233.956083,18.6525373 C237.649789,18.6525373 239.950661,16.438806 239.950661,12.6035821 C239.950661,8.93253731 238.401554,6.66447761 232.991812,6.66447761 L227.74071,6.66447761 L227.74071,18.6579104 L233.956083,18.6525373 L233.956083,18.6525373 L233.956083,18.6525373 Z"></path>
                                    <path d="M261.436907,0.666865672 L274.400398,0.666865672 C286.127917,0.666865672 293.781112,7.68776119 293.781112,19.7820896 C293.781112,31.8925373 286.129693,39.0095522 274.400398,39.0095522 L261.436907,39.0095522 L261.436907,0.666865672 L261.436907,0.666865672 Z M274.025108,33.0179104 C281.738089,33.0179104 286.657112,28.4292537 286.657112,19.7826866 C286.657112,11.2567164 281.617925,6.66089552 274.025108,6.66089552 L268.344257,6.66089552 L268.344257,33.0179104 L274.025108,33.0179104 L274.025108,33.0179104 L274.025108,33.0179104 Z"></path>
                                    <path d="M306.16391,29.1797015 C306.16391,29.1797015 310.287365,33.2316418 315.641464,33.2316418 C318.5325,33.2316418 321.160715,31.7247761 321.160715,28.5922388 C321.160715,21.7223881 303.216639,22.9098507 303.216639,11.1414925 C303.216639,4.76238806 308.677288,0.0149253731 315.96052,0.0149253731 C323.461587,0.0149253731 327.314525,4.12 327.314525,4.12 L324.312797,9.79522388 C324.312797,9.79522388 320.661709,6.44835821 315.896591,6.44835821 C312.693602,6.44835821 310.167201,8.33970149 310.167201,11.04 C310.167201,17.8501493 328.050307,16.1713433 328.050307,28.438806 C328.050307,34.5408955 323.448564,39.6704478 315.520117,39.6704478 C307.060699,39.6704478 302.403313,34.4376119 302.403313,34.4376119 L306.16391,29.1797015 L306.16391,29.1797015 Z"></path>
                                    <path d="M122.332732,0.666865672 L116.064678,27.1970149 C115.585206,29.3552239 115.425382,31.2423881 115.425382,31.2423881 L115.315281,31.2423881 C115.259047,31.2423881 115.20518,29.4065672 114.618568,27.1970149 L107.871633,0.666865672 L101.874687,0.666865672 L95.0217948,27.1970149 C94.4298546,29.401194 94.3801317,31.2423881 94.3250812,31.2423881 L94.218532,31.2423881 C94.218532,31.2423881 94.050421,29.3522388 93.5780527,27.1970149 L89.089962,7.33134328 L85.7170866,21.8125373 L89.9849756,39.0113433 L97.9649216,39.0113433 L103.803228,16.3301493 C104.445483,13.8441791 104.769866,11.3074627 104.769866,11.3074627 L104.871088,11.3074627 C104.871088,11.3074627 105.19192,13.8447761 105.83891,16.3301493 L111.683728,39.0113433 L119.657755,39.0113433 L129.466204,0.659104478 L122.332732,0.666865672 L122.332732,0.666865672 L122.332732,0.666865672 Z"></path>
                                    <path d="M165.235375,0.666865672 L158.964953,27.1970149 C158.486665,29.3552239 158.325657,31.2423881 158.325657,31.2423881 L158.213189,31.2423881 C158.164649,31.2423881 158.113151,29.4065672 157.52417,27.1970149 L150.770724,0.666865672 L144.779105,0.666865672 L137.924438,27.1970149 C137.330722,29.401194 137.283366,31.2423881 137.228316,31.2423881 L137.118215,31.2423881 C137.118215,31.2423881 136.957799,29.3522388 136.477736,27.1970149 L131.962416,7.23940299 L128.589541,21.721791 L132.890578,39.0149254 L140.866973,39.0149254 L146.702319,16.3325373 C147.343982,13.8465672 147.671325,11.3104478 147.671325,11.3104478 L147.777875,11.3104478 C147.777875,11.3104478 148.099298,13.8465672 148.742145,16.3325373 L154.584003,39.0149254 L162.560989,39.0149254 L172.368255,0.666865672 L165.235375,0.666865672 L165.235375,0.666865672 L165.235375,0.666865672 Z"></path>
                                    <path d="M23.6758328,29.1797015 L10.3382358,29.1797015 L7.1257763,39.0113433 L0,39.0113433 L13.3902796,0.666865672 L20.6231971,0.666865672 L34.0117008,39.0113433 L26.8865165,39.0113433 L23.6758328,29.1797015 L23.6758328,29.1797015 Z M16.980397,7.30626866 C16.980397,7.30626866 16.1197159,11.0895522 15.3738712,13.2453731 L11.9992201,23.5038806 L21.960982,23.5038806 L18.5810033,13.2495522 C17.8884333,11.0865672 17.0816188,7.30626866 17.0816188,7.30626866 L16.980397,7.30626866 L16.980397,7.30626866 L16.980397,7.30626866 Z"></path>
                                    <path d="M71.7188844,27.1916418 C72.3066811,29.401791 72.3575879,31.239403 72.4102706,31.239403 L72.5185957,31.239403 C72.5185957,31.239403 72.683155,29.3444776 73.1602588,27.1916418 L79.426538,0.659104478 L86.5511304,0.659104478 L76.7462327,39.0113433 L68.7698383,39.0113433 L62.9344916,16.3271642 C62.2940123,13.8429851 61.9654855,11.3056716 61.9654855,11.3056716 L61.8589363,11.3056716 C61.8589363,11.3056716 61.5416563,13.8429851 60.8946657,16.3271642 L55.0551755,39.0095522 L47.0752294,39.0095522 L37.5438081,0.666865672 L44.6678086,0.666865672 L50.6683065,27.1970149 C51.1513297,29.3552239 51.3111536,31.2423881 51.3111536,31.2423881 L51.4188867,31.2423881 C51.4763049,31.2423881 51.5201085,29.4065672 52.1156003,27.1970149 L58.97086,0.666865672 L64.9595191,0.666865672 L71.7188844,27.1916418 L71.7188844,27.1916418 Z"></path>
                                </g>
                            </g>
                        </g>
                    </g>
                    <text id="ECOMMERCE-SITE-OF-TH" opacity="0.790364583" font-family="Avenir-Heavy, Avenir" font-size="10" font-weight="600" letter-spacing="2">
                        <tspan x="27.62" y="84" fill="#FFFFFF">ECOMMERCE SITE OF THE YEAR FINALIST</tspan>
                    </text>
                </g>
            </g>
        </g>
    </g>
</svg>